<?xml version="1.0" standalone="no"?>
<!DOCTYPE svg PUBLIC "-//W3C//DTD SVG 1.1//EN" "http://www.w3.org/Graphics/SVG/1.1/DTD/svg11.dtd" >
<svg xmlns="http://www.w3.org/2000/svg" xmlns:xlink="http://www.w3.org/1999/xlink" version="1.1">
<metadata>
Created by FontForge 20170731 at Sat Sep 12 15:48:50 2020
 By Aleksey,,,
</metadata>
<defs>
<font id="Benzin-Bold" horiz-adv-x="797" >
  <font-face 
    font-family="Benzin-Bold"
    font-weight="400"
    font-stretch="normal"
    units-per-em="1000"
    panose-1="0 0 8 0 0 0 0 0 0 0"
    ascent="770"
    descent="-230"
    x-height="545"
    cap-height="740"
    bbox="-591 -280 2024 1097"
    underline-thickness="50"
    underline-position="-150"
    unicode-range="U+0020-25CA"
  />
<missing-glyph horiz-adv-x="550" 
d="M102 910h349v-1100h-349v1100zM366 800v36h-181v-36h71v-41h-72v-36h182v36h-72v41h72zM294 617v77h-110v-114h182v37h-72zM220 657h36v-40h-36v40zM366 514v36h-182v-36h72v-41h-72v-36h110v77h72zM366 374v110h-36v-72h-146v-38h182zM366 226v124h-110v-61h38v25h36
v-52h-110v88h-36v-124h182zM366 36v124h-182v-124h182zM220 124h110v-52h-110v52zM366 -26v36h-182v-36h77l-77 -52v-36h182v36h-112l77 52h35z" />
    <glyph glyph-name=".notdef" horiz-adv-x="550" 
d="M102 910h349v-1100h-349v1100zM366 800v36h-181v-36h71v-41h-72v-36h182v36h-72v41h72zM294 617v77h-110v-114h182v37h-72zM220 657h36v-40h-36v40zM366 514v36h-182v-36h72v-41h-72v-36h110v77h72zM366 374v110h-36v-72h-146v-38h182zM366 226v124h-110v-61h38v25h36
v-52h-110v88h-36v-124h182zM366 36v124h-182v-124h182zM220 124h110v-52h-110v52zM366 -26v36h-182v-36h77l-77 -52v-36h182v36h-112l77 52h35z" />
    <glyph glyph-name=".null" horiz-adv-x="0" 
 />
    <glyph glyph-name="nonmarkingreturn" horiz-adv-x="333" 
 />
    <glyph glyph-name="space" unicode=" " horiz-adv-x="313" 
 />
    <glyph glyph-name="exclam" unicode="!" horiz-adv-x="330" 
d="M104 230l-68 510h258l-68 -510h-122zM57 185v-185h216v185h-216z" />
    <glyph glyph-name="quotedbl" unicode="&#x22;" horiz-adv-x="556" 
d="M35 740l50 -330h119l50 330h-219zM302 740l50 -330h119l50 330h-219z" />
    <glyph glyph-name="numbersign" unicode="#" horiz-adv-x="817" 
d="M781 535l-32 -112h-116l-34 -121h118l-33 -112h-117l-53 -190h-144l53 190h-147l-53 -190h-144l53 190h-118l32 112h118l34 121h-119l32 112h118l58 205h144l-58 -205h147l58 205h144l-58 -205h117zM308 302h147l34 121h-147z" />
    <glyph glyph-name="dollar" unicode="$" horiz-adv-x="956" 
d="M537 440h41q100 0 174.5 -13.5t124.5 -57t50 -128.5q0 -140 -115.5 -197.5t-274.5 -65.5v-114h-119v115q-159 9 -278 67.5t-119 197.5l255 1q0 -91 142 -104v161q-115 -1 -197.5 11t-141 58t-58.5 140q0 235 397 250v114h119v-114q157 -8 273.5 -66t116.5 -200h-251
q0 44 -41.5 66.5t-97.5 30.5v-152zM418 441v153q-58 -6 -100.5 -24.5t-42.5 -55.5q0 -62 143 -73zM537 300v-158q62 7 101 30t39 65v1q0 56 -140 62z" />
    <glyph glyph-name="percent" unicode="%" horiz-adv-x="860" 
d="M210 0h-190l650 700h190zM164 397.5q-37 21.5 -58.5 58.5t-21.5 80t21.5 80t58.5 58.5t80 21.5t80 -21.5t58.5 -58.5t21.5 -80t-21.5 -80t-58.5 -58.5t-80 -21.5t-80 21.5zM284.5 495q16.5 17 16.5 41t-16.5 41t-40.5 17t-40.5 -17t-16.5 -41t16.5 -41t40.5 -17t40.5 17z
M556 27.5q-37 21.5 -58.5 58.5t-21.5 80t21.5 80t58.5 58.5t80 21.5t80 -21.5t58.5 -58.5t21.5 -80t-21.5 -80t-58.5 -58.5t-80 -21.5t-80 21.5zM676 126q17 17 17 40q0 24 -17 40.5t-40 16.5t-40 -17t-17 -40t17 -40t40 -17t40 17z" />
    <glyph glyph-name="ampersand" unicode="&#x26;" horiz-adv-x="1027" 
d="M1026 0h-252l-46 34q-61 -22 -127 -33t-128 -11q-193 0 -330.5 51t-137.5 173q0 71 62 109.5t176 66.5q-8 6 -49 37t-62.5 64t-21.5 66q0 72 54 117.5t135.5 65.5t168.5 20q105 0 179 -28t111 -72t37 -92q0 -52 -37 -89.5t-93 -62.5t-139 -50l237 -174q70 70 70 179h154
q0 -158 -117 -257zM430 436q69 22 107 52t38 78q0 39 -28.5 65t-87.5 26q-54 0 -86 -24.5t-32 -67.5q0 -59 89 -129zM617 115l-263 193q-44 -20 -67.5 -42t-23.5 -52q0 -29 27.5 -56t75.5 -44t107 -17q75 0 144 18z" />
    <glyph glyph-name="quotesingle" unicode="'" horiz-adv-x="289" 
d="M35 740l50 -330h119l50 330h-219z" />
    <glyph glyph-name="parenleft" unicode="(" horiz-adv-x="333" 
d="M223 -130q-105 148 -156.5 275.5t-51.5 249.5q0 120 51 245.5t157 269.5h140q-63 -140 -93 -263.5t-30 -244.5q0 -122 30.5 -251t92.5 -281h-140z" />
    <glyph glyph-name="parenright" unicode=")" horiz-adv-x="328" 
d="M-35 -130q62 152 92.5 281t30.5 251q0 121 -30 244.5t-93 263.5h140q106 -144 157 -269.5t51 -245.5q0 -122 -51.5 -249.5t-156.5 -275.5h-140z" />
    <glyph glyph-name="asterisk" unicode="*" horiz-adv-x="453" 
d="M300 565l103 -43l-50 -88l-92 73l16 -117h-100l15 114l-91 -71l-50 88l111 43l-112 45l50 87l92 -68l-15 112h100l-15 -115l90 72l50 -86z" />
    <glyph glyph-name="plus" unicode="+" horiz-adv-x="477" 
d="M296 381h166v-115h-166v-166h-115v166h-166v115h166v166h115v-166z" />
    <glyph glyph-name="comma" unicode="," horiz-adv-x="267" 
d="M25 0v185h217v-185l-94 -113h-120l94 113h-97z" />
    <glyph glyph-name="hyphen" unicode="-" horiz-adv-x="415" 
d="M33 221v137h349v-137h-349z" />
    <glyph glyph-name="period" unicode="." horiz-adv-x="267" 
d="M25 185v-185h217v185h-217z" />
    <glyph glyph-name="slash" unicode="/" horiz-adv-x="552" 
d="M-40 -117l404 957h218l-404 -957h-218z" />
    <glyph glyph-name="zero" unicode="0" horiz-adv-x="979" 
d="M960 373q0 -148 -93.5 -267.5t-370.5 -119.5q-195 0 -302 65t-142.5 152t-32.5 170q0 144 99 260.5t378 116.5q464 2 464 -377zM638.5 196.5q54.5 29.5 77.5 76t21 101.5q2 52 -21 96t-77.5 72t-141.5 28q-86 0 -140 -28t-77 -72t-21 -96q-2 -55 21 -101.5t77 -76
t140 -29.5q87 0 141.5 29.5z" />
    <glyph glyph-name="one" unicode="1" horiz-adv-x="466" 
d="M425 740v-740h-232v480h-167v134q99 0 147.5 23t59.5 49.5t11 53.5h181z" />
    <glyph glyph-name="two" unicode="2" horiz-adv-x="976" 
d="M954 178v-178h-929v95q0 128 60 196.5t133.5 92t180.5 40.5q42 7 92 12q66 8 103.5 15t62.5 22.5t25 41.5q0 44 -61 64.5t-148 20.5q-83 -1 -141 -26.5t-58 -78.5h-249q0 154 139 210.5t309 56.5q181 0 321.5 -48t140.5 -201q0 -80 -53 -127.5t-119.5 -67.5t-148.5 -34
l-32 -6q-5 0 -32 -5q-133 -19 -219.5 -40.5t-86.5 -54.5h710z" />
    <glyph glyph-name="three" unicode="3" horiz-adv-x="974" 
d="M944 245q-1 -139 -126 -203t-326 -64q-227 0 -347 77.5t-120 233.5h234q0 -77 68 -112.5t165 -34.5q85 -2 144.5 23t60.5 80q-1 28 -15 42.5t-46 20t-90 5.5h-185v144h185q79 0 113 20t34 49q0 37 -58.5 54.5t-142.5 18.5q-97 0 -165 -20.5t-68 -63.5h-234
q0 144 145.5 195.5t321.5 51.5q107 0 199.5 -13.5t162.5 -62.5t70 -145q0 -98 -120 -134q130 -39 140 -160v-2v0z" />
    <glyph glyph-name="four" unicode="4" horiz-adv-x="915" 
d="M784 290h105v-178h-105v-112h-232v112h-526v178l526 450h232v-450zM552 540l-285 -250h285v250z" />
    <glyph glyph-name="five" unicode="5" horiz-adv-x="937" 
d="M916 259l-256 5zM916 258v0q-3 -109 -79 -171.5t-177.5 -85t-199.5 -22.5q-90 0 -186 25t-164.5 85t-68.5 157h232q0 -51 54 -76.5t131 -28.5q84 -4 143 25t59 97t-48 103t-154 35q-80 0 -133.5 -27.5t-53.5 -77.5v-2l-227 -1v447h837v-150h-610v-132q55 36 132.5 51
t163.5 15q102 0 181 -31.5t123.5 -91.5t44.5 -142v-1z" />
    <glyph glyph-name="six" unicode="6" horiz-adv-x="982" 
d="M960 245v0q0 -90 -59.5 -150t-160 -88.5t-226.5 -28.5q-224 0 -346 74.5t-144 236.5q-1 16 -1 46q0 240 144 330.5t347 90.5q196 0 311 -61.5t115 -195.5h-223q0 53 -58.5 76.5t-143.5 20.5q-95 1 -167 -41t-86 -134q65 38 153 48.5t193 10.5t184 -27.5t123.5 -80
t44.5 -125.5v-1v-1zM666 166.5q62 24.5 62 79.5q0 67 -60.5 90t-178.5 23q-220 0 -217 -86h-1q0 -60 45.5 -88.5t93 -34.5t105.5 -7q89 -1 151 23.5z" />
    <glyph glyph-name="seven" unicode="7" horiz-adv-x="804" 
d="M808 740l-400 -740h-238l307 568h-461v172h792z" />
    <glyph glyph-name="eight" unicode="8" horiz-adv-x="977" 
d="M948 238q0 -151 -137.5 -207.5t-307.5 -56.5q-184 0 -329 50.5t-145 213.5q-1 125 101 178q-73 41 -73 129q0 137 132 177t292 40q167 0 303 -40t136 -176q0 -92 -77 -134q105 -53 105 -174zM342 603q-57 -18 -57 -58q0 -39 57.5 -56.5t139.5 -15.5q86 -2 146 15.5
t60 56.5q0 40 -60 58t-147 17q-82 1 -139 -17zM654.5 160.5q70.5 24.5 70.5 78.5q0 55 -70.5 79.5t-172.5 23.5q-98 1 -166.5 -23.5t-68.5 -79.5q0 -54 68.5 -78.5t166.5 -23.5q102 -1 172.5 23.5z" />
    <glyph glyph-name="nine" unicode="9" horiz-adv-x="980" 
d="M958 403q0 -240 -144 -330.5t-347 -90.5q-196 0 -311 61.5t-115 195.5h223q0 -53 58.5 -76.5t143.5 -20.5q95 -1 167 41t86 134q-65 -38 -153 -48.5t-193 -10.5t-184 27.5t-123.5 80t-44.5 125.5v1v1q0 90 59.5 150t160 88.5t226.5 28.5q224 0 346 -74.5t144 -236.5
q1 -16 1 -46zM709 465h1q0 60 -45.5 88.5t-93 34.5t-105.5 7q-89 1 -151 -23.5t-62 -79.5q0 -67 60.5 -90t178.5 -23q220 0 217 86z" />
    <glyph glyph-name="colon" unicode=":" horiz-adv-x="274" 
d="M29 505v-185h216v185h-216zM29 185v-185h216v185h-216z" />
    <glyph glyph-name="semicolon" unicode=";" horiz-adv-x="274" 
d="M29 320v185h217v-185h-217zM126 0h-97v185h217v-185l-94 -113h-120z" />
    <glyph glyph-name="less" unicode="&#x3c;" horiz-adv-x="595" 
d="M15 431l565 157v-141l-390 -91l390 -91v-141l-565 156v151z" />
    <glyph glyph-name="equal" unicode="=" horiz-adv-x="517" 
d="M502 433v-116h-487v116h487zM502 256v-115h-487v115h487z" />
    <glyph glyph-name="greater" unicode="&#x3e;" horiz-adv-x="595" 
d="M15 447v141l565 -157v-151l-565 -156v141l390 91z" />
    <glyph glyph-name="question" unicode="?" horiz-adv-x="853" 
d="M610 746.5q90 -15.5 160.5 -71t70.5 -164.5q0 -92 -50 -135.5t-106 -52.5t-112 -8q-65 -1 -83.5 -25t-18.5 -61h-211q0 87 33 142.5t129 58.5q60 0 128 17.5t68 66.5q0 43 -58 62.5t-141 18.5q-79 -2 -133.5 -26t-54.5 -74h-220q0 158 125.5 212.5t282.5 54.5
q101 0 191 -15.5zM261 0l-1 185h213l1 -185h-213z" />
    <glyph glyph-name="at" unicode="@" horiz-adv-x="1174" 
d="M943 778q99 -47 153 -130t54 -188q0 -58 -18 -121q-26 -89 -76 -146.5t-111 -83.5t-124 -26q-54 0 -98 17.5t-66 47.5q-36 -29 -75.5 -45t-78.5 -16q-58 0 -102.5 23.5t-69 65.5t-24.5 95q0 35 10 68q20 68 71 126t120 92t139 34q54 0 90 -28l8 27h150l-69 -240
q-13 -46 -13 -74q0 -34 15.5 -46t41.5 -12h6q40 0 67.5 27.5t46.5 93.5q18 63 18 115q0 124 -92 187t-240 63q-110 0 -212.5 -50.5t-176.5 -134.5t-101 -180q-14 -46 -14 -98q0 -76 34.5 -137.5t101 -97t158.5 -35.5q63 0 120.5 16t119.5 45l73 -92q-75 -40 -167.5 -66
t-177.5 -26q-125 0 -217.5 46t-142 127.5t-49.5 185.5q0 61 20 132q39 134 139.5 245.5t240 176t289.5 64.5q130 0 229 -47zM623 243.5q36 39.5 52 95.5q10 37 10 60q0 35 -18 55t-53 20q-52 0 -93 -40.5t-56 -94.5q-7 -22 -7 -48q0 -38 19.5 -62.5t58.5 -24.5q51 0 87 39.5
z" />
    <glyph glyph-name="A" unicode="A" horiz-adv-x="1017" 
d="M1036 0h-249l-69 127h-419l-69 -127h-249l401 740h253zM509 514l-120 -220h239z" />
    <glyph glyph-name="B" unicode="B" horiz-adv-x="1012" 
d="M947 329.5q43 -41.5 43 -118.5v-4q0 -113 -93.5 -159.5t-268.5 -47.5h-2h-39h-546v740h633q116 -1 185 -48t69 -133v-4q0 -65 -27 -106t-81 -61q84 -17 127 -58.5zM631.5 452.5q23.5 2.5 40 17.5t16.5 50q0 32 -16 46t-41 17.5t-73 3.5h-1h-285v-136q103 0 136 -1h48h102
q50 0 73.5 2.5zM675 170.5q28 3.5 45 20t17 52.5q0 35 -17 50.5t-45 19t-84 3.5h-1h-318v-148q141 0 200.5 -0.5t81.5 -0.5h37q56 0 84 3.5z" />
    <glyph glyph-name="C" unicode="C" horiz-adv-x="1011" 
d="M86.5 569q65.5 89 179 139.5t251.5 50.5q124 0 224 -39.5t164 -111t85 -167.5h-256q-15 40 -50.5 69.5t-79.5 44.5t-86 15q-59 0 -114.5 -24t-90 -69.5t-34.5 -107.5t34 -107.5t88.5 -69t116.5 -23.5q69 0 127.5 33t86.5 94h257q-22 -95 -86 -166.5t-163 -110.5t-223 -39
q-137 0 -250.5 51t-179.5 140t-66 198q0 111 65.5 200z" />
    <glyph glyph-name="D" unicode="D" horiz-adv-x="908" 
d="M831.5 180q-55.5 -84 -157.5 -132t-237 -48v-1h-199v1h-197v740h395q135 0 237.5 -48t158 -132t55.5 -191q0 -105 -55.5 -189zM442 198q87 0 144.5 42.5t57.5 128.5q0 48 -28 87.5t-74.5 62t-99.5 22.5h-154v-343h154z" />
    <glyph glyph-name="E" unicode="E" horiz-adv-x="861" 
d="M750 288h-462v-113l546 4v-179h-793v740h793l1 -179h-547v-98h462v-175z" />
    <glyph glyph-name="F" unicode="F" horiz-adv-x="860" 
d="M834 740v-179h-546v-107h462v-174h-462v-280h-247v740h793z" />
    <glyph glyph-name="G" unicode="G" horiz-adv-x="1012" 
d="M990 0h-155l-19 57q-126 -77 -300 -77q-138 0 -251 51t-178.5 140t-65.5 198q0 111 66 200t179 139.5t250 50.5q123 0 223 -35t165 -102.5t84 -162.5l-257 -1q-20 58 -79.5 85t-134.5 27q-62 0 -113 -24.5t-80.5 -70t-29.5 -106.5q0 -62 30 -107.5t81 -69t112 -23.5
t114 23t83 67h-194v132h469v-87z" />
    <glyph glyph-name="H" unicode="H" horiz-adv-x="970" 
d="M288 477h395v263h246v-740h-246v283h-395v-283h-247v740h247v-263z" />
    <glyph glyph-name="I" unicode="I" horiz-adv-x="329" 
d="M288 0h-247v740h247v-740z" />
    <glyph glyph-name="J" unicode="J" horiz-adv-x="821" 
d="M780 740v-445q0 -72 -32.5 -138t-118 -111.5t-233.5 -45.5q-140 0 -224 56t-117.5 130t-33.5 135h232q0 -61 39 -105t115 -44q58 0 96 33.5t38 89.5v445h239z" />
    <glyph glyph-name="K" unicode="K" horiz-adv-x="872" 
d="M488 401l403 -401h-303l-300 310v-310h-247v740h247v-257l282 257h306z" />
    <glyph glyph-name="L" unicode="L" horiz-adv-x="780" 
d="M288 740v-550h466v-190h-713v740h247z" />
    <glyph glyph-name="M" unicode="M" horiz-adv-x="1140" 
d="M1098 740v-740h-246v334l-163 -334h-227l-174 338v-338h-247v740h282l252 -509l248 509h275z" />
    <glyph glyph-name="N" unicode="N" horiz-adv-x="1028" 
d="M288 0h-247v740zM986 0h-246h246zM740 287v453h246v-740h-246l-452 453v-453h-247v740h247z" />
    <glyph glyph-name="O" unicode="O" horiz-adv-x="1009" 
d="M753.5 705.5q110.5 -50.5 173 -139t62.5 -199.5q0 -110 -62.5 -198t-172.5 -138.5t-247 -50.5q-132 0 -244 50.5t-177.5 139t-65.5 197.5q0 110 65.5 199t177 139.5t243.5 50.5q137 0 247.5 -50.5zM614.5 191q51.5 24 83.5 69t32 107t-32.5 107.5t-84.5 69t-108 23.5
q-57 0 -108 -24t-82.5 -69.5t-31.5 -106.5q0 -62 32 -107t83.5 -69t108.5 -24q56 0 107.5 24z" />
    <glyph glyph-name="P" unicode="P" horiz-adv-x="936" 
d="M764.5 709q71.5 -31 111 -86.5t39.5 -128.5v-4q0 -120 -82 -185.5t-224 -65.5h-321v-239h-247v740h559q93 0 164.5 -31zM633.5 417q25.5 3 42.5 19t17 53q0 38 -17 55t-44 21t-76 4h-33q-20 0 -70 -0.5t-165 -0.5v-154h267h1q52 0 77.5 3z" />
    <glyph glyph-name="Q" unicode="Q" horiz-adv-x="1027" 
d="M967.5 209q-38.5 -73 -108.5 -126t-162 -79l145 -147h-384v126q-119 12 -219.5 65t-159 136.5t-58.5 182.5q0 110 69 199t184.5 139.5t248.5 50.5q137 0 247.5 -50.5t173 -139t62.5 -199.5q0 -85 -38.5 -158zM632.5 192q51.5 24 83 69t31.5 106t-31.5 106.5t-83 69.5
t-108.5 24q-56 0 -112 -24t-92 -69.5t-36 -106.5q0 -60 36 -105.5t92 -69.5t112 -24q57 0 108.5 24z" />
    <glyph glyph-name="R" unicode="R" horiz-adv-x="941" 
d="M635 1l-205 239h-153v-239h-236v740h559q93 0 164.5 -31t111 -86.5t39.5 -128.5v-4q0 -95 -55.5 -157t-153.5 -83l215 -250h-286zM666.5 546q-16.5 18 -42.5 22t-76 4h-36q-74 -2 -235 -2v-159h269h2q50 0 76 4t42.5 20.5t16.5 53.5q0 39 -16.5 57z" />
    <glyph glyph-name="S" unicode="S" horiz-adv-x="948" 
d="M583 440q98 0 171.5 -13.5t123 -57.5t49.5 -128q0 -155 -137.5 -209.5t-308.5 -54.5q-170 0 -315 55.5t-145 211.5l255 1q0 -69 62.5 -87.5t146.5 -18.5q79 0 135.5 23t56.5 75v1q0 29 -35 43t-75 17t-96 4h-75q-108 0 -187.5 13.5t-133.5 59.5t-54 136
q0 156 140.5 203.5t319.5 47.5q168 0 307 -55t139 -212h-251q0 50 -56.5 74.5t-137.5 27.5q-87 0 -147 -20t-60 -63q0 -45 61 -60t138 -15z" />
    <glyph glyph-name="T" unicode="T" horiz-adv-x="926" 
d="M26 540v200h874zM900 740v-201h-312v-539h-246v539h-316v201h874z" />
    <glyph glyph-name="U" unicode="U" horiz-adv-x="983" 
d="M695 740h252v-379q0 -108 -60 -195t-162 -136.5t-223 -49.5q-130 0 -236 49t-167.5 135.5t-62.5 194.5v381h256v-381q0 -91 62.5 -134t148.5 -43q45 0 89 17.5t73.5 57.5t29.5 102v381z" />
    <glyph glyph-name="V" unicode="V" horiz-adv-x="1059" 
d="M403 0l405 740l-405 -740v0zM531 234l277 506h250l-390 -740h-280l-387 740h268z" />
    <glyph glyph-name="W" unicode="W" horiz-adv-x="1543" 
d="M1053 288l238 452h250l-389 -740h-250l-131 404l-133 -404h-250l-387 740h253l235 -452l158 452h252z" />
    <glyph glyph-name="X" unicode="X" horiz-adv-x="932" 
d="M648 740h278l-289 -373l289 -367h-278l-182 229l-182 -229h-278l290 367l-290 373h278l182 -230z" />
    <glyph glyph-name="Y" unicode="Y" horiz-adv-x="974" 
d="M718 740h255l-354 -429v-311h-265v310l-353 430h255l225 -275z" />
    <glyph glyph-name="Z" unicode="Z" horiz-adv-x="921" 
d="M35 740h855v-198l-527 -345l524 -1v-196h-856v197h2l526 346l-524 1v196z" />
    <glyph glyph-name="bracketleft" unicode="[" horiz-adv-x="336" 
d="M311 910v-132h-92v-762h92v-133h-286v1027h286z" />
    <glyph glyph-name="backslash" unicode="\" horiz-adv-x="552" 
d="M-30 840h218l404 -957h-218z" />
    <glyph glyph-name="bracketright" unicode="]" horiz-adv-x="336" 
d="M25 910h286v-1027h-286v133h92v762h-92v132z" />
    <glyph glyph-name="asciicircum" unicode="^" horiz-adv-x="589" 
d="M418 741l156 -245h-183l-96 155l-96 -155h-184l157 245h246z" />
    <glyph glyph-name="underscore" unicode="_" horiz-adv-x="704" 
d="M2 -158v137h700v-137h-700z" />
    <glyph glyph-name="grave" unicode="`" horiz-adv-x="521" 
d="M105 910h224l70 -133h-174z" />
    <glyph glyph-name="a" unicode="a" horiz-adv-x="786" 
d="M646 521q114 -48 114 -169v-352h-218l-17 71v5q-25 -45 -105.5 -66t-175.5 -21q-76 0 -152 33.5t-76 140.5q0 169 221 169q142 0 198 2.5t74 10t19 27.5v13q-1 33 -43.5 48.5t-96.5 15.5q-56 -1 -95.5 -21t-39.5 -61h-231q0 76 60 121.5t143.5 63t163.5 17.5
q143 0 257 -48zM486 168q38 33 41 84v14q-38 -16 -121 -16q-86 0 -120.5 -12t-35.5 -44q3 -30 31.5 -44.5t92.5 -14.5q74 0 112 33z" />
    <glyph glyph-name="b" unicode="b" horiz-adv-x="791" 
d="M779 281v0q-1 -82 -35 -148.5t-93.5 -105t-136.5 -38.5q-181 -4 -265 78l-12 -65h-211v738h230v-253q85 78 258 78q77 0 137 -39.5t93 -103.5t35 -135v-3v-3zM509 168.5q38 44.5 39 113.5q-1 60 -39.5 103.5t-109.5 43.5q-64 0 -103.5 -42t-39.5 -112v-3q0 -39 18.5 -73
t51 -54.5t73.5 -20.5q72 0 110 44.5z" />
    <glyph glyph-name="c" unicode="c" horiz-adv-x="764" 
d="M61 420.5q50 67.5 137 105.5t192 38q100 0 176.5 -30.5t123.5 -85.5t62 -127h-230q-11 45 -46 72t-85 27q-65 0 -106 -41.5t-41 -109.5q0 -66 40 -108.5t105 -42.5q51 0 86 27t46 71h230q-11 -68 -60 -123t-127.5 -87t-173.5 -32q-104 0 -191 38.5t-137.5 106
t-50.5 150.5q0 84 50 151.5z" />
    <glyph glyph-name="d" unicode="d" horiz-adv-x="794" 
d="M538 740h230v-738h-210l-12 65q-85 -82 -266 -78q-77 0 -136.5 38.5t-93.5 105t-35 148.5v3v3q2 71 35 135t93 103.5t137 39.5q173 0 258 -78v253zM468.5 144.5q32.5 20.5 51 54.5t18.5 73v3q0 70 -39.5 112t-102.5 42q-71 0 -109.5 -43.5t-39.5 -103.5q1 -69 39 -113.5
t110 -44.5q40 0 72.5 20.5z" />
    <glyph glyph-name="e" unicode="e" horiz-adv-x="791" 
d="M778 250h-533q7 -63 47.5 -103.5t110.5 -40.5q57 0 101.5 27.5t44.5 84.5h229q0 -116 -99.5 -177t-276.5 -61q-109 0 -198 37t-141 104.5t-52 154.5q0 88 51.5 155.5t141 104t198.5 36.5q112 0 196.5 -36t131.5 -101.5t48 -153.5v-5h2h-2v-26zM301 422q-35 -28 -48 -78
h290q-11 50 -44 78t-97 28q-66 0 -101 -28z" />
    <glyph glyph-name="f" unicode="f" horiz-adv-x="493" 
d="M472 481v-157h-113v-324h-230v324h-108v157h108v72q0 119 84 162t189 43q37 0 66 -4v-183q-50 0 -72 -6t-29.5 -23.5t-7.5 -56.5v-4h113z" />
    <glyph glyph-name="g" unicode="g" horiz-adv-x="794" 
d="M765 545v-545q-4 -79 -62.5 -126.5t-138 -67t-153.5 -19.5q-110 0 -182 7.5t-130.5 45.5t-58.5 121h234q0 -29 25.5 -41.5t45 -13.5t66.5 -1q45 0 84.5 22.5t39.5 82.5v48q-83 -76 -257 -76q-76 0 -136 39.5t-94.5 103.5t-36.5 135v4v3q1 82 35 148t94.5 104t137.5 38
q179 5 263 -77l13 65h211zM496 158.5q39 40.5 39 115.5v3q0 38 -18 72t-50 54t-71 20q-72 0 -111 -43.5t-41 -113.5q2 -64 40.5 -106t108.5 -42q64 0 103 40.5z" />
    <glyph glyph-name="h" unicode="h" horiz-adv-x="766" 
d="M674.5 483q70.5 -80 70.5 -258v-225h-230v222q0 63 -7 103t-34 67t-84 27q-60 0 -89 -27.5t-37 -68t-8 -100.5v-223h-230v740h230v-261q76 84 230 84q118 0 188.5 -80z" />
    <glyph glyph-name="i" unicode="i" horiz-adv-x="283" 
d="M256 740h-230v-151h230v151zM256 0h-230v560h230v-560z" />
    <glyph glyph-name="j" unicode="j" horiz-adv-x="299" 
d="M39 590v150h230v-150h-230zM39 561h230v-585q0 -116 -84 -158.5t-190 -42.5q-36 0 -65 4v180q48 0 71 6.5t30.5 21.5t7.5 45v529z" />
    <glyph glyph-name="k" unicode="k" horiz-adv-x="741" 
d="M478 301l273 -301h-263l-234 252v-252h-230v740h230v-392l199 197h267z" />
    <glyph glyph-name="l" unicode="l" horiz-adv-x="286" 
d="M256 0h-230v740h230v-740z" />
    <glyph glyph-name="m" unicode="m" horiz-adv-x="1201" 
d="M1078.5 530q49.5 -33 73.5 -106.5t24 -198.5v-225h-230v222q0 60 -7.5 102t-33 69t-75.5 27q-49 0 -73.5 -26.5t-32 -67t-7.5 -101.5v-225h-230v222q0 61 -7 102.5t-32 68.5t-75 27q-53 0 -78 -27t-31.5 -69.5t-6.5 -113.5v-210h-231v545h206l17 -65q38 43 97.5 63
t143.5 20q73 0 120 -27t73 -88q34 61 98 88t167 27q81 0 130.5 -33z" />
    <glyph glyph-name="n" unicode="n" horiz-adv-x="766" 
d="M677.5 484q67.5 -79 67.5 -259v-225h-230v222q0 63 -7 103t-34 67t-84 27q-60 0 -89 -25.5t-37 -65.5t-8 -105v-223h-230v545h230v-68q76 86 231 86q123 0 190.5 -79z" />
    <glyph glyph-name="o" unicode="o" 
d="M601 530q87 -38 136 -105.5t49 -151.5q0 -83 -49.5 -150.5t-136 -105.5t-194.5 -38q-104 0 -195 38.5t-145.5 106t-54.5 149.5q0 83 54.5 150.5t145 106t195.5 38.5q108 0 195 -38zM480.5 139q34.5 17 55.5 51.5t21 82.5t-21 82.5t-55.5 51.5t-74.5 17q-39 0 -76.5 -17.5
t-61.5 -51.5t-24 -82t24 -82t61.5 -51.5t76.5 -17.5q40 0 74.5 17z" />
    <glyph glyph-name="p" unicode="p" horiz-adv-x="796" 
d="M779 260v0q-2 -71 -35.5 -135t-93.5 -103.5t-136 -39.5q-173 0 -258 78v-250h-230v735h211l13 -70q84 86 264 82q77 0 136.5 -38t93.5 -104t35 -148v-3v-4zM507.5 161.5q38.5 43.5 40.5 103.5q-2 69 -39.5 113.5t-109.5 44.5q-41 0 -73.5 -20.5t-51 -55t-18.5 -73.5v-2
q0 -70 39.5 -112t103.5 -42q70 0 108.5 43.5z" />
    <glyph glyph-name="q" unicode="q" horiz-adv-x="792" 
d="M558 545h210v-735h-230v250q-85 -78 -258 -78q-76 0 -136 39.5t-93.5 103.5t-35.5 135v4v3q1 82 35 148t93.5 104t136.5 38q181 4 265 -78zM498.5 160q39.5 42 39.5 112v2q0 39 -18.5 73.5t-51 55t-72.5 20.5q-71 0 -109 -44.5t-40 -113.5q2 -63 40 -105t109 -42
q63 0 102.5 42z" />
    <glyph glyph-name="r" unicode="r" horiz-adv-x="528" 
d="M254 450q80 88 253 106v-174h-133q-62 0 -90 -46.5t-28 -121.5v-214h-230v545h209z" />
    <glyph glyph-name="s" unicode="s" horiz-adv-x="762" 
d="M429 325l57 1q118 0 191.5 -30.5t73.5 -121.5q0 -118 -109.5 -157.5t-250.5 -39.5q-140 0 -256.5 41.5t-116.5 159.5h232q0 -47 41 -62.5t100 -15.5q67 0 99.5 16.5t32.5 53.5q0 33 -38 41.5t-96 8.5h-35q-91 0 -161.5 9.5t-122.5 45.5t-52 108q0 114 112.5 149t259.5 35
q139 0 250 -41t111 -159l-230 1q0 51 -52 63t-82 12q-46 0 -91.5 -10.5t-45.5 -46.5q0 -60 135 -62q29 0 44 1z" />
    <glyph glyph-name="t" unicode="t" horiz-adv-x="486" 
d="M360 545h104v-157h-104v-388h-230v388h-109v157h109v118l230 93v-211z" />
    <glyph glyph-name="u" unicode="u" horiz-adv-x="771" 
d="M515 545h230v-545h-230v68q-76 -86 -231 -86q-123 0 -190.5 79t-67.5 259v225h230v-222q0 -63 7 -103t34 -67t84 -27q79 0 106.5 54.5t27.5 142.5v222z" />
    <glyph glyph-name="v" unicode="v" horiz-adv-x="832" 
d="M416 197l157 348h248l-278 -545h-255l-277 545h248z" />
    <glyph glyph-name="w" unicode="w" horiz-adv-x="1175" 
d="M781 210l146 335h241l-277 -545h-205l-99 292l-100 -292h-204l-277 545h240l148 -336l94 336h198z" />
    <glyph glyph-name="x" unicode="x" horiz-adv-x="816" 
d="M563 545h261l-246 -275l246 -270h-261l-155 169l-156 -169h-261l247 270l-247 275h261l156 -170z" />
    <glyph glyph-name="y" unicode="y" horiz-adv-x="876" 
d="M868 545l-336 -668q-33 -66 -127.5 -85t-212.5 -19v183q57 0 79 7t22 20q0 4 -4 14l-281 548h246l186 -403l182 403h246z" />
    <glyph glyph-name="z" unicode="z" horiz-adv-x="760" 
d="M26 545l708 -1v-160l-395 -223l395 -1v-160l-708 1v161l398 223l-398 1v159z" />
    <glyph glyph-name="braceleft" unicode="{" horiz-adv-x="460" 
d="M322 40q15 -20 41 -26t71 -6l1 -131q-97 0 -153 9.5t-98.5 56.5t-45.5 151v185q-1 50 -31 65.5t-96 15.5h-1l1 34l-1 33h1q45 0 71 5.5t41 23.5t15 54v184q3 103 45.5 150t98.5 56t153 9l-1 -129q-45 0 -71 -6t-41 -26.5t-15 -61.5v-183q-4 -75 -61 -109q57 -34 61 -110
v-183q0 -41 15 -61z" />
    <glyph glyph-name="bar" unicode="|" horiz-adv-x="267" 
d="M247 -185h-227v983h227v-983z" />
    <glyph glyph-name="braceright" unicode="}" horiz-adv-x="460" 
d="M450 360h-1q-66 0 -96 -15.5t-31 -65.5v-185q-3 -104 -45.5 -151t-98.5 -56.5t-153 -9.5l1 131q45 0 71 6t41 26t15 61v183q4 76 61 110q-57 34 -61 109v183q0 41 -15 61.5t-41 26.5t-71 6l-1 129q97 0 153 -9t98.5 -56t45.5 -150v-184q0 -36 15 -54t41 -23.5t71 -5.5h1
v-67z" />
    <glyph glyph-name="asciitilde" unicode="~" horiz-adv-x="504" 
d="M15 439q54 43 109 43q31 0 60 -11t68 -32q42 -22 70 -32.5t58 -10.5q55 0 109 43v-133q-53 -42 -106 -42q-31 0 -60.5 11.5t-68.5 33.5q-40 22 -69 33t-59 11q-56 0 -111 -47v133z" />
    <glyph glyph-name="exclamdown" unicode="&#xa1;" horiz-adv-x="330" 
d="M273 545h-216v-185h216v185zM294 -190h-258l68 505h122z" />
    <glyph glyph-name="cent" unicode="&#xa2;" horiz-adv-x="751" 
d="M475 145q35 27 46 71h230q-10 -62 -52.5 -114t-111 -85.5t-152.5 -40.5v-72h-113v75q-88 11 -159 51.5t-111.5 102.5t-40.5 136q0 75 40 136.5t111 102t160 52.5v71h113v-69q131 -9 213 -74.5t104 -166.5h-230q-11 45 -46 72t-85 27q-65 0 -106 -41.5t-41 -109.5
q0 -66 40 -108.5t105 -42.5q51 0 86 27z" />
    <glyph glyph-name="sterling" unicode="&#xa3;" horiz-adv-x="874" 
d="M859 149v-149h-827v149q69 75 82 121h-99l-1 137h50q-22 48 -22 103q0 81 59 140.5t154 90.5t200 31q103 0 192.5 -30.5t144.5 -92.5t55 -152h-240q0 44 -23.5 76t-62 48.5t-81.5 16.5q-65 0 -112.5 -36t-47.5 -101q0 -48 22 -94h334l1 -137h-286q-8 -49 -69 -121h577z
" />
    <glyph glyph-name="currency" unicode="&#xa4;" horiz-adv-x="642" 
d="M526 321l61 -61l-72 -72l-61 61q-59 -39 -132 -39t-132 39l-63 -61l-72 72l63 62q-39 59 -39 131q0 73 39 132l-63 63l73 72l63 -63q59 39 131 39q71 0 131 -38l62 61l72 -72l-61 -61q39 -63 39 -133q0 -73 -39 -132zM401 374.5q32 32.5 32 78.5t-32.5 78.5t-78.5 32.5
t-78.5 -32.5t-32.5 -78.5t32.5 -78.5t78.5 -32.5q47 0 79 32.5z" />
    <glyph glyph-name="yen" unicode="&#xa5;" horiz-adv-x="986" 
d="M718 740h255l-297 -360h134v-115h-191v-37h191v-115h-191v-113h-265v113h-186v115h186v37h-186v115h129l-296 360h255l225 -275z" />
    <glyph glyph-name="brokenbar" unicode="&#xa6;" horiz-adv-x="491" 
d="M247 398h-227v400h227v-400zM247 -185h-227v400h227v-400z" />
    <glyph glyph-name="section" unicode="&#xa7;" horiz-adv-x="812" 
d="M735 262q62 -38 62 -114q0 -117 -115 -158t-259 -41q-145 0 -265.5 41.5t-120.5 159.5h233q0 -47 47 -61t106 -14t100.5 15.5t41.5 54.5q0 32 -43 40.5t-111 8.5q-142 1 -255.5 39.5t-118.5 147.5v4v5q4 55 57 90q-57 39 -57 112q0 117 116.5 153t269.5 36q144 0 259 -41
t115 -159h-231q0 37 -41.5 54.5t-101.5 17.5q-64 1 -108 -13t-44 -45q0 -56 146 -56l78 1q132 0 217 -30t85 -123q0 -79 -62 -125zM316 331.5q42 -12.5 99 -12.5q68 0 109.5 12.5t41.5 52.5q0 30 -48 41t-102 11l-54 -1q-37 -3 -63 -14.5t-28 -34.5q3 -42 45 -54.5z" />
    <glyph glyph-name="dieresis" unicode="&#xa8;" horiz-adv-x="692" 
d="M146 810.5q-27 27.5 -27 67.5q0 39 27 66t67 27q39 0 66.5 -27t27.5 -66q0 -40 -27.5 -67.5t-66.5 -27.5q-40 0 -67 27.5zM412 810.5q-27 27.5 -27 67.5q0 39 27 66t67 27q39 0 66.5 -27t27.5 -66q0 -40 -27.5 -67.5t-66.5 -27.5q-40 0 -67 27.5z" />
    <glyph glyph-name="copyright" unicode="&#xa9;" horiz-adv-x="764" 
d="M192.5 29.5q-86.5 50.5 -137 137t-50.5 189.5t50.5 189.5t137 137t189.5 50.5q102 0 188.5 -51t137.5 -137.5t51 -188.5q0 -103 -50.5 -189.5t-137 -137t-189.5 -50.5t-189.5 50.5zM522.5 113q64.5 38 102.5 102.5t38 140.5t-37.5 140.5t-102 102.5t-141.5 38
q-76 0 -140.5 -38t-102.5 -102.5t-38 -140.5t38 -140.5t102.5 -102.5t140.5 -38t140.5 38zM197 440.5q29 38.5 78.5 60.5t109.5 22q86 0 141 -38t68 -101h-130q-7 26 -28 42t-50 16q-38 0 -62 -24t-24 -64q0 -38 23 -63t61 -25q31 0 52 15.5t27 41.5h130q-6 -39 -34.5 -70.5
t-73.5 -50t-100 -18.5q-59 0 -109 22t-79 61t-29 87t29 86.5z" />
    <glyph glyph-name="ordfeminine" unicode="&#xaa;" horiz-adv-x="522" 
d="M423 514q73 -31 73 -109v-227h-140l-12 45v3q-17 -28 -69 -41t-113 -13q-49 0 -97.5 21t-48.5 90q0 109 143 109q91 0 126.5 1.5t47.5 6.5t13 18v8q-1 22 -28 32t-62 10q-36 -1 -61.5 -14t-25.5 -39h-149q0 71 75 100.5t162 29.5q93 0 166 -31zM316.5 284
q24.5 19 28.5 49v16q-25 -10 -78 -10q-56 0 -77.5 -7.5t-22.5 -28.5q2 -19 20.5 -28.5t59.5 -9.5q45 0 69.5 19z" />
    <glyph glyph-name="guillemotleft" unicode="&#xab;" horiz-adv-x="717" 
d="M213 276l208 -211h-214l-202 212l192 202h216zM498 276l208 -211h-214l-202 212l192 202h216z" />
    <glyph glyph-name="logicalnot" unicode="&#xac;" horiz-adv-x="608" 
d="M618 426v-263h-172v126h-431v137h603z" />
    <glyph glyph-name="registered" unicode="&#xae;" horiz-adv-x="549" 
d="M212 494v-15v15zM408.5 696.5q62.5 -36.5 99 -98.5t36.5 -134q0 -73 -36.5 -135t-98.5 -98.5t-135 -36.5t-135 36.5t-98 98.5t-36 135t36 135t98 98t135 36q72 0 134.5 -36.5zM362 312.5q40 23.5 63.5 64t23.5 87.5t-23.5 87t-64 63.5t-87.5 23.5q-48 0 -88 -23t-63 -63
t-23 -88q0 -47 23.5 -87.5t63 -64t87.5 -23.5t88 23.5zM400 502q0 -26 -15 -43.5t-43 -24.5l61 -69h-79l-57 66h-47v-66h-64v207h156q40 0 64 -19t24 -49v-2zM329 521q-9 4 -31 4h-78v-46h78q22 0 31 3.5t9 18.5q0 16 -9 20z" />
    <glyph glyph-name="macron" unicode="&#xaf;" horiz-adv-x="600" 
d="M85 778v132h437v-132h-437z" />
    <glyph glyph-name="degree" unicode="&#xb0;" horiz-adv-x="364" 
d="M93.5 376q-40.5 24 -64.5 64.5t-24 88.5t24 88.5t64.5 64.5t88.5 24q49 0 89.5 -23.5t64 -64.5t23.5 -89t-24 -88.5t-64.5 -64.5t-88.5 -24t-88.5 24zM234.5 476.5q21.5 21.5 21.5 52.5q0 30 -21.5 52t-52.5 22t-52.5 -22t-21.5 -52q0 -31 21.5 -52.5t52.5 -21.5
t52.5 21.5z" />
    <glyph glyph-name="plusminus" unicode="&#xb1;" horiz-adv-x="477" 
d="M296 500h166v-115h-166v-166h-115v166h-166v115h166v166h115v-166zM462 194v-115h-447v115h447z" />
    <glyph glyph-name="uni00B2" unicode="&#xb2;" horiz-adv-x="647" 
d="M625 363v-115h-600v61q0 82 38.5 126.5t86 60t117.5 26.5l59 8q63 7 93 16.5t30 34.5q0 28 -39.5 41t-95.5 13q-54 -1 -91 -17t-37 -50h-161q0 99 90 135.5t199 36.5q117 0 207.5 -30.5t90.5 -129.5q0 -57 -40.5 -88.5t-74.5 -40t-112 -23.5q-9 -1 -72 -10.5t-104.5 -24
t-41.5 -30.5h458z" />
    <glyph glyph-name="uni00B3" unicode="&#xb3;" horiz-adv-x="648" 
d="M618 407q-1 -89 -82 -130.5t-210 -41.5q-146 0 -223.5 50t-77.5 151h151q0 -51 43.5 -74t106.5 -22q55 -1 93.5 15t39.5 52q-1 26 -21.5 35t-76.5 9h-119v92h119q51 0 73 13t22 32q0 24 -38 35t-92 12q-63 0 -106.5 -13t-43.5 -40h-151q0 93 94 126t207 33
q114 0 196.5 -27.5t82.5 -115.5q0 -34 -21 -55t-56 -31q82 -26 90 -103v-2v0z" />
    <glyph glyph-name="acute" unicode="&#xb4;" horiz-adv-x="521" 
d="M123 777l70 133h224l-120 -133h-174z" />
    <glyph glyph-name="paragraph" unicode="&#xb6;" horiz-adv-x="995" 
d="M980 540h-99v-660h-229v660h-109v-660h-229v360q-94 0 -163 33t-104 89t-32 124q0 123 76.5 188t222.5 66h666v-200z" />
    <glyph glyph-name="periodcentered" unicode="&#xb7;" horiz-adv-x="171" 
d="M53.5 247q-13.5 13 -13.5 32t13.5 32.5t32.5 13.5t32 -13.5t13 -32.5t-13 -32t-32 -13t-32.5 13z" />
    <glyph glyph-name="cedilla" unicode="&#xb8;" horiz-adv-x="600" 
d="M350 -42q57 0 104.5 -18.5t46.5 -71.5q0 -68 -71 -91.5t-154 -23.5q-205 0 -205 123h111q0 -30 30.5 -38.5t52.5 -8.5q24 0 53 6t29 31q0 30 -75 30h-51v202h129v-140z" />
    <glyph glyph-name="uni00B9" unicode="&#xb9;" horiz-adv-x="305" 
d="M275 740v-478h-149v310h-107v86q90 0 115 26t25 56h116z" />
    <glyph glyph-name="ordmasculine" unicode="&#xba;" horiz-adv-x="522" 
d="M391.5 523.5q55.5 -24.5 87.5 -68t32 -98.5q0 -54 -32 -97t-87.5 -67.5t-125.5 -24.5q-67 0 -126 24.5t-94 68t-35 96.5q0 54 35 97.5t94 68.5t126 25q70 0 125.5 -24.5zM335.5 284.5q28.5 25.5 28.5 72.5q0 46 -29 71.5t-69 25.5t-72 -26t-32 -71q0 -46 32 -72t72 -26
q41 0 69.5 25.5z" />
    <glyph glyph-name="guillemotright" unicode="&#xbb;" horiz-adv-x="717" 
d="M225 65h-214l208 211l-200 203h216l192 -202zM510 65h-214l208 211l-200 203h216l192 -202z" />
    <glyph glyph-name="questiondown" unicode="&#xbf;" horiz-adv-x="853" 
d="M591 544l1 -185h-213l-1 185h213zM841 49q0 -158 -125.5 -212.5t-282.5 -54.5q-101 0 -191 15.5t-160.5 71t-70.5 164.5q0 92 50 135.5t106 52.5t112 8q65 1 83.5 25t18.5 61h211q0 -87 -33 -142.5t-128 -58.5q-60 0 -128 -17.5t-68 -66.5q0 -43 58 -62.5t141 -18.5
q78 2 132.5 26.5t54.5 74.5z" />
    <glyph glyph-name="Agrave" unicode="&#xc0;" horiz-adv-x="1017" 
d="M1036 0h-249l-69 127h-419l-69 -127h-249l401 740h253zM509 514l-120 -220h239zM299 910h224l70 -133h-174z" />
    <glyph glyph-name="Aacute" unicode="&#xc1;" horiz-adv-x="1017" 
d="M1036 0h-249l-69 127h-419l-69 -127h-249l401 740h253zM509 514l-120 -220h239zM421 777l70 133h224l-120 -133h-174z" />
    <glyph glyph-name="Acircumflex" unicode="&#xc2;" horiz-adv-x="1017" 
d="M1036 0h-249l-69 127h-419l-69 -127h-249l401 740h253zM509 514l-120 -220h239zM611 910l180 -136h-209l-81 61l-77 -61h-209l170 136h226z" />
    <glyph glyph-name="Atilde" unicode="&#xc3;" horiz-adv-x="1017" 
d="M1036 0h-249l-69 127h-419l-69 -127h-249l401 740h253zM509 514l-120 -220h239zM750 935q0 -147 -120 -147q-33 0 -61 7t-68 20q-50 12 -72 12q-46 0 -46 -33h-131q0 148 120 148q29 0 57.5 -7t47.5 -13t24 -8q50 -12 72 -12q47 0 47 33h130z" />
    <glyph glyph-name="Adieresis" unicode="&#xc4;" horiz-adv-x="1017" 
d="M1036 0h-249l-69 127h-419l-69 -127h-249l401 740h253zM509 514l-120 -220h239zM303 810.5q-27 27.5 -27 67.5q0 39 27 66t67 27q39 0 66.5 -27t27.5 -66q0 -40 -27.5 -67.5t-66.5 -27.5q-40 0 -67 27.5zM569 810.5q-27 27.5 -27 67.5q0 39 27 66t67 27q39 0 66.5 -27
t27.5 -66q0 -40 -27.5 -67.5t-66.5 -27.5q-40 0 -67 27.5z" />
    <glyph glyph-name="Aring" unicode="&#xc5;" horiz-adv-x="1017" 
d="M1036 0h-249l-69 127h-419l-69 -127h-249l401 740h253zM509 514l-120 -220h239zM364 1016q22 37 59.5 59t81.5 22q43 0 80.5 -22t59.5 -59.5t22 -80.5q0 -44 -22 -81.5t-59 -59.5t-81 -22t-81.5 22t-59.5 59.5t-22 81.5t22 81zM456.5 887q19.5 -20 48.5 -20q28 0 47.5 20
t19.5 48q0 27 -20 47t-47 20q-28 0 -48 -19.5t-20 -47.5t19.5 -48z" />
    <glyph glyph-name="AE" unicode="&#xc6;" horiz-adv-x="1508" 
d="M1397 288h-462v-113l546 4v-179h-792v120h-353l-97 -120h-258l595 740h905l1 -179h-547v-98h462v-175zM689 555l-221 -269h221v269z" />
    <glyph glyph-name="Ccedilla" unicode="&#xc7;" horiz-adv-x="1011" 
d="M645.5 202q58.5 33 86.5 94h257q-20 -88 -76.5 -156t-143.5 -109t-197 -49v-28q57 0 104.5 -18.5t46.5 -71.5q0 -68 -71 -91.5t-155 -23.5q-204 0 -204 123h111q0 -30 30 -38.5t52 -8.5q24 0 53.5 6t29.5 31q0 18 -23 23.5t-42 6t-23 0.5h-38v92q-120 13 -216.5 66.5
t-151 136.5t-54.5 182q0 111 65.5 200t179 139.5t251.5 50.5q124 0 224 -39.5t164 -111t85 -167.5h-256q-15 40 -50.5 69.5t-79.5 44.5t-86 15q-59 0 -114.5 -24t-90 -69.5t-34.5 -107.5t34 -107.5t88.5 -69t116.5 -23.5q69 0 127.5 33z" />
    <glyph glyph-name="Egrave" unicode="&#xc8;" horiz-adv-x="861" 
d="M750 288h-462v-113l546 4v-179h-793v740h793l1 -179h-547v-98h462v-175zM248 907h224l70 -133h-174z" />
    <glyph glyph-name="Eacute" unicode="&#xc9;" horiz-adv-x="861" 
d="M750 288h-462v-113l546 4v-179h-793v740h793l1 -179h-547v-98h462v-175zM299 777l70 133h224l-120 -133h-174z" />
    <glyph glyph-name="Ecircumflex" unicode="&#xca;" horiz-adv-x="861" 
d="M750 288h-462v-113l546 4v-179h-793v740h793l1 -179h-547v-98h462v-175zM540 910l180 -136h-209l-81 61l-77 -61h-209l170 136h226z" />
    <glyph glyph-name="Edieresis" unicode="&#xcb;" horiz-adv-x="861" 
d="M750 288h-462v-113l546 4v-179h-793v740h793l1 -179h-547v-98h462v-175zM227 810.5q-27 27.5 -27 67.5q0 39 27 66t67 27q39 0 66.5 -27t27.5 -66q0 -40 -27.5 -67.5t-66.5 -27.5q-40 0 -67 27.5zM493 810.5q-27 27.5 -27 67.5q0 39 27 66t67 27q39 0 66.5 -27t27.5 -66
q0 -40 -27.5 -67.5t-66.5 -27.5q-40 0 -67 27.5z" />
    <glyph glyph-name="Igrave" unicode="&#xcc;" horiz-adv-x="329" 
d="M288 0h-247v740h247v-740zM-48 910h224l70 -133h-174z" />
    <glyph glyph-name="Iacute" unicode="&#xcd;" horiz-adv-x="329" 
d="M288 0h-247v740h247v-740zM73 777l70 133h224l-120 -133h-174z" />
    <glyph glyph-name="Icircumflex" unicode="&#xce;" horiz-adv-x="329" 
d="M288 0h-247v740h247v-740zM274 910l180 -136h-209l-81 61l-77 -61h-209l170 136h226z" />
    <glyph glyph-name="Idieresis" unicode="&#xcf;" horiz-adv-x="329" 
d="M288 0h-247v740h247v-740zM-36 810.5q-27 27.5 -27 67.5q0 39 27 66t67 27q39 0 66.5 -27t27.5 -66q0 -40 -27.5 -67.5t-66.5 -27.5q-40 0 -67 27.5zM230 810.5q-27 27.5 -27 67.5q0 39 27 66t67 27q39 0 66.5 -27t27.5 -66q0 -40 -27.5 -67.5t-66.5 -27.5
q-40 0 -67 27.5z" />
    <glyph glyph-name="Eth" unicode="&#xd0;" horiz-adv-x="930" 
d="M853 180q-55 -84 -157 -132t-237 -48v-1h-199v1h-197v284h-60v176h60v280h395q135 0 237.5 -47.5t157.5 -132t55 -191.5q0 -105 -55 -189zM463 198q87 0 144.5 42.5t57.5 128.5q0 48 -27.5 87.5t-74 62t-100.5 22.5h-154v-81h167v-176h-167v-86h154z" />
    <glyph glyph-name="Ntilde" unicode="&#xd1;" horiz-adv-x="1028" 
d="M288 0h-247v740zM986 0h-246h246zM740 287v453h246v-740h-246l-452 453v-453h-247v740h247zM758 940q0 -147 -120 -147q-33 0 -61 7t-68 20q-50 12 -72 12q-46 0 -46 -33h-131q0 148 120 148q29 0 57.5 -7t47.5 -13t24 -8q50 -12 72 -12q47 0 47 33h130z" />
    <glyph glyph-name="Ograve" unicode="&#xd2;" horiz-adv-x="1009" 
d="M753.5 705.5q110.5 -50.5 173 -139t62.5 -199.5q0 -110 -62.5 -198t-172.5 -138.5t-247 -50.5q-132 0 -244 50.5t-177.5 139t-65.5 197.5q0 110 65.5 199t177 139.5t243.5 50.5q137 0 247.5 -50.5zM614.5 191q51.5 24 83.5 69t32 107t-32.5 107.5t-84.5 69t-108 23.5
q-57 0 -108 -24t-82.5 -69.5t-31.5 -106.5q0 -62 32 -107t83.5 -69t108.5 -24q56 0 107.5 24zM300 918h224l70 -133h-174z" />
    <glyph glyph-name="Oacute" unicode="&#xd3;" horiz-adv-x="1009" 
d="M753.5 705.5q110.5 -50.5 173 -139t62.5 -199.5q0 -110 -62.5 -198t-172.5 -138.5t-247 -50.5q-132 0 -244 50.5t-177.5 139t-65.5 197.5q0 110 65.5 199t177 139.5t243.5 50.5q137 0 247.5 -50.5zM614.5 191q51.5 24 83.5 69t32 107t-32.5 107.5t-84.5 69t-108 23.5
q-57 0 -108 -24t-82.5 -69.5t-31.5 -106.5q0 -62 32 -107t83.5 -69t108.5 -24q56 0 107.5 24zM397 777l70 133h224l-120 -133h-174z" />
    <glyph glyph-name="Ocircumflex" unicode="&#xd4;" horiz-adv-x="1009" 
d="M753.5 705.5q110.5 -50.5 173 -139t62.5 -199.5q0 -110 -62.5 -198t-172.5 -138.5t-247 -50.5q-132 0 -244 50.5t-177.5 139t-65.5 197.5q0 110 65.5 199t177 139.5t243.5 50.5q137 0 247.5 -50.5zM614.5 191q51.5 24 83.5 69t32 107t-32.5 107.5t-84.5 69t-108 23.5
q-57 0 -108 -24t-82.5 -69.5t-31.5 -106.5q0 -62 32 -107t83.5 -69t108.5 -24q56 0 107.5 24zM617 910l180 -136h-209l-81 61l-77 -61h-209l170 136h226z" />
    <glyph glyph-name="Otilde" unicode="&#xd5;" horiz-adv-x="1009" 
d="M753.5 705.5q110.5 -50.5 173 -139t62.5 -199.5q0 -110 -62.5 -198t-172.5 -138.5t-247 -50.5q-132 0 -244 50.5t-177.5 139t-65.5 197.5q0 110 65.5 199t177 139.5t243.5 50.5q137 0 247.5 -50.5zM614.5 191q51.5 24 83.5 69t32 107t-32.5 107.5t-84.5 69t-108 23.5
q-57 0 -108 -24t-82.5 -69.5t-31.5 -106.5q0 -62 32 -107t83.5 -69t108.5 -24q56 0 107.5 24zM743 940q0 -147 -120 -147q-33 0 -61 7t-68 20q-50 12 -72 12q-46 0 -46 -33h-131q0 148 120 148q29 0 57.5 -7t47.5 -13t24 -8q50 -12 72 -12q47 0 47 33h130z" />
    <glyph glyph-name="Odieresis" unicode="&#xd6;" horiz-adv-x="1009" 
d="M753.5 705.5q110.5 -50.5 173 -139t62.5 -199.5q0 -110 -62.5 -198t-172.5 -138.5t-247 -50.5q-132 0 -244 50.5t-177.5 139t-65.5 197.5q0 110 65.5 199t177 139.5t243.5 50.5q137 0 247.5 -50.5zM614.5 191q51.5 24 83.5 69t32 107t-32.5 107.5t-84.5 69t-108 23.5
q-57 0 -108 -24t-82.5 -69.5t-31.5 -106.5q0 -62 32 -107t83.5 -69t108.5 -24q56 0 107.5 24zM305 810.5q-27 27.5 -27 67.5q0 39 27 66t67 27q39 0 66.5 -27t27.5 -66q0 -40 -27.5 -67.5t-66.5 -27.5q-40 0 -67 27.5zM571 810.5q-27 27.5 -27 67.5q0 39 27 66t67 27
q39 0 66.5 -27t27.5 -66q0 -40 -27.5 -67.5t-66.5 -27.5q-40 0 -67 27.5z" />
    <glyph glyph-name="multiply" unicode="&#xd7;" horiz-adv-x="428" 
d="M331 522l82 -82l-117 -117l117 -117l-82 -82l-117 117l-117 -117l-82 82l117 117l-117 117l82 82l117 -117z" />
    <glyph glyph-name="Oslash" unicode="&#xd8;" horiz-adv-x="1008" 
d="M848 649q67 -53 104 -125.5t37 -156.5q0 -110 -62.5 -198t-172.5 -138.5t-247 -50.5q-75 0 -146 17l-34 -46h-248l97 130q-74 53 -115 127t-41 159q0 110 65.5 199t177 139.5t243.5 50.5q85 0 160 -20l32 43h247zM313 264l225 301q-22 2 -33 2q-57 0 -108 -24
t-82.5 -69.5t-31.5 -106.5q0 -59 30 -103zM614.5 191q51.5 24 83.5 69t32 107q0 49 -23 93l-218 -292q6 -1 18 -1q56 0 107.5 24z" />
    <glyph glyph-name="Ugrave" unicode="&#xd9;" horiz-adv-x="983" 
d="M695 740h252v-379q0 -108 -60 -195t-162 -136.5t-223 -49.5q-130 0 -236 49t-167.5 135.5t-62.5 194.5v381h256v-381q0 -91 62.5 -134t148.5 -43q45 0 89 17.5t73.5 57.5t29.5 102v381zM284 910h224l70 -133h-174z" />
    <glyph glyph-name="Uacute" unicode="&#xda;" horiz-adv-x="983" 
d="M695 740h252v-379q0 -108 -60 -195t-162 -136.5t-223 -49.5q-130 0 -236 49t-167.5 135.5t-62.5 194.5v381h256v-381q0 -91 62.5 -134t148.5 -43q45 0 89 17.5t73.5 57.5t29.5 102v381zM400 777l70 133h224l-120 -133h-174z" />
    <glyph glyph-name="Ucircumflex" unicode="&#xdb;" horiz-adv-x="983" 
d="M695 740h252v-379q0 -108 -60 -195t-162 -136.5t-223 -49.5q-130 0 -236 49t-167.5 135.5t-62.5 194.5v381h256v-381q0 -91 62.5 -134t148.5 -43q45 0 89 17.5t73.5 57.5t29.5 102v381zM601 910l180 -136h-209l-81 61l-77 -61h-209l170 136h226z" />
    <glyph glyph-name="Udieresis" unicode="&#xdc;" horiz-adv-x="983" 
d="M695 740h252v-379q0 -108 -60 -195t-162 -136.5t-223 -49.5q-130 0 -236 49t-167.5 135.5t-62.5 194.5v381h256v-381q0 -91 62.5 -134t148.5 -43q45 0 89 17.5t73.5 57.5t29.5 102v381zM284 810.5q-27 27.5 -27 67.5q0 39 27 66t67 27q39 0 66.5 -27t27.5 -66
q0 -40 -27.5 -67.5t-66.5 -27.5q-40 0 -67 27.5zM550 810.5q-27 27.5 -27 67.5q0 39 27 66t67 27q39 0 66.5 -27t27.5 -66q0 -40 -27.5 -67.5t-66.5 -27.5q-40 0 -67 27.5z" />
    <glyph glyph-name="Yacute" unicode="&#xdd;" horiz-adv-x="974" 
d="M718 740h255l-354 -429v-311h-265v310l-353 430h255l225 -275zM391 777l70 133h224l-120 -133h-174z" />
    <glyph glyph-name="Thorn" unicode="&#xde;" horiz-adv-x="936" 
d="M764.5 617q71.5 -31 111 -86.5t39.5 -128.5v-4q0 -119 -84.5 -185t-227.5 -66h-315v-147h-247v740h247v-92h312q93 0 164.5 -31zM634 325q25 3 42 19t17 53t-17 54t-44 21t-76 4h-33q-20 0 -70 -0.5t-165 -0.5v-153h267h1q53 0 78 3z" />
    <glyph glyph-name="germandbls" unicode="&#xdf;" horiz-adv-x="953" 
d="M859.5 342.5q72.5 -39.5 72.5 -156.5q0 -75 -55 -115t-183 -55.5t-366 -15.5v156l103 -1q107 0 177 15.5t70 61.5q0 32 -23.5 43.5t-70.5 18.5q-35 5 -56.5 11.5t-36.5 22.5t-15 45q0 33 14.5 47t42.5 24q30 11 44.5 25t14.5 49q0 54 -43 79t-113 25q-76 0 -113.5 -36
t-46 -78.5t-8.5 -90.5v-417h-247v417q0 126 53.5 198t148 101t231.5 29q122 0 201 -31.5t114.5 -81t35.5 -103.5q0 -39 -17 -72.5t-46.5 -54t-66.5 -20.5q112 0 184.5 -39.5z" />
    <glyph glyph-name="agrave" unicode="&#xe0;" horiz-adv-x="786" 
d="M646 521q114 -48 114 -169v-352h-218l-17 71v5q-25 -45 -105.5 -66t-175.5 -21q-76 0 -152 33.5t-76 140.5q0 169 221 169q142 0 198 2.5t74 10t19 27.5v13q-1 33 -43.5 48.5t-96.5 15.5q-56 -1 -95.5 -21t-39.5 -61h-231q0 76 60 121.5t143.5 63t163.5 17.5
q143 0 257 -48zM486 168q38 33 41 84v14q-38 -16 -121 -16q-86 0 -120.5 -12t-35.5 -44q3 -30 31.5 -44.5t92.5 -14.5q74 0 112 33zM177 730h224l70 -133h-174z" />
    <glyph glyph-name="aacute" unicode="&#xe1;" horiz-adv-x="786" 
d="M646 521q114 -48 114 -169v-352h-218l-17 71v5q-25 -45 -105.5 -66t-175.5 -21q-76 0 -152 33.5t-76 140.5q0 169 221 169q142 0 198 2.5t74 10t19 27.5v13q-1 33 -43.5 48.5t-96.5 15.5q-56 -1 -95.5 -21t-39.5 -61h-231q0 76 60 121.5t143.5 63t163.5 17.5
q143 0 257 -48zM486 168q38 33 41 84v14q-38 -16 -121 -16q-86 0 -120.5 -12t-35.5 -44q3 -30 31.5 -44.5t92.5 -14.5q74 0 112 33zM266 597l70 133h224l-120 -133h-174z" />
    <glyph glyph-name="acircumflex" unicode="&#xe2;" horiz-adv-x="786" 
d="M646 521q114 -48 114 -169v-352h-218l-17 71v5q-25 -45 -105.5 -66t-175.5 -21q-76 0 -152 33.5t-76 140.5q0 169 221 169q142 0 198 2.5t74 10t19 27.5v13q-1 33 -43.5 48.5t-96.5 15.5q-56 -1 -95.5 -21t-39.5 -61h-231q0 76 60 121.5t143.5 63t163.5 17.5
q143 0 257 -48zM486 168q38 33 41 84v14q-38 -16 -121 -16q-86 0 -120.5 -12t-35.5 -44q3 -30 31.5 -44.5t92.5 -14.5q74 0 112 33zM499 730l180 -136h-209l-81 61l-77 -61h-209l170 136h226z" />
    <glyph glyph-name="atilde" unicode="&#xe3;" horiz-adv-x="786" 
d="M646 521q114 -48 114 -169v-352h-218l-17 71v5q-25 -45 -105.5 -66t-175.5 -21q-76 0 -152 33.5t-76 140.5q0 169 221 169q142 0 198 2.5t74 10t19 27.5v13q-1 33 -43.5 48.5t-96.5 15.5q-56 -1 -95.5 -21t-39.5 -61h-231q0 76 60 121.5t143.5 63t163.5 17.5
q143 0 257 -48zM486 168q38 33 41 84v14q-38 -16 -121 -16q-86 0 -120.5 -12t-35.5 -44q3 -30 31.5 -44.5t92.5 -14.5q74 0 112 33zM635 755q0 -147 -120 -147q-33 0 -61 7t-68 20q-50 12 -72 12q-46 0 -46 -33h-131q0 148 120 148q29 0 57.5 -7t47.5 -13t24 -8
q50 -12 72 -12q47 0 47 33h130z" />
    <glyph glyph-name="adieresis" unicode="&#xe4;" horiz-adv-x="786" 
d="M646 521q114 -48 114 -169v-352h-218l-17 71v5q-25 -45 -105.5 -66t-175.5 -21q-76 0 -152 33.5t-76 140.5q0 169 221 169q142 0 198 2.5t74 10t19 27.5v13q-1 33 -43.5 48.5t-96.5 15.5q-56 -1 -95.5 -21t-39.5 -61h-231q0 76 60 121.5t143.5 63t163.5 17.5
q143 0 257 -48zM486 168q38 33 41 84v14q-38 -16 -121 -16q-86 0 -120.5 -12t-35.5 -44q3 -30 31.5 -44.5t92.5 -14.5q74 0 112 33zM193 630.5q-27 27.5 -27 67.5q0 39 27 66t67 27q39 0 66.5 -27t27.5 -66q0 -40 -27.5 -67.5t-66.5 -27.5q-40 0 -67 27.5zM459 630.5
q-27 27.5 -27 67.5q0 39 27 66t67 27q39 0 66.5 -27t27.5 -66q0 -40 -27.5 -67.5t-66.5 -27.5q-40 0 -67 27.5z" />
    <glyph glyph-name="aring" unicode="&#xe5;" horiz-adv-x="786" 
d="M646 521q114 -48 114 -169v-352h-218l-17 71v5q-25 -45 -105.5 -66t-175.5 -21q-76 0 -152 33.5t-76 140.5q0 169 221 169q142 0 198 2.5t74 10t19 27.5v13q-1 33 -43.5 48.5t-96.5 15.5q-56 -1 -95.5 -21t-39.5 -61h-231q0 76 60 121.5t143.5 63t163.5 17.5
q143 0 257 -48zM486 168q38 33 41 84v14q-38 -16 -121 -16q-86 0 -120.5 -12t-35.5 -44q3 -30 31.5 -44.5t92.5 -14.5q74 0 112 33zM241 836q22 37 59.5 59t81.5 22q43 0 80.5 -22t59.5 -59.5t22 -80.5q0 -44 -22 -81.5t-59 -59.5t-81 -22t-81.5 22t-59.5 59.5t-22 81.5
t22 81zM333.5 707q19.5 -20 48.5 -20q28 0 47.5 20t19.5 48q0 27 -20 47t-47 20q-28 0 -48 -19.5t-20 -47.5t19.5 -48z" />
    <glyph glyph-name="ae" unicode="&#xe6;" horiz-adv-x="1327" 
d="M1305 250h-533q7 -63 47.5 -103.5t110.5 -40.5q57 0 101.5 27.5t44.5 84.5h229q0 -116 -99.5 -177t-276.5 -61q-99 0 -182.5 31t-136.5 87q-20 -30 -71.5 -55t-123 -39.5t-149.5 -14.5q-83 0 -166.5 33.5t-83.5 140.5q0 169 221 169q152 0 208 3t69.5 12.5t13.5 35.5
q0 35 -42.5 50.5t-97.5 15.5q-56 -1 -95.5 -20.5t-39.5 -61.5h-231q0 76 60 121.5t143.5 63t163.5 17.5q77 0 153 -14.5t130 -48.5q52 32 118 49t139 17q112 0 196.5 -36t131.5 -101.5t48 -153.5v-5h2h-2v-26zM828 422q-35 -28 -48 -78h290q-11 50 -44 78t-97 28
q-66 0 -101 -28zM538 269v2q0 -1 -1 -1zM463 154q37 19 55.5 50t18.5 66q-42 -20 -131 -20q-86 0 -120.5 -12t-35.5 -44q3 -30 31.5 -44.5t92.5 -14.5q52 0 89 19z" />
    <glyph glyph-name="ccedilla" unicode="&#xe7;" horiz-adv-x="764" 
d="M475 145q35 27 46 71h230q-10 -60 -50 -110.5t-104 -84t-144 -43.5v-29q57 0 104.5 -18.5t46.5 -71.5q0 -68 -71 -91.5t-155 -23.5q-204 0 -204 123h111q0 -29 30.5 -38t51.5 -9q23 0 53 6.5t30 30.5q0 30 -75 30h-51v91q-89 12 -160 52.5t-112 102.5t-41 136
q0 84 50 151.5t137 105.5t192 38q100 0 176.5 -30.5t123.5 -85.5t62 -127h-230q-11 45 -46 72t-85 27q-65 0 -106 -41.5t-41 -109.5q0 -66 40 -108.5t105 -42.5q51 0 86 27z" />
    <glyph glyph-name="egrave" unicode="&#xe8;" horiz-adv-x="791" 
d="M778 250h-533q7 -63 47.5 -103.5t110.5 -40.5q57 0 101.5 27.5t44.5 84.5h229q0 -116 -99.5 -177t-276.5 -61q-109 0 -198 37t-141 104.5t-52 154.5q0 88 51.5 155.5t141 104t198.5 36.5q112 0 196.5 -36t131.5 -101.5t48 -153.5v-5h2h-2v-26zM301 422q-35 -28 -48 -78
h290q-11 50 -44 78t-97 28q-66 0 -101 -28zM195 730h224l70 -133h-174z" />
    <glyph glyph-name="eacute" unicode="&#xe9;" horiz-adv-x="791" 
d="M778 250h-533q7 -63 47.5 -103.5t110.5 -40.5q57 0 101.5 27.5t44.5 84.5h229q0 -116 -99.5 -177t-276.5 -61q-109 0 -198 37t-141 104.5t-52 154.5q0 88 51.5 155.5t141 104t198.5 36.5q112 0 196.5 -36t131.5 -101.5t48 -153.5v-5h2h-2v-26zM301 422q-35 -28 -48 -78
h290q-11 50 -44 78t-97 28q-66 0 -101 -28zM294 597l70 133h224l-120 -133h-174z" />
    <glyph glyph-name="ecircumflex" unicode="&#xea;" horiz-adv-x="791" 
d="M778 250h-533q7 -63 47.5 -103.5t110.5 -40.5q57 0 101.5 27.5t44.5 84.5h229q0 -116 -99.5 -177t-276.5 -61q-109 0 -198 37t-141 104.5t-52 154.5q0 88 51.5 155.5t141 104t198.5 36.5q112 0 196.5 -36t131.5 -101.5t48 -153.5v-5h2h-2v-26zM301 422q-35 -28 -48 -78
h290q-11 50 -44 78t-97 28q-66 0 -101 -28zM506 730l180 -136h-209l-81 61l-77 -61h-209l170 136h226z" />
    <glyph glyph-name="edieresis" unicode="&#xeb;" horiz-adv-x="791" 
d="M778 250h-533q7 -63 47.5 -103.5t110.5 -40.5q57 0 101.5 27.5t44.5 84.5h229q0 -116 -99.5 -177t-276.5 -61q-109 0 -198 37t-141 104.5t-52 154.5q0 88 51.5 155.5t141 104t198.5 36.5q112 0 196.5 -36t131.5 -101.5t48 -153.5v-5h2h-2v-26zM301 422q-35 -28 -48 -78
h290q-11 50 -44 78t-97 28q-66 0 -101 -28zM196 630.5q-27 27.5 -27 67.5q0 39 27 66t67 27q39 0 66.5 -27t27.5 -66q0 -40 -27.5 -67.5t-66.5 -27.5q-40 0 -67 27.5zM462 630.5q-27 27.5 -27 67.5q0 39 27 66t67 27q39 0 66.5 -27t27.5 -66q0 -40 -27.5 -67.5t-66.5 -27.5
q-40 0 -67 27.5z" />
    <glyph glyph-name="igrave" unicode="&#xec;" horiz-adv-x="270" 
d="M-76 697h224l70 -133h-174zM244 0h-230v545h230v-545z" />
    <glyph glyph-name="iacute" unicode="&#xed;" horiz-adv-x="369" 
d="M49 565l70 133h224l-120 -133h-174zM256 0h-230v545h230v-545z" />
    <glyph glyph-name="icircumflex" unicode="&#xee;" horiz-adv-x="311" 
d="M235 570l-82 62l-77 -62h-209l170 136h227l180 -136h-209zM264 0h-230v545h230v-545z" />
    <glyph glyph-name="idieresis" unicode="&#xef;" horiz-adv-x="319" 
d="M-40.5 596.5q-27.5 27.5 -27.5 67.5q0 39 27.5 66t67.5 27q39 0 66.5 -27t27.5 -66q0 -40 -27.5 -67.5t-66.5 -27.5q-40 0 -67.5 27.5zM225.5 596.5q-27.5 27.5 -27.5 67.5q0 39 27.5 66t67.5 27q39 0 66.5 -27t27.5 -66q0 -40 -27.5 -67.5t-66.5 -27.5q-40 0 -67.5 27.5
zM273 0h-230v545h230v-545z" />
    <glyph glyph-name="eth" unicode="&#xf0;" 
d="M761.5 382.5q24.5 -51.5 24.5 -109.5q0 -83 -49.5 -150.5t-136 -105.5t-194.5 -38q-104 0 -195 38.5t-145.5 106t-54.5 149.5q0 75 45.5 138.5t122.5 103.5t170 50q-10 7 -18 13t-14 10l-157 -42l-86 66l153 41q-72 50 -121 86h242q18 -14 54 -40l145 39l85 -65l-140 -38
q74 -53 119.5 -89.5t80.5 -72.5q45 -39 69.5 -90.5zM480.5 139q34.5 17 55.5 51.5t21 82.5t-21 82.5t-55.5 51.5t-74.5 17q-39 0 -76.5 -17.5t-61.5 -51.5t-24 -82t24 -82t61.5 -51.5t76.5 -17.5q40 0 74.5 17z" />
    <glyph glyph-name="ntilde" unicode="&#xf1;" horiz-adv-x="766" 
d="M677.5 484q67.5 -79 67.5 -259v-225h-230v222q0 63 -7 103t-34 67t-84 27q-60 0 -89 -25.5t-37 -65.5t-8 -105v-223h-230v545h230v-68q76 86 231 86q123 0 190.5 -79zM620 741q0 -147 -120 -147q-33 0 -61 7t-68 20q-50 12 -72 12q-46 0 -46 -33h-131q0 148 120 148
q29 0 57.5 -7t47.5 -13t24 -8q50 -12 72 -12q47 0 47 33h130z" />
    <glyph glyph-name="ograve" unicode="&#xf2;" 
d="M601 530q87 -38 136 -105.5t49 -151.5q0 -83 -49.5 -150.5t-136 -105.5t-194.5 -38q-104 0 -195 38.5t-145.5 106t-54.5 149.5q0 83 54.5 150.5t145 106t195.5 38.5q108 0 195 -38zM480.5 139q34.5 17 55.5 51.5t21 82.5t-21 82.5t-55.5 51.5t-74.5 17q-39 0 -76.5 -17.5
t-61.5 -51.5t-24 -82t24 -82t61.5 -51.5t76.5 -17.5q40 0 74.5 17zM202 730h224l70 -133h-174z" />
    <glyph glyph-name="oacute" unicode="&#xf3;" 
d="M601 530q87 -38 136 -105.5t49 -151.5q0 -83 -49.5 -150.5t-136 -105.5t-194.5 -38q-104 0 -195 38.5t-145.5 106t-54.5 149.5q0 83 54.5 150.5t145 106t195.5 38.5q108 0 195 -38zM480.5 139q34.5 17 55.5 51.5t21 82.5t-21 82.5t-55.5 51.5t-74.5 17q-39 0 -76.5 -17.5
t-61.5 -51.5t-24 -82t24 -82t61.5 -51.5t76.5 -17.5q40 0 74.5 17zM299 597l70 133h224l-120 -133h-174z" />
    <glyph glyph-name="ocircumflex" unicode="&#xf4;" 
d="M601 530q87 -38 136 -105.5t49 -151.5q0 -83 -49.5 -150.5t-136 -105.5t-194.5 -38q-104 0 -195 38.5t-145.5 106t-54.5 149.5q0 83 54.5 150.5t145 106t195.5 38.5q108 0 195 -38zM480.5 139q34.5 17 55.5 51.5t21 82.5t-21 82.5t-55.5 51.5t-74.5 17q-39 0 -76.5 -17.5
t-61.5 -51.5t-24 -82t24 -82t61.5 -51.5t76.5 -17.5q40 0 74.5 17zM507 730l180 -136h-209l-81 61l-77 -61h-209l170 136h226z" />
    <glyph glyph-name="otilde" unicode="&#xf5;" 
d="M601 530q87 -38 136 -105.5t49 -151.5q0 -83 -49.5 -150.5t-136 -105.5t-194.5 -38q-104 0 -195 38.5t-145.5 106t-54.5 149.5q0 83 54.5 150.5t145 106t195.5 38.5q108 0 195 -38zM480.5 139q34.5 17 55.5 51.5t21 82.5t-21 82.5t-55.5 51.5t-74.5 17q-39 0 -76.5 -17.5
t-61.5 -51.5t-24 -82t24 -82t61.5 -51.5t76.5 -17.5q40 0 74.5 17zM644 737q0 -147 -120 -147q-33 0 -61 7t-68 20q-50 12 -72 12q-46 0 -46 -33h-131q0 148 120 148q29 0 57.5 -7t47.5 -13t24 -8q50 -12 72 -12q47 0 47 33h130z" />
    <glyph glyph-name="odieresis" unicode="&#xf6;" 
d="M601 530q87 -38 136 -105.5t49 -151.5q0 -83 -49.5 -150.5t-136 -105.5t-194.5 -38q-104 0 -195 38.5t-145.5 106t-54.5 149.5q0 83 54.5 150.5t145 106t195.5 38.5q108 0 195 -38zM480.5 139q34.5 17 55.5 51.5t21 82.5t-21 82.5t-55.5 51.5t-74.5 17q-39 0 -76.5 -17.5
t-61.5 -51.5t-24 -82t24 -82t61.5 -51.5t76.5 -17.5q40 0 74.5 17zM196 630.5q-27 27.5 -27 67.5q0 39 27 66t67 27q39 0 66.5 -27t27.5 -66q0 -40 -27.5 -67.5t-66.5 -27.5q-40 0 -67 27.5zM462 630.5q-27 27.5 -27 67.5q0 39 27 66t67 27q39 0 66.5 -27t27.5 -66
q0 -40 -27.5 -67.5t-66.5 -27.5q-40 0 -67 27.5z" />
    <glyph glyph-name="divide" unicode="&#xf7;" horiz-adv-x="477" 
d="M186 454q-22 22 -22 54t22 54t54 22t54 -22t22 -54t-22 -54t-54 -22t-54 22zM462 381v-115h-447v115h447zM186 84q-22 22 -22 54t22 54t54 22t54 -22t22 -54t-22 -54t-54 -22t-54 22z" />
    <glyph glyph-name="oslash" unicode="&#xf8;" horiz-adv-x="792" 
d="M642 507q66 -40 103 -101t37 -133q0 -83 -49.5 -150.5t-136 -105.5t-194.5 -38q-64 0 -128 16l-19 -26h-153l54 75q-69 40 -108.5 99.5t-39.5 129.5q0 83 54.5 150.5t145 106t194.5 38.5q63 0 122 -14l20 28h152zM263 192l166 230q-18 2 -27 2q-39 0 -76.5 -17.5
t-61.5 -51.5t-24 -82q0 -45 23 -81zM476.5 139q34.5 17 56 51.5t21.5 82.5q0 46 -21 82l-165 -230q17 -3 34 -3q40 0 74.5 17z" />
    <glyph glyph-name="ugrave" unicode="&#xf9;" horiz-adv-x="771" 
d="M515 545h230v-545h-230v68q-76 -86 -231 -86q-123 0 -190.5 79t-67.5 259v225h230v-222q0 -63 7 -103t34 -67t84 -27q79 0 106.5 54.5t27.5 142.5v222zM180 730h224l70 -133h-174z" />
    <glyph glyph-name="uacute" unicode="&#xfa;" horiz-adv-x="771" 
d="M515 545h230v-545h-230v68q-76 -86 -231 -86q-123 0 -190.5 79t-67.5 259v225h230v-222q0 -63 7 -103t34 -67t84 -27q79 0 106.5 54.5t27.5 142.5v222zM272 597l70 133h224l-120 -133h-174z" />
    <glyph glyph-name="ucircumflex" unicode="&#xfb;" horiz-adv-x="771" 
d="M515 545h230v-545h-230v68q-76 -86 -231 -86q-123 0 -190.5 79t-67.5 259v225h230v-222q0 -63 7 -103t34 -67t84 -27q79 0 106.5 54.5t27.5 142.5v222zM490 730l180 -136h-209l-81 61l-77 -61h-209l170 136h226z" />
    <glyph glyph-name="udieresis" unicode="&#xfc;" horiz-adv-x="771" 
d="M515 545h230v-545h-230v68q-76 -86 -231 -86q-123 0 -190.5 79t-67.5 259v225h230v-222q0 -63 7 -103t34 -67t84 -27q79 0 106.5 54.5t27.5 142.5v222zM177 622.5q-27 27.5 -27 67.5q0 39 27 66t67 27q39 0 66.5 -27t27.5 -66q0 -40 -27.5 -67.5t-66.5 -27.5
q-40 0 -67 27.5zM443 622.5q-27 27.5 -27 67.5q0 39 27 66t67 27q39 0 66.5 -27t27.5 -66q0 -40 -27.5 -67.5t-66.5 -27.5q-40 0 -67 27.5z" />
    <glyph glyph-name="yacute" unicode="&#xfd;" horiz-adv-x="876" 
d="M868 545l-336 -668q-33 -66 -127.5 -85t-212.5 -19v183q57 0 79 7t22 20q0 4 -4 14l-281 548h246l186 -403l182 403h246zM318 597l70 133h224l-120 -133h-174z" />
    <glyph glyph-name="thorn" unicode="&#xfe;" horiz-adv-x="800" 
d="M780 179v0q-2 -71 -35.5 -135t-93.5 -103.5t-136 -39.5q-173 0 -259 79v-170h-230v735h230v-145q87 80 259 76q77 0 136.5 -38t93.5 -104t35 -148v-3v-4zM479.5 58q33.5 21 50.5 54.5t18 71.5q-2 69 -39.5 113.5t-109.5 44.5q-41 0 -73.5 -20.5t-50.5 -54.5t-18 -73h-1
v-3h1q0 -70 39.5 -112t102.5 -42q47 0 80.5 21z" />
    <glyph glyph-name="ydieresis" unicode="&#xff;" horiz-adv-x="876" 
d="M868 545l-336 -668q-33 -66 -127.5 -85t-212.5 -19v183q57 0 79 7t22 20q0 4 -4 14l-281 548h246l186 -403l182 403h246zM218 630.5q-27 27.5 -27 67.5q0 39 27 66t67 27q39 0 66.5 -27t27.5 -66q0 -40 -27.5 -67.5t-66.5 -27.5q-40 0 -67 27.5zM484 630.5
q-27 27.5 -27 67.5q0 39 27 66t67 27q39 0 66.5 -27t27.5 -66q0 -40 -27.5 -67.5t-66.5 -27.5q-40 0 -67 27.5z" />
    <glyph glyph-name="Amacron" unicode="&#x100;" horiz-adv-x="1017" 
d="M1036 0h-249l-69 127h-419l-69 -127h-249l401 740h253zM509 514l-120 -220h239zM286 773v132h437v-132h-437z" />
    <glyph glyph-name="amacron" unicode="&#x101;" horiz-adv-x="786" 
d="M646 521q114 -48 114 -169v-352h-218l-17 71v5q-25 -45 -105.5 -66t-175.5 -21q-76 0 -152 33.5t-76 140.5q0 169 221 169q142 0 198 2.5t74 10t19 27.5v13q-1 33 -43.5 48.5t-96.5 15.5q-56 -1 -95.5 -21t-39.5 -61h-231q0 76 60 121.5t143.5 63t163.5 17.5
q143 0 257 -48zM486 168q38 33 41 84v14q-38 -16 -121 -16q-86 0 -120.5 -12t-35.5 -44q3 -30 31.5 -44.5t92.5 -14.5q74 0 112 33zM172 602v132h437v-132h-437z" />
    <glyph glyph-name="Abreve" unicode="&#x102;" horiz-adv-x="1017" 
d="M1036 0h-249l-69 127h-419l-69 -127h-249l401 740h253zM509 514l-120 -220h239zM749 975q0 -99 -68.5 -149t-177.5 -50q-111 0 -180 50t-69 149h137q0 -46 32 -77.5t79 -31.5q46 0 78.5 31.5t32.5 77.5h136z" />
    <glyph glyph-name="abreve" unicode="&#x103;" horiz-adv-x="786" 
d="M646 521q114 -48 114 -169v-352h-218l-17 71v5q-25 -45 -105.5 -66t-175.5 -21q-76 0 -152 33.5t-76 140.5q0 169 221 169q142 0 198 2.5t74 10t19 27.5v13q-1 33 -43.5 48.5t-96.5 15.5q-56 -1 -95.5 -21t-39.5 -61h-231q0 76 60 121.5t143.5 63t163.5 17.5
q143 0 257 -48zM486 168q38 33 41 84v14q-38 -16 -121 -16q-86 0 -120.5 -12t-35.5 -44q3 -30 31.5 -44.5t92.5 -14.5q74 0 112 33zM636 801q0 -99 -68.5 -149t-177.5 -50q-111 0 -180 50t-69 149h137q0 -46 32 -77.5t79 -31.5q46 0 78.5 31.5t32.5 77.5h136z" />
    <glyph glyph-name="Aogonek" unicode="&#x104;" horiz-adv-x="1017" 
d="M782.5 -119q16.5 -18 69.5 -18v-43q-68 -2 -107.5 8.5t-57 35t-17.5 68.5q0 49 22 74.5t73 33.5l-47 87h-419l-69 -127h-249l401 740h253l401 -740h-206q-39 -4 -51.5 -21.5t-12.5 -46.5q0 -33 16.5 -51zM509 514l-120 -220h239z" />
    <glyph glyph-name="aogonek" unicode="&#x105;" horiz-adv-x="786" 
d="M760 0h-1v-1q-53 0 -69.5 -18t-16.5 -51t16.5 -51t69.5 -18v-43q-68 -2 -107.5 8.5t-57 35t-17.5 68.5q0 45 19 70h-54l-17 71v5q-25 -45 -105.5 -66t-175.5 -21q-76 0 -152 33.5t-76 140.5q0 169 221 169q142 0 198 2.5t74 10t19 27.5v13q-1 33 -43.5 48.5t-96.5 15.5
q-56 -1 -95.5 -21t-39.5 -61h-231q0 76 60 121.5t143.5 63t163.5 17.5q143 0 257 -48t114 -169v-352zM486 168q38 33 41 84v14q-38 -16 -121 -16q-86 0 -120.5 -12t-35.5 -44q3 -30 31.5 -44.5t92.5 -14.5q74 0 112 33z" />
    <glyph glyph-name="Cacute" unicode="&#x106;" horiz-adv-x="1011" 
d="M86.5 569q65.5 89 179 139.5t251.5 50.5q124 0 224 -39.5t164 -111t85 -167.5h-256q-15 40 -50.5 69.5t-79.5 44.5t-86 15q-59 0 -114.5 -24t-90 -69.5t-34.5 -107.5t34 -107.5t88.5 -69t116.5 -23.5q69 0 127.5 33t86.5 94h257q-22 -95 -86 -166.5t-163 -110.5t-223 -39
q-137 0 -250.5 51t-179.5 140t-66 198q0 111 65.5 200zM403 792l70 133h224l-120 -133h-174z" />
    <glyph glyph-name="cacute" unicode="&#x107;" horiz-adv-x="764" 
d="M61 420.5q50 67.5 137 105.5t192 38q100 0 176.5 -30.5t123.5 -85.5t62 -127h-230q-11 45 -46 72t-85 27q-65 0 -106 -41.5t-41 -109.5q0 -66 40 -108.5t105 -42.5q51 0 86 27t46 71h230q-11 -68 -60 -123t-127.5 -87t-173.5 -32q-104 0 -191 38.5t-137.5 106
t-50.5 150.5q0 84 50 151.5zM281 597l70 133h224l-120 -133h-174z" />
    <glyph glyph-name="Cdotaccent" unicode="&#x10a;" horiz-adv-x="1011" 
d="M86.5 569q65.5 89 179 139.5t251.5 50.5q124 0 224 -39.5t164 -111t85 -167.5h-256q-15 40 -50.5 69.5t-79.5 44.5t-86 15q-59 0 -114.5 -24t-90 -69.5t-34.5 -107.5t34 -107.5t88.5 -69t116.5 -23.5q69 0 127.5 33t86.5 94h257q-22 -95 -86 -166.5t-163 -110.5t-223 -39
q-137 0 -250.5 51t-179.5 140t-66 198q0 111 65.5 200zM430.5 820.5q-27.5 27.5 -27.5 67.5q0 39 27.5 66t67.5 27q39 0 66.5 -27t27.5 -66q0 -40 -27.5 -67.5t-66.5 -27.5q-40 0 -67.5 27.5z" />
    <glyph glyph-name="cdotaccent" unicode="&#x10b;" horiz-adv-x="764" 
d="M61 420.5q50 67.5 137 105.5t192 38q100 0 176.5 -30.5t123.5 -85.5t62 -127h-230q-11 45 -46 72t-85 27q-65 0 -106 -41.5t-41 -109.5q0 -66 40 -108.5t105 -42.5q51 0 86 27t46 71h230q-11 -68 -60 -123t-127.5 -87t-173.5 -32q-104 0 -191 38.5t-137.5 106
t-50.5 150.5q0 84 50 151.5zM312.5 623.5q-27.5 27.5 -27.5 67.5q0 39 27.5 66t67.5 27q39 0 66.5 -27t27.5 -66q0 -40 -27.5 -67.5t-66.5 -27.5q-40 0 -67.5 27.5z" />
    <glyph glyph-name="Ccaron" unicode="&#x10c;" horiz-adv-x="1011" 
d="M86.5 569q65.5 89 179 139.5t251.5 50.5q124 0 224 -39.5t164 -111t85 -167.5h-256q-15 40 -50.5 69.5t-79.5 44.5t-86 15q-59 0 -114.5 -24t-90 -69.5t-34.5 -107.5t34 -107.5t88.5 -69t116.5 -23.5q69 0 127.5 33t86.5 94h257q-22 -95 -86 -166.5t-163 -110.5t-223 -39
q-137 0 -250.5 51t-179.5 140t-66 198q0 111 65.5 200zM506 867l81 61h209l-180 -136h-226l-170 136h209z" />
    <glyph glyph-name="ccaron" unicode="&#x10d;" horiz-adv-x="764" 
d="M61 420.5q50 67.5 137 105.5t192 38q100 0 176.5 -30.5t123.5 -85.5t62 -127h-230q-11 45 -46 72t-85 27q-65 0 -106 -41.5t-41 -109.5q0 -66 40 -108.5t105 -42.5q51 0 86 27t46 71h230q-11 -68 -60 -123t-127.5 -87t-173.5 -32q-104 0 -191 38.5t-137.5 106
t-50.5 150.5q0 84 50 151.5zM378 672l81 61h209l-180 -136h-226l-170 136h209z" />
    <glyph glyph-name="Dcaron" unicode="&#x10e;" horiz-adv-x="908" 
d="M831.5 180q-55.5 -84 -157.5 -132t-237 -48v-1h-199v1h-197v740h395q135 0 237.5 -48t158 -132t55.5 -191q0 -105 -55.5 -189zM442 198q87 0 144.5 42.5t57.5 128.5q0 48 -28 87.5t-74.5 62t-99.5 22.5h-154v-343h154zM380 849l81 61h209l-180 -136h-226l-170 136h209z
" />
    <glyph glyph-name="dcaron" unicode="&#x10f;" horiz-adv-x="975" 
d="M811 739h162v-124q-2 -40 -25.5 -66t-70.5 -26h-67v48h19q17 0 21 8t4 26v10h-43v124zM538 740h230v-738h-210l-12 65q-85 -82 -266 -78q-77 0 -136.5 38.5t-93.5 105t-35 148.5v3v3q2 71 35 135t93 103.5t137 39.5q173 0 258 -78v253zM468.5 144.5q32.5 20.5 51 54.5
t18.5 73v3q0 70 -39.5 112t-102.5 42q-71 0 -109.5 -43.5t-39.5 -103.5q1 -69 39 -113.5t110 -44.5q40 0 72.5 20.5z" />
    <glyph glyph-name="Dcroat" unicode="&#x110;" horiz-adv-x="930" 
d="M853 180q-55 -84 -157 -132t-237 -48v-1h-199v1h-197v284h-60v176h60v280h395q135 0 237.5 -47.5t157.5 -132t55 -191.5q0 -105 -55 -189zM463 198q87 0 144.5 42.5t57.5 128.5q0 48 -27.5 87.5t-74 62t-100.5 22.5h-154v-81h167v-176h-167v-86h154z" />
    <glyph glyph-name="dcroat" unicode="&#x111;" horiz-adv-x="857" 
d="M842 695v-118h-74v-575h-210l-12 65q-85 -82 -266 -78q-77 0 -136.5 38.5t-93.5 105t-35 148.5v3v3q2 71 35 135t93 103.5t137 39.5q173 0 258 -78v90h-140v118h140v45h230v-45h74zM468.5 144.5q32.5 20.5 51 54.5t18.5 73v3q0 70 -39.5 112t-102.5 42
q-71 0 -109.5 -43.5t-39.5 -103.5q1 -69 39 -113.5t110 -44.5q40 0 72.5 20.5z" />
    <glyph glyph-name="Emacron" unicode="&#x112;" horiz-adv-x="861" 
d="M750 288h-462v-113l546 4v-179h-793v740h793l1 -179h-547v-98h462v-175zM206 774v132h437v-132h-437z" />
    <glyph glyph-name="emacron" unicode="&#x113;" horiz-adv-x="791" 
d="M778 250h-533q7 -63 47.5 -103.5t110.5 -40.5q57 0 101.5 27.5t44.5 84.5h229q0 -116 -99.5 -177t-276.5 -61q-109 0 -198 37t-141 104.5t-52 154.5q0 88 51.5 155.5t141 104t198.5 36.5q112 0 196.5 -36t131.5 -101.5t48 -153.5v-5h2h-2v-26zM301 422q-35 -28 -48 -78
h290q-11 50 -44 78t-97 28q-66 0 -101 -28zM186 604v132h437v-132h-437z" />
    <glyph glyph-name="Edotaccent" unicode="&#x116;" horiz-adv-x="861" 
d="M750 288h-462v-113l546 4v-179h-793v740h793l1 -179h-547v-98h462v-175zM363.5 810.5q-27.5 27.5 -27.5 67.5q0 39 27.5 66t67.5 27q39 0 66.5 -27t27.5 -66q0 -40 -27.5 -67.5t-66.5 -27.5q-40 0 -67.5 27.5z" />
    <glyph glyph-name="edotaccent" unicode="&#x117;" horiz-adv-x="791" 
d="M778 250h-533q7 -63 47.5 -103.5t110.5 -40.5q57 0 101.5 27.5t44.5 84.5h229q0 -116 -99.5 -177t-276.5 -61q-109 0 -198 37t-141 104.5t-52 154.5q0 88 51.5 155.5t141 104t198.5 36.5q112 0 196.5 -36t131.5 -101.5t48 -153.5v-5h2h-2v-26zM301 422q-35 -28 -48 -78
h290q-11 50 -44 78t-97 28q-66 0 -101 -28zM329.5 631.5q-27.5 27.5 -27.5 67.5q0 39 27.5 66t67.5 27q39 0 66.5 -27t27.5 -66q0 -40 -27.5 -67.5t-66.5 -27.5q-40 0 -67.5 27.5z" />
    <glyph glyph-name="Eogonek" unicode="&#x118;" horiz-adv-x="861" 
d="M288 288v-113l546 4v-179h-1q-53 0 -69.5 -18t-16.5 -51t16.5 -51t69.5 -18v-43q-68 -2 -107.5 8.5t-57 35t-17.5 68.5q0 45 18 69h-628v740h793l1 -179h-547v-98h462v-175h-462z" />
    <glyph glyph-name="eogonek" unicode="&#x119;" horiz-adv-x="791" 
d="M778 250h-533q7 -63 47.5 -103.5t110.5 -40.5q57 0 101.5 27.5t44.5 84.5h229q0 -116 -98.5 -176.5t-274.5 -61.5q-11 -15 -11 -45q0 -33 16.5 -51t69.5 -18v-43q-68 -2 -107.5 8.5t-57 35t-17.5 68.5q0 30 9 53q-86 15 -153 54.5t-105 99.5t-38 134q0 88 51.5 155.5
t141 104t198.5 36.5q112 0 196.5 -36t131.5 -101.5t48 -153.5v-5h2h-2v-26zM301 422q-35 -28 -48 -78h290q-11 50 -44 78t-97 28q-66 0 -101 -28z" />
    <glyph glyph-name="Ecaron" unicode="&#x11a;" horiz-adv-x="861" 
d="M750 288h-462v-113l546 4v-179h-793v740h793l1 -179h-547v-98h462v-175zM426 849l81 61h209l-180 -136h-226l-170 136h209z" />
    <glyph glyph-name="ecaron" unicode="&#x11b;" horiz-adv-x="791" 
d="M778 250h-533q7 -63 47.5 -103.5t110.5 -40.5q57 0 101.5 27.5t44.5 84.5h229q0 -116 -99.5 -177t-276.5 -61q-109 0 -198 37t-141 104.5t-52 154.5q0 88 51.5 155.5t141 104t198.5 36.5q112 0 196.5 -36t131.5 -101.5t48 -153.5v-5h2h-2v-26zM301 422q-35 -28 -48 -78
h290q-11 50 -44 78t-97 28q-66 0 -101 -28zM400 680l81 61h209l-180 -136h-226l-170 136h209z" />
    <glyph glyph-name="Gbreve" unicode="&#x11e;" horiz-adv-x="1012" 
d="M990 0h-155l-19 57q-126 -77 -300 -77q-138 0 -251 51t-178.5 140t-65.5 198q0 111 66 200t179 139.5t250 50.5q123 0 223 -35t165 -102.5t84 -162.5l-257 -1q-20 58 -79.5 85t-134.5 27q-62 0 -113 -24.5t-80.5 -70t-29.5 -106.5q0 -62 30 -107.5t81 -69t112 -23.5
t114 23t83 67h-194v132h469v-87zM756 991q0 -99 -68.5 -149t-177.5 -50q-111 0 -180 50t-69 149h137q0 -46 32 -77.5t79 -31.5q46 0 78.5 31.5t32.5 77.5h136z" />
    <glyph glyph-name="gbreve" unicode="&#x11f;" horiz-adv-x="794" 
d="M765 545v-545q-4 -79 -62.5 -126.5t-138 -67t-153.5 -19.5q-110 0 -182 7.5t-130.5 45.5t-58.5 121h234q0 -29 25.5 -41.5t45 -13.5t66.5 -1q45 0 84.5 22.5t39.5 82.5v48q-83 -76 -257 -76q-76 0 -136 39.5t-94.5 103.5t-36.5 135v4v3q1 82 35 148t94.5 104t137.5 38
q179 5 263 -77l13 65h211zM496 158.5q39 40.5 39 115.5v3q0 38 -18 72t-50 54t-71 20q-72 0 -111 -43.5t-41 -113.5q2 -64 40.5 -106t108.5 -42q64 0 103 40.5zM638 783q0 -99 -68.5 -149t-177.5 -50q-111 0 -180 50t-69 149h137q0 -46 32 -77.5t79 -31.5q46 0 78.5 31.5
t32.5 77.5h136z" />
    <glyph glyph-name="Gdotaccent" unicode="&#x120;" horiz-adv-x="1012" 
d="M990 0h-155l-19 57q-126 -77 -300 -77q-138 0 -251 51t-178.5 140t-65.5 198q0 111 66 200t179 139.5t250 50.5q123 0 223 -35t165 -102.5t84 -162.5l-257 -1q-20 58 -79.5 85t-134.5 27q-62 0 -113 -24.5t-80.5 -70t-29.5 -106.5q0 -62 30 -107.5t81 -69t112 -23.5
t114 23t83 67h-194v132h469v-87zM440.5 810.5q-27.5 27.5 -27.5 67.5q0 39 27.5 66t67.5 27q39 0 66.5 -27t27.5 -66q0 -40 -27.5 -67.5t-66.5 -27.5q-40 0 -67.5 27.5z" />
    <glyph glyph-name="gdotaccent" unicode="&#x121;" horiz-adv-x="794" 
d="M765 545v-545q-4 -79 -62.5 -126.5t-138 -67t-153.5 -19.5q-110 0 -182 7.5t-130.5 45.5t-58.5 121h234q0 -29 25.5 -41.5t45 -13.5t66.5 -1q45 0 84.5 22.5t39.5 82.5v48q-83 -76 -257 -76q-76 0 -136 39.5t-94.5 103.5t-36.5 135v4v3q1 82 35 148t94.5 104t137.5 38
q179 5 263 -77l13 65h211zM496 158.5q39 40.5 39 115.5v3q0 38 -18 72t-50 54t-71 20q-72 0 -111 -43.5t-41 -113.5q2 -64 40.5 -106t108.5 -42q64 0 103 40.5zM316.5 612.5q-27.5 27.5 -27.5 67.5q0 39 27.5 66t67.5 27q39 0 66.5 -27t27.5 -66q0 -40 -27.5 -67.5
t-66.5 -27.5q-40 0 -67.5 27.5z" />
    <glyph glyph-name="uni0122" unicode="&#x122;" horiz-adv-x="1012" 
d="M990 0h-155l-19 57q-126 -77 -300 -77q-138 0 -251 51t-178.5 140t-65.5 198q0 111 66 200t179 139.5t250 50.5q123 0 223 -35t165 -102.5t84 -162.5l-257 -1q-20 58 -79.5 85t-134.5 27q-62 0 -113 -24.5t-80.5 -70t-29.5 -106.5q0 -62 30 -107.5t81 -69t112 -23.5
t114 23t83 67h-194v132h469v-87zM443 -50h162v-124q-2 -40 -25.5 -66t-70.5 -26h-67v48h19q17 0 21 8t4 26v10h-43v124z" />
    <glyph glyph-name="uni0123" unicode="&#x123;" horiz-adv-x="794" 
d="M765 545v-545q-4 -79 -62.5 -126.5t-138 -67t-153.5 -19.5q-110 0 -182 7.5t-130.5 45.5t-58.5 121h234q0 -29 25.5 -41.5t45 -13.5t66.5 -1q45 0 84.5 22.5t39.5 82.5v48q-83 -76 -257 -76q-76 0 -136 39.5t-94.5 103.5t-36.5 135v4v3q1 82 35 148t94.5 104t137.5 38
q179 5 263 -77l13 65h211zM496 158.5q39 40.5 39 115.5v3q0 38 -18 72t-50 54t-71 20q-72 0 -111 -43.5t-41 -113.5q2 -64 40.5 -106t108.5 -42q64 0 103 40.5zM418 715h43v-124h-162v124q2 40 25.5 66t70.5 26h67v-48h-19q-17 0 -21 -8t-4 -26v-10z" />
    <glyph glyph-name="Hbar" unicode="&#x126;" horiz-adv-x="1104" 
d="M1003 660h81v-121h-81v-539h-246v283h-395v-283h-247v539h-82v121h82v80h247v-80h395v80h246v-80zM362 477h395v62h-395v-62z" />
    <glyph glyph-name="hbar" unicode="&#x127;" horiz-adv-x="825" 
d="M732.5 483q70.5 -80 70.5 -258v-225h-230v222q0 64 -6.5 104t-33.5 66.5t-84 26.5q-60 0 -89.5 -27.5t-37 -67.5t-7.5 -101v-223h-230v574h-74v117h74v49h230v-49h140v-117h-140v-95q76 84 229 84q118 0 188.5 -80z" />
    <glyph glyph-name="Imacron" unicode="&#x12a;" horiz-adv-x="329" 
d="M288 0h-247v740h247v-740zM-50 774v132h437v-132h-437z" />
    <glyph glyph-name="imacron" unicode="&#x12b;" horiz-adv-x="480" 
d="M21 610v133h437v-133h-437zM359 0h-230v560h230v-560z" />
    <glyph glyph-name="Iogonek" unicode="&#x12e;" horiz-adv-x="329" 
d="M41 740h247v-740h-2q-53 0 -69.5 -18t-16.5 -51t16.5 -51t69.5 -18v-43q-68 -2 -107.5 8.5t-57 35t-17.5 68.5q0 45 18 69h-81v740z" />
    <glyph glyph-name="iogonek" unicode="&#x12f;" horiz-adv-x="283" 
d="M26 589v151h230v-151h-230zM26 0v560h230v-560h-6q-53 0 -69.5 -18t-16.5 -51t16.5 -51t69.5 -18v-43q-68 -2 -107.5 8.5t-57 35t-17.5 68.5q0 45 18 69h-60z" />
    <glyph glyph-name="Idotaccent" unicode="&#x130;" horiz-adv-x="329" 
d="M288 0h-247v740h247v-740zM90.5 810.5q-27.5 27.5 -27.5 67.5q0 39 27.5 66t67.5 27q39 0 66.5 -27t27.5 -66q0 -40 -27.5 -67.5t-66.5 -27.5q-40 0 -67.5 27.5z" />
    <glyph glyph-name="dotlessi" unicode="&#x131;" horiz-adv-x="283" 
d="M256 0h-230v560h230v-560z" />
    <glyph glyph-name="uni0136" unicode="&#x136;" horiz-adv-x="872" 
d="M488 401l403 -401h-303l-300 310v-310h-247v740h247v-257l282 257h306zM357 -33h162v-124q-2 -40 -25.5 -66t-70.5 -26h-67v48h19q17 0 21 8t4 26v10h-43v124z" />
    <glyph glyph-name="uni0137" unicode="&#x137;" horiz-adv-x="741" 
d="M478 301l273 -301h-263l-234 252v-252h-230v740h230v-392l199 197h267zM304 -36h162v-124q-2 -40 -25.5 -66t-70.5 -26h-67v48h19q17 0 21 8t4 26v10h-43v124z" />
    <glyph glyph-name="Lacute" unicode="&#x139;" horiz-adv-x="780" 
d="M288 740v-550h466v-190h-713v740h247zM74 773l70 133h224l-120 -133h-174z" />
    <glyph glyph-name="lacute" unicode="&#x13a;" horiz-adv-x="286" 
d="M256 0h-230v740h230v-740zM51 777l70 133h224l-120 -133h-174z" />
    <glyph glyph-name="uni013B" unicode="&#x13b;" horiz-adv-x="780" 
d="M288 740v-550h466v-190h-713v740h247zM298 -34h162v-124q-2 -40 -25.5 -66t-70.5 -26h-67v48h19q17 0 21 8t4 26v10h-43v124z" />
    <glyph glyph-name="uni013C" unicode="&#x13c;" horiz-adv-x="286" 
d="M256 0h-230v740h230v-740zM61 -36h162v-124q-2 -40 -25.5 -66t-70.5 -26h-67v48h19q17 0 21 8t4 26v10h-43v124z" />
    <glyph glyph-name="Lcaron" unicode="&#x13d;" horiz-adv-x="780" 
d="M288 740v-550h466v-190h-713v740h247zM167 849l81 61h209l-180 -136h-226l-170 136h209z" />
    <glyph glyph-name="lcaron" unicode="&#x13e;" horiz-adv-x="286" 
d="M256 0h-230v740h230v-740zM145 849l81 61h209l-180 -136h-226l-170 136h209z" />
    <glyph glyph-name="Lslash" unicode="&#x141;" horiz-adv-x="809" 
d="M330 354v-164h466v-190h-712v236l-76 -36v143l76 37v360h246v-242l121 58v-144z" />
    <glyph glyph-name="lslash" unicode="&#x142;" horiz-adv-x="435" 
d="M331 519l92 44v-144l-92 -44v-375h-230v265l-90 -43v143l90 43v332h230v-221z" />
    <glyph glyph-name="Nacute" unicode="&#x143;" horiz-adv-x="1028" 
d="M288 0h-247v740zM986 0h-246h246zM740 287v453h246v-740h-246l-452 453v-453h-247v740h247zM407 777l70 133h224l-120 -133h-174z" />
    <glyph glyph-name="nacute" unicode="&#x144;" horiz-adv-x="766" 
d="M677.5 484q67.5 -79 67.5 -259v-225h-230v222q0 63 -7 103t-34 67t-84 27q-60 0 -89 -25.5t-37 -65.5t-8 -105v-223h-230v545h230v-68q76 86 231 86q123 0 190.5 -79zM294 592l70 133h224l-120 -133h-174z" />
    <glyph glyph-name="uni0145" unicode="&#x145;" horiz-adv-x="1028" 
d="M288 0h-247v740zM986 0h-246h246zM740 287v453h246v-740h-246l-452 453v-453h-247v740h247zM429 -34h162v-124q-2 -40 -25.5 -66t-70.5 -26h-67v48h19q17 0 21 8t4 26v10h-43v124z" />
    <glyph glyph-name="uni0146" unicode="&#x146;" horiz-adv-x="766" 
d="M677.5 484q67.5 -79 67.5 -259v-225h-230v222q0 63 -7 103t-34 67t-84 27q-60 0 -89 -25.5t-37 -65.5t-8 -105v-223h-230v545h230v-68q76 86 231 86q123 0 190.5 -79zM308 -36h162v-124q-2 -40 -25.5 -66t-70.5 -26h-67v48h19q17 0 21 8t4 26v10h-43v124z" />
    <glyph glyph-name="Ncaron" unicode="&#x147;" horiz-adv-x="1028" 
d="M288 0h-247v740zM986 0h-246h246zM740 287v453h246v-740h-246l-452 453v-453h-247v740h247zM515 849l81 61h209l-180 -136h-226l-170 136h209z" />
    <glyph glyph-name="ncaron" unicode="&#x148;" horiz-adv-x="766" 
d="M677.5 484q67.5 -79 67.5 -259v-225h-230v222q0 63 -7 103t-34 67t-84 27q-60 0 -89 -25.5t-37 -65.5t-8 -105v-223h-230v545h230v-68q76 86 231 86q123 0 190.5 -79zM385 670l81 61h209l-180 -136h-226l-170 136h209z" />
    <glyph glyph-name="Eng" unicode="&#x14a;" horiz-adv-x="1028" 
d="M288 0h-247v740zM986 0h-246h246zM986 134h1v-139q0 -103 -41.5 -160t-131.5 -81t-247 -24v181q66 0 120 18t53 71l-452 453v-453h-247v740h247l452 -453v453h246v-606z" />
    <glyph glyph-name="eng" unicode="&#x14b;" horiz-adv-x="765" 
d="M676.5 484q67.5 -79 67.5 -259v-229q0 -104 -43 -160.5t-130.5 -78.5t-237.5 -22v164q68 0 104 5.5t56.5 27.5t20.5 68v222q0 63 -7 103t-34 67t-84 27q-61 0 -90 -25.5t-36.5 -65t-7.5 -105.5v-223h-230v545h230v-68q76 86 231 86q123 0 190.5 -79z" />
    <glyph glyph-name="Omacron" unicode="&#x14c;" horiz-adv-x="1009" 
d="M753.5 705.5q110.5 -50.5 173 -139t62.5 -199.5q0 -110 -62.5 -198t-172.5 -138.5t-247 -50.5q-132 0 -244 50.5t-177.5 139t-65.5 197.5q0 110 65.5 199t177 139.5t243.5 50.5q137 0 247.5 -50.5zM614.5 191q51.5 24 83.5 69t32 107t-32.5 107.5t-84.5 69t-108 23.5
q-57 0 -108 -24t-82.5 -69.5t-31.5 -106.5q0 -62 32 -107t83.5 -69t108.5 -24q56 0 107.5 24zM283 792v132h437v-132h-437z" />
    <glyph glyph-name="omacron" unicode="&#x14d;" 
d="M601 530q87 -38 136 -105.5t49 -151.5q0 -83 -49.5 -150.5t-136 -105.5t-194.5 -38q-104 0 -195 38.5t-145.5 106t-54.5 149.5q0 83 54.5 150.5t145 106t195.5 38.5q108 0 195 -38zM480.5 139q34.5 17 55.5 51.5t21 82.5t-21 82.5t-55.5 51.5t-74.5 17q-39 0 -76.5 -17.5
t-61.5 -51.5t-24 -82t24 -82t61.5 -51.5t76.5 -17.5q40 0 74.5 17zM188 603v132h437v-132h-437z" />
    <glyph glyph-name="Ohungarumlaut" unicode="&#x150;" horiz-adv-x="1009" 
d="M753.5 705.5q110.5 -50.5 173 -139t62.5 -199.5q0 -110 -62.5 -198t-172.5 -138.5t-247 -50.5q-132 0 -244 50.5t-177.5 139t-65.5 197.5q0 110 65.5 199t177 139.5t243.5 50.5q137 0 247.5 -50.5zM614.5 191q51.5 24 83.5 69t32 107t-32.5 107.5t-84.5 69t-108 23.5
q-57 0 -108 -24t-82.5 -69.5t-31.5 -106.5q0 -62 32 -107t83.5 -69t108.5 -24q56 0 107.5 24zM329 790l70 133h140l-70 -133h-140zM530 790l70 133h140l-70 -133h-140z" />
    <glyph glyph-name="ohungarumlaut" unicode="&#x151;" 
d="M601 530q87 -38 136 -105.5t49 -151.5q0 -83 -49.5 -150.5t-136 -105.5t-194.5 -38q-104 0 -195 38.5t-145.5 106t-54.5 149.5q0 83 54.5 150.5t145 106t195.5 38.5q108 0 195 -38zM480.5 139q34.5 17 55.5 51.5t21 82.5t-21 82.5t-55.5 51.5t-74.5 17q-39 0 -76.5 -17.5
t-61.5 -51.5t-24 -82t24 -82t61.5 -51.5t76.5 -17.5q40 0 74.5 17zM214 601l70 133h140l-70 -133h-140zM415 601l70 133h140l-70 -133h-140z" />
    <glyph glyph-name="OE" unicode="&#x152;" horiz-adv-x="1577" 
d="M1003 288v-113l546 4v-179h-792v32q-113 -52 -250 -52q-132 0 -244 50.5t-177.5 139t-65.5 197.5q0 110 65.5 199t177 139.5t243.5 50.5q138 0 251 -52v36h792l1 -179h-547v-98h462v-175h-462zM614.5 191q51.5 24 83.5 69t32 107t-32.5 107.5t-84.5 69t-108 23.5
q-57 0 -108 -24t-82.5 -69.5t-31.5 -106.5q0 -62 32 -107t83.5 -69t108.5 -24q56 0 107.5 24z" />
    <glyph glyph-name="oe" unicode="&#x153;" horiz-adv-x="1342" 
d="M1328 247h-532q7 -64 47 -104t110 -40q56 0 101 27.5t45 84.5h229q0 -117 -99 -177.5t-277 -60.5q-82 0 -153.5 21.5t-124.5 60.5q-52 -38 -120.5 -59t-147.5 -21q-104 0 -195 38.5t-145.5 106t-54.5 149.5q0 83 54.5 150.5t145 106t195.5 38.5q79 0 148 -21t120 -59
q53 39 124.5 60t153.5 21q112 0 196.5 -36t131.5 -101.5t48 -153.5v-5h2h-2v-26zM803 341h290q-21 106 -140 106q-122 0 -150 -106zM480.5 139q34.5 17 55.5 51.5t21 82.5t-21 82.5t-55.5 51.5t-74.5 17q-39 0 -76.5 -17.5t-61.5 -51.5t-24 -82t24 -82t61.5 -51.5
t76.5 -17.5q40 0 74.5 17z" />
    <glyph glyph-name="Racute" unicode="&#x154;" horiz-adv-x="941" 
d="M635 1l-205 239h-153v-239h-236v740h559q93 0 164.5 -31t111 -86.5t39.5 -128.5v-4q0 -95 -55.5 -157t-153.5 -83l215 -250h-286zM666.5 546q-16.5 18 -42.5 22t-76 4h-36q-74 -2 -235 -2v-159h269h2q50 0 76 4t42.5 20.5t16.5 53.5q0 39 -16.5 57zM355 774l70 133h224
l-120 -133h-174z" />
    <glyph glyph-name="racute" unicode="&#x155;" horiz-adv-x="528" 
d="M254 450q80 88 253 106v-174h-133q-62 0 -90 -46.5t-28 -121.5v-214h-230v545h209zM151 578l70 133h224l-120 -133h-174z" />
    <glyph glyph-name="uni0156" unicode="&#x156;" horiz-adv-x="941" 
d="M635 1l-205 239h-153v-239h-236v740h559q93 0 164.5 -31t111 -86.5t39.5 -128.5v-4q0 -95 -55.5 -157t-153.5 -83l215 -250h-286zM666.5 546q-16.5 18 -42.5 22t-76 4h-36q-74 -2 -235 -2v-159h269h2q50 0 76 4t42.5 20.5t16.5 53.5q0 39 -16.5 57zM362 -31h162v-124
q-2 -40 -25.5 -66t-70.5 -26h-67v48h19q17 0 21 8t4 26v10h-43v124z" />
    <glyph glyph-name="uni0157" unicode="&#x157;" horiz-adv-x="528" 
d="M254 450q80 88 253 106v-174h-133q-62 0 -90 -46.5t-28 -121.5v-214h-230v545h209zM58 -33h162v-124q-2 -40 -25.5 -66t-70.5 -26h-67v48h19q17 0 21 8t4 26v10h-43v124z" />
    <glyph glyph-name="Rcaron" unicode="&#x158;" horiz-adv-x="941" 
d="M635 1l-205 239h-153v-239h-236v740h559q93 0 164.5 -31t111 -86.5t39.5 -128.5v-4q0 -95 -55.5 -157t-153.5 -83l215 -250h-286zM666.5 546q-16.5 18 -42.5 22t-76 4h-36q-74 -2 -235 -2v-159h269h2q50 0 76 4t42.5 20.5t16.5 53.5q0 39 -16.5 57zM459 848l81 61h209
l-180 -136h-226l-170 136h209z" />
    <glyph glyph-name="rcaron" unicode="&#x159;" horiz-adv-x="528" 
d="M254 450q80 88 253 106v-174h-133q-62 0 -90 -46.5t-28 -121.5v-214h-230v545h209zM260 654l81 61h209l-180 -136h-226l-170 136h209z" />
    <glyph glyph-name="Sacute" unicode="&#x15a;" horiz-adv-x="948" 
d="M583 440q98 0 171.5 -13.5t123 -57.5t49.5 -128q0 -155 -137.5 -209.5t-308.5 -54.5q-170 0 -315 55.5t-145 211.5l255 1q0 -69 62.5 -87.5t146.5 -18.5q79 0 135.5 23t56.5 75v1q0 29 -35 43t-75 17t-96 4h-75q-108 0 -187.5 13.5t-133.5 59.5t-54 136
q0 156 140.5 203.5t319.5 47.5q168 0 307 -55t139 -212h-251q0 50 -56.5 74.5t-137.5 27.5q-87 0 -147 -20t-60 -63q0 -45 61 -60t138 -15zM381 796l70 133h224l-120 -133h-174z" />
    <glyph glyph-name="sacute" unicode="&#x15b;" horiz-adv-x="762" 
d="M429 325l57 1q118 0 191.5 -30.5t73.5 -121.5q0 -118 -109.5 -157.5t-250.5 -39.5q-140 0 -256.5 41.5t-116.5 159.5h232q0 -47 41 -62.5t100 -15.5q67 0 99.5 16.5t32.5 53.5q0 33 -38 41.5t-96 8.5h-35q-91 0 -161.5 9.5t-122.5 45.5t-52 108q0 114 112.5 149t259.5 35
q139 0 250 -41t111 -159l-230 1q0 51 -52 63t-82 12q-46 0 -91.5 -10.5t-45.5 -46.5q0 -60 135 -62q29 0 44 1zM280 600l70 133h224l-120 -133h-174z" />
    <glyph glyph-name="Scedilla" unicode="&#x15e;" horiz-adv-x="948" 
d="M583 440q98 0 171.5 -13.5t123 -57.5t49.5 -128q0 -138 -112.5 -195.5t-268.5 -66.5v-22q57 0 104.5 -18.5t46.5 -71.5q0 -68 -71 -91.5t-155 -23.5q-204 0 -204 123h111q0 -29 30 -37.5t52 -8.5q24 0 53.5 6t29.5 30q0 30 -75 30h-51v84q-158 9 -277 67.5t-119 197.5
l255 1q0 -69 62.5 -87.5t146.5 -18.5q79 0 135.5 23t56.5 75v1q0 29 -35 43t-75 17t-96 4h-75q-108 0 -187.5 13.5t-133.5 59.5t-54 136q0 156 140.5 203.5t319.5 47.5q168 0 307 -55t139 -212h-251q0 50 -56.5 74.5t-137.5 27.5q-87 0 -147 -20t-60 -63q0 -45 61 -60
t138 -15z" />
    <glyph glyph-name="scedilla" unicode="&#x15f;" horiz-adv-x="762" 
d="M429 325l57 1q118 0 191.5 -30.5t73.5 -121.5q0 -104 -88.5 -146.5t-213.5 -49.5v-23q57 0 104.5 -18.5t46.5 -71.5q0 -68 -71 -91.5t-154 -23.5q-205 0 -205 123h111q0 -30 30.5 -38.5t52.5 -8.5q24 0 53 6t29 31q0 30 -75 30h-51v86q-125 10 -213.5 54t-88.5 145h232
q0 -47 41 -62.5t100 -15.5q67 0 99.5 16.5t32.5 53.5q0 33 -38 41.5t-96 8.5h-35q-91 0 -161.5 9.5t-122.5 45.5t-52 108q0 114 112.5 149t259.5 35q139 0 250 -41t111 -159l-230 1q0 51 -52 63t-82 12q-46 0 -91.5 -10.5t-45.5 -46.5q0 -60 135 -62q29 0 44 1z" />
    <glyph glyph-name="Scaron" unicode="&#x160;" horiz-adv-x="948" 
d="M583 440q98 0 171.5 -13.5t123 -57.5t49.5 -128q0 -155 -137.5 -209.5t-308.5 -54.5q-170 0 -315 55.5t-145 211.5l255 1q0 -69 62.5 -87.5t146.5 -18.5q79 0 135.5 23t56.5 75v1q0 29 -35 43t-75 17t-96 4h-75q-108 0 -187.5 13.5t-133.5 59.5t-54 136
q0 156 140.5 203.5t319.5 47.5q168 0 307 -55t139 -212h-251q0 50 -56.5 74.5t-137.5 27.5q-87 0 -147 -20t-60 -63q0 -45 61 -60t138 -15zM481 871l81 61h209l-180 -136h-226l-170 136h209z" />
    <glyph glyph-name="scaron" unicode="&#x161;" horiz-adv-x="762" 
d="M429 325l57 1q118 0 191.5 -30.5t73.5 -121.5q0 -118 -109.5 -157.5t-250.5 -39.5q-140 0 -256.5 41.5t-116.5 159.5h232q0 -47 41 -62.5t100 -15.5q67 0 99.5 16.5t32.5 53.5q0 33 -38 41.5t-96 8.5h-35q-91 0 -161.5 9.5t-122.5 45.5t-52 108q0 114 112.5 149t259.5 35
q139 0 250 -41t111 -159l-230 1q0 51 -52 63t-82 12q-46 0 -91.5 -10.5t-45.5 -46.5q0 -60 135 -62q29 0 44 1zM379 675l81 61h209l-180 -136h-226l-170 136h209z" />
    <glyph glyph-name="uni0162" unicode="&#x162;" horiz-adv-x="926" 
d="M26 540v200h874zM588 0h-56v-39q57 0 104.5 -18.5t46.5 -71.5q0 -68 -71 -91.5t-155 -23.5q-204 0 -204 123h111q0 -30 30 -38.5t52 -8.5q24 0 53.5 6t29.5 31q0 30 -75 30h-51v101h-61v539h-316v201h874v-201h-312v-539z" />
    <glyph glyph-name="uni0163" unicode="&#x163;" horiz-adv-x="486" 
d="M360 0h-50v-33q57 0 104.5 -18.5t46.5 -71.5q0 -68 -71 -91.5t-155 -23.5q-204 0 -204 123h111q0 -29 30 -37.5t52 -8.5q24 0 53.5 6t29.5 30q0 30 -75 30h-51v95h-51v388h-109v157h109v118l230 93v-211h104v-157h-104v-388z" />
    <glyph glyph-name="Tcaron" unicode="&#x164;" horiz-adv-x="926" 
d="M26 540v200h874zM900 740v-201h-312v-539h-246v539h-316v201h874zM466 848l81 61h209l-180 -136h-226l-170 136h209z" />
    <glyph glyph-name="tcaron" unicode="&#x165;" horiz-adv-x="486" 
d="M360 545h104v-157h-104v-388h-230v388h-109v157h109v118l230 93v-211zM246 849l81 61h209l-180 -136h-226l-170 136h209z" />
    <glyph glyph-name="Tbar" unicode="&#x166;" horiz-adv-x="924" 
d="M26 540v200h874zM900 740v-201h-312v-126h190v-121h-190v-292h-246v292h-192v121h192v126h-316v201h874z" />
    <glyph glyph-name="tbar" unicode="&#x167;" horiz-adv-x="476" 
d="M461 545v-157h-104v-62h104v-135h-104v-191h-230v191h-109v135h109v62h-109v157h109v118l230 93v-211h104z" />
    <glyph glyph-name="Umacron" unicode="&#x16a;" horiz-adv-x="983" 
d="M695 740h252v-379q0 -108 -60 -195t-162 -136.5t-223 -49.5q-130 0 -236 49t-167.5 135.5t-62.5 194.5v381h256v-381q0 -91 62.5 -134t148.5 -43q45 0 89 17.5t73.5 57.5t29.5 102v381zM273 778v132h437v-132h-437z" />
    <glyph glyph-name="umacron" unicode="&#x16b;" horiz-adv-x="771" 
d="M515 545h230v-545h-230v68q-76 -86 -231 -86q-123 0 -190.5 79t-67.5 259v225h230v-222q0 -63 7 -103t34 -67t84 -27q79 0 106.5 54.5t27.5 142.5v222zM168 579v132h437v-132h-437z" />
    <glyph glyph-name="Uring" unicode="&#x16e;" horiz-adv-x="983" 
d="M695 740h252v-379q0 -108 -60 -195t-162 -136.5t-223 -49.5q-130 0 -236 49t-167.5 135.5t-62.5 194.5v381h256v-381q0 -91 62.5 -134t148.5 -43q45 0 89 17.5t73.5 57.5t29.5 102v381zM354 1016q22 37 59.5 59t81.5 22q43 0 80.5 -22t59.5 -59.5t22 -80.5
q0 -44 -22 -81.5t-59 -59.5t-81 -22t-81.5 22t-59.5 59.5t-22 81.5t22 81zM446.5 887q19.5 -20 48.5 -20q28 0 47.5 20t19.5 48q0 27 -20 47t-47 20q-28 0 -48 -19.5t-20 -47.5t19.5 -48z" />
    <glyph glyph-name="uring" unicode="&#x16f;" horiz-adv-x="771" 
d="M515 545h230v-545h-230v68q-76 -86 -231 -86q-123 0 -190.5 79t-67.5 259v225h230v-222q0 -63 7 -103t34 -67t84 -27q79 0 106.5 54.5t27.5 142.5v222zM248 824q22 37 59.5 59t81.5 22q43 0 80.5 -22t59.5 -59.5t22 -80.5q0 -44 -22 -81.5t-59 -59.5t-81 -22t-81.5 22
t-59.5 59.5t-22 81.5t22 81zM340.5 695q19.5 -20 48.5 -20q28 0 47.5 20t19.5 48q0 27 -20 47t-47 20q-28 0 -48 -19.5t-20 -47.5t19.5 -48z" />
    <glyph glyph-name="Uhungarumlaut" unicode="&#x170;" horiz-adv-x="983" 
d="M695 740h252v-379q0 -108 -60 -195t-162 -136.5t-223 -49.5q-130 0 -236 49t-167.5 135.5t-62.5 194.5v381h256v-381q0 -91 62.5 -134t148.5 -43q45 0 89 17.5t73.5 57.5t29.5 102v381zM309 777l70 133h140l-70 -133h-140zM510 777l70 133h140l-70 -133h-140z" />
    <glyph glyph-name="uhungarumlaut" unicode="&#x171;" horiz-adv-x="771" 
d="M515 545h230v-545h-230v68q-76 -86 -231 -86q-123 0 -190.5 79t-67.5 259v225h230v-222q0 -63 7 -103t34 -67t84 -27q79 0 106.5 54.5t27.5 142.5v222zM213 579l70 133h140l-70 -133h-140zM414 579l70 133h140l-70 -133h-140z" />
    <glyph glyph-name="Uogonek" unicode="&#x172;" horiz-adv-x="983" 
d="M695 740h252v-379q0 -95 -47 -174.5t-129 -131.5t-184 -68v-3q-53 0 -69.5 -18t-16.5 -51t16.5 -51t69.5 -18v-43q-68 -2 -107.5 8.5t-57 35t-17.5 68.5q0 45 19 70q-111 14 -199 65t-138 131.5t-51 177.5v381h256v-381q0 -91 62.5 -134t148.5 -43q45 0 89 17.5
t73.5 57.5t29.5 102v381z" />
    <glyph glyph-name="uogonek" unicode="&#x173;" horiz-adv-x="771" 
d="M515 545h230v-545h-1q-53 0 -69.5 -18t-16.5 -51t16.5 -51t69.5 -18v-43q-68 -2 -107.5 8.5t-57 35t-17.5 68.5q0 45 18 69h-65v68q-76 -86 -231 -86q-123 0 -190.5 79t-67.5 259v225h230v-222q0 -63 7 -103t34 -67t84 -27q79 0 106.5 54.5t27.5 142.5v222z" />
    <glyph glyph-name="Wcircumflex" unicode="&#x174;" horiz-adv-x="1543" 
d="M1053 288l238 452h250l-389 -740h-250l-131 404l-133 -404h-250l-387 740h253l235 -452l158 452h252zM880 910l180 -136h-209l-81 61l-77 -61h-209l170 136h226z" />
    <glyph glyph-name="wcircumflex" unicode="&#x175;" horiz-adv-x="1175" 
d="M781 210l146 335h241l-277 -545h-205l-99 292l-100 -292h-204l-277 545h240l148 -336l94 336h198zM701 730l180 -136h-209l-81 61l-77 -61h-209l170 136h226z" />
    <glyph glyph-name="Ycircumflex" unicode="&#x176;" horiz-adv-x="974" 
d="M718 740h255l-354 -429v-311h-265v310l-353 430h255l225 -275zM592 910l180 -136h-209l-81 61l-77 -61h-209l170 136h226z" />
    <glyph glyph-name="ycircumflex" unicode="&#x177;" horiz-adv-x="876" 
d="M868 545l-336 -668q-33 -66 -127.5 -85t-212.5 -19v183q57 0 79 7t22 20q0 4 -4 14l-281 548h246l186 -403l182 403h246zM526 730l180 -136h-209l-81 61l-77 -61h-209l170 136h226z" />
    <glyph glyph-name="Ydieresis" unicode="&#x178;" horiz-adv-x="974" 
d="M718 740h255l-354 -429v-311h-265v310l-353 430h255l225 -275zM284 810.5q-27 27.5 -27 67.5q0 39 27 66t67 27q39 0 66.5 -27t27.5 -66q0 -40 -27.5 -67.5t-66.5 -27.5q-40 0 -67 27.5zM550 810.5q-27 27.5 -27 67.5q0 39 27 66t67 27q39 0 66.5 -27t27.5 -66
q0 -40 -27.5 -67.5t-66.5 -27.5q-40 0 -67 27.5z" />
    <glyph glyph-name="Zacute" unicode="&#x179;" horiz-adv-x="921" 
d="M35 740h855v-198l-527 -345l524 -1v-196h-856v197h2l526 346l-524 1v196zM349 777l70 133h224l-120 -133h-174z" />
    <glyph glyph-name="zacute" unicode="&#x17a;" horiz-adv-x="760" 
d="M26 545l708 -1v-160l-395 -223l395 -1v-160l-708 1v161l398 223l-398 1v159zM279 578l70 133h224l-120 -133h-174z" />
    <glyph glyph-name="Zdotaccent" unicode="&#x17b;" horiz-adv-x="921" 
d="M35 740h855v-198l-527 -345l524 -1v-196h-856v197h2l526 346l-524 1v196zM394.5 810.5q-27.5 27.5 -27.5 67.5q0 39 27.5 66t67.5 27q39 0 66.5 -27t27.5 -66q0 -40 -27.5 -67.5t-66.5 -27.5q-40 0 -67.5 27.5z" />
    <glyph glyph-name="zdotaccent" unicode="&#x17c;" horiz-adv-x="760" 
d="M26 545l708 -1v-160l-395 -223l395 -1v-160l-708 1v161l398 223l-398 1v159zM320.5 605.5q-27.5 27.5 -27.5 67.5q0 39 27.5 66t67.5 27q39 0 66.5 -27t27.5 -66q0 -40 -27.5 -67.5t-66.5 -27.5q-40 0 -67.5 27.5z" />
    <glyph glyph-name="Zcaron" unicode="&#x17d;" horiz-adv-x="921" 
d="M35 740h855v-198l-527 -345l524 -1v-196h-856v197h2l526 346l-524 1v196zM470 849l81 61h209l-180 -136h-226l-170 136h209z" />
    <glyph glyph-name="zcaron" unicode="&#x17e;" horiz-adv-x="760" 
d="M26 545l708 -1v-160l-395 -223l395 -1v-160l-708 1v161l398 223l-398 1v159zM385 653l81 61h209l-180 -136h-226l-170 136h209z" />
    <glyph glyph-name="uni0218" unicode="&#x218;" horiz-adv-x="948" 
d="M583 440q98 0 171.5 -13.5t123 -57.5t49.5 -128q0 -155 -137.5 -209.5t-308.5 -54.5q-170 0 -315 55.5t-145 211.5l255 1q0 -69 62.5 -87.5t146.5 -18.5q79 0 135.5 23t56.5 75v1q0 29 -35 43t-75 17t-96 4h-75q-108 0 -187.5 13.5t-133.5 59.5t-54 136
q0 156 140.5 203.5t319.5 47.5q168 0 307 -55t139 -212h-251q0 50 -56.5 74.5t-137.5 27.5q-87 0 -147 -20t-60 -63q0 -45 61 -60t138 -15zM407 -53h162v-124q-2 -40 -25.5 -66t-70.5 -26h-67v48h19q17 0 21 8t4 26v10h-43v124z" />
    <glyph glyph-name="uni0219" unicode="&#x219;" horiz-adv-x="762" 
d="M429 325l57 1q118 0 191.5 -30.5t73.5 -121.5q0 -118 -109.5 -157.5t-250.5 -39.5q-140 0 -256.5 41.5t-116.5 159.5h232q0 -47 41 -62.5t100 -15.5q67 0 99.5 16.5t32.5 53.5q0 33 -38 41.5t-96 8.5h-35q-91 0 -161.5 9.5t-122.5 45.5t-52 108q0 114 112.5 149t259.5 35
q139 0 250 -41t111 -159l-230 1q0 51 -52 63t-82 12q-46 0 -91.5 -10.5t-45.5 -46.5q0 -60 135 -62q29 0 44 1zM306 -56h162v-124q-2 -40 -25.5 -66t-70.5 -26h-67v48h19q17 0 21 8t4 26v10h-43v124z" />
    <glyph glyph-name="uni021A" unicode="&#x21a;" horiz-adv-x="926" 
d="M26 540v200h874zM900 740v-201h-312v-539h-246v539h-316v201h874zM380 -33h162v-124q-2 -40 -25.5 -66t-70.5 -26h-67v48h19q17 0 21 8t4 26v10h-43v124z" />
    <glyph glyph-name="uni021B" unicode="&#x21b;" horiz-adv-x="486" 
d="M360 545h104v-157h-104v-388h-230v388h-109v157h109v118l230 93v-211zM166 -33h162v-124q-2 -40 -25.5 -66t-70.5 -26h-67v48h19q17 0 21 8t4 26v10h-43v124z" />
    <glyph glyph-name="uni02BC" unicode="&#x2bc;" horiz-adv-x="231" 
d="M15 623v117h201v-117l-87 -104h-111l88 104h-91z" />
    <glyph glyph-name="circumflex" unicode="&#x2c6;" horiz-adv-x="590" 
d="M405 910l180 -136h-209l-81 61l-77 -61h-209l170 136h226z" />
    <glyph glyph-name="caron" unicode="&#x2c7;" horiz-adv-x="600" 
d="M295 849l81 61h209l-180 -136h-226l-170 136h209z" />
    <glyph glyph-name="breve" unicode="&#x2d8;" horiz-adv-x="596" 
d="M545 924q0 -99 -68.5 -149t-177.5 -50q-111 0 -180 50t-69 149h137q0 -46 32 -77.5t79 -31.5q46 0 78.5 31.5t32.5 77.5h136z" />
    <glyph glyph-name="dotaccent" unicode="&#x2d9;" horiz-adv-x="351" 
d="M108.5 810.5q-27.5 27.5 -27.5 67.5q0 39 27.5 66t67.5 27q39 0 66.5 -27t27.5 -66q0 -40 -27.5 -67.5t-66.5 -27.5q-40 0 -67.5 27.5z" />
    <glyph glyph-name="ring" unicode="&#x2da;" horiz-adv-x="469" 
d="M72 1016q22 37 59.5 59t81.5 22q43 0 80.5 -22t59.5 -59.5t22 -80.5q0 -44 -22 -81.5t-59 -59.5t-81 -22t-81.5 22t-59.5 59.5t-22 81.5t22 81zM164.5 887q19.5 -20 48.5 -20q28 0 47.5 20t19.5 48q0 27 -20 47t-47 20q-28 0 -48 -19.5t-20 -47.5t19.5 -48z" />
    <glyph glyph-name="ogonek" unicode="&#x2db;" horiz-adv-x="600" 
d="M485 4q-53 0 -69.5 -18t-16.5 -51t16.5 -51t69.5 -18v-43q-68 -2 -107.5 8.5t-57 35t-17.5 68.5t17.5 68.5t57 35t107.5 8.5v-43z" />
    <glyph glyph-name="tilde" unicode="&#x2dc;" horiz-adv-x="600" 
d="M552 940q0 -147 -120 -147q-33 0 -61 7t-68 20q-50 12 -72 12q-46 0 -46 -33h-131q0 148 120 148q29 0 57.5 -7t47.5 -13t24 -8q50 -12 72 -12q47 0 47 33h130z" />
    <glyph glyph-name="hungarumlaut" unicode="&#x2dd;" horiz-adv-x="600" 
d="M96 777l70 133h140l-70 -133h-140zM297 777l70 133h140l-70 -133h-140z" />
    <glyph glyph-name="gravecomb" unicode="&#x300;" horiz-adv-x="0" 
d="M-416 910h224l70 -133h-174z" />
    <glyph glyph-name="acutecomb" unicode="&#x301;" horiz-adv-x="0" 
d="M-398 777l70 133h224l-120 -133h-174z" />
    <glyph glyph-name="uni0302" unicode="&#x302;" horiz-adv-x="0" 
d="M-185 910l180 -136h-209l-81 61l-77 -61h-209l170 136h226z" />
    <glyph glyph-name="tildecomb" unicode="&#x303;" horiz-adv-x="0" 
d="M-48 940q0 -147 -120 -147q-33 0 -61 7t-68 20q-50 12 -72 12q-46 0 -46 -33h-131q0 148 120 148q29 0 57.5 -7t47.5 -13t24 -8q50 -12 72 -12q47 0 47 33h130z" />
    <glyph glyph-name="uni0304" unicode="&#x304;" horiz-adv-x="0" 
d="M-515 778v132h437v-132h-437z" />
    <glyph glyph-name="uni0306" unicode="&#x306;" horiz-adv-x="0" 
d="M-51 924q0 -99 -68.5 -149t-177.5 -50q-111 0 -180 50t-69 149h137q0 -46 32 -77.5t79 -31.5q46 0 78.5 31.5t32.5 77.5h136z" />
    <glyph glyph-name="uni0307" unicode="&#x307;" horiz-adv-x="0" 
d="M-242.5 810.5q-27.5 27.5 -27.5 67.5q0 39 27.5 66t67.5 27q39 0 66.5 -27t27.5 -66q0 -40 -27.5 -67.5t-66.5 -27.5q-40 0 -67.5 27.5z" />
    <glyph glyph-name="uni0308" unicode="&#x308;" horiz-adv-x="0" 
d="M-546 810.5q-27 27.5 -27 67.5q0 39 27 66t67 27q39 0 66.5 -27t27.5 -66q0 -40 -27.5 -67.5t-66.5 -27.5q-40 0 -67 27.5zM-280 810.5q-27 27.5 -27 67.5q0 39 27 66t67 27q39 0 66.5 -27t27.5 -66q0 -40 -27.5 -67.5t-66.5 -27.5q-40 0 -67 27.5z" />
    <glyph glyph-name="uni030A" unicode="&#x30a;" horiz-adv-x="0" 
d="M-353 1016q22 37 59.5 59t81.5 22q43 0 80.5 -22t59.5 -59.5t22 -80.5q0 -44 -22 -81.5t-59 -59.5t-81 -22t-81.5 22t-59.5 59.5t-22 81.5t22 81zM-260.5 887q19.5 -20 48.5 -20q28 0 47.5 20t19.5 48q0 27 -20 47t-47 20q-28 0 -48 -19.5t-20 -47.5t19.5 -48z" />
    <glyph glyph-name="uni030B" unicode="&#x30b;" horiz-adv-x="0" 
d="M-504 777l70 133h140l-70 -133h-140zM-303 777l70 133h140l-70 -133h-140z" />
    <glyph glyph-name="uni030C" unicode="&#x30c;" horiz-adv-x="0" 
d="M-305 849l81 61h209l-180 -136h-226l-170 136h209z" />
    <glyph glyph-name="uni0312" unicode="&#x312;" horiz-adv-x="0" 
d="M-59 846h43v-124h-162v124q2 40 25.5 66t70.5 26h67v-48h-19q-17 0 -21 -8t-4 -26v-10z" />
    <glyph glyph-name="uni0326" unicode="&#x326;" horiz-adv-x="0" 
d="M-177 -3h162v-124q-2 -40 -25.5 -66t-70.5 -26h-67v48h19q17 0 21 8t4 26v10h-43v124z" />
    <glyph glyph-name="uni0327" unicode="&#x327;" horiz-adv-x="0" 
d="M-250 -42q57 0 104.5 -18.5t46.5 -71.5q0 -68 -71 -91.5t-154 -23.5q-205 0 -205 123h111q0 -30 30.5 -38.5t52.5 -8.5q24 0 53 6t29 31q0 30 -75 30h-51v202h129v-140z" />
    <glyph glyph-name="uni0328" unicode="&#x328;" horiz-adv-x="0" 
d="M-115 4q-53 0 -69.5 -18t-16.5 -51t16.5 -51t69.5 -18v-43q-68 -2 -107.5 8.5t-57 35t-17.5 68.5t17.5 68.5t57 35t107.5 8.5v-43z" />
    <glyph glyph-name="Alphatonos" unicode="&#x386;" horiz-adv-x="600" 
 />
    <glyph glyph-name="uni0400" unicode="&#x400;" horiz-adv-x="861" 
d="M750 288h-462v-113l546 4v-179h-793v740h793l1 -179h-547v-98h462v-175zM242 910h224l70 -133h-174z" />
    <glyph glyph-name="uni0401" unicode="&#x401;" horiz-adv-x="861" 
d="M215.5 796.5q-27.5 27.5 -27.5 66.5t27.5 66t66.5 27t66 -27t27 -66t-27 -66.5t-66 -27.5t-66.5 27.5zM516 796.5q-27 27.5 -27 66.5t27 66t67 27q39 0 66 -27t27 -66t-27 -66.5t-66 -27.5q-40 0 -67 27.5zM750 287h-462v-112l546 4v-179h-793v740h793l1 -179h-547v-97
h462v-177z" />
    <glyph glyph-name="uni0402" unicode="&#x402;" horiz-adv-x="1030" 
d="M859 482q71 -30 110.5 -88t39.5 -139v-4q0 -75 -38 -131.5t-109 -88t-169 -31.5h-183v161h128q67 0 106.5 18t39.5 74q0 58 -39.5 89.5t-147.5 31.5q-72 0 -115 -9.5t-79 -23.5v-341h-247v604h-145v136h618v-136h-226v-134q106 42 290 42q95 0 166 -30z" />
    <glyph glyph-name="uni0403" unicode="&#x403;" horiz-adv-x="780" 
d="M759 740v-175h-471v-565h-247v740h718zM268 777l70 133h224l-120 -133h-174z" />
    <glyph glyph-name="uni0404" unicode="&#x404;" horiz-adv-x="1003" 
d="M649 201.5q56 32.5 79 94.5h257q-22 -95 -86 -166.5t-163 -110.5t-223 -39q-148 0 -260.5 50.5t-174 139t-61.5 199.5t65.5 200t179 139.5t251.5 50.5q124 0 224 -39.5t164 -111t85 -167.5h-256q-20 60 -82.5 94.5t-133.5 34.5q-72 0 -135.5 -34t-89.5 -95h296v-142h-297
q25 -61 88 -95.5t138 -34.5q79 0 135 32.5z" />
    <glyph glyph-name="uni0405" unicode="&#x405;" horiz-adv-x="948" 
d="M583 440q98 0 171.5 -13.5t123 -57.5t49.5 -128q0 -155 -137.5 -209.5t-308.5 -54.5q-170 0 -315 55.5t-145 211.5l255 1q0 -69 62.5 -87.5t146.5 -18.5q79 0 135.5 23t56.5 75v1q0 29 -35 43t-75 17t-96 4h-75q-108 0 -187.5 13.5t-133.5 59.5t-54 136
q0 156 140.5 203.5t319.5 47.5q168 0 307 -55t139 -212h-251q0 50 -56.5 74.5t-137.5 27.5q-87 0 -147 -20t-60 -63q0 -45 61 -60t138 -15z" />
    <glyph glyph-name="uni0406" unicode="&#x406;" horiz-adv-x="329" 
d="M288 0h-247v740h247v-740z" />
    <glyph glyph-name="uni0407" unicode="&#x407;" horiz-adv-x="329" 
d="M288 0h-247v740h247v-740zM-41 810.5q-27 27.5 -27 67.5q0 39 27 66t67 27q39 0 66.5 -27t27.5 -66q0 -40 -27.5 -67.5t-66.5 -27.5q-40 0 -67 27.5zM225 810.5q-27 27.5 -27 67.5q0 39 27 66t67 27q39 0 66.5 -27t27.5 -66q0 -40 -27.5 -67.5t-66.5 -27.5
q-40 0 -67 27.5z" />
    <glyph glyph-name="uni0408" unicode="&#x408;" horiz-adv-x="821" 
d="M780 740v-445q0 -72 -32.5 -138t-118 -111.5t-233.5 -45.5q-140 0 -224 56t-117.5 130t-33.5 135h232q0 -61 39 -105t115 -44q58 0 96 33.5t38 89.5v445h239z" />
    <glyph glyph-name="uni0409" unicode="&#x409;" horiz-adv-x="1473" 
d="M802 278q-1 -9 -1 -27zM1310 482q71 -30 110.5 -88t39.5 -139v-4q0 -74 -39.5 -131t-111 -88.5t-164.5 -31.5h-458v565h-244q-22 -131 -46 -224.5t-68 -195.5q-45 -95 -125.5 -120.5t-126 -25t-51.5 0.5v199q48 0 73 18.5t36 51.5q65 212 83 471h716v-228h208h2
q95 0 166 -30zM1179 166q26 6 42 26.5t16 62.5t-15.5 62t-40 24.5t-67.5 4.5h-1h-179v-185q123 0 149 -1h30q40 0 66 6z" />
    <glyph glyph-name="uni040A" unicode="&#x40a;" horiz-adv-x="1470" 
d="M796 273q-1 -7 -1 -21zM1304 482q71 -30 110.5 -88t39.5 -139v-4q0 -74 -39.5 -131t-111 -88.5t-164.5 -31.5h-456v283h-395v-283h-247v740h247v-263h395v263h246v-228h207h2q95 0 166 -30zM1173 166.5q27 6.5 41.5 27.5t14.5 61q0 41 -14.5 60.5t-40.5 25t-73 5.5h-1
h-171v-185q117 0 142 -1h30q45 0 72 6.5z" />
    <glyph glyph-name="uni040B" unicode="&#x40b;" horiz-adv-x="1018" 
d="M791.5 527.5q86.5 -35.5 141.5 -111t55 -188.5v-228h-232v225q0 76 -51 120.5t-145 44.5q-91 0 -132.5 -40.5t-41.5 -121.5v-228h-231v604h-144v136h638v-136h-263v-122q79 81 224 81q95 0 181.5 -35.5z" />
    <glyph glyph-name="uni040C" unicode="&#x40c;" horiz-adv-x="884" 
d="M488 401l403 -401h-303l-300 310v-310h-247v740h247v-257l282 257h306zM325 777l70 133h224l-120 -133h-174z" />
    <glyph glyph-name="uni040D" unicode="&#x40d;" horiz-adv-x="985" 
d="M288 740v-459l410 459h246v-740h-246v460l-410 -460h-247v740h247zM324 910h224l70 -133h-174z" />
    <glyph glyph-name="uni040E" unicode="&#x40e;" horiz-adv-x="908" 
d="M922 740l-372 -628q-36 -67 -145.5 -91.5t-224.5 -22.5v181q55 0 78.5 6t27 15t2.5 29l-302 511h261l204 -372l210 372h261zM714 945q0 -99 -68.5 -149t-177.5 -50q-112 0 -181.5 50t-67.5 149h140q0 -44 29.5 -74.5t78.5 -30.5t78 30.5t29 74.5h140z" />
    <glyph glyph-name="uni040F" unicode="&#x40f;" horiz-adv-x="990" 
d="M701 175v565h248v-740h-351v-95h-206v95h-351v740h248v-565h412z" />
    <glyph glyph-name="uni0410" unicode="&#x410;" horiz-adv-x="1017" 
d="M1036 0h-249l-69 127h-419l-69 -127h-249l401 740h253zM509 514l-120 -220h239z" />
    <glyph glyph-name="uni0411" unicode="&#x411;" horiz-adv-x="959" 
d="M782.5 455.5q88.5 -26.5 127 -78.5t38.5 -132v-3q0 -108 -87.5 -175t-282.5 -68h-537v740h851v-163h-619v-94h274q147 0 235.5 -26.5zM660 189.5q37 16.5 37 66.5q0 33 -17.5 49.5t-50 21t-91.5 4.5h-1h-264v-156q188 0 240 -2h25q85 0 122 16.5z" />
    <glyph glyph-name="uni0412" unicode="&#x412;" horiz-adv-x="1012" 
d="M947 329.5q43 -41.5 43 -118.5v-4q0 -113 -93.5 -159.5t-268.5 -47.5h-2h-39h-546v740h633q116 -1 185 -48t69 -133v-4q0 -65 -27 -106t-81 -61q84 -17 127 -58.5zM631.5 452.5q23.5 2.5 40 17.5t16.5 50q0 32 -16 46t-41 17.5t-73 3.5h-1h-285v-136q103 0 136 -1h48h102
q50 0 73.5 2.5zM675 170.5q28 3.5 45 20t17 52.5q0 35 -17 50.5t-45 19t-84 3.5h-1h-318v-148q141 0 200.5 -0.5t81.5 -0.5h37q56 0 84 3.5z" />
    <glyph glyph-name="uni0413" unicode="&#x413;" horiz-adv-x="780" 
d="M759 740v-175h-471v-565h-247v740h718z" />
    <glyph glyph-name="uni0414" unicode="&#x414;" horiz-adv-x="1033" 
d="M919 180h99v-276h-231v95l-542 1v-96h-231v276h74q54 105 87 188t50.5 173.5t17.5 198.5h675zM458 563q-16 -96 -48.5 -184t-85.5 -199h365v382z" />
    <glyph glyph-name="uni0415" unicode="&#x415;" horiz-adv-x="861" 
d="M750 288h-462v-113l546 4v-179h-793v740h793l1 -179h-547v-98h462v-175z" />
    <glyph glyph-name="uni0416" unicode="&#x416;" horiz-adv-x="1429" 
d="M1033 401l404 -401h-304l-300 311v-311h-246v302l-292 -302h-303l403 401l-388 339h306l274 -250v250h246v-258l283 258h306z" />
    <glyph glyph-name="uni0417" unicode="&#x417;" horiz-adv-x="965" 
d="M943 245q-1 -139 -126 -203t-326 -64q-227 0 -347 77.5t-120 233.5h234q0 -77 68 -112.5t165 -34.5q85 -2 145 23t61 80q0 28 -15 42.5t-47 20t-90 5.5h-185v144h185q80 0 114 20t34 49q0 37 -58.5 54.5t-143.5 18.5q-97 0 -165 -20.5t-68 -63.5h-234q0 144 145.5 195.5
t321.5 51.5q107 0 199.5 -13.5t162.5 -62.5t70 -145q0 -98 -120 -134q130 -39 140 -160v-2v0z" />
    <glyph glyph-name="uni0418" unicode="&#x418;" horiz-adv-x="985" 
d="M288 740v-459l410 459h246v-740h-246v460l-410 -460h-247v740h247z" />
    <glyph glyph-name="uni0419" unicode="&#x419;" horiz-adv-x="985" 
d="M311 774.5q-69 49.5 -68 149.5h133q0 -46 32.5 -77t82.5 -31q49 0 81.5 31t32.5 77h133q0 -99 -68.5 -149t-177.5 -50q-112 0 -181 49.5zM288 281l410 459h246v-740h-246v460l-410 -460h-247v740h247v-459z" />
    <glyph glyph-name="uni041A" unicode="&#x41a;" horiz-adv-x="884" 
d="M488 401l403 -401h-303l-300 310v-310h-247v740h247v-257l282 257h306z" />
    <glyph glyph-name="uni041B" unicode="&#x41b;" horiz-adv-x="970" 
d="M929 740v-740h-247v565h-244q-22 -131 -46 -224.5t-68 -195.5q-45 -95 -125.5 -120.5t-126 -25t-51.5 0.5v199q48 0 73 18.5t36 51.5q65 212 83 471h716z" />
    <glyph glyph-name="uni041C" unicode="&#x41c;" horiz-adv-x="1140" 
d="M1098 740v-740h-246v334l-163 -334h-227l-174 338v-338h-247v740h282l252 -509l248 509h275z" />
    <glyph glyph-name="uni041D" unicode="&#x41d;" horiz-adv-x="970" 
d="M288 477h395v263h246v-740h-246v283h-395v-283h-247v740h247v-263z" />
    <glyph glyph-name="uni041E" unicode="&#x41e;" horiz-adv-x="1009" 
d="M753.5 705.5q110.5 -50.5 173 -139t62.5 -199.5q0 -110 -62.5 -198t-172.5 -138.5t-247 -50.5q-132 0 -244 50.5t-177.5 139t-65.5 197.5q0 110 65.5 199t177 139.5t243.5 50.5q137 0 247.5 -50.5zM614.5 191q51.5 24 83.5 69t32 107t-32.5 107.5t-84.5 69t-108 23.5
q-57 0 -108 -24t-82.5 -69.5t-31.5 -106.5q0 -62 32 -107t83.5 -69t108.5 -24q56 0 107.5 24z" />
    <glyph glyph-name="uni041F" unicode="&#x41f;" horiz-adv-x="990" 
d="M949 740v-740h-248v565h-412v-565h-248v740h908z" />
    <glyph glyph-name="uni0420" unicode="&#x420;" horiz-adv-x="936" 
d="M764.5 709q71.5 -31 111 -86.5t39.5 -128.5v-4q0 -120 -82 -185.5t-224 -65.5h-321v-239h-247v740h559q93 0 164.5 -31zM633.5 417q25.5 3 42.5 19t17 53q0 38 -17 55t-44 21t-76 4h-33q-20 0 -70 -0.5t-165 -0.5v-154h267h1q52 0 77.5 3z" />
    <glyph glyph-name="uni0421" unicode="&#x421;" horiz-adv-x="1011" 
d="M86.5 569q65.5 89 179 139.5t251.5 50.5q124 0 224 -39.5t164 -111t85 -167.5h-256q-15 40 -50.5 69.5t-79.5 44.5t-86 15q-59 0 -114.5 -24t-90 -69.5t-34.5 -107.5t34 -107.5t88.5 -69t116.5 -23.5q69 0 127.5 33t86.5 94h257q-22 -95 -86 -166.5t-163 -110.5t-223 -39
q-137 0 -250.5 51t-179.5 140t-66 198q0 111 65.5 200z" />
    <glyph glyph-name="uni0422" unicode="&#x422;" horiz-adv-x="926" 
d="M26 540v200h874zM900 740v-201h-312v-539h-246v539h-316v201h874z" />
    <glyph glyph-name="uni0423" unicode="&#x423;" horiz-adv-x="908" 
d="M922 740l-372 -628q-36 -67 -145.5 -91.5t-224.5 -22.5v181q55 0 78.5 6t27 15t2.5 29l-302 511h261l204 -372l210 372h261z" />
    <glyph glyph-name="uni0424" unicode="&#x424;" horiz-adv-x="1364" 
d="M1289 216.5q-64 -68.5 -177 -108t-253 -39.5h-46v-69h-246v69h-39h-6h-1q-135 0 -252 40t-187.5 108.5t-70.5 151.5q0 84 69.5 152t186 108t251.5 41h49v70h246v-70h46q141 -1 253.5 -40t176.5 -107.5t64 -153.5q0 -84 -64 -152.5zM567 240v259h-37q-98 0 -175 -30.5
t-77 -99.5q0 -68 77.5 -98.5t174.5 -30.5h37zM856 240q98 0 167 30t69 99q0 70 -69.5 100t-166.5 30h-43v-259h43z" />
    <glyph glyph-name="uni0425" unicode="&#x425;" horiz-adv-x="932" 
d="M648 740h278l-289 -373l289 -367h-278l-182 229l-182 -229h-278l290 367l-290 373h278l182 -230z" />
    <glyph glyph-name="uni0426" unicode="&#x426;" horiz-adv-x="1072" 
d="M696 740h247v-562h118v-308h-247v130h-773v740h247v-562h408v562z" />
    <glyph glyph-name="uni0427" unicode="&#x427;" horiz-adv-x="900" 
d="M628 740h231v-740h-231v258q-79 -81 -224 -81q-95 0 -181.5 35.5t-141.5 111t-55 189.5v227h232v-224q0 -76 51 -121t145 -45q91 0 132.5 41t41.5 122v227z" />
    <glyph glyph-name="uni0428" unicode="&#x428;" horiz-adv-x="1449" 
d="M41 740h247h-247zM847 178h314v562h246v-740h-1366v740h247v-562h313v562h246v-562z" />
    <glyph glyph-name="uni0429" unicode="&#x429;" horiz-adv-x="1544" 
d="M1161 740h246v-562h118v-308h-246v130h-1238v740h247v-562h313v562h246v-562h314v562z" />
    <glyph glyph-name="uni042A" unicode="&#x42a;" horiz-adv-x="1062" 
d="M383 273q-1 -7 -1 -21zM753 511q132 -6 210 -73t78 -183v-4q0 -74 -39.5 -131t-111 -88.5t-164.5 -31.5h-537v567h-178v173h424v-228h318v-1zM788 179q31 19 31 77q0 41 -15 61t-40.5 26t-68.5 6h-1h-259v-188q118 0 165.5 -0.5t64.5 -0.5h30q62 0 93 19z" />
    <glyph glyph-name="uni042B" unicode="&#x42b;" horiz-adv-x="1216" 
d="M578 512q95 0 166 -30t110.5 -88t39.5 -139v-4q0 -74 -39.5 -131t-111 -88.5t-164.5 -31.5h-538v740h247v-228h290zM929 0v740h246v-740h-246zM640.5 179q30.5 19 30.5 77q0 41 -15 61t-40 26t-68 6h-1h-259v-188q118 0 165.5 -0.5t64.5 -0.5h30q62 0 92.5 19z" />
    <glyph glyph-name="uni042C" unicode="&#x42c;" horiz-adv-x="915" 
d="M744 482q71 -30 110.5 -88t39.5 -139v-4q0 -74 -39.5 -131t-111 -88.5t-164.5 -31.5h-538v740h247v-228h288h2q95 0 166 -30zM640.5 179q30.5 19 30.5 77q0 41 -15 61t-40 26t-68 6h-1h-259v-188q118 0 165.5 -0.5t64.5 -0.5h30q62 0 92.5 19z" />
    <glyph glyph-name="uni042D" unicode="&#x42d;" horiz-adv-x="1003" 
d="M925 169.5q-61 -88.5 -173.5 -139t-260.5 -50.5q-124 0 -223.5 39t-163.5 110.5t-86 166.5h257q23 -62 79 -94.5t136 -32.5q74 0 137 34.5t88 95.5h-297v142h296q-26 61 -89 95t-135 34q-71 0 -134 -34.5t-82 -94.5h-256q20 96 84 167.5t164 111t225 39.5
q138 0 251 -50.5t178.5 -139.5t65.5 -200t-61 -199.5z" />
    <glyph glyph-name="uni042E" unicode="&#x42e;" horiz-adv-x="1352" 
d="M1095.5 709.5q109.5 -50.5 172.5 -139t63 -199.5q0 -110 -62.5 -198t-172.5 -138.5t-247 -50.5q-112 0 -212.5 37t-172 103.5t-98.5 151.5h-79v-271h-246v740h246v-261h85q31 81 101.5 144t168.5 97.5t207 34.5q137 0 246.5 -50.5zM957 194.5q51 23.5 83 69t32 107.5
q0 61 -32 106.5t-83 69.5t-108 24q-58 0 -112 -24t-88.5 -69.5t-34.5 -106.5t35 -106.5t89 -69.5t111 -24t108 23.5z" />
    <glyph glyph-name="uni042F" unicode="&#x42f;" horiz-adv-x="927" 
d="M682 466v-55q1 64 0 55zM886 1h-235v239h-161l-205 -239h-279l215 250q-98 21 -153.5 83t-55.5 157v4q0 73 39.5 128.5t111 86.5t164.5 31h559v-740zM317.5 568q-26.5 -4 -43 -22t-16.5 -57q0 -37 16.5 -53.5t43 -20.5t77.5 -4h1h255v159q-150 0 -220 2h-36
q-51 0 -77.5 -4z" />
    <glyph glyph-name="uni0430" unicode="&#x430;" horiz-adv-x="786" 
d="M646 521q114 -48 114 -169v-352h-218l-17 71v5q-25 -45 -105.5 -66t-175.5 -21q-76 0 -152 33.5t-76 140.5q0 169 221 169q142 0 198 2.5t74 10t19 27.5v13q-1 33 -43.5 48.5t-96.5 15.5q-56 -1 -95.5 -21t-39.5 -61h-231q0 76 60 121.5t143.5 63t163.5 17.5
q143 0 257 -48zM486 168q38 33 41 84v14q-38 -16 -121 -16q-86 0 -120.5 -12t-35.5 -44q3 -30 31.5 -44.5t92.5 -14.5q74 0 112 33z" />
    <glyph glyph-name="uni0431" unicode="&#x431;" horiz-adv-x="816" 
d="M787 252v-1q-1 -134 -103.5 -200.5t-269.5 -66.5q-186 0 -284 70t-118 231q-1 15 -1 45q0 163 63 245.5t152.5 106t208.5 23.5h2q43 -2 101.5 4t58.5 31l203 -1q0 -87 -51.5 -129.5t-128.5 -54t-193 -11.5q-136 0 -176 -101q49 22 109 29.5t129 7.5q134 0 215.5 -59.5
t82.5 -167.5v-1zM517.5 169.5q41.5 20.5 41.5 84.5q0 60 -40 84.5t-99 24.5q-86 -1 -126.5 -20t-47.5 -58q-1 -8 -1 -22q0 -56 31.5 -81t65 -29t84.5 -4q50 0 91.5 20.5z" />
    <glyph glyph-name="uni0432" unicode="&#x432;" horiz-adv-x="808" 
d="M250 194q-1 -6 -1 -18zM764.5 241.5q32.5 -30.5 32.5 -87.5v-2q0 -80 -71.5 -115.5t-215.5 -37.5h-2h-25h-457v546h513v-1h2q101 0 155.5 -34t54.5 -99v-3q0 -48 -20.5 -78t-63.5 -45q65 -13 97.5 -43.5zM484 331q19 2 32 13t13 36q0 23 -12.5 33.5t-32 13t-56.5 2.5
h-178v-99q120 0 146.5 -0.5t28.5 -0.5h3q37 0 56 2zM518.5 128.5q23.5 2.5 38.5 13.5t15 36t-15 36t-38.5 13.5t-67.5 2.5h-1h-200v-104h201q44 0 67.5 2.5z" />
    <glyph glyph-name="uni0433" unicode="&#x433;" horiz-adv-x="573" 
d="M558 545v-156h-287v-389h-245v545h532z" />
    <glyph glyph-name="uni0434" unicode="&#x434;" horiz-adv-x="999" 
d="M889 161h99v-257h-231v95l-515 1v-96h-231v257h93q33 50 49 99t21.5 112t5.5 173h708zM405 392q-2 -80 -13 -132t-37 -99h304v230z" />
    <glyph glyph-name="uni0435" unicode="&#x435;" horiz-adv-x="791" 
d="M778 250h-533q7 -63 47.5 -103.5t110.5 -40.5q57 0 101.5 27.5t44.5 84.5h229q0 -116 -99.5 -177t-276.5 -61q-109 0 -198 37t-141 104.5t-52 154.5q0 88 51.5 155.5t141 104t198.5 36.5q112 0 196.5 -36t131.5 -101.5t48 -153.5v-5h2h-2v-26zM301 422q-35 -28 -48 -78
h290q-11 50 -44 78t-97 28q-66 0 -101 -28z" />
    <glyph glyph-name="uni0436" unicode="&#x436;" horiz-adv-x="1173" 
d="M916 301l266 -301h-258l-223 248v-248h-230v246l-222 -246h-258l266 301l-238 244h261l191 -193v193h230v-194l192 194h261z" />
    <glyph glyph-name="uni0437" unicode="&#x437;" horiz-adv-x="758" 
d="M747 186q-1 -102 -99 -151.5t-262 -49.5q-119 0 -204 34t-128 89t-43 115h227q0 -46 43 -69t105 -25q55 -3 93.5 11t38.5 48q-1 22 -26 31t-83 9h-94v110h94q62 0 84 10t22 28q0 26 -37.5 38.5t-91.5 12.5q-62 0 -105 -14t-43 -45h-227q0 73 61.5 116.5t147 61
t166.5 17.5q79 0 157 -16t133 -56.5t55 -110.5q0 -64 -79 -91q95 -28 95 -102v-1v0z" />
    <glyph glyph-name="uni0438" unicode="&#x438;" 
d="M249 231l291 314h230v-545h-230v315l-291 -315h-223v545h223v-314z" />
    <glyph glyph-name="uni0439" unicode="&#x439;" 
d="M235 602q-64 46 -64 138h131q0 -39 27 -63.5t70 -24.5q44 0 72 24.5t28 63.5h131q0 -92 -64 -138t-164 -46q-103 0 -167 46zM249 231l291 314h230v-545h-230v315l-291 -315h-223v545h223v-314z" />
    <glyph glyph-name="uni043A" unicode="&#x43a;" horiz-adv-x="771" 
d="M494 301l285 -301h-268l-255 253v-253h-230v545h230v-199l224 199h271z" />
    <glyph glyph-name="uni043B" unicode="&#x43b;" horiz-adv-x="826" 
d="M800 543v-543h-230v388h-204q-10 -122 -21 -178.5t-34 -94.5q-40 -69 -108 -93.5t-136 -24.5q-24 0 -41 2v170q38 0 56.5 8.5t26 22t17.5 44.5q15 53 18.5 107t3.5 159v33h652z" />
    <glyph glyph-name="uni043C" unicode="&#x43c;" horiz-adv-x="1081" 
d="M1054 545v-545h-230v278l-174 -278h-210l-184 278v-278h-230v545h263l256 -386l256 386h253z" />
    <glyph glyph-name="uni043D" unicode="&#x43d;" horiz-adv-x="783" 
d="M527 348v197h229v-545h-229v203h-279v-203h-222v545h222v-197h279z" />
    <glyph glyph-name="uni043E" unicode="&#x43e;" 
d="M601 530q87 -38 136 -105.5t49 -151.5q0 -83 -49.5 -150.5t-136 -105.5t-194.5 -38q-104 0 -195 38.5t-145.5 106t-54.5 149.5q0 83 54.5 150.5t145 106t195.5 38.5q108 0 195 -38zM480.5 139q34.5 17 55.5 51.5t21 82.5t-21 82.5t-55.5 51.5t-74.5 17q-39 0 -76.5 -17.5
t-61.5 -51.5t-24 -82t24 -82t61.5 -51.5t76.5 -17.5q40 0 74.5 17z" />
    <glyph glyph-name="uni043F" unicode="&#x43f;" horiz-adv-x="770" 
d="M26 545h718v-545h-230v386h-258v-386h-230v545z" />
    <glyph glyph-name="uni0440" unicode="&#x440;" horiz-adv-x="796" 
d="M779 260v0q-2 -71 -35.5 -135t-93.5 -103.5t-136 -39.5q-173 0 -258 78v-250h-230v735h211l13 -70q84 86 264 82q77 0 136.5 -38t93.5 -104t35 -148v-3v-4zM507.5 161.5q38.5 43.5 40.5 103.5q-2 69 -39.5 113.5t-109.5 44.5q-41 0 -73.5 -20.5t-51 -55t-18.5 -73.5v-2
q0 -70 39.5 -112t103.5 -42q70 0 108.5 43.5z" />
    <glyph glyph-name="uni0441" unicode="&#x441;" horiz-adv-x="764" 
d="M61 420.5q50 67.5 137 105.5t192 38q100 0 176.5 -30.5t123.5 -85.5t62 -127h-230q-11 45 -46 72t-85 27q-65 0 -106 -41.5t-41 -109.5q0 -66 40 -108.5t105 -42.5q51 0 86 27t46 71h230q-11 -68 -60 -123t-127.5 -87t-173.5 -32q-104 0 -191 38.5t-137.5 106
t-50.5 150.5q0 84 50 151.5z" />
    <glyph glyph-name="uni0442" unicode="&#x442;" horiz-adv-x="776" 
d="M754 545v-170h-249v-375h-230v375h-252v170h731z" />
    <glyph glyph-name="uni0443" unicode="&#x443;" horiz-adv-x="876" 
d="M868 545l-336 -668q-33 -66 -127.5 -85t-212.5 -19v183q57 0 79 7t22 20q0 4 -4 14l-281 548h246l186 -403l182 403h246z" />
    <glyph glyph-name="uni0444" unicode="&#x444;" horiz-adv-x="1121" 
d="M1053 125.5q-56 -64.5 -154.5 -102t-221.5 -37.5v-1h-5v-150h-230v150h-6v1q-113 1 -211 38.5t-156 102t-58 143.5q0 77 55.5 140.5t149 101.5t202.5 42v1h24v185h230v-185h5q123 -1 221.5 -38t154.5 -101.5t56 -145.5q0 -80 -56 -144.5zM269.5 199q31.5 -28 78 -41
t93.5 -13h1v250h-1q-48 0 -94 -12.5t-77.5 -40.5t-31.5 -72q0 -43 31.5 -71zM676 145q80 0 141.5 31t61.5 94q0 64 -61 94.5t-142 30.5h-4v-250h4z" />
    <glyph glyph-name="uni0445" unicode="&#x445;" horiz-adv-x="816" 
d="M563 545h261l-246 -275l246 -270h-261l-155 169l-156 -169h-261l247 270l-247 275h261l156 -170z" />
    <glyph glyph-name="uni0446" unicode="&#x446;" horiz-adv-x="873" 
d="M771 545v-385h93v-273h-230v113h-608v545h230v-385h285v385h230z" />
    <glyph glyph-name="uni0447" unicode="&#x447;" horiz-adv-x="776" 
d="M750 545v-545h-230v187q-59 -62 -171 -62q-323 0 -323 314v106h230v-111q0 -58 9 -93.5t38 -56t87 -20.5q61 0 89 20.5t34.5 52.5t6.5 93v115h230z" />
    <glyph glyph-name="uni0448" unicode="&#x448;" horiz-adv-x="1189" 
d="M932 160v385h230v-545h-1136v545h230v-385h223v385h231v-385h222z" />
    <glyph glyph-name="uni0449" unicode="&#x449;" horiz-adv-x="1265" 
d="M1162 545v-415h94v-240h-233v110h-997v545h230v-385h223v385h231v-385h222v385h230z" />
    <glyph glyph-name="uni044A" unicode="&#x44a;" horiz-adv-x="888" 
d="M807.5 352q69.5 -51 69.5 -151v-3q0 -95 -55.5 -146.5t-189.5 -51.5q-28 0 -41 1v-1h-449l-2 375h-132v170h361l1 -142h218h2q148 0 217.5 -51zM622 135q22 4 37 20t15 50q0 35 -15.5 50t-36.5 17.5t-65 2.5h-1h-186l1 -143q149 0 166 -1h25q38 0 60 4z" />
    <glyph glyph-name="uni044B" unicode="&#x44b;" horiz-adv-x="1051" 
d="M694.5 352q69.5 -51 69.5 -151v-3q0 -95 -55.5 -146.5t-189.5 -51.5q-28 0 -41 1v-1h-449l-3 545h230l1 -142h218h2q148 0 217.5 -51zM794 0v545h230v-545h-230zM510 135q22 4 37 20t15 50q0 35 -15.5 50t-36.5 17.5t-65 2.5h-1h-187l1 -143q149 0 167 -1h25q38 0 60 4z
" />
    <glyph glyph-name="uni044C" unicode="&#x44c;" horiz-adv-x="779" 
d="M694.5 352q69.5 -51 69.5 -151v-3q0 -95 -55.5 -146.5t-189.5 -51.5q-28 0 -41 1v-1h-449l-3 545h230l1 -142h218h2q148 0 217.5 -51zM510 135q22 4 37 20t15 50q0 35 -15.5 50t-36.5 17.5t-65 2.5h-1h-187l1 -143q149 0 167 -1h25q38 0 60 4z" />
    <glyph glyph-name="uni044D" unicode="&#x44d;" horiz-adv-x="767" 
d="M565.5 526q86.5 -38 136.5 -105.5t50 -151.5q0 -83 -50.5 -150.5t-137 -106t-190.5 -38.5q-95 0 -173.5 32t-128 87t-60.5 123h231q10 -45 45.5 -71.5t87.5 -26.5q47 0 82 24t50 65h-156v126h156q-17 41 -52 64t-83 23q-50 0 -85 -27t-46 -72h-231q16 72 63 127
t123.5 85.5t176.5 30.5q105 0 191.5 -38z" />
    <glyph glyph-name="uni044E" unicode="&#x44e;" horiz-adv-x="1086" 
d="M890.5 530q86.5 -38 135.5 -105.5t49 -151.5q0 -83 -49 -150.5t-135.5 -105.5t-194.5 -38q-90 0 -171.5 29.5t-138 82.5t-75.5 120h-55v-211h-230v546h230v-185h63q25 61 81.5 108t133.5 73t162 26q108 0 194.5 -38zM770.5 140q34.5 18 55 52t20.5 81q0 70 -43 110.5
t-107 40.5q-39 0 -76 -18t-61 -52.5t-24 -80.5t23.5 -80.5t60.5 -52.5t77 -18t74.5 18z" />
    <glyph glyph-name="uni044F" unicode="&#x44f;" horiz-adv-x="806" 
d="M561 1l-1 139h-140l-153 -139h-245l169 155q-84 21 -131 68.5t-47 118.5v4q0 59 39.5 104t111 70t164.5 25h450l2 -545h-219zM306.5 406q-29.5 -3 -47.5 -17.5t-18 -46.5q0 -30 18 -43.5t47.5 -16.5t88.5 -3h1h164v129q-110 0 -132 1h-33q-59 0 -88.5 -3z" />
    <glyph glyph-name="uni0450" unicode="&#x450;" horiz-adv-x="791" 
d="M778 250h-533q7 -63 47.5 -103.5t110.5 -40.5q57 0 101.5 27.5t44.5 84.5h229q0 -116 -99.5 -177t-276.5 -61q-109 0 -198 37t-141 104.5t-52 154.5q0 88 51.5 155.5t141 104t198.5 36.5q112 0 196.5 -36t131.5 -101.5t48 -153.5v-5h2h-2v-26zM301 422q-35 -28 -48 -78
h290q-11 50 -44 78t-97 28q-66 0 -101 -28zM192 730h224l70 -133h-174z" />
    <glyph glyph-name="uni0451" unicode="&#x451;" horiz-adv-x="791" 
d="M209.5 615q-23.5 23 -23.5 57q0 33 23.5 56t57.5 23q32 0 55.5 -23t23.5 -56q0 -34 -23 -57t-56 -23q-34 0 -57.5 23zM468 615q-23 23 -23 57q0 33 23 56t56 23q34 0 57 -23t23 -56q0 -34 -23 -57t-57 -23q-33 0 -56 23zM778 250h-533q7 -63 47.5 -103.5t110.5 -40.5
q57 0 101.5 27.5t44.5 84.5h229q0 -116 -99.5 -177t-276.5 -61q-109 0 -198 37t-141 104.5t-52 154.5q0 88 51.5 155.5t141 104t198.5 36.5q108 0 193 -36t133.5 -102t49.5 -153v-5h2h-2v-26zM301 422q-35 -28 -48 -78h290q-11 50 -44 78t-97 28q-66 0 -101 -28z" />
    <glyph glyph-name="uni0452" unicode="&#x452;" horiz-adv-x="807" 
d="M723.5 423q69.5 -80 69.5 -258v-170q0 -104 -43 -160.5t-130.5 -78t-237.5 -21.5v164q73 0 106 4t54 25.5t21 71.5v162q0 66 -7.5 107t-34.5 67t-82 26q-57 0 -85.5 -29t-36.5 -70.5t-8 -97.5v-165h-230v535h-80v134h80v71h230v-71h212v-134h-212v-115q75 83 219 83
q126 0 195.5 -80z" />
    <glyph glyph-name="uni0453" unicode="&#x453;" horiz-adv-x="573" 
d="M558 545v-156h-287v-389h-245v545h532zM169 597l70 133h224l-120 -133h-174z" />
    <glyph glyph-name="uni0454" unicode="&#x454;" horiz-adv-x="767" 
d="M478.5 144.5q35.5 26.5 46.5 71.5h230q-12 -68 -61 -123t-127 -87t-174 -32q-103 0 -190 38.5t-137.5 106t-50.5 150.5q0 84 50 151.5t136.5 105.5t191.5 38q100 0 176.5 -30.5t124 -85.5t62.5 -127h-230q-11 45 -46.5 72t-85.5 27q-48 0 -83 -23t-52 -64h156v-126h-156
q15 -41 50 -65t82 -24q52 0 87.5 26.5z" />
    <glyph glyph-name="uni0455" unicode="&#x455;" horiz-adv-x="762" 
d="M429 325l57 1q118 0 191.5 -30.5t73.5 -121.5q0 -118 -109.5 -157.5t-250.5 -39.5q-140 0 -256.5 41.5t-116.5 159.5h232q0 -47 41 -62.5t100 -15.5q67 0 99.5 16.5t32.5 53.5q0 33 -38 41.5t-96 8.5h-35q-91 0 -161.5 9.5t-122.5 45.5t-52 108q0 114 112.5 149t259.5 35
q139 0 250 -41t111 -159l-230 1q0 51 -52 63t-82 12q-46 0 -91.5 -10.5t-45.5 -46.5q0 -60 135 -62q29 0 44 1z" />
    <glyph glyph-name="uni0456" unicode="&#x456;" horiz-adv-x="283" 
d="M256 740h-230v-151h230v151zM256 0h-230v560h230v-560z" />
    <glyph glyph-name="uni0457" unicode="&#x457;" horiz-adv-x="504" 
d="M52.5 610.5q-27.5 27.5 -27.5 67.5q0 39 27.5 66t67.5 27q39 0 66 -27t27 -66q0 -40 -27 -67.5t-66 -27.5q-40 0 -67.5 27.5zM318.5 610.5q-27.5 27.5 -27.5 67.5q0 39 27.5 66t67.5 27q39 0 66 -27t27 -66q0 -40 -27 -67.5t-66 -27.5q-40 0 -67.5 27.5zM367 0h-230v545
h230v-545z" />
    <glyph glyph-name="uni0458" unicode="&#x458;" horiz-adv-x="299" 
d="M39 590v150h230v-150h-230zM39 561h230v-585q0 -116 -84 -158.5t-190 -42.5q-36 0 -65 4v180q48 0 71 6.5t30.5 21.5t7.5 45v529z" />
    <glyph glyph-name="uni0459" unicode="&#x459;" horiz-adv-x="1273" 
d="M1184.5 352q69.5 -51 69.5 -151v-3q0 -95 -55.5 -146.5t-189.5 -51.5q-28 0 -41 1v-1h-398v388h-204q-10 -122 -21 -178.5t-34 -94.5q-40 -69 -108 -93.5t-136 -24.5q-24 0 -41 2v170q38 0 56.5 8.5t26 22t17.5 44.5q15 53 18.5 107t3.5 159v33h652v-140h165h2
q148 0 217.5 -51zM1000 135q22 4 37 20t15 50q0 35 -15.5 50t-36.5 17.5t-65 2.5h-1h-134v-143q100 0 115 -1h25q38 0 60 4z" />
    <glyph glyph-name="uni045A" unicode="&#x45a;" horiz-adv-x="1228" 
d="M1140.5 352q69.5 -51 69.5 -151v-3q0 -95 -55.5 -146.5t-189.5 -51.5q-28 0 -41 1v-1h-397v203h-279v-203h-222v545h222v-197h279v197h229v-142h165h2q148 0 217.5 -51zM955 135q22 4 37 20t15 50q0 35 -15.5 50t-36.5 17.5t-65 2.5h-1h-133v-143q99 0 114 -1h25
q38 0 60 4z" />
    <glyph glyph-name="uni045B" unicode="&#x45b;" horiz-adv-x="820" 
d="M729.5 423.5q69.5 -79.5 69.5 -258.5v-165h-230v162q0 66 -7.5 107t-34.5 67t-82 26q-57 0 -85.5 -29t-36.5 -70.5t-8 -97.5v-165h-230v535h-80v134h80v71h230v-71h212v-134h-212v-115q75 83 219 83q126 0 195.5 -79.5z" />
    <glyph glyph-name="uni045C" unicode="&#x45c;" horiz-adv-x="771" 
d="M494 301l285 -301h-268l-255 253v-253h-230v545h230v-199l224 199h271zM261 597l70 133h224l-120 -133h-174z" />
    <glyph glyph-name="uni045D" unicode="&#x45d;" 
d="M249 231l291 314h230v-545h-230v315l-291 -315h-223v545h223v-314zM202 730h224l70 -133h-174z" />
    <glyph glyph-name="uni045E" unicode="&#x45e;" horiz-adv-x="876" 
d="M868 545l-336 -668q-33 -66 -127.5 -85t-212.5 -19v183q57 0 79 7t22 20q0 4 -4 14l-281 548h246l186 -403l182 403h246zM672 768q0 -99 -68.5 -149t-177.5 -50q-112 0 -181.5 50t-67.5 149h140q0 -44 29.5 -74.5t78.5 -30.5t78 30.5t29 74.5h140z" />
    <glyph glyph-name="uni045F" unicode="&#x45f;" horiz-adv-x="770" 
d="M514 545h230v-545h-249v-87h-197v87h-272v545h230v-386h258v386z" />
    <glyph glyph-name="uni0462" unicode="&#x462;" horiz-adv-x="1015" 
d="M850 482q71 -30 110.5 -88t39.5 -139v-4q0 -74 -39.5 -131t-111 -88.5t-164.5 -31.5h-537v559h-137v134h137v47h246v-47h273v-134h-273v-47h288h2q95 0 166 -30zM747 179q31 19 31 77q0 41 -15 61t-40.5 26t-68.5 6h-1h-259v-188q118 0 165.5 -0.5t64.5 -0.5h30
q62 0 93 19z" />
    <glyph glyph-name="uni0463" unicode="&#x463;" horiz-adv-x="849" 
d="M763.5 352q69.5 -51 69.5 -151v-3q0 -95 -55.5 -146.5t-189.5 -51.5q-28 0 -41 1v-1h-449l-3 473v25h-90v136h90v106h230v-106h202v-136h-202l1 -95h218h2q148 0 217.5 -51zM578.5 135q22.5 4 37.5 20t15 50q0 35 -15.5 50t-36.5 17.5t-65 2.5h-2h-186l1 -143
q149 0 167 -1h25q37 0 59.5 4z" />
    <glyph glyph-name="uni046A" unicode="&#x46a;" horiz-adv-x="1359" 
d="M1363 0h-298l-248 278v-278h-261v293l-262 -293h-298l247 265q59 66 114.5 93.5t120.5 32.5l-367 349h1152l-370 -350q60 -6 113 -34t110 -91zM679 444l193 173h-376z" />
    <glyph glyph-name="uni046B" unicode="&#x46b;" horiz-adv-x="1235" 
d="M1234 0h-301l-198 201v-201h-230v211l-208 -211h-301l197 176q57 51 105 78.5t92 38.5l-315 252h1097l-322 -255q43 -12 88.5 -39t100.5 -76zM616 315l141 107h-276z" />
    <glyph glyph-name="uni0472" unicode="&#x472;" horiz-adv-x="1011" 
d="M760 705.5q110 -50.5 172.5 -139t62.5 -199.5q0 -110 -62.5 -198t-172.5 -138.5t-247 -50.5q-132 0 -244 50.5t-177.5 139t-65.5 197.5q0 110 65.5 199t177.5 139.5t244 50.5q137 0 247 -50.5zM384.5 533q-57.5 -34 -81.5 -94q21 14 52 14t67 -10.5t93 -31.5
q60 -21 93.5 -31t62.5 -10q41 0 63 25q-7 54 -40.5 93t-82 59t-101.5 20q-68 0 -125.5 -34zM633 196.5q56 29.5 83 83.5q-19 -10 -46 -10q-30 0 -65.5 10.5t-91.5 31.5q-58 21 -93 31.5t-66 10.5q-39 0 -61 -22q9 -51 42 -88.5t80 -57t98 -19.5q64 0 120 29.5z" />
    <glyph glyph-name="uni0473" unicode="&#x473;" 
d="M601 530q87 -38 136 -105.5t49 -151.5q0 -83 -49.5 -150.5t-136 -105.5t-194.5 -38q-104 0 -195 38.5t-145.5 106t-54.5 149.5q0 83 54.5 150.5t145 106t195.5 38.5q108 0 195 -38zM311.5 397q-44.5 -27 -60.5 -77q21 11 52 11q28 0 62 -7.5t41 -9.5q66 -17 101 -17
q29 0 47 9q-10 57 -52 87.5t-96 30.5q-50 0 -94.5 -27zM488 143q37 21 55 61q-15 -5 -37 -5q-28 0 -62.5 8t-40.5 9q-68 17 -103 17q-30 0 -48 -9q16 -48 60 -75t94 -27q45 0 82 21z" />
    <glyph glyph-name="uni0474" unicode="&#x474;" horiz-adv-x="1154" 
d="M790 679q51 86 180 86q74 0 172 -25l-34 -120q-19 5 -39 5q-25 0 -42.5 -11.5t-30 -31t-34.5 -60.5l-255 -522h-287l-381 740h267l258 -500z" />
    <glyph glyph-name="uni0475" unicode="&#x475;" horiz-adv-x="929" 
d="M549 484q37 90 182 90q81 0 187 -26l-43 -115q-27 6 -46 6q-27 0 -44 -11t-30 -31.5t-36 -64.5l-18 -38l-141 -294h-287l-262 545h248l159 -374l67 158z" />
    <glyph glyph-name="uni0490" unicode="&#x490;" horiz-adv-x="780" 
d="M566 740v81h193v-256h-471v-565h-247v740h525z" />
    <glyph glyph-name="uni0491" unicode="&#x491;" horiz-adv-x="567" 
d="M365 640h197v-185h-4v-66h-287v-389h-245v545h339v95z" />
    <glyph glyph-name="uni0492" unicode="&#x492;" horiz-adv-x="909" 
d="M883 740v-190h-531v-96h307v-174h-307v-280h-247v280h-94v174h94v286h778z" />
    <glyph glyph-name="uni0493" unicode="&#x493;" horiz-adv-x="761" 
d="M731 545v-165h-426v-79h262v-159h-262v-142h-230v142h-64v159h64v244h656z" />
    <glyph glyph-name="uni0494" unicode="&#x494;" horiz-adv-x="837" 
d="M637 460.5q85 -46.5 132 -123t47 -163.5q0 -116 -40 -200t-115.5 -129t-181.5 -45h-162v165h96q61 0 100.5 35t57 83.5t17.5 90.5q0 75 -36.5 134t-158.5 59q-41 0 -67.5 -7.5t-52.5 -19.5v-340h-247v740h674v-136h-427v-126q69 29 172 29q107 0 192 -46.5z" />
    <glyph glyph-name="uni0495" unicode="&#x495;" horiz-adv-x="790" 
d="M596 307q79 -35 119 -96.5t40 -140.5q0 -110 -40 -169.5t-107.5 -80t-166.5 -20.5h-125v147h58q68 0 105.5 16.5t52.5 48t15 82.5q0 55 -39 91t-125 36q-47 0 -71.5 -8.5t-43.5 -21.5v-191h-230v545h658v-125h-428v-93q58 15 136 15q113 0 192 -35z" />
    <glyph glyph-name="uni0496" unicode="&#x496;" horiz-adv-x="1478" 
d="M1033 401l263 -261h175v-250h-227v110h-111l-300 311v-311h-246v302l-292 -302h-303l403 401l-388 339h306l274 -250v250h246v-258l283 258h306z" />
    <glyph glyph-name="uni0497" unicode="&#x497;" horiz-adv-x="1233" 
d="M916 301l188 -213h124v-228h-213v140h-91l-223 248v-248h-230v246l-222 -246h-258l266 301l-238 244h261l191 -193v193h230v-194l192 194h261z" />
    <glyph glyph-name="uni0498" unicode="&#x498;" horiz-adv-x="965" 
d="M943 245q-1 -129 -109 -193t-286 -73v-25q57 0 104.5 -18.5t46.5 -71.5q0 -68 -71 -91.5t-155 -23.5q-204 0 -204 123h111q0 -30 30 -38.5t52 -8.5q24 0 53.5 6t29.5 31q0 18 -23 23.5t-42 6t-23 0.5h-38v88q-192 11 -293.5 88.5t-101.5 220.5h234q0 -77 68 -112.5
t165 -34.5q85 -2 145 23t61 80q0 28 -15 42.5t-47 20t-90 5.5h-185v144h185q80 0 114 20t34 49q0 37 -58.5 54.5t-143.5 18.5q-97 0 -165 -20.5t-68 -63.5h-234q0 144 145.5 195.5t321.5 51.5q107 0 199.5 -13.5t162.5 -62.5t70 -145q0 -98 -120 -134q130 -39 140 -160v-2v0
z" />
    <glyph glyph-name="uni0499" unicode="&#x499;" horiz-adv-x="758" 
d="M747 186q-1 -89 -76.5 -138t-206.5 -60v-35q57 0 104.5 -18.5t46.5 -71.5q0 -68 -71 -91.5t-154 -23.5q-205 0 -205 123h111q0 -30 30.5 -38.5t52.5 -8.5q24 0 53 6t29 31q0 30 -75 30h-51v96q-103 7 -176.5 42t-110.5 86.5t-37 107.5h227q0 -46 43 -69t105 -25
q55 -3 93.5 11t38.5 48q-1 22 -26 31t-83 9h-94v110h94q62 0 84 10t22 28q0 26 -37.5 38.5t-91.5 12.5q-62 0 -105 -14t-43 -45h-227q0 73 61.5 116.5t147 61t166.5 17.5q79 0 157 -16t133 -56.5t55 -110.5q0 -64 -79 -91q95 -28 95 -102v-1v0z" />
    <glyph glyph-name="uni049A" unicode="&#x49a;" horiz-adv-x="935" 
d="M488 401l262 -261h184v-250h-228v110h-118l-300 310v-310h-247v740h247v-257l282 257h306z" />
    <glyph glyph-name="uni049B" unicode="&#x49b;" horiz-adv-x="847" 
d="M494 301l202 -213h145v-228h-213v140h-117l-255 253v-253h-230v545h230v-199l224 199h271z" />
    <glyph glyph-name="uni049C" unicode="&#x49c;" horiz-adv-x="949" 
d="M955 0h-295l-200 337h-23v-146l-116 -1v147h-33v-337h-247v740h247v-269h33v134h116v-134h29l177 269h298l-239 -339z" />
    <glyph glyph-name="uni049D" unicode="&#x49d;" horiz-adv-x="843" 
d="M848 0h-255l-166 219h-35v-107l-95 -1v108h-41v-219h-230v545h230v-193h41v90h95v-90h36l134 193h257l-186 -264z" />
    <glyph glyph-name="uni049E" unicode="&#x49e;" horiz-adv-x="926" 
d="M529 401l403 -401h-303l-300 310v-310h-246v592h-72v93h72v55h246v-55h71v-93h-71v-109l282 257h307z" />
    <glyph glyph-name="uni049F" unicode="&#x49f;" horiz-adv-x="802" 
d="M537 301l273 -301h-262l-235 253v-253h-230v582h-72v93h72v65h230v-65h177v-93h-177v-235l200 198h266z" />
    <glyph glyph-name="uni04A0" unicode="&#x4a0;" horiz-adv-x="1019" 
d="M602 401l404 -401h-304l-300 311v-311h-246v604h-137v136h383v-258l283 258h306z" />
    <glyph glyph-name="uni04A1" unicode="&#x4a1;" horiz-adv-x="879" 
d="M603 301l285 -301h-268l-255 253v-253h-230v452h-124v93h354v-199l224 199h271z" />
    <glyph glyph-name="uni04A2" unicode="&#x4a2;" horiz-adv-x="1000" 
d="M929 740v-600h65v-250h-228v110h-83v283h-395v-283h-247v740h247v-263h395v263h246z" />
    <glyph glyph-name="uni04A3" unicode="&#x4a3;" horiz-adv-x="864" 
d="M756 545v-452h102v-228h-212v135h-119v203h-279v-203h-222v545h222v-197h279v197h229z" />
    <glyph glyph-name="uni04A4" unicode="&#x4a4;" horiz-adv-x="1419" 
d="M1397 740v-179h-468v-561h-246v283h-395v-283h-247v740h247v-263h395v263h714z" />
    <glyph glyph-name="uni04A5" unicode="&#x4a5;" horiz-adv-x="1052" 
d="M1041 545v-156h-285v-389h-229v203h-279v-203h-222v545h222v-197h279v197h514z" />
    <glyph glyph-name="uni04A6" unicode="&#x4a6;" horiz-adv-x="1563" 
d="M1391 482q71 -30 110.5 -88t39.5 -139v-4q0 -75 -37.5 -131.5t-108.5 -88t-168 -31.5h-180v161h107q79 0 120 20t41 74t-40 85.5t-153 31.5q-97 0 -173 -33v-339h-248v565h-412v-565h-248v740h908v-264q103 36 276 36q95 0 166 -30z" />
    <glyph glyph-name="uni04A7" unicode="&#x4a7;" horiz-adv-x="1250" 
d="M1069 307q79 -35 119 -96.5t40 -140.5q0 -110 -40 -169.5t-107.5 -80t-166.5 -20.5h-125v147h58q68 0 105.5 16.5t52.5 48t15 82.5q0 55 -39 91t-125 36q-44 0 -69 -8t-43 -20v-193h-230v386h-258v-386h-230v545h718v-217q54 14 133 14q113 0 192 -35z" />
    <glyph glyph-name="uni04A8" unicode="&#x4a8;" horiz-adv-x="1392" 
d="M1371 -13q-6 -1 -34 -4.5t-79 -6.5t-109 -3q-157 0 -282 26q-143 -19 -347 -19q-135 0 -249.5 50.5t-182 139t-67.5 197.5q0 110 67.5 199t182 139.5t249.5 50.5l1 -189q-63 0 -117 -24t-86.5 -69t-32.5 -107q0 -61 35.5 -106.5t90 -69.5t110.5 -24h37q-61 83 -61 197
q0 77 45.5 164t140.5 148.5t236 61.5q150 0 246 -57t139 -141t43 -168q0 -130 -77 -214q39 4 69 9.5t32 7.5v-188zM886 190q101 20 149.5 62t48.5 116q0 171 -164 171q-83 0 -121.5 -49.5t-38.5 -125.5q0 -120 126 -174z" />
    <glyph glyph-name="uni04A9" unicode="&#x4a9;" horiz-adv-x="1180" 
d="M1159 -34q-5 -1 -32.5 -4.5t-75.5 -6.5t-103 -3q-131 0 -235 21q-116 -13 -283 -13q-105 0 -199.5 39.5t-152 108t-57.5 152.5q0 83 57.5 151t152 107t199.5 39l1 -148q-47 0 -87 -17t-64 -51t-24 -81t25 -82t65.5 -53.5t84.5 -18.5h28q-48 62 -48 149q0 58 33 123.5
t113 113t209 47.5q131 0 211.5 -44.5t114.5 -108t34 -125.5q0 -96 -55 -158l41 5q38 5 47 5v-147zM675.5 347.5q-30.5 -38.5 -30.5 -92.5q0 -101 109 -140q71 12 104.5 44.5t33.5 98.5q0 54 -27.5 91t-94.5 37q-64 0 -94.5 -38.5z" />
    <glyph glyph-name="uni04AA" unicode="&#x4aa;" horiz-adv-x="1011" 
d="M645.5 202q58.5 33 86.5 94h257q-20 -88 -76.5 -156t-143.5 -109t-197 -49v-27q57 0 104.5 -18.5t46.5 -71.5q0 -68 -71 -91.5t-155 -23.5q-204 0 -204 123h111q0 -29 30 -37.5t52 -8.5q24 0 53.5 6t29.5 30q0 30 -75 30h-51v91q-120 13 -216.5 66.5t-151 136.5
t-54.5 182q0 111 65.5 200t179 139.5t251.5 50.5q124 0 224 -39.5t164 -111t85 -167.5h-256q-15 40 -50.5 69.5t-79.5 44.5t-86 15q-59 0 -114.5 -24t-90 -69.5t-34.5 -107.5t34 -107.5t88.5 -69t116.5 -23.5q69 0 127.5 33z" />
    <glyph glyph-name="uni04AB" unicode="&#x4ab;" horiz-adv-x="764" 
d="M475 145q35 27 46 71h230q-14 -88 -90 -152.5t-191 -83.5v-138h-166v139q-84 14 -150.5 55t-104.5 101.5t-38 131.5q0 84 50 151.5t137 105.5t192 38q100 0 176.5 -30.5t123.5 -85.5t62 -127h-230q-11 45 -46 72t-85 27q-65 0 -106 -41.5t-41 -109.5q0 -66 40 -108.5
t105 -42.5q51 0 86 27z" />
    <glyph glyph-name="uni04AC" unicode="&#x4ac;" horiz-adv-x="926" 
d="M26 540v200h874zM900 740v-201h-312v-399h126v-250h-228v110h-144v539h-316v201h874z" />
    <glyph glyph-name="uni04AD" unicode="&#x4ad;" horiz-adv-x="776" 
d="M754 545v-170h-249v-282h130v-228h-213v135h-147v375h-252v170h731z" />
    <glyph glyph-name="uni04AE" unicode="&#x4ae;" horiz-adv-x="974" 
d="M718 740h255l-354 -429v-311h-265v310l-353 430h255l225 -275z" />
    <glyph glyph-name="uni04AF" unicode="&#x4af;" horiz-adv-x="757" 
d="M377 214l156 331h218l-267 -560v-151h-215v151l-263 560h215z" />
    <glyph glyph-name="uni04B0" unicode="&#x4b0;" horiz-adv-x="974" 
d="M718 740h255l-292 -354h131v-134h-193v-252h-265v252h-185v134h123l-291 354h255l225 -275z" />
    <glyph glyph-name="uni04B1" unicode="&#x4b1;" horiz-adv-x="757" 
d="M533 545h218l-226 -475h108v-133h-149v-103h-215v103h-127v133h87l-223 475h215l156 -331z" />
    <glyph glyph-name="uni04B2" unicode="&#x4b2;" horiz-adv-x="1000" 
d="M637 367l179 -227h178v-250h-228v110h-118l-182 229l-182 -229h-278l290 367l-290 373h278l182 -230l182 230h278z" />
    <glyph glyph-name="uni04B3" unicode="&#x4b3;" horiz-adv-x="882" 
d="M578 270l166 -182h133v-228h-212v140h-102l-155 169l-156 -169h-261l247 270l-247 275h261l156 -170l155 170h261z" />
    <glyph glyph-name="uni04B4" unicode="&#x4b4;" horiz-adv-x="1325" 
d="M1201 740v-562h118v-308h-247v130h-773v539h-276v201h792v-201h-269v-361h408v562h247z" />
    <glyph glyph-name="uni04B5" unicode="&#x4b5;" horiz-adv-x="1048" 
d="M950 545v-385h93v-273h-230v113h-608v388h-194v157h617v-157h-193v-228h285v385h230z" />
    <glyph glyph-name="uni04B6" unicode="&#x4b6;" horiz-adv-x="983" 
d="M861 140h115v-250h-227v110h-119v257q-78 -80 -224 -80q-95 0 -181 35.5t-141 111t-55 189.5v227h231v-224q0 -76 51.5 -121t144.5 -45q91 0 132.5 41t41.5 122v227h231v-600z" />
    <glyph glyph-name="uni04B7" unicode="&#x4b7;" horiz-adv-x="858" 
d="M750 93h103v-228h-213v135h-120v187q-59 -62 -171 -62q-323 0 -323 314v106h230v-111q0 -58 9 -93.5t38 -56t87 -20.5q61 0 89 20.5t34.5 52.5t6.5 93v115h230v-452z" />
    <glyph glyph-name="uni04B8" unicode="&#x4b8;" horiz-adv-x="903" 
d="M630 740h231v-740h-231v257q-51 -53 -131 -70v-106l-116 -1v98q-91 4 -172 40.5t-131.5 111t-50.5 183.5v227h231v-224q0 -59 32 -100t91 -57v136h116v-142q68 9 99.5 49t31.5 111v227z" />
    <glyph glyph-name="uni04B9" unicode="&#x4b9;" horiz-adv-x="777" 
d="M750 545v-545h-230v187q-33 -35 -82 -50v-75l-95 -1v64q-317 4 -317 314v106h230v-111q0 -74 16.5 -114t70.5 -52v124h95v-124q39 8 56.5 29.5t21.5 50.5t4 82v115h230z" />
    <glyph glyph-name="uni04BA" unicode="&#x4ba;" horiz-adv-x="900" 
d="M678 527.5q86 -35.5 141 -111t55 -188.5v-228h-231v225q0 76 -51.5 120.5t-145.5 44.5q-90 0 -131.5 -40.5t-41.5 -121.5v-228h-232v740h232v-257q78 80 224 80q95 0 181 -35.5z" />
    <glyph glyph-name="uni04BB" unicode="&#x4bb;" horiz-adv-x="766" 
d="M674.5 483q70.5 -80 70.5 -258v-225h-230v222q0 63 -7 103t-34 67t-84 27q-60 0 -89 -27.5t-37 -68t-8 -100.5v-223h-230v740h230v-261q76 84 230 84q118 0 188.5 -80z" />
    <glyph glyph-name="uni04BC" unicode="&#x4bc;" horiz-adv-x="1139" 
d="M1124 320h-686q13 -85 76.5 -132.5t151.5 -47.5q96 0 153 33.5t57 102.5h248q0 -93 -59 -160t-163 -101.5t-236 -34.5q-119 0 -224 42.5t-172.5 120t-79.5 177.5h-29q-77 0 -116 45.5t-39 110.5q0 34 10.5 67t29.5 59h117q-33 -63 -33 -101q0 -57 68 -61q22 90 91 158
t168 105t209 37q129 0 233 -46t164 -131t61 -197v-46zM521 548.5q-56 -37.5 -76 -108.5h422q-17 72 -68 109t-133 37q-89 0 -145 -37.5z" />
    <glyph glyph-name="uni04BD" unicode="&#x4bd;" horiz-adv-x="928" 
d="M915 250h-533q7 -63 47.5 -103.5t110.5 -40.5q57 0 101.5 27.5t44.5 84.5h229q0 -116 -99.5 -177t-276.5 -61q-102 0 -187 32.5t-138.5 92t-63.5 137.5q-70 1 -107 40t-37 96q0 53 30 98h112q-25 -58 -25 -90q0 -20 9 -29.5t25 -12.5q18 69 72.5 121t134.5 79.5t175 27.5
q112 0 196.5 -36t131.5 -101.5t48 -153.5v-5h2h-2v-26zM438 422q-35 -28 -48 -78h290q-11 50 -44 78t-97 28q-66 0 -101 -28z" />
    <glyph glyph-name="uni04BE" unicode="&#x4be;" horiz-adv-x="1139" 
d="M1124 320h-686q13 -85 76.5 -132.5t151.5 -47.5q96 0 153 33.5t57 102.5h248q0 -115 -89.5 -189.5t-239.5 -97.5v-112h-187v106q-108 10 -199 54.5t-149.5 117.5t-69.5 165h-29q-77 0 -116 45.5t-39 110.5q0 34 10.5 67t29.5 59h117q-33 -63 -33 -101q0 -57 68 -61
q22 90 91 158t168 105t209 37q129 0 233 -46t164 -131t61 -197v-46zM521 548.5q-56 -37.5 -76 -108.5h422q-17 72 -68 109t-133 37q-89 0 -145 -37.5z" />
    <glyph glyph-name="uni04BF" unicode="&#x4bf;" horiz-adv-x="928" 
d="M915 250h-533q7 -63 47.5 -103.5t110.5 -40.5q57 0 101.5 27.5t44.5 84.5h229q0 -103 -79 -163t-223 -72v-141h-166v145q-122 20 -203 88t-94 167q-70 1 -107 40t-37 96q0 53 30 98h112q-25 -58 -25 -90q0 -20 9 -29.5t25 -12.5q18 69 72.5 121t134.5 79.5t175 27.5
q112 0 196.5 -36t131.5 -101.5t48 -153.5v-5h2h-2v-26zM438 422q-35 -28 -48 -78h290q-11 50 -44 78t-97 28q-66 0 -101 -28z" />
    <glyph glyph-name="uni04C0" unicode="&#x4c0;" horiz-adv-x="329" 
d="M288 0h-247v740h247v-740z" />
    <glyph glyph-name="uni04C1" unicode="&#x4c1;" horiz-adv-x="1429" 
d="M1033 401l404 -401h-304l-300 311v-311h-246v302l-292 -302h-303l403 401l-388 339h306l274 -250v250h246v-258l283 258h306zM960 970q0 -99 -68.5 -149t-177.5 -50q-112 0 -181.5 50t-67.5 149h140q0 -44 29.5 -74.5t78.5 -30.5t78 30.5t29 74.5h140z" />
    <glyph glyph-name="uni04C2" unicode="&#x4c2;" horiz-adv-x="1173" 
d="M916 301l266 -301h-258l-223 248v-248h-230v246l-222 -246h-258l266 301l-238 244h261l191 -193v193h230v-194l192 194h261zM830 769q0 -99 -68.5 -149t-177.5 -50q-112 0 -181.5 50t-67.5 149h140q0 -44 29.5 -74.5t78.5 -30.5t78 30.5t29 74.5h140z" />
    <glyph glyph-name="uni04C3" unicode="&#x4c3;" horiz-adv-x="901" 
d="M572 468q87 -3 151.5 -50t98.5 -120.5t34 -156.5v-4q0 -121 -52.5 -203t-140 -121t-194.5 -39q-61 0 -122 12v162q35 -18 82 -18q51 0 98.5 23t78 70.5t30.5 117.5q0 88 -42.5 139.5t-147.5 51.5q-85 0 -158 -34v-298h-247v740h247v-266l290 266h301z" />
    <glyph glyph-name="uni04C4" unicode="&#x4c4;" horiz-adv-x="760" 
d="M516 329q105 -25 159.5 -93.5t54.5 -165.5q0 -110 -40 -169.5t-107.5 -80t-166.5 -20.5h-125v147h58q68 0 106 16.5t53 48t15 82.5q0 57 -31.5 92t-113.5 35q-45 0 -69.5 -8t-36.5 -15.5t-16 -9.5v-188h-230v545h230v-197l223 197h264z" />
    <glyph glyph-name="uni04C5" unicode="&#x4c5;" horiz-adv-x="1085" 
d="M934 147h160l-68 -257h-230l29 110h-138v565h-244q-22 -131 -46 -224.5t-68 -195.5q-45 -95 -125.5 -120.5t-126 -25t-51.5 0.5v199q48 0 73 18.5t36 51.5q65 212 83 471h716v-593z" />
    <glyph glyph-name="uni04C6" unicode="&#x4c6;" horiz-adv-x="905" 
d="M800 70h108l-66 -225h-202l46 155h-116v388h-204q-10 -122 -21 -178.5t-34 -94.5q-40 -69 -108 -93.5t-136 -24.5q-24 0 -41 2v170q38 0 56.5 8.5t26 22t17.5 44.5q15 53 18.5 107t3.5 159v33h652v-473z" />
    <glyph glyph-name="uni04C7" unicode="&#x4c7;" horiz-adv-x="970" 
d="M683 740h246v-740q0 -105 -46.5 -166.5t-140 -87.5t-242.5 -26v165q37 0 79 10t73 35.5t31 69.5v283h-395v-283h-247v740h247v-263h395v263z" />
    <glyph glyph-name="uni04C8" unicode="&#x4c8;" horiz-adv-x="783" 
d="M527 545h229v-550q0 -102 -41.5 -158t-133 -79t-253.5 -23v163q81 0 119.5 5t59 27t20.5 70v203h-279v-203h-222v545h222v-197h279v197z" />
    <glyph glyph-name="uni04C9" unicode="&#x4c9;" horiz-adv-x="1080" 
d="M929 740v-593h160l-68 -257h-230l29 110h-137v283h-395v-283h-247v740h247v-263h395v263h246z" />
    <glyph glyph-name="uni04CA" unicode="&#x4ca;" horiz-adv-x="861" 
d="M756 545v-475h108l-66 -225h-202l46 155h-115v203h-279v-203h-222v545h222v-197h279v197h229z" />
    <glyph glyph-name="uni04CB" unicode="&#x4cb;" horiz-adv-x="885" 
d="M859 740v-740h-74v-111h-227v251h70v118q-79 -81 -224 -81q-95 0 -181.5 35.5t-141.5 111t-55 189.5v227h232v-224q0 -76 51 -121t145 -45q91 0 132.5 41t41.5 122v227h231z" />
    <glyph glyph-name="uni04CC" unicode="&#x4cc;" horiz-adv-x="777" 
d="M750 545v-545h-126v-135h-212v228h108v94q-59 -62 -171 -62q-323 0 -323 314v106h230v-111q0 -58 9 -93.5t38 -56t87 -20.5q61 0 89 20.5t34.5 52.5t6.5 93v115h230z" />
    <glyph glyph-name="uni04CD" unicode="&#x4cd;" horiz-adv-x="1234" 
d="M1098 740v-593h144l-67 -257h-230l29 110h-122v334l-163 -334h-227l-174 338v-338h-247v740h282l252 -509l248 509h275z" />
    <glyph glyph-name="uni04CE" unicode="&#x4ce;" horiz-adv-x="1185" 
d="M1054 545v-475h135l-67 -225h-201l46 155h-143v278l-174 -278h-210l-184 278v-278h-230v545h263l256 -386l256 386h253z" />
    <glyph glyph-name="uni04CF" unicode="&#x4cf;" horiz-adv-x="329" 
d="M288 0h-247v740h247v-740z" />
    <glyph glyph-name="uni04D0" unicode="&#x4d0;" horiz-adv-x="1017" 
d="M1036 0h-249l-69 127h-419l-69 -127h-249l401 740h253zM509 514l-120 -220h239zM755 981q0 -99 -68.5 -149t-177.5 -50q-112 0 -181.5 50t-67.5 149h140q0 -44 29.5 -74.5t78.5 -30.5t78 30.5t29 74.5h140z" />
    <glyph glyph-name="uni04D1" unicode="&#x4d1;" horiz-adv-x="786" 
d="M646 521q114 -48 114 -169v-352h-218l-17 71v5q-25 -45 -105.5 -66t-175.5 -21q-76 0 -152 33.5t-76 140.5q0 169 221 169q142 0 198 2.5t74 10t19 27.5v13q-1 33 -43.5 48.5t-96.5 15.5q-56 -1 -95.5 -21t-39.5 -61h-231q0 76 60 121.5t143.5 63t163.5 17.5
q143 0 257 -48zM486 168q38 33 41 84v14q-38 -16 -121 -16q-86 0 -120.5 -12t-35.5 -44q3 -30 31.5 -44.5t92.5 -14.5q74 0 112 33zM634 794q0 -99 -68.5 -149t-177.5 -50q-112 0 -181.5 50t-67.5 149h140q0 -44 29.5 -74.5t78.5 -30.5t78 30.5t29 74.5h140z" />
    <glyph glyph-name="uni04D2" unicode="&#x4d2;" horiz-adv-x="1017" 
d="M1036 0h-249l-69 127h-419l-69 -127h-249l401 740h253zM509 514l-120 -220h239zM311 810.5q-27 27.5 -27 67.5q0 39 27 66t67 27q39 0 66.5 -27t27.5 -66q0 -40 -27.5 -67.5t-66.5 -27.5q-40 0 -67 27.5zM577 810.5q-27 27.5 -27 67.5q0 39 27 66t67 27q39 0 66.5 -27
t27.5 -66q0 -40 -27.5 -67.5t-66.5 -27.5q-40 0 -67 27.5z" />
    <glyph glyph-name="uni04D3" unicode="&#x4d3;" horiz-adv-x="786" 
d="M646 521q114 -48 114 -169v-352h-218l-17 71v5q-25 -45 -105.5 -66t-175.5 -21q-76 0 -152 33.5t-76 140.5q0 169 221 169q142 0 198 2.5t74 10t19 27.5v13q-1 33 -43.5 48.5t-96.5 15.5q-56 -1 -95.5 -21t-39.5 -61h-231q0 76 60 121.5t143.5 63t163.5 17.5
q143 0 257 -48zM486 168q38 33 41 84v14q-38 -16 -121 -16q-86 0 -120.5 -12t-35.5 -44q3 -30 31.5 -44.5t92.5 -14.5q74 0 112 33zM186 631.5q-27 27.5 -27 67.5q0 39 27 66t67 27q39 0 66.5 -27t27.5 -66q0 -40 -27.5 -67.5t-66.5 -27.5q-40 0 -67 27.5zM452 631.5
q-27 27.5 -27 67.5q0 39 27 66t67 27q39 0 66.5 -27t27.5 -66q0 -40 -27.5 -67.5t-66.5 -27.5q-40 0 -67 27.5z" />
    <glyph glyph-name="uni04D4" unicode="&#x4d4;" horiz-adv-x="1508" 
d="M1397 288h-462v-113l546 4v-179h-792v120h-353l-97 -120h-258l595 740h905l1 -179h-547v-98h462v-175zM689 555l-221 -269h221v269z" />
    <glyph glyph-name="uni04D5" unicode="&#x4d5;" horiz-adv-x="1327" 
d="M1305 250h-533q7 -63 47.5 -103.5t110.5 -40.5q57 0 101.5 27.5t44.5 84.5h229q0 -116 -99.5 -177t-276.5 -61q-99 0 -182.5 31t-136.5 87q-20 -30 -71.5 -55t-123 -39.5t-149.5 -14.5q-83 0 -166.5 33.5t-83.5 140.5q0 169 221 169q152 0 208 3t69.5 12.5t13.5 35.5
q0 35 -42.5 50.5t-97.5 15.5q-56 -1 -95.5 -20.5t-39.5 -61.5h-231q0 76 60 121.5t143.5 63t163.5 17.5q77 0 153 -14.5t130 -48.5q52 32 118 49t139 17q112 0 196.5 -36t131.5 -101.5t48 -153.5v-5h2h-2v-26zM828 422q-35 -28 -48 -78h290q-11 50 -44 78t-97 28
q-66 0 -101 -28zM538 269v2q0 -1 -1 -1zM463 154q37 19 55.5 50t18.5 66q-42 -20 -131 -20q-86 0 -120.5 -12t-35.5 -44q3 -30 31.5 -44.5t92.5 -14.5q52 0 89 19z" />
    <glyph glyph-name="uni04D6" unicode="&#x4d6;" horiz-adv-x="861" 
d="M750 288h-462v-113l546 4v-179h-793v740h793l1 -179h-547v-98h462v-175zM669 960q0 -99 -68.5 -149t-177.5 -50q-112 0 -181.5 50t-67.5 149h140q0 -44 29.5 -74.5t78.5 -30.5t78 30.5t29 74.5h140z" />
    <glyph glyph-name="uni04D7" unicode="&#x4d7;" horiz-adv-x="791" 
d="M778 250h-533q7 -63 47.5 -103.5t110.5 -40.5q57 0 101.5 27.5t44.5 84.5h229q0 -116 -99.5 -177t-276.5 -61q-109 0 -198 37t-141 104.5t-52 154.5q0 88 51.5 155.5t141 104t198.5 36.5q112 0 196.5 -36t131.5 -101.5t48 -153.5v-5h2h-2v-26zM301 422q-35 -28 -48 -78
h290q-11 50 -44 78t-97 28q-66 0 -101 -28zM641 801q0 -99 -68.5 -149t-177.5 -50q-112 0 -181.5 50t-67.5 149h140q0 -44 29.5 -74.5t78.5 -30.5t78 30.5t29 74.5h140z" />
    <glyph glyph-name="uni04D8" unicode="&#x4d8;" horiz-adv-x="1011" 
d="M755 705.5q110 -50.5 172.5 -139t62.5 -199.5q0 -110 -62.5 -198t-172.5 -138.5t-247 -50.5q-132 0 -244 50.5t-177.5 139t-65.5 197.5q0 22 3 43h703q-11 49 -44.5 85t-80.5 54t-97 18q-56 0 -107 -24t-81 -67h-276q28 83 96 146.5t164.5 98.5t206.5 35q137 0 247 -50.5
zM634.5 200.5q58.5 33.5 82.5 93.5h-418q24 -60 82.5 -93.5t126.5 -33.5t126.5 33.5z" />
    <glyph glyph-name="uni04D9" unicode="&#x4d9;" horiz-adv-x="805" 
d="M601 530q87 -38 136 -105.5t49 -151.5q0 -83 -49.5 -150.5t-136 -105.5t-194.5 -38q-104 0 -195 38.5t-145.5 106t-54.5 149.5q0 18 3 34h540q-11 56 -52.5 86.5t-95.5 30.5q-31 0 -62 -11t-54 -33h-252q28 56 84 98.5t129.5 66t154.5 23.5q108 0 195 -38zM495.5 148
q39.5 26 54.5 74h-298q17 -48 61 -74t93 -26q50 0 89.5 26z" />
    <glyph glyph-name="uni04DA" unicode="&#x4da;" horiz-adv-x="1011" 
d="M755 705.5q110 -50.5 172.5 -139t62.5 -199.5q0 -110 -62.5 -198t-172.5 -138.5t-247 -50.5q-132 0 -244 50.5t-177.5 139t-65.5 197.5q0 22 3 43h703q-11 49 -44.5 85t-80.5 54t-97 18q-56 0 -107 -24t-81 -67h-276q28 83 96 146.5t164.5 98.5t206.5 35q137 0 247 -50.5
zM634.5 200.5q58.5 33.5 82.5 93.5h-418q24 -60 82.5 -93.5t126.5 -33.5t126.5 33.5zM302 810.5q-27 27.5 -27 67.5q0 39 27 66t67 27q39 0 66.5 -27t27.5 -66q0 -40 -27.5 -67.5t-66.5 -27.5q-40 0 -67 27.5zM568 810.5q-27 27.5 -27 67.5q0 39 27 66t67 27q39 0 66.5 -27
t27.5 -66q0 -40 -27.5 -67.5t-66.5 -27.5q-40 0 -67 27.5z" />
    <glyph glyph-name="uni04DB" unicode="&#x4db;" horiz-adv-x="805" 
d="M601 530q87 -38 136 -105.5t49 -151.5q0 -83 -49.5 -150.5t-136 -105.5t-194.5 -38q-104 0 -195 38.5t-145.5 106t-54.5 149.5q0 18 3 34h540q-11 56 -52.5 86.5t-95.5 30.5q-31 0 -62 -11t-54 -33h-252q28 56 84 98.5t129.5 66t154.5 23.5q108 0 195 -38zM495.5 148
q39.5 26 54.5 74h-298q17 -48 61 -74t93 -26q50 0 89.5 26zM193 612.5q-27 27.5 -27 67.5q0 39 27 66t67 27q39 0 66.5 -27t27.5 -66q0 -40 -27.5 -67.5t-66.5 -27.5q-40 0 -67 27.5zM459 612.5q-27 27.5 -27 67.5q0 39 27 66t67 27q39 0 66.5 -27t27.5 -66
q0 -40 -27.5 -67.5t-66.5 -27.5q-40 0 -67 27.5z" />
    <glyph glyph-name="uni04DC" unicode="&#x4dc;" horiz-adv-x="1429" 
d="M1033 401l404 -401h-304l-300 311v-311h-246v302l-292 -302h-303l403 401l-388 339h306l274 -250v250h246v-258l283 258h306zM507 810.5q-27 27.5 -27 67.5q0 39 27 66t67 27q39 0 66.5 -27t27.5 -66q0 -40 -27.5 -67.5t-66.5 -27.5q-40 0 -67 27.5zM773 810.5
q-27 27.5 -27 67.5q0 39 27 66t67 27q39 0 66.5 -27t27.5 -66q0 -40 -27.5 -67.5t-66.5 -27.5q-40 0 -67 27.5z" />
    <glyph glyph-name="uni04DD" unicode="&#x4dd;" horiz-adv-x="1173" 
d="M916 301l266 -301h-258l-223 248v-248h-230v246l-222 -246h-258l266 301l-238 244h261l191 -193v193h230v-194l192 194h261zM379 628.5q-27 27.5 -27 67.5q0 39 27 66t67 27q39 0 66.5 -27t27.5 -66q0 -40 -27.5 -67.5t-66.5 -27.5q-40 0 -67 27.5zM645 628.5
q-27 27.5 -27 67.5q0 39 27 66t67 27q39 0 66.5 -27t27.5 -66q0 -40 -27.5 -67.5t-66.5 -27.5q-40 0 -67 27.5z" />
    <glyph glyph-name="uni04DE" unicode="&#x4de;" horiz-adv-x="965" 
d="M943 245q-1 -139 -126 -203t-326 -64q-227 0 -347 77.5t-120 233.5h234q0 -77 68 -112.5t165 -34.5q85 -2 145 23t61 80q0 28 -15 42.5t-47 20t-90 5.5h-185v144h185q80 0 114 20t34 49q0 37 -58.5 54.5t-143.5 18.5q-97 0 -165 -20.5t-68 -63.5h-234q0 144 145.5 195.5
t321.5 51.5q107 0 199.5 -13.5t162.5 -62.5t70 -145q0 -98 -120 -134q130 -39 140 -160v-2v0zM273 810.5q-27 27.5 -27 67.5q0 39 27 66t67 27q39 0 66.5 -27t27.5 -66q0 -40 -27.5 -67.5t-66.5 -27.5q-40 0 -67 27.5zM539 810.5q-27 27.5 -27 67.5q0 39 27 66t67 27
q39 0 66.5 -27t27.5 -66q0 -40 -27.5 -67.5t-66.5 -27.5q-40 0 -67 27.5z" />
    <glyph glyph-name="uni04DF" unicode="&#x4df;" horiz-adv-x="758" 
d="M747 186q-1 -102 -99 -151.5t-262 -49.5q-119 0 -204 34t-128 89t-43 115h227q0 -46 43 -69t105 -25q55 -3 93.5 11t38.5 48q-1 22 -26 31t-83 9h-94v110h94q62 0 84 10t22 28q0 26 -37.5 38.5t-91.5 12.5q-62 0 -105 -14t-43 -45h-227q0 73 61.5 116.5t147 61
t166.5 17.5q79 0 157 -16t133 -56.5t55 -110.5q0 -64 -79 -91q95 -28 95 -102v-1v0zM185 629.5q-27 27.5 -27 67.5q0 39 27 66t67 27q39 0 66.5 -27t27.5 -66q0 -40 -27.5 -67.5t-66.5 -27.5q-40 0 -67 27.5zM451 629.5q-27 27.5 -27 67.5q0 39 27 66t67 27q39 0 66.5 -27
t27.5 -66q0 -40 -27.5 -67.5t-66.5 -27.5q-40 0 -67 27.5z" />
    <glyph glyph-name="uni04E0" unicode="&#x4e0;" horiz-adv-x="949" 
d="M928 238q-1 -138 -124 -199t-321 -61q-223 0 -341 76.5t-118 234.5h233q0 -96 79.5 -122.5t146.5 -26.5q66 0 131.5 16.5t67.5 81.5q-1 42 -34.5 56t-110.5 14h-185l1 116l257 151h-555v165h846v-165l-247 -148q116 -6 191 -46t83 -141v-2v0z" />
    <glyph glyph-name="uni04E1" unicode="&#x4e1;" horiz-adv-x="827" 
d="M805 43q0 -93 -56 -151.5t-143 -83.5t-185 -25q-180 0 -290 77.5t-110 233.5h230q0 -97 58.5 -123t111.5 -26q51 0 105 16.5t56 81.5q-1 42 -35.5 56t-104.5 14h-127l1 146l192 121h-453v165h723v-165l-199 -129q92 -18 155 -66.5t71 -139.5v-2v0z" />
    <glyph glyph-name="uni04E2" unicode="&#x4e2;" horiz-adv-x="985" 
d="M288 740v-459l410 459h246v-740h-246v460l-410 -460h-247v740h247zM265 773v132h437v-132h-437z" />
    <glyph glyph-name="uni04E3" unicode="&#x4e3;" 
d="M249 231l291 314h230v-545h-230v315l-291 -315h-223v545h223v-314zM178 579v132h437v-132h-437z" />
    <glyph glyph-name="uni04E4" unicode="&#x4e4;" horiz-adv-x="985" 
d="M288 740v-459l410 459h246v-740h-246v460l-410 -460h-247v740h247zM304 810.5q-27 27.5 -27 67.5q0 39 27 66t67 27q39 0 66.5 -27t27.5 -66q0 -40 -27.5 -67.5t-66.5 -27.5q-40 0 -67 27.5zM570 810.5q-27 27.5 -27 67.5q0 39 27 66t67 27q39 0 66.5 -27t27.5 -66
q0 -40 -27.5 -67.5t-66.5 -27.5q-40 0 -67 27.5z" />
    <glyph glyph-name="uni04E5" unicode="&#x4e5;" 
d="M249 231l291 314h230v-545h-230v315l-291 -315h-223v545h223v-314zM203 630.5q-27 27.5 -27 67.5q0 39 27 66t67 27q39 0 66.5 -27t27.5 -66q0 -40 -27.5 -67.5t-66.5 -27.5q-40 0 -67 27.5zM469 630.5q-27 27.5 -27 67.5q0 39 27 66t67 27q39 0 66.5 -27t27.5 -66
q0 -40 -27.5 -67.5t-66.5 -27.5q-40 0 -67 27.5z" />
    <glyph glyph-name="uni04E6" unicode="&#x4e6;" horiz-adv-x="1009" 
d="M753.5 705.5q110.5 -50.5 173 -139t62.5 -199.5q0 -110 -62.5 -198t-172.5 -138.5t-247 -50.5q-132 0 -244 50.5t-177.5 139t-65.5 197.5q0 110 65.5 199t177 139.5t243.5 50.5q137 0 247.5 -50.5zM614.5 191q51.5 24 83.5 69t32 107t-32.5 107.5t-84.5 69t-108 23.5
q-57 0 -108 -24t-82.5 -69.5t-31.5 -106.5q0 -62 32 -107t83.5 -69t108.5 -24q56 0 107.5 24zM302 810.5q-27 27.5 -27 67.5q0 39 27 66t67 27q39 0 66.5 -27t27.5 -66q0 -40 -27.5 -67.5t-66.5 -27.5q-40 0 -67 27.5zM568 810.5q-27 27.5 -27 67.5q0 39 27 66t67 27
q39 0 66.5 -27t27.5 -66q0 -40 -27.5 -67.5t-66.5 -27.5q-40 0 -67 27.5z" />
    <glyph glyph-name="uni04E7" unicode="&#x4e7;" 
d="M601 530q87 -38 136 -105.5t49 -151.5q0 -83 -49.5 -150.5t-136 -105.5t-194.5 -38q-104 0 -195 38.5t-145.5 106t-54.5 149.5q0 83 54.5 150.5t145 106t195.5 38.5q108 0 195 -38zM480.5 139q34.5 17 55.5 51.5t21 82.5t-21 82.5t-55.5 51.5t-74.5 17q-39 0 -76.5 -17.5
t-61.5 -51.5t-24 -82t24 -82t61.5 -51.5t76.5 -17.5q40 0 74.5 17zM194 632.5q-27 27.5 -27 67.5q0 39 27 66t67 27q39 0 66.5 -27t27.5 -66q0 -40 -27.5 -67.5t-66.5 -27.5q-40 0 -67 27.5zM460 632.5q-27 27.5 -27 67.5q0 39 27 66t67 27q39 0 66.5 -27t27.5 -66
q0 -40 -27.5 -67.5t-66.5 -27.5q-40 0 -67 27.5z" />
    <glyph glyph-name="uni04E8" unicode="&#x4e8;" horiz-adv-x="1009" 
d="M753.5 705.5q110.5 -50.5 173 -139t62.5 -199.5q0 -110 -62.5 -198t-172.5 -138.5t-247 -50.5q-132 0 -244 50.5t-177.5 139t-65.5 197.5q0 110 65.5 199t177 139.5t243.5 50.5q137 0 247.5 -50.5zM378.5 533.5q-57.5 -33.5 -81.5 -92.5h419q-24 60 -83.5 93t-128.5 33
q-68 0 -125.5 -33.5zM635.5 202q59.5 35 82.5 96h-423q23 -61 83 -96t129 -35t128.5 35z" />
    <glyph glyph-name="uni04E9" unicode="&#x4e9;" 
d="M601 530q87 -38 136 -105.5t49 -151.5q0 -83 -49.5 -150.5t-136 -105.5t-194.5 -38q-104 0 -195 38.5t-145.5 106t-54.5 149.5q0 83 54.5 150.5t145 106t195.5 38.5q108 0 195 -38zM316.5 400q-42.5 -24 -61.5 -68h292q-17 44 -55.5 68t-85.5 24t-89.5 -24zM494.5 147.5
q39.5 25.5 54.5 72.5h-296q17 -47 60.5 -72.5t92.5 -25.5t88.5 25.5z" />
    <glyph glyph-name="uni04EA" unicode="&#x4ea;" horiz-adv-x="1009" 
d="M753.5 705.5q110.5 -50.5 173 -139t62.5 -199.5q0 -110 -62.5 -198t-172.5 -138.5t-247 -50.5q-132 0 -244 50.5t-177.5 139t-65.5 197.5q0 110 65.5 199t177 139.5t243.5 50.5q137 0 247.5 -50.5zM378.5 533.5q-57.5 -33.5 -81.5 -92.5h419q-24 60 -83.5 93t-128.5 33
q-68 0 -125.5 -33.5zM635.5 202q59.5 35 82.5 96h-423q23 -61 83 -96t129 -35t128.5 35zM300 810.5q-27 27.5 -27 67.5q0 39 27 66t67 27q39 0 66.5 -27t27.5 -66q0 -40 -27.5 -67.5t-66.5 -27.5q-40 0 -67 27.5zM566 810.5q-27 27.5 -27 67.5q0 39 27 66t67 27
q39 0 66.5 -27t27.5 -66q0 -40 -27.5 -67.5t-66.5 -27.5q-40 0 -67 27.5z" />
    <glyph glyph-name="uni04EB" unicode="&#x4eb;" 
d="M601 530q87 -38 136 -105.5t49 -151.5q0 -83 -49.5 -150.5t-136 -105.5t-194.5 -38q-104 0 -195 38.5t-145.5 106t-54.5 149.5q0 83 54.5 150.5t145 106t195.5 38.5q108 0 195 -38zM316.5 400q-42.5 -24 -61.5 -68h292q-17 44 -55.5 68t-85.5 24t-89.5 -24zM494.5 147.5
q39.5 25.5 54.5 72.5h-296q17 -47 60.5 -72.5t92.5 -25.5t88.5 25.5zM200 617.5q-27 27.5 -27 67.5q0 39 27 66t67 27q39 0 66.5 -27t27.5 -66q0 -40 -27.5 -67.5t-66.5 -27.5q-40 0 -67 27.5zM466 617.5q-27 27.5 -27 67.5q0 39 27 66t67 27q39 0 66.5 -27t27.5 -66
q0 -40 -27.5 -67.5t-66.5 -27.5q-40 0 -67 27.5z" />
    <glyph glyph-name="uni04EC" unicode="&#x4ec;" horiz-adv-x="1003" 
d="M925 169.5q-61 -88.5 -173.5 -139t-260.5 -50.5q-124 0 -223.5 39t-163.5 110.5t-86 166.5h257q23 -62 79 -94.5t136 -32.5q74 0 137 34.5t88 95.5h-297v142h296q-26 61 -89 95t-135 34q-71 0 -134 -34.5t-82 -94.5h-256q20 96 84 167.5t164 111t225 39.5
q138 0 251 -50.5t178.5 -139.5t65.5 -200t-61 -199.5zM285 810.5q-27 27.5 -27 67.5q0 39 27 66t67 27q39 0 66.5 -27t27.5 -66q0 -40 -27.5 -67.5t-66.5 -27.5q-40 0 -67 27.5zM551 810.5q-27 27.5 -27 67.5q0 39 27 66t67 27q39 0 66.5 -27t27.5 -66q0 -40 -27.5 -67.5
t-66.5 -27.5q-40 0 -67 27.5z" />
    <glyph glyph-name="uni04ED" unicode="&#x4ed;" horiz-adv-x="767" 
d="M565.5 526q86.5 -38 136.5 -105.5t50 -151.5q0 -83 -50.5 -150.5t-137 -106t-190.5 -38.5q-95 0 -173.5 32t-128 87t-60.5 123h231q10 -45 45.5 -71.5t87.5 -26.5q47 0 82 24t50 65h-156v126h156q-17 41 -52 64t-83 23q-50 0 -85 -27t-46 -72h-231q16 72 63 127
t123.5 85.5t176.5 30.5q105 0 191.5 -38zM167 633.5q-27 27.5 -27 67.5q0 39 27 66t67 27q39 0 66.5 -27t27.5 -66q0 -40 -27.5 -67.5t-66.5 -27.5q-40 0 -67 27.5zM433 633.5q-27 27.5 -27 67.5q0 39 27 66t67 27q39 0 66.5 -27t27.5 -66q0 -40 -27.5 -67.5t-66.5 -27.5
q-40 0 -67 27.5z" />
    <glyph glyph-name="uni04EE" unicode="&#x4ee;" horiz-adv-x="908" 
d="M922 740l-372 -628q-36 -67 -145.5 -91.5t-224.5 -22.5v181q55 0 78.5 6t27 15t2.5 29l-302 511h261l204 -372l210 372h261zM237 775v132h437v-132h-437z" />
    <glyph glyph-name="uni04EF" unicode="&#x4ef;" horiz-adv-x="876" 
d="M868 545l-336 -668q-33 -66 -127.5 -85t-212.5 -19v183q57 0 79 7t22 20q0 4 -4 14l-281 548h246l186 -403l182 403h246zM223 578v132h437v-132h-437z" />
    <glyph glyph-name="uni04F0" unicode="&#x4f0;" horiz-adv-x="908" 
d="M922 740l-372 -628q-36 -67 -145.5 -91.5t-224.5 -22.5v181q55 0 78.5 6t27 15t2.5 29l-302 511h261l204 -372l210 372h261zM259 810.5q-27 27.5 -27 67.5q0 39 27 66t67 27q39 0 66.5 -27t27.5 -66q0 -40 -27.5 -67.5t-66.5 -27.5q-40 0 -67 27.5zM525 810.5
q-27 27.5 -27 67.5q0 39 27 66t67 27q39 0 66.5 -27t27.5 -66q0 -40 -27.5 -67.5t-66.5 -27.5q-40 0 -67 27.5z" />
    <glyph glyph-name="uni04F1" unicode="&#x4f1;" horiz-adv-x="876" 
d="M868 545l-336 -668q-33 -66 -127.5 -85t-212.5 -19v183q57 0 79 7t22 20q0 4 -4 14l-281 548h246l186 -403l182 403h246zM236 631.5q-27 27.5 -27 67.5q0 39 27 66t67 27q39 0 66.5 -27t27.5 -66q0 -40 -27.5 -67.5t-66.5 -27.5q-40 0 -67 27.5zM502 631.5
q-27 27.5 -27 67.5q0 39 27 66t67 27q39 0 66.5 -27t27.5 -66q0 -40 -27.5 -67.5t-66.5 -27.5q-40 0 -67 27.5z" />
    <glyph glyph-name="uni04F2" unicode="&#x4f2;" horiz-adv-x="908" 
d="M922 740l-372 -628q-36 -67 -145.5 -91.5t-224.5 -22.5v181q55 0 78.5 6t27 15t2.5 29l-302 511h261l204 -372l210 372h261zM283 777l70 133h140l-70 -133h-140zM484 777l70 133h140l-70 -133h-140z" />
    <glyph glyph-name="uni04F3" unicode="&#x4f3;" horiz-adv-x="876" 
d="M868 545l-336 -668q-33 -66 -127.5 -85t-212.5 -19v183q57 0 79 7t22 20q0 4 -4 14l-281 548h246l186 -403l182 403h246zM248 584l70 133h140l-70 -133h-140zM449 584l70 133h140l-70 -133h-140z" />
    <glyph glyph-name="uni04F4" unicode="&#x4f4;" horiz-adv-x="900" 
d="M628 740h231v-740h-231v258q-79 -81 -224 -81q-95 0 -181.5 35.5t-141.5 111t-55 189.5v227h232v-224q0 -76 51 -121t145 -45q91 0 132.5 41t41.5 122v227zM243 810.5q-27 27.5 -27 67.5q0 39 27 66t67 27q39 0 66.5 -27t27.5 -66q0 -40 -27.5 -67.5t-66.5 -27.5
q-40 0 -67 27.5zM509 810.5q-27 27.5 -27 67.5q0 39 27 66t67 27q39 0 66.5 -27t27.5 -66q0 -40 -27.5 -67.5t-66.5 -27.5q-40 0 -67 27.5z" />
    <glyph glyph-name="uni04F5" unicode="&#x4f5;" horiz-adv-x="776" 
d="M750 545v-545h-230v187q-59 -62 -171 -62q-323 0 -323 314v106h230v-111q0 -58 9 -93.5t38 -56t87 -20.5q61 0 89 20.5t34.5 52.5t6.5 93v115h230zM185 632.5q-27 27.5 -27 67.5q0 39 27 66t67 27q39 0 66.5 -27t27.5 -66q0 -40 -27.5 -67.5t-66.5 -27.5q-40 0 -67 27.5z
M451 632.5q-27 27.5 -27 67.5q0 39 27 66t67 27q39 0 66.5 -27t27.5 -66q0 -40 -27.5 -67.5t-66.5 -27.5q-40 0 -67 27.5z" />
    <glyph glyph-name="uni04F6" unicode="&#x4f6;" horiz-adv-x="780" 
d="M759 740v-175h-471v-425h126v-250h-227v110h-146v740h718z" />
    <glyph glyph-name="uni04F7" unicode="&#x4f7;" horiz-adv-x="581" 
d="M558 545v-156h-287v-263h143v-228h-212v102h-176v545h532z" />
    <glyph glyph-name="uni04F8" unicode="&#x4f8;" horiz-adv-x="1216" 
d="M578 512q95 0 166 -30t110.5 -88t39.5 -139v-4q0 -74 -39.5 -131t-111 -88.5t-164.5 -31.5h-538v740h247v-228h290zM929 0v740h246v-740h-246zM640.5 179q30.5 19 30.5 77q0 41 -15 61t-40 26t-68 6h-1h-259v-188q118 0 165.5 -0.5t64.5 -0.5h30q62 0 92.5 19zM411 810.5
q-27 27.5 -27 67.5q0 39 27 66t67 27q39 0 66.5 -27t27.5 -66q0 -40 -27.5 -67.5t-66.5 -27.5q-40 0 -67 27.5zM677 810.5q-27 27.5 -27 67.5q0 39 27 66t67 27q39 0 66.5 -27t27.5 -66q0 -40 -27.5 -67.5t-66.5 -27.5q-40 0 -67 27.5z" />
    <glyph glyph-name="uni04F9" unicode="&#x4f9;" horiz-adv-x="1051" 
d="M694.5 352q69.5 -51 69.5 -151v-3q0 -95 -55.5 -146.5t-189.5 -51.5q-28 0 -41 1v-1h-449l-3 545h230l1 -142h218h2q148 0 217.5 -51zM794 0v545h230v-545h-230zM510 135q22 4 37 20t15 50q0 35 -15.5 50t-36.5 17.5t-65 2.5h-1h-187l1 -143q149 0 167 -1h25q38 0 60 4z
M320 631.5q-27 27.5 -27 67.5q0 39 27 66t67 27q39 0 66.5 -27t27.5 -66q0 -40 -27.5 -67.5t-66.5 -27.5q-40 0 -67 27.5zM586 631.5q-27 27.5 -27 67.5q0 39 27 66t67 27q39 0 66.5 -27t27.5 -66q0 -40 -27.5 -67.5t-66.5 -27.5q-40 0 -67 27.5z" />
    <glyph glyph-name="uni04FC" unicode="&#x4fc;" horiz-adv-x="994" 
d="M820 134h169v-139q0 -103 -41 -160t-131 -81t-247 -24v181q65 0 119.5 18t53.5 71h-95l-182 229l-182 -229h-278l290 367l-290 373h278l182 -230l182 230h278l-289 -373z" />
    <glyph glyph-name="uni04FD" unicode="&#x4fd;" horiz-adv-x="953" 
d="M753 111h185v-108q0 -90 -33 -139.5t-114.5 -71.5t-234.5 -22v159q63 0 115.5 14t57.5 57h-136l-155 169l-156 -169h-261l247 270l-247 275h261l156 -170l155 170h261l-246 -275z" />
    <glyph glyph-name="uni0510" unicode="&#x510;" horiz-adv-x="965" 
d="M639 176.5q68 35.5 68 112.5h234q0 -156 -120 -233.5t-347 -77.5q-201 0 -326 64t-126 203v2q10 121 140 160q-120 36 -120 134q0 96 70 145t162.5 62.5t199.5 13.5q176 0 321.5 -51.5t145.5 -195.5h-234q0 43 -68 63.5t-165 20.5q-85 -1 -143.5 -18.5t-58.5 -54.5
q0 -29 34 -49t114 -20h185v-144h-185q-58 0 -90 -5.5t-47 -20t-15 -42.5q1 -55 61 -80t145 -23q97 -1 165 34.5z" />
    <glyph glyph-name="uni0511" unicode="&#x511;" horiz-adv-x="758" 
d="M477 154q43 23 43 69h227q0 -60 -43 -115t-127.5 -89t-204.5 -34q-164 0 -262 49.5t-99 151.5v1q0 74 95 102q-78 28 -78 91q0 70 55 110.5t133 56.5t156 16q81 0 166.5 -17.5t147 -61t61.5 -116.5h-227q0 31 -43 45t-105 14q-54 0 -91.5 -12.5t-37.5 -38.5q0 -18 22 -28
t84 -10h94v-110h-94q-58 0 -82.5 -9t-25.5 -31q0 -34 38.5 -48t92.5 -11q62 2 105 25z" />
    <glyph glyph-name="uni0512" unicode="&#x512;" horiz-adv-x="1039" 
d="M929 134h110v-139q0 -103 -41 -160t-131 -81t-247 -24v181q65 0 119.5 18t53.5 71h-111v565h-244q-22 -131 -46 -224.5t-68 -195.5q-45 -95 -125.5 -120.5t-126 -25t-51.5 0.5v199q48 0 73 18.5t36 51.5q65 212 83 471h716v-606z" />
    <glyph glyph-name="uni0513" unicode="&#x513;" horiz-adv-x="942" 
d="M800 134h137v-139q0 -82 -40 -131.5t-123 -71.5t-219 -22v151q64 0 119 16.5t54 62.5h-158v388h-204q-10 -122 -21 -178.5t-34 -94.5q-40 -69 -108 -93.5t-136 -24.5q-24 0 -41 2v170q38 0 56.5 8.5t26 22t17.5 44.5q15 53 18.5 107t3.5 159v33h652v-409z" />
    <glyph glyph-name="uni051C" unicode="&#x51c;" horiz-adv-x="1543" 
d="M1053 288l238 452h250l-389 -740h-250l-131 404l-133 -404h-250l-387 740h253l235 -452l158 452h252z" />
    <glyph glyph-name="uni051D" unicode="&#x51d;" horiz-adv-x="1175" 
d="M781 210l146 335h241l-277 -545h-205l-99 292l-100 -292h-204l-277 545h240l148 -336l94 336h198z" />
    <glyph glyph-name="uni0524" unicode="&#x524;" horiz-adv-x="1060" 
d="M949 740v-600h110v-250h-228v110h-130v565h-412v-565h-248v740h908z" />
    <glyph glyph-name="uni0525" unicode="&#x525;" horiz-adv-x="864" 
d="M744 545v-452h114v-228h-212v135h-132v386h-258v-386h-230v545h718z" />
    <glyph glyph-name="uni0526" unicode="&#x526;" horiz-adv-x="998" 
d="M874 140h127v-250h-227v110h-131v225q0 76 -51.5 120.5t-145.5 44.5q-90 0 -131.5 -40.5t-41.5 -121.5v-228h-232v740h232v-257q78 80 224 80q95 0 181 -35.5t141 -111t55 -188.5v-88z" />
    <glyph glyph-name="uni0527" unicode="&#x527;" horiz-adv-x="848" 
d="M745 93h98v-228h-213v135h-115v222q0 63 -7 103t-34 67t-84 27q-60 0 -89 -27.5t-37 -68t-8 -100.5v-223h-230v740h230v-261q76 84 230 84q118 0 188.5 -80t70.5 -258v-132z" />
    <glyph glyph-name="Wgrave" unicode="&#x1e80;" horiz-adv-x="1543" 
d="M1053 288l238 452h250l-389 -740h-250l-131 404l-133 -404h-250l-387 740h253l235 -452l158 452h252zM565 910h224l70 -133h-174z" />
    <glyph glyph-name="wgrave" unicode="&#x1e81;" horiz-adv-x="1175" 
d="M781 210l146 335h241l-277 -545h-205l-99 292l-100 -292h-204l-277 545h240l148 -336l94 336h198zM385 730h224l70 -133h-174z" />
    <glyph glyph-name="Wacute" unicode="&#x1e82;" horiz-adv-x="1543" 
d="M1053 288l238 452h250l-389 -740h-250l-131 404l-133 -404h-250l-387 740h253l235 -452l158 452h252zM677 777l70 133h224l-120 -133h-174z" />
    <glyph glyph-name="wacute" unicode="&#x1e83;" horiz-adv-x="1175" 
d="M781 210l146 335h241l-277 -545h-205l-99 292l-100 -292h-204l-277 545h240l148 -336l94 336h198zM506 597l70 133h224l-120 -133h-174z" />
    <glyph glyph-name="Wdieresis" unicode="&#x1e84;" horiz-adv-x="1543" 
d="M1053 288l238 452h250l-389 -740h-250l-131 404l-133 -404h-250l-387 740h253l235 -452l158 452h252zM568 810.5q-27 27.5 -27 67.5q0 39 27 66t67 27q39 0 66.5 -27t27.5 -66q0 -40 -27.5 -67.5t-66.5 -27.5q-40 0 -67 27.5zM834 810.5q-27 27.5 -27 67.5q0 39 27 66
t67 27q39 0 66.5 -27t27.5 -66q0 -40 -27.5 -67.5t-66.5 -27.5q-40 0 -67 27.5z" />
    <glyph glyph-name="wdieresis" unicode="&#x1e85;" horiz-adv-x="1175" 
d="M781 210l146 335h241l-277 -545h-205l-99 292l-100 -292h-204l-277 545h240l148 -336l94 336h198zM388 615.5q-27 27.5 -27 67.5q0 39 27 66t67 27q39 0 66.5 -27t27.5 -66q0 -40 -27.5 -67.5t-66.5 -27.5q-40 0 -67 27.5zM654 615.5q-27 27.5 -27 67.5q0 39 27 66t67 27
q39 0 66.5 -27t27.5 -66q0 -40 -27.5 -67.5t-66.5 -27.5q-40 0 -67 27.5z" />
    <glyph glyph-name="uni1E9E" unicode="&#x1e9e;" horiz-adv-x="600" 
 />
    <glyph glyph-name="Ygrave" unicode="&#x1ef2;" horiz-adv-x="974" 
d="M718 740h255l-354 -429v-311h-265v310l-353 430h255l225 -275zM285 910h224l70 -133h-174z" />
    <glyph glyph-name="ygrave" unicode="&#x1ef3;" horiz-adv-x="876" 
d="M868 545l-336 -668q-33 -66 -127.5 -85t-212.5 -19v183q57 0 79 7t22 20q0 4 -4 14l-281 548h246l186 -403l182 403h246zM214 730h224l70 -133h-174z" />
    <glyph glyph-name="endash" unicode="&#x2013;" horiz-adv-x="766" 
d="M33 221v137h700v-137h-700z" />
    <glyph glyph-name="emdash" unicode="&#x2014;" horiz-adv-x="1166" 
d="M33 221v137h1100v-137h-1100z" />
    <glyph glyph-name="quoteleft" unicode="&#x2018;" horiz-adv-x="389" 
d="M254 410l100 330h-119l-200 -330h219z" />
    <glyph glyph-name="quoteright" unicode="&#x2019;" horiz-adv-x="389" 
d="M135 740l-100 -330h119l200 330h-219z" />
    <glyph glyph-name="quotesinglbase" unicode="&#x201a;" horiz-adv-x="578" 
d="M25 0v185h217v-185l-94 -113h-120l94 113h-97z" />
    <glyph glyph-name="quotedblleft" unicode="&#x201c;" horiz-adv-x="656" 
d="M254 410l100 330h-119l-200 -330h219zM521 410l100 330h-119l-200 -330h219z" />
    <glyph glyph-name="quotedblright" unicode="&#x201d;" horiz-adv-x="656" 
d="M135 740l-100 -330h119l200 330h-219zM402 740l-100 -330h119l200 330h-219z" />
    <glyph glyph-name="quotedblbase" unicode="&#x201e;" horiz-adv-x="266" 
d="M29 0v185h217v-185l-94 -113h-120l94 113h-97z" />
    <glyph glyph-name="dagger" unicode="&#x2020;" horiz-adv-x="544" 
d="M386 545h148v-120h-148v-528h-227v528h-149v120h149v153h227v-153z" />
    <glyph glyph-name="daggerdbl" unicode="&#x2021;" horiz-adv-x="544" 
d="M387 176h148v-120h-148v-153h-1v-6h-227v159h-148v120h148v249h-149v120h149v153h1v6h227v-159h147v-120h-147v-249z" />
    <glyph glyph-name="bullet" unicode="&#x2022;" horiz-adv-x="370" 
d="M104 139.5q-37 21.5 -58.5 58.5t-21.5 81t21.5 81.5t58.5 59t81 21.5t81.5 -21.5t59 -59t21.5 -81.5t-21.5 -81t-59 -58.5t-81.5 -21.5t-81 21.5z" />
    <glyph glyph-name="ellipsis" unicode="&#x2026;" horiz-adv-x="267" 
d="M30 0v185h217v-185h-217z" />
    <glyph glyph-name="perthousand" unicode="&#x2030;" horiz-adv-x="1181" 
d="M205 0h-190l650 700h190zM159 397.5q-37 21.5 -58.5 58.5t-21.5 80t21.5 80t58.5 58.5t80 21.5t80 -21.5t58.5 -58.5t21.5 -80t-21.5 -80t-58.5 -58.5t-80 -21.5t-80 21.5zM279.5 495q16.5 17 16.5 41t-16.5 41t-40.5 17t-40.5 -17t-16.5 -41t16.5 -41t40.5 -17t40.5 17z
M551 27.5q-37 21.5 -58.5 58.5t-21.5 80t21.5 80t58.5 58.5t80 21.5t80 -21.5t58.5 -58.5t21.5 -80t-21.5 -80t-58.5 -58.5t-80 -21.5t-80 21.5zM926 27.5q-37 21.5 -58.5 58.5t-21.5 80t21.5 80t58.5 58.5t80 21.5t80 -21.5t58.5 -58.5t21.5 -80t-21.5 -80t-58.5 -58.5
t-80 -21.5t-80 21.5zM671 126q17 17 17 40q0 24 -17 40.5t-40 16.5t-40 -17t-17 -40t17 -40t40 -17t40 17zM1046 126q17 17 17 40q0 24 -17 40.5t-40 16.5t-40 -17t-17 -40q0 -22 17.5 -39.5t39.5 -17.5q23 0 40 17z" />
    <glyph glyph-name="guilsinglleft" unicode="&#x2039;" horiz-adv-x="432" 
d="M213 276l208 -211h-214l-202 212l192 202h216z" />
    <glyph glyph-name="guilsinglright" unicode="&#x203a;" horiz-adv-x="432" 
d="M224 64h-214l208 211l-200 203h216l192 -202z" />
    <glyph glyph-name="fraction" unicode="&#x2044;" horiz-adv-x="600" 
 />
    <glyph glyph-name="Euro" unicode="&#x20ac;" horiz-adv-x="898" 
d="M708.5 177q33.5 10 60.5 28l104 -181q-107 -44 -233 -44q-111 0 -208.5 36t-166 101t-95.5 149h-142l40 93h86v8q0 13 1 19h-78l40 93h56q29 82 97.5 144.5t164.5 97.5t205 35q135 0 243 -48l-93 -194q-30 26 -70 39.5t-82 13.5q-56 0 -106 -23t-80 -65h258l-40 -93h-252
q-1 -6 -1 -19v-8h244l-40 -93h-176q30 -47 83 -73t113 -26q34 0 67.5 10z" />
    <glyph glyph-name="uni20BD" unicode="&#x20bd;" horiz-adv-x="1004" 
d="M831.5 709q71.5 -31 111 -86.5t39.5 -128.5v-4q0 -120 -81.5 -185.5t-223.5 -65.5h-322v-35h167v-122h-167v-82h-246v82h-101v122h101v35h-101v174h101v327h558q93 0 164.5 -31zM701 417q25 3 42 19t17 53q0 38 -17 55t-43.5 21t-75.5 4h-35q-20 0 -70 -0.5t-164 -0.5
v-154h268h1q52 0 77 3z" />
    <glyph glyph-name="trademark" unicode="&#x2122;" horiz-adv-x="2066" 
d="M26 540v200h874zM900 740v-201h-312v-539h-246v539h-316v201h874zM2024 740v-740h-246v334l-163 -334h-227l-174 338v-338h-247v740h282l252 -509l248 509h275z" />
    <glyph glyph-name="partialdiff" unicode="&#x2202;" horiz-adv-x="987" 
d="M844.5 682q127.5 -74 127.5 -265q0 -62 -14 -128q-44 -162 -176.5 -236.5t-356.5 -74.5q-181 0 -295.5 58.5t-114.5 175.5q0 22 2 33h-1q10 73 61.5 126t135 81t188.5 28q106 0 192.5 -10.5t145.5 -48.5q0 92 -66.5 134t-161.5 41q-32 2 -69 -2t-67 -15l-151 120
q117 57 310 57q183 0 310.5 -74zM556 150.5q50 6.5 99.5 37.5t53.5 95q1 76 -206 76q-118 0 -181 -23t-73 -90q-1 -4 -1 -12q0 -49 58 -70.5t141 -20.5q59 1 109 7.5z" />
    <glyph glyph-name="emptyset" unicode="&#x2205;" horiz-adv-x="850" 
d="M835 700l-128 -138q65 -92 65 -206q0 -96 -47.5 -177.5t-129 -129t-177.5 -47.5q-100 0 -185 52l-48 -52h-170l125 134q-37 46 -56.5 102.5t-19.5 117.5q0 96 47.5 177.5t129 129t177.5 47.5q111 0 200 -61l47 51h170zM244 248l270 290q-45 24 -96 24q-57 0 -104 -28
t-74 -75t-27 -103q0 -60 31 -108zM602 449l-263 -282q38 -16 79 -16q56 0 103 27.5t75 74.5t28 103q0 49 -22 93z" />
    <glyph glyph-name="product" unicode="&#x220f;" horiz-adv-x="913" 
d="M853 740v-930h-247v755h-301v-755h-247v930h795z" />
    <glyph glyph-name="summation" unicode="&#x2211;" horiz-adv-x="594" 
d="M537 764v-152h-251l116 -290l-116 -289h251v-153h-545l178 442l-178 442h545z" />
    <glyph glyph-name="minus" unicode="&#x2212;" horiz-adv-x="477" 
d="M462 381v-115h-447v115h447z" />
    <glyph glyph-name="radical" unicode="&#x221a;" horiz-adv-x="874" 
d="M859 820v-140h-171l-223 -809h-257l-193 407h202l65 -138l188 680h389z" />
    <glyph glyph-name="infinity" unicode="&#x221e;" horiz-adv-x="855" 
d="M740 472q46 -27 73 -73t27 -101t-27 -101t-73 -73t-101 -27q-95 0 -211 104q-118 -104 -212 -104q-55 0 -101 27t-73 73t-27 101t27 101t73 73t101 27q94 0 212 -104q116 104 211 104q55 0 101 -27zM284.5 243.5q30.5 22.5 52.5 54.5q-22 32 -52.5 54.5t-62.5 22.5
t-54 -22.5t-22 -54.5t22 -54.5t54 -22.5t62.5 22.5zM688 243.5q22 22.5 22 54.5q0 33 -22 55t-55 22q-32 0 -62.5 -22.5t-52.5 -54.5q22 -32 52.5 -54.5t62.5 -22.5q33 0 55 22.5z" />
    <glyph glyph-name="integral" unicode="&#x222b;" horiz-adv-x="418" 
d="M403 602q-50 0 -74 -22.5t-29.5 -58t-5.5 -96.5v-411q0 -87 -31.5 -128.5t-88 -53t-159.5 -11.5v138q44 0 66 10.5t32.5 46t10.5 112.5v359q0 107 25 160.5t83 73t171 19.5v-138z" />
    <glyph glyph-name="approxequal" unicode="&#x2248;" horiz-adv-x="504" 
d="M15 439q54 43 109 43q31 0 60 -11t68 -32q42 -22 70 -32.5t58 -10.5q55 0 109 43v-133q-53 -42 -106 -42q-31 0 -60.5 11.5t-68.5 33.5q-40 22 -69 33t-59 11q-56 0 -111 -47v133zM15 262q54 43 109 43q31 0 60 -11t68 -32q42 -22 70 -32.5t58 -10.5q55 0 109 43v-132
q-54 -43 -107 -43q-30 0 -58 11t-70 34q-39 22 -68 33.5t-60 11.5q-56 0 -111 -47v132z" />
    <glyph glyph-name="notequal" unicode="&#x2260;" horiz-adv-x="560" 
d="M543 433v-116h-173l-33 -61h206v-115h-269l-36 -66h-150l36 66h-109v115h172l33 61h-205v116h268l32 59h150l-32 -59h110z" />
    <glyph glyph-name="lessequal" unicode="&#x2264;" horiz-adv-x="599" 
d="M16 501l565 157v-141l-390 -91l390 -91v-141l-565 156v151zM580 67h-565v107h565v-107z" />
    <glyph glyph-name="greaterequal" unicode="&#x2265;" horiz-adv-x="599" 
d="M580 350l-565 -156v141l390 91l-390 91v141l565 -157v-151zM16 67v107h565v-107h-565z" />
    <glyph glyph-name="lozenge" unicode="&#x25ca;" horiz-adv-x="600" 
 />
    <glyph glyph-name="i.loclTRK" horiz-adv-x="290" 
d="M75.5 620q-27.5 27 -27.5 67q0 39 27.5 66.5t67.5 27.5q39 0 66 -27.5t27 -66.5q0 -40 -27 -67t-66 -27q-40 0 -67.5 27zM261 0h-230v560h230v-560z" />
    <glyph glyph-name="uni0414.loclBGR" horiz-adv-x="1033" 
d="M919 180h99v-276h-231v95l-542 1v-96h-231v276h74q54 105 87 188t50.5 173.5t17.5 198.5h675zM458 563q-16 -96 -48.5 -184t-85.5 -199h365v382z" />
    <glyph glyph-name="uni041B.loclBGR" horiz-adv-x="970" 
d="M929 740v-740h-247v565h-244q-22 -131 -46 -224.5t-68 -195.5q-45 -95 -125.5 -120.5t-126 -25t-51.5 0.5v199q48 0 73 18.5t36 51.5q65 212 83 471h716z" />
    <glyph glyph-name="uni0424.loclBGR" horiz-adv-x="1364" 
d="M1289 216.5q-64 -68.5 -177 -108t-253 -39.5h-46v-69h-246v69h-39h-6h-1q-135 0 -252 40t-187.5 108.5t-70.5 151.5q0 84 69.5 152t186 108t251.5 41h49v70h246v-70h46q141 -1 253.5 -40t176.5 -107.5t64 -153.5q0 -84 -64 -152.5zM567 240v259h-37q-98 0 -175 -30.5
t-77 -99.5q0 -68 77.5 -98.5t174.5 -30.5h37zM856 240q98 0 167 30t69 99q0 70 -69.5 100t-166.5 30h-43v-259h43z" />
    <glyph glyph-name="uni0432.loclBGR" horiz-adv-x="808" 
d="M250 194q-1 -6 -1 -18zM764.5 241.5q32.5 -30.5 32.5 -87.5v-2q0 -80 -71.5 -115.5t-215.5 -37.5h-2h-25h-457v546h513v-1h2q101 0 155.5 -34t54.5 -99v-3q0 -48 -20.5 -78t-63.5 -45q65 -13 97.5 -43.5zM484 331q19 2 32 13t13 36q0 23 -12.5 33.5t-32 13t-56.5 2.5
h-178v-99q120 0 146.5 -0.5t28.5 -0.5h3q37 0 56 2zM518.5 128.5q23.5 2.5 38.5 13.5t15 36t-15 36t-38.5 13.5t-67.5 2.5h-1h-200v-104h201q44 0 67.5 2.5z" />
    <glyph glyph-name="uni0433.loclBGR" horiz-adv-x="573" 
d="M558 545v-156h-287v-389h-245v545h532z" />
    <glyph glyph-name="uni0434.loclBGR" horiz-adv-x="999" 
d="M889 161h99v-257h-231v95l-515 1v-96h-231v257h93q33 50 49 99t21.5 112t5.5 173h708zM405 392q-2 -80 -13 -132t-37 -99h304v230z" />
    <glyph glyph-name="uni0436.loclBGR" horiz-adv-x="1173" 
d="M916 301l266 -301h-258l-223 248v-248h-230v246l-222 -246h-258l266 301l-238 244h261l191 -193v193h230v-194l192 194h261z" />
    <glyph glyph-name="uni0437.loclBGR" horiz-adv-x="758" 
d="M747 186q-1 -102 -99 -151.5t-262 -49.5q-119 0 -204 34t-128 89t-43 115h227q0 -46 43 -69t105 -25q55 -3 93.5 11t38.5 48q-1 22 -26 31t-83 9h-94v110h94q62 0 84 10t22 28q0 26 -37.5 38.5t-91.5 12.5q-62 0 -105 -14t-43 -45h-227q0 73 61.5 116.5t147 61
t166.5 17.5q79 0 157 -16t133 -56.5t55 -110.5q0 -64 -79 -91q95 -28 95 -102v-1v0z" />
    <glyph glyph-name="uni0438.loclBGR" 
d="M249 231l291 314h230v-545h-230v315l-291 -315h-223v545h223v-314z" />
    <glyph glyph-name="uni0439.loclBGR" 
d="M249 231l291 314h230v-545h-230v315l-291 -315h-223v545h223v-314zM634 771q0 -99 -68.5 -149t-177.5 -50q-112 0 -181.5 50t-67.5 149h140q0 -44 29.5 -74.5t78.5 -30.5t78 30.5t29 74.5h140z" />
    <glyph glyph-name="uni045D.loclBGR" 
d="M249 231l291 314h230v-545h-230v315l-291 -315h-223v545h223v-314zM203 730h224l70 -133h-174z" />
    <glyph glyph-name="uni043A.loclBGR" horiz-adv-x="771" 
d="M494 301l285 -301h-268l-255 253v-253h-230v545h230v-199l224 199h271z" />
    <glyph glyph-name="uni043B.loclBGR" horiz-adv-x="826" 
d="M800 543v-543h-230v388h-204q-10 -122 -21 -178.5t-34 -94.5q-40 -69 -108 -93.5t-136 -24.5q-24 0 -41 2v170q38 0 56.5 8.5t26 22t17.5 44.5q15 53 18.5 107t3.5 159v33h652z" />
    <glyph glyph-name="uni043F.loclBGR" horiz-adv-x="770" 
d="M26 545h718v-545h-230v386h-258v-386h-230v545z" />
    <glyph glyph-name="uni0442.loclBGR" horiz-adv-x="776" 
d="M754 545v-170h-249v-375h-230v375h-252v170h731z" />
    <glyph glyph-name="uni0446.loclBGR" horiz-adv-x="873" 
d="M771 545v-385h93v-273h-230v113h-608v545h230v-385h285v385h230z" />
    <glyph glyph-name="uni0448.loclBGR" horiz-adv-x="1189" 
d="M932 160v385h230v-545h-1136v545h230v-385h223v385h231v-385h222z" />
    <glyph glyph-name="uni0449.loclBGR" horiz-adv-x="1265" 
d="M1162 545v-415h94v-240h-233v110h-997v545h230v-385h223v385h231v-385h222v385h230z" />
    <glyph glyph-name="uni044C.loclBGR" horiz-adv-x="779" 
d="M694.5 352q69.5 -51 69.5 -151v-3q0 -95 -55.5 -146.5t-189.5 -51.5q-28 0 -41 1v-1h-449l-3 545h230l1 -142h218h2q148 0 217.5 -51zM510 135q22 4 37 20t15 50q0 35 -15.5 50t-36.5 17.5t-65 2.5h-1h-187l1 -143q149 0 167 -1h25q38 0 60 4z" />
    <glyph glyph-name="uni044A.loclBGR" horiz-adv-x="888" 
d="M807.5 352q69.5 -51 69.5 -151v-3q0 -95 -55.5 -146.5t-189.5 -51.5q-28 0 -41 1v-1h-449l-2 375h-132v170h361l1 -142h218h2q148 0 217.5 -51zM622 135q22 4 37 20t15 50q0 35 -15.5 50t-36.5 17.5t-65 2.5h-1h-186l1 -143q149 0 166 -1h25q38 0 60 4z" />
    <glyph glyph-name="uni044E.loclBGR" horiz-adv-x="1086" 
d="M890.5 530q86.5 -38 135.5 -105.5t49 -151.5q0 -83 -49 -150.5t-135.5 -105.5t-194.5 -38q-90 0 -171.5 29.5t-138 82.5t-75.5 120h-55v-211h-230v546h230v-185h63q25 61 81.5 108t133.5 73t162 26q108 0 194.5 -38zM770.5 140q34.5 18 55 52t20.5 81q0 70 -43 110.5
t-107 40.5q-39 0 -76 -18t-61 -52.5t-24 -80.5t23.5 -80.5t60.5 -52.5t77 -18t74.5 18z" />
    <glyph glyph-name="uni0431.loclSRB" horiz-adv-x="816" 
d="M787 252v-1q-1 -134 -103.5 -200.5t-269.5 -66.5q-186 0 -284 70t-118 231q-1 15 -1 45q0 163 63 245.5t152.5 106t208.5 23.5h2q43 -2 101.5 4t58.5 31l203 -1q0 -87 -51.5 -129.5t-128.5 -54t-193 -11.5q-136 0 -176 -101q49 22 109 29.5t129 7.5q134 0 215.5 -59.5
t82.5 -167.5v-1zM517.5 169.5q41.5 20.5 41.5 84.5q0 60 -40 84.5t-99 24.5q-86 -1 -126.5 -20t-47.5 -58q-1 -8 -1 -22q0 -56 31.5 -81t65 -29t84.5 -4q50 0 91.5 20.5z" />
    <glyph glyph-name="uni0433.loclSRB" horiz-adv-x="573" 
d="M558 545v-156h-287v-389h-245v545h532z" />
    <glyph glyph-name="uni0434.loclSRB" horiz-adv-x="999" 
d="M889 161h99v-257h-231v95l-515 1v-96h-231v257h93q33 50 49 99t21.5 112t5.5 173h708zM405 392q-2 -80 -13 -132t-37 -99h304v230z" />
    <glyph glyph-name="uni043F.loclSRB" horiz-adv-x="770" 
d="M26 545h718v-545h-230v386h-258v-386h-230v545z" />
    <glyph glyph-name="uni0442.loclSRB" horiz-adv-x="776" 
d="M754 545v-170h-249v-375h-230v375h-252v170h731z" />
    <glyph glyph-name="uni0448.loclSRB" horiz-adv-x="1189" 
d="M932 160v385h230v-545h-1136v545h230v-385h223v385h231v-385h222z" />
    <glyph glyph-name="brevecombcy" horiz-adv-x="0" 
d="M-34 924q0 -99 -68.5 -149t-177.5 -50q-112 0 -181.5 50t-67.5 149h140q0 -44 29.5 -74.5t78.5 -30.5t78 30.5t29 74.5h140z" />
    </font>
</defs>
</svg>
