<?xml version="1.0" standalone="no"?>
<!DOCTYPE svg PUBLIC "-//W3C//DTD SVG 1.1//EN" "http://www.w3.org/Graphics/SVG/1.1/DTD/svg11.dtd" >
<svg xmlns="http://www.w3.org/2000/svg" xmlns:xlink="http://www.w3.org/1999/xlink" version="1.1">
<metadata>
Created by FontForge 20170731 at Sat Sep 12 15:48:49 2020
 By Aleksey,,,
</metadata>
<defs>
<font id="Benzin-Semibold" horiz-adv-x="997" >
  <font-face 
    font-family="Benzin-Semibold"
    font-weight="400"
    font-stretch="normal"
    units-per-em="1000"
    panose-1="0 0 7 0 0 0 0 0 0 0"
    ascent="775"
    descent="-225"
    x-height="545"
    cap-height="740"
    bbox="-586 -280 1985 1097"
    underline-thickness="50"
    underline-position="-150"
    unicode-range="U+0020-25CA"
  />
<missing-glyph horiz-adv-x="550" 
d="M102 910h349v-1100h-349v1100zM366 800v36h-181v-36h71v-41h-72v-36h182v36h-72v41h72zM294 617v77h-110v-114h182v37h-72zM220 657h36v-40h-36v40zM366 514v36h-182v-36h72v-41h-72v-36h110v77h72zM366 374v110h-36v-72h-146v-38h182zM366 226v124h-110v-61h38v25h36
v-52h-110v88h-36v-124h182zM366 36v124h-182v-124h182zM220 124h110v-52h-110v52zM366 -26v36h-182v-36h77l-77 -52v-36h182v36h-112l77 52h35z" />
    <glyph glyph-name=".notdef" horiz-adv-x="550" 
d="M102 910h349v-1100h-349v1100zM366 800v36h-181v-36h71v-41h-72v-36h182v36h-72v41h72zM294 617v77h-110v-114h182v37h-72zM220 657h36v-40h-36v40zM366 514v36h-182v-36h72v-41h-72v-36h110v77h72zM366 374v110h-36v-72h-146v-38h182zM366 226v124h-110v-61h38v25h36
v-52h-110v88h-36v-124h182zM366 36v124h-182v-124h182zM220 124h110v-52h-110v52zM366 -26v36h-182v-36h77l-77 -52v-36h182v36h-112l77 52h35z" />
    <glyph glyph-name=".null" horiz-adv-x="0" 
 />
    <glyph glyph-name="nonmarkingreturn" horiz-adv-x="333" 
 />
    <glyph glyph-name="space" unicode=" " horiz-adv-x="325" 
 />
    <glyph glyph-name="exclam" unicode="!" horiz-adv-x="305" 
d="M103 215l-65 525h230l-65 -525h-100zM56 170v-170h194v170h-194z" />
    <glyph glyph-name="quotedbl" unicode="&#x22;" horiz-adv-x="516" 
d="M35 740l50 -330h99l50 330h-199zM282 740l50 -330h99l50 330h-199z" />
    <glyph glyph-name="numbersign" unicode="#" horiz-adv-x="784" 
d="M748 525l-29 -102h-116l-37 -132h118l-30 -101h-117l-53 -190h-129l53 190h-147l-53 -190h-129l53 190h-118l29 101h118l37 132h-119l29 102h119l60 215h129l-60 -215h147l60 215h129l-60 -215h116zM290 291h147l37 132h-147z" />
    <glyph glyph-name="dollar" unicode="$" horiz-adv-x="952" 
d="M530 434q116 1 196 -10t136.5 -54t56.5 -131q0 -141 -116 -197.5t-273 -63.5v-114h-119v115q-153 10 -268 69.5t-115 195.5l215 2q0 -60 48.5 -86.5t119.5 -32.5v176q-115 1 -195.5 14t-134 58.5t-53.5 135.5q0 136 113.5 189.5t269.5 60.5v114h119v-114
q153 -7 271 -65.5t118 -200.5h-213q0 54 -53.5 80t-122.5 34v-175zM411 436v174q-70 -8 -120 -30t-50 -66q0 -69 170 -78zM530 303v-178q78 6 128.5 32t50.5 77v1q0 63 -179 68z" />
    <glyph glyph-name="percent" unicode="%" horiz-adv-x="860" 
d="M205 0h-180l650 700h180zM164 397.5q-37 21.5 -58.5 58.5t-21.5 80t21.5 80t58.5 58.5t80 21.5t80 -21.5t58.5 -58.5t21.5 -80t-21.5 -80t-58.5 -58.5t-80 -21.5t-80 21.5zM287.5 493q17.5 18 17.5 43q0 26 -17.5 43.5t-43.5 17.5q-25 0 -42.5 -17.5t-17.5 -43.5
t17.5 -43.5t42.5 -17.5q26 0 43.5 18zM556 27.5q-37 21.5 -58.5 58.5t-21.5 80t21.5 80t58.5 58.5t80 21.5t80 -21.5t58.5 -58.5t21.5 -80t-21.5 -80t-58.5 -58.5t-80 -21.5t-80 21.5zM678.5 124q17.5 18 17.5 42q0 25 -18 42.5t-42 17.5t-42 -17.5t-18 -42.5q0 -24 18 -42
t42 -18q25 0 42.5 18z" />
    <glyph glyph-name="ampersand" unicode="&#x26;" horiz-adv-x="938" 
d="M939 -1h-220l-44 34q-56 -22 -117 -32.5t-119 -10.5q-109 0 -207.5 21.5t-162.5 71t-64 127.5q0 69 57.5 107.5t161.5 67.5q-59 48 -90.5 84t-31.5 80q0 74 50 120.5t125.5 66.5t156.5 20q99 0 167.5 -26.5t102.5 -69t34 -90.5q0 -57 -36.5 -96t-91.5 -62.5t-139 -48.5
l231 -180q73 68 73 182h141q0 -160 -115 -258zM388 427q78 23 120.5 53.5t42.5 78.5q0 43 -32 71.5t-93 28.5q-58 0 -93 -27.5t-35 -75.5q0 -56 90 -129zM571 114l-255 199q-45 -19 -69 -44t-24 -59q0 -30 29.5 -56t79.5 -41.5t107 -15.5q72 0 132 17z" />
    <glyph glyph-name="quotesingle" unicode="'" horiz-adv-x="269" 
d="M35 740l50 -330h99l50 330h-199z" />
    <glyph glyph-name="parenleft" unicode="(" horiz-adv-x="308" 
d="M223 -130q-105 148 -156.5 275.5t-51.5 249.5q0 120 51 245.5t157 269.5h115q-63 -140 -93 -263.5t-30 -244.5q0 -122 30.5 -251t92.5 -281h-115z" />
    <glyph glyph-name="parenright" unicode=")" horiz-adv-x="303" 
d="M-35 -130q62 152 92.5 281t30.5 251q0 121 -30 244.5t-93 263.5h115q106 -144 157 -269.5t51 -245.5q0 -122 -51.5 -249.5t-156.5 -275.5h-115z" />
    <glyph glyph-name="asterisk" unicode="*" horiz-adv-x="448" 
d="M286 565l112 -48l-46 -79l-98 77l16 -125h-91l15 122l-98 -74l-44 78l117 48l-119 49l45 79l99 -72l-15 120h91l-16 -125l98 78l45 -77z" />
    <glyph glyph-name="plus" unicode="+" horiz-adv-x="477" 
d="M293 378h169v-108h-169v-170h-108v170h-170v108h170v169h108v-169z" />
    <glyph glyph-name="comma" unicode="," horiz-adv-x="255" 
d="M31 0v170h194v-170l-88 -105h-105l88 105h-89z" />
    <glyph glyph-name="hyphen" unicode="-" horiz-adv-x="415" 
d="M33 227v124h349v-124h-349z" />
    <glyph glyph-name="period" unicode="." horiz-adv-x="254" 
d="M30 170v-170h194v170h-194z" />
    <glyph glyph-name="slash" unicode="/" horiz-adv-x="524" 
d="M-40 -117l404 957h190l-404 -957h-190z" />
    <glyph glyph-name="zero" unicode="0" horiz-adv-x="987" 
d="M961 370q0 -147 -94 -267t-369 -120q-194 0 -300 65t-140.5 151.5t-31.5 170.5q0 144 97 260t375 116q463 2 463 -376zM658 169.5q61 33.5 87 87t24 115.5q2 59 -24 110t-87 82.5t-159 31.5t-158.5 -31.5t-86 -82.5t-23.5 -110q-2 -62 23.5 -115.5t86 -87t158.5 -33.5
t159 33.5z" />
    <glyph glyph-name="one" unicode="1" horiz-adv-x="445" 
d="M397 740v-740h-197v494h-167v120q96 0 142.5 23t57 49.5t10.5 53.5h154z" />
    <glyph glyph-name="two" unicode="2" horiz-adv-x="977" 
d="M952 157v-157h-920v80q0 129 53.5 197.5t124.5 93t182 42.5q30 4 103 13q79 9 123 17.5t73.5 26t29.5 47.5q0 53 -71.5 77.5t-173.5 23.5q-98 -1 -166.5 -30.5t-68.5 -92.5h-209q0 105 73 164.5t172.5 81t197.5 21.5q178 0 318 -48t140 -198q0 -79 -59 -126t-133.5 -66.5
t-169.5 -33.5q-44 -7 -50 -8q-72 -9 -141.5 -28.5t-114 -45t-44.5 -51.5h731z" />
    <glyph glyph-name="three" unicode="3" horiz-adv-x="987" 
d="M951 245q-1 -139 -126 -203t-326 -64q-224 0 -345.5 80t-121.5 231h199q0 -86 78 -126t190 -39q100 -1 171 28t72 93q-1 30 -15.5 45t-54 21.5t-119.5 6.5h-185v134h185q90 0 135.5 18t45.5 58q0 44 -68.5 65.5t-166.5 22.5q-112 1 -190 -23.5t-78 -77.5h-199
q0 144 145.5 195.5t321.5 51.5q107 0 199.5 -13.5t162.5 -62.5t70 -145q0 -103 -105 -140q118 -38 125 -154v-2v0z" />
    <glyph glyph-name="four" unicode="4" horiz-adv-x="894" 
d="M756 267h105v-155h-105v-112h-197v112h-526v155l526 473h197v-473zM559 560l-310 -293h310v293z" />
    <glyph glyph-name="five" unicode="5" horiz-adv-x="920" 
d="M893 259l-215 4zM893 258v0q-3 -110 -74.5 -172t-168 -84.5t-193.5 -22.5q-87 0 -181 25t-161 85t-67 157l198 1q0 -60 60 -90.5t146 -34.5q94 -3 160 30t66 110q-1 73 -53.5 111.5t-170.5 38.5q-83 0 -147 -30t-64 -83v-4l-192 -2v447h807v-133h-615v-152q95 69 301 69
q102 0 181 -31.5t123.5 -91.5t44.5 -142v-1z" />
    <glyph glyph-name="six" unicode="6" horiz-adv-x="983" 
d="M953 245v0q0 -90 -59 -150t-158 -88.5t-222 -28.5q-221 0 -341 74.5t-141 236.5q-2 32 -2 47q0 239 142 329.5t342 90.5q191 0 305.5 -60.5t114.5 -188.5l-193 2q0 58 -65.5 84t-160.5 24q-107 2 -187.5 -46t-92.5 -153q70 45 164.5 56.5t200.5 11.5q107 0 186.5 -29
t123 -83t43.5 -127v-1v-1zM684 155q69 28 69 89q0 54 -33 82.5t-89 38t-141 9.5q-234 0 -243 -95h1q-4 -71 46 -104.5t103 -40t118 -7.5q100 0 169 28z" />
    <glyph glyph-name="seven" unicode="7" horiz-adv-x="779" 
d="M777 740l-400 -740h-200l319 590h-473v150h754z" />
    <glyph glyph-name="eight" unicode="8" horiz-adv-x="984" 
d="M952 232q0 -151 -133.5 -204.5t-304.5 -53.5q-117 0 -217.5 14t-182 70.5t-81.5 172.5q-1 72 29 115.5t88 66.5q-89 39 -89 137q0 96 79.5 143t167.5 58t178 12q159 0 298.5 -38.5t139.5 -173.5q0 -103 -91 -142q119 -48 119 -177zM323 617q-67 -21 -67 -67
q0 -47 67.5 -67t164.5 -18q99 -2 168.5 18t69.5 67q0 46 -70.5 67t-170.5 20q-95 1 -162 -20zM680.5 143.5q79.5 27.5 79.5 88.5q0 62 -79.5 90t-193.5 26q-112 2 -189.5 -26t-77.5 -90q0 -61 77.5 -88.5t188.5 -25.5q115 -2 194.5 25.5z" />
    <glyph glyph-name="nine" unicode="9" horiz-adv-x="978" 
d="M951 401q0 -239 -142 -330t-342 -91q-191 0 -305.5 61t-114.5 189l193 -2q0 -58 65.5 -84t160.5 -24q107 -2 187.5 46t92.5 153q-70 -45 -164.5 -56.5t-200.5 -11.5q-107 0 -186.5 29t-123 83t-43.5 127v1v1q0 90 59 150t158 88.5t222 28.5q221 0 341 -74.5t141 -236.5
q2 -32 2 -47zM734 458h-1q4 71 -46 104.5t-103 40t-118 7.5q-100 0 -169 -28t-69 -89q0 -54 33 -82.5t89 -38t141 -9.5q234 0 243 95z" />
    <glyph glyph-name="colon" unicode=":" horiz-adv-x="259" 
d="M33 505v-170h194v170h-194zM33 170v-170h194v170h-194z" />
    <glyph glyph-name="semicolon" unicode=";" horiz-adv-x="260" 
d="M33 335v170h194v-170h-194zM122 0h-89v170h194v-170l-87 -105h-105z" />
    <glyph glyph-name="less" unicode="&#x3c;" horiz-adv-x="592" 
d="M15 421l562 157v-131l-409 -96l409 -96v-131l-562 156v141z" />
    <glyph glyph-name="equal" unicode="=" horiz-adv-x="504" 
d="M489 422v-108h-474v108h474zM489 258v-108h-474v108h474z" />
    <glyph glyph-name="greater" unicode="&#x3e;" horiz-adv-x="592" 
d="M15 447v131l562 -157v-141l-562 -156v131l409 96z" />
    <glyph glyph-name="question" unicode="?" horiz-adv-x="865" 
d="M617 746.5q90 -15.5 160.5 -71t70.5 -164.5q0 -128 -84.5 -164.5t-179.5 -36.5q-55 0 -82.5 -13.5t-35.5 -34t-8 -48.5h-191q0 96 40.5 148t135.5 55q66 0 139 20.5t73 76.5q0 51 -67 73.5t-163 21.5q-91 -1 -154 -29t-63 -86l-190 1q0 158 125.5 212.5t282.5 54.5
q101 0 191 -15.5zM268 0l-1 170h193l1 -170h-193z" />
    <glyph glyph-name="at" unicode="@" horiz-adv-x="1164" 
d="M935 773q97 -45 149.5 -125.5t52.5 -184.5q0 -59 -18 -124q-26 -90 -75 -147.5t-108 -83.5t-120 -26q-52 0 -95.5 17.5t-64.5 46.5q-35 -28 -75 -43.5t-81 -15.5q-58 0 -102.5 23.5t-69 65.5t-24.5 95q0 35 10 68q20 68 71 126t120 92t139 34q57 0 93 -31l8 30h137
l-76 -263q-11 -38 -11 -67q0 -35 16.5 -46t44.5 -11h6q42 0 74 30.5t53 105.5q18 63 18 115q0 128 -94 192t-243 64q-112 0 -215 -52t-176 -137t-101 -182q-15 -52 -15 -103q0 -76 34 -138t100.5 -98t159.5 -36q70 0 125.5 17t124.5 49l68 -84q-72 -38 -166.5 -66.5
t-176.5 -28.5q-123 0 -214 45.5t-139.5 125.5t-48.5 183q0 67 20 134q38 134 137 243.5t236.5 172.5t285.5 63q129 0 226 -45zM624 236q36 42 53 103q12 41 12 72q0 73 -78 73q-59 0 -103.5 -44.5t-60.5 -100.5q-7 -22 -7 -48q0 -42 22 -69t68 -28q58 0 94 42z" />
    <glyph glyph-name="A" unicode="A" 
d="M1010 0h-213l-77 142h-443l-77 -142h-213l402 740h220zM499 551l-140 -257h279z" />
    <glyph glyph-name="B" unicode="B" horiz-adv-x="994" 
d="M924 329.5q43 -41.5 43 -118.5v-4q0 -82 -44 -127t-122 -62.5t-196 -18.5h-2h-40l-515 1v740h603q116 -1 185 -48t69 -133v-4q0 -65 -27 -106t-81 -61q84 -17 127 -58.5zM685 579.5q-17 16.5 -44.5 20.5t-78.5 4h-1h-316v-156l240 -2h77q54 0 79 3t43 20t18 57
q0 37 -17 53.5zM686 151.5q30 4.5 48 23.5t18 61q0 41 -18 59.5t-48 22.5t-91 4h-1h-349v-173q217 0 309 -2h41q61 0 91 4.5z" />
    <glyph glyph-name="C" unicode="C" horiz-adv-x="995" 
d="M91.5 569q63.5 89 173 139.5t243.5 50.5q116 0 211.5 -37.5t159 -107t88.5 -163.5l-216 -1q-17 46 -57 79t-90 50t-95 17q-65 0 -126.5 -27t-100.5 -78.5t-39 -121.5q0 -71 37 -121.5t98 -77t131 -26.5q74 0 140.5 37t99.5 105h218q-27 -95 -91 -163.5t-158 -105.5
t-210 -37q-133 0 -243 51t-173.5 140t-63.5 198q0 111 63.5 200z" />
    <glyph glyph-name="D" unicode="D" horiz-adv-x="892" 
d="M811.5 180q-53.5 -84 -152.5 -132t-229 -48v-1h-213v1h-169v740h381q131 0 230 -48t152.5 -132t53.5 -191q0 -105 -53.5 -189zM439 173q96 0 158.5 50t62.5 146q0 54 -30 99.5t-80.5 72t-110.5 26.5h-184v-394h184z" />
    <glyph glyph-name="E" unicode="E" horiz-adv-x="856" 
d="M739 302h-484v-148l568 4v-158h-775v740h775l1 -157h-569v-126h484v-155z" />
    <glyph glyph-name="F" unicode="F" horiz-adv-x="855" 
d="M823 740v-157h-568v-129h484v-152h-484v-302h-207v740h775z" />
    <glyph glyph-name="G" unicode="G" 
d="M969 0h-131l-20 70q-62 -43 -141 -66.5t-170 -23.5q-134 0 -243.5 51t-172.5 140t-63 198q0 111 63.5 200t173.5 139t242 50q111 0 206.5 -33.5t161.5 -99t88 -159.5h-217q-25 66 -92.5 97t-145.5 31q-71 0 -129.5 -27.5t-92 -78.5t-33.5 -119q0 -70 34.5 -121t93 -77.5
t127.5 -26.5q71 0 133 29t96 86h-224v122h454v-82z" />
    <glyph glyph-name="H" unicode="H" horiz-adv-x="950" 
d="M255 471h440v269h208v-740h-208v302h-440v-302h-207v740h207v-269z" />
    <glyph glyph-name="I" unicode="I" horiz-adv-x="303" 
d="M255 0h-207v740h207v-740z" />
    <glyph glyph-name="J" unicode="J" horiz-adv-x="816" 
d="M769 740v-445q0 -71 -32.5 -137.5t-115.5 -112t-223 -45.5q-132 0 -215.5 54.5t-119 127t-35.5 131.5h197q0 -41 21 -78t62 -59.5t97 -22.5q49 0 85.5 19.5t56 52t19.5 70.5v445h203z" />
    <glyph glyph-name="K" unicode="K" horiz-adv-x="847" 
d="M426 401l434 -401h-269l-336 323v-323h-207v740h207v-269l318 269h272z" />
    <glyph glyph-name="L" unicode="L" horiz-adv-x="775" 
d="M255 740v-576h488v-164h-695v740h207z" />
    <glyph glyph-name="M" unicode="M" horiz-adv-x="1111" 
d="M1064 740v-740h-208v398l-194 -398h-198l-209 406v-406h-207v740h243l271 -540l263 540h239z" />
    <glyph glyph-name="N" unicode="N" horiz-adv-x="1005" 
d="M255 0h-207v740zM958 0h-208h208zM750 251v489h208v-740h-208l-495 490v-490h-207v740h207z" />
    <glyph glyph-name="O" unicode="O" horiz-adv-x="994" 
d="M740 705.5q107 -50.5 168 -139t61 -199.5q0 -110 -61 -198t-168 -138.5t-241 -50.5q-129 0 -237.5 50.5t-172.5 139t-64 197.5q0 110 63.5 199t172.5 139.5t238 50.5q134 0 241 -50.5zM622 169.5q58 26.5 94 77t36 120.5q0 69 -36 120.5t-94 78.5t-123 27
q-67 0 -125.5 -26.5t-93.5 -77.5t-35 -120q0 -70 35.5 -121.5t94 -78t124.5 -26.5q65 0 123 26.5z" />
    <glyph glyph-name="P" unicode="P" horiz-adv-x="931" 
d="M753.5 709q71.5 -31 111 -86.5t39.5 -128.5v-4q0 -121 -77.5 -185.5t-219.5 -64.5h-351v-240h-208v740h541q93 0 164.5 -31zM641.5 397.5q29.5 4.5 50 25t20.5 66.5q0 47 -20.5 68.5t-51 26.5t-83.5 5h-37q-23 0 -79.5 -0.5t-185.5 -0.5v-195h301h1q55 0 84.5 4.5z" />
    <glyph glyph-name="Q" unicode="Q" horiz-adv-x="1015" 
d="M948.5 205.5q-39.5 -74.5 -110.5 -127.5t-165 -78l141 -143h-349v125q-119 10 -219 62.5t-159 137t-59 185.5q0 110 67.5 199t180 139.5t241.5 50.5q134 0 241.5 -50.5t168.5 -139t61 -199.5q0 -87 -39.5 -161.5zM643 171.5q58 26.5 93.5 77t35.5 118.5q0 69 -35.5 120.5
t-93.5 78.5t-124 27q-65 0 -128.5 -27.5t-104 -79t-40.5 -119.5q0 -67 40.5 -118t104 -77.5t128.5 -26.5q66 0 124 26.5z" />
    <glyph glyph-name="R" unicode="R" horiz-adv-x="935" 
d="M662 1l-205 239h-209v-239h-200v740h541q93 0 164.5 -31t111 -86.5t39.5 -128.5v-4q0 -95 -55.5 -157t-153.5 -83l215 -250h-248zM684 559q-19 22 -49 27t-85 5q-24 0 -41 -1q-82 -2 -261 -2v-195h301h1q55 0 85 4.5t49 25.5t19 66q0 48 -19 70z" />
    <glyph glyph-name="S" unicode="S" horiz-adv-x="947" 
d="M557 435q105 0 182 -13t128.5 -56t51.5 -127q0 -154 -135 -208t-303 -54q-165 0 -309 55.5t-144 211.5l215 2q0 -55 42.5 -82t93 -33.5t109.5 -6.5q90 0 155 26t66 84v1q0 43 -64.5 55.5t-155.5 12.5h-1h-61q-120 0 -203 12.5t-139.5 58t-56.5 137.5q0 251 453 251
q161 0 299.5 -55t138.5 -212h-213q0 56 -65 85t-158 33q-101 0 -171.5 -24t-70.5 -75q0 -80 232 -80z" />
    <glyph glyph-name="T" unicode="T" horiz-adv-x="921" 
d="M33 569v171h856zM889 740v-172h-322v-568h-208v568h-326v172h856z" />
    <glyph glyph-name="U" unicode="U" horiz-adv-x="977" 
d="M722 740h212v-385q0 -108 -58 -194t-157 -134t-220 -48q-125 0 -229 48t-165 133.5t-62 193.5v386h215v-389q0 -72 38.5 -116.5t93.5 -63.5t110 -19q49 0 100 19t86.5 63.5t35.5 116.5v389z" />
    <glyph glyph-name="V" unicode="V" horiz-adv-x="1015" 
d="M403 0l390 740l-390 -740v0zM512 207l281 533h215l-380 -740h-235l-385 740h230z" />
    <glyph glyph-name="W" unicode="W" horiz-adv-x="1510" 
d="M1037 251l251 489h215l-380 -740h-215l-151 448l-149 -448h-215l-385 740h220l252 -490l169 490h220z" />
    <glyph glyph-name="X" unicode="X" horiz-adv-x="917" 
d="M665 740h239l-292 -373l292 -367h-239l-206 256l-206 -256h-240l293 367l-293 373h240l206 -258z" />
    <glyph glyph-name="Y" unicode="Y" horiz-adv-x="951" 
d="M718 740h225l-355 -429v-311h-225v310l-355 430h225l238 -290z" />
    <glyph glyph-name="Z" unicode="Z" horiz-adv-x="896" 
d="M35 741l834 -1v-171l-559 -398l553 -1v-171l-835 1v171h3l557 399l-553 1v170z" />
    <glyph glyph-name="bracketleft" unicode="[" horiz-adv-x="315" 
d="M290 910v-125h-92v-777h92v-125h-265v1027h265z" />
    <glyph glyph-name="backslash" unicode="\" horiz-adv-x="524" 
d="M-30 840h190l404 -957h-190z" />
    <glyph glyph-name="bracketright" unicode="]" horiz-adv-x="315" 
d="M25 910h265v-1027h-265v125h92v777h-92v125z" />
    <glyph glyph-name="asciicircum" unicode="^" horiz-adv-x="554" 
d="M383 741l156 -245h-166l-96 155l-96 -155h-166l157 245h211z" />
    <glyph glyph-name="underscore" unicode="_" horiz-adv-x="704" 
d="M2 -151v124h700v-124h-700z" />
    <glyph glyph-name="grave" unicode="`" horiz-adv-x="442" 
d="M78 910h204l70 -133h-154z" />
    <glyph glyph-name="a" unicode="a" horiz-adv-x="776" 
d="M635 521q109 -48 109 -169v-352h-182l-16 83v5q-23 -46 -105.5 -72t-179.5 -26q-78 0 -158 32.5t-80 140.5q0 103 68.5 136t147.5 33q153 0 212 2.5t77.5 10.5t19.5 29v11q-1 35 -49.5 54.5t-111.5 19.5q-68 0 -115.5 -22.5t-47.5 -69.5h-195q0 77 58.5 122t140 62.5
t160.5 17.5q138 0 247 -48zM547 272q-48 -22 -147 -22q-67 0 -104.5 -5t-55 -17.5t-18.5 -36.5q3 -33 34.5 -50t106.5 -17q99 0 141.5 43t42.5 104v1z" />
    <glyph glyph-name="b" unicode="b" horiz-adv-x="770" 
d="M753 282v0q-1 -82 -34.5 -148.5t-93.5 -105t-137 -38.5q-181 -3 -268 76l-12 -64h-175v737h195v-255q88 81 260 81q78 0 138 -39.5t93 -103.5t34 -135v-3v-2zM479 133.5q38 24.5 56.5 64.5t19.5 86q-1 40 -20 77t-56.5 60.5t-91.5 23.5q-71 0 -115 -47.5t-44 -122.5v-1
q0 -43 20 -81t56.5 -61t82.5 -23q54 0 92 24.5z" />
    <glyph glyph-name="c" unicode="c" horiz-adv-x="761" 
d="M67 421.5q49 67.5 134 105.5t188 38q148 0 237.5 -64.5t117.5 -173.5h-196q-12 49 -54.5 80.5t-103.5 31.5q-80 0 -127 -46.5t-47 -122.5q0 -45 20 -83.5t58.5 -62t91.5 -23.5q63 0 106.5 31.5t54.5 79.5h196q-10 -64 -59 -118.5t-126.5 -86.5t-168.5 -32
q-101 0 -186 38.5t-135 106t-50 150.5q0 84 49 151.5z" />
    <glyph glyph-name="d" unicode="d" horiz-adv-x="773" 
d="M545 739h195v-737h-175l-12 64q-87 -79 -268 -76q-77 0 -137 38.5t-93.5 105t-34.5 148.5v2v3q1 71 34 135t93 103.5t138 39.5q172 0 260 -81v255zM468.5 132q36.5 23 56.5 61t20 81v1q0 75 -44 122.5t-115 47.5q-54 0 -91.5 -23.5t-56.5 -60.5t-20 -77q1 -46 19.5 -86
t56.5 -64.5t92 -24.5q46 0 82.5 23z" />
    <glyph glyph-name="e" unicode="e" horiz-adv-x="779" 
d="M760 255h-544q6 -70 52.5 -115.5t128.5 -45.5q44 0 82.5 15t62 43t23.5 64h195q0 -69 -43.5 -122.5t-125.5 -83.5t-195 -30q-104 0 -191 37t-137 104.5t-50 154.5q0 88 50 155.5t136 104t192 36.5q108 0 190 -36t127.5 -101.5t46.5 -153.5v-5h1h-1v-21zM226 344h332
q-27 117 -161 117q-136 0 -171 -117z" />
    <glyph glyph-name="f" unicode="f" horiz-adv-x="478" 
d="M451 487v-140h-117v-347h-195v347h-111v140h111v66q0 119 75.5 162t169.5 43q33 0 59 -4v-163q-50 0 -72 -7t-29.5 -28t-7.5 -69h117z" />
    <glyph glyph-name="g" unicode="g" horiz-adv-x="775" 
d="M739 545v-545q-4 -79 -57.5 -126.5t-128 -67t-147.5 -19.5q-109 0 -178.5 7.5t-125 45.5t-55.5 121h199q0 -62 125 -62l35 1q48 0 92.5 23t44.5 87v49q-86 -77 -258 -77q-76 0 -136 39.5t-94.5 103.5t-36.5 135v4v3q1 82 35 148t94.5 104t137.5 38q178 5 262 -75l15 63
h177zM499.5 147q43.5 45 43.5 129v3q0 41 -19.5 78t-54.5 59.5t-79 22.5q-80 0 -124.5 -48.5t-46.5 -123.5q2 -73 45 -119t120 -46q72 0 115.5 45z" />
    <glyph glyph-name="h" unicode="h" horiz-adv-x="741" 
d="M642.5 483q71.5 -80 71.5 -258v-225h-195v222q0 64 -8.5 108t-39.5 74t-94 30q-66 0 -98.5 -31t-41.5 -75.5t-9 -107.5v-220h-195v740h195v-262q76 85 232 85q111 0 182.5 -80z" />
    <glyph glyph-name="i" unicode="i" horiz-adv-x="260" 
d="M228 740h-195v-136h195v136zM228 0h-195v575h195v-575z" />
    <glyph glyph-name="j" unicode="j" horiz-adv-x="284" 
d="M49 605v135h195v-135h-195zM49 576h195v-600q0 -113 -75 -154.5t-169 -41.5q-33 0 -60 4v158q47 0 70.5 8t31 23.5t7.5 45.5v557z" />
    <glyph glyph-name="k" unicode="k" horiz-adv-x="718" 
d="M420 301l303 -301h-232l-268 260v-260h-195v740h195v-400l229 205h236z" />
    <glyph glyph-name="l" unicode="l" horiz-adv-x="268" 
d="M228 0h-195v740h195v-740z" />
    <glyph glyph-name="m" unicode="m" horiz-adv-x="1195" 
d="M1066 530q50 -33 74.5 -107t24.5 -198v-225h-195v222q0 94 -28.5 153.5t-109.5 59.5q-57 0 -86.5 -28t-38.5 -72.5t-9 -109.5v-225h-196v222q0 96 -26 154.5t-107 58.5q-65 0 -95.5 -30t-38 -78t-7.5 -132v-195h-195v545h168l22 -71q40 45 100.5 67t145.5 22
q75 0 122 -28t73 -91q34 64 100 91.5t171 27.5q81 0 131 -33z" />
    <glyph glyph-name="n" unicode="n" horiz-adv-x="741" 
d="M648 485q66 -78 66 -260v-225h-195v222q0 64 -8.5 108t-39.5 74t-94 30q-66 0 -98.5 -29.5t-41.5 -74t-9 -110.5v-220h-195v545h195v-70q78 88 236 88q118 0 184 -78z" />
    <glyph glyph-name="o" unicode="o" horiz-adv-x="785" 
d="M589 530q84 -38 131.5 -105.5t47.5 -151.5q0 -83 -47.5 -150.5t-131.5 -105.5t-189 -38q-101 0 -189 38.5t-140.5 106t-52.5 149.5q0 83 52.5 150.5t140.5 106t189 38.5q105 0 189 -38zM523 148q51 43 51 125q0 83 -51 126t-123 43q-46 0 -88.5 -18.5t-69.5 -56.5
t-27 -94q0 -55 27 -93t69.5 -56.5t88.5 -18.5q72 0 123 43z" />
    <glyph glyph-name="p" unicode="p" horiz-adv-x="776" 
d="M753 260v0q-2 -71 -35 -135t-93 -103.5t-137 -39.5q-172 0 -260 81v-253h-195v735h175l14 -73q88 88 266 85q77 0 136.5 -38t93.5 -104t35 -148v-3v-4zM477.5 126q37.5 24 57 61.5t20.5 77.5q-2 74 -44 124t-124 50q-46 0 -82.5 -23t-56.5 -61t-20 -81v-2
q0 -75 44 -122.5t115 -47.5q53 0 90.5 24z" />
    <glyph glyph-name="q" unicode="q" horiz-adv-x="773" 
d="M570 545h175v-735h-195v253q-88 -81 -260 -81q-77 0 -137 39.5t-93 103.5t-35 135v4v3q1 82 35 148t93.5 104t136.5 38q182 3 268 -76zM506 149.5q44 47.5 44 122.5v2q0 43 -20 81t-56.5 61t-82.5 23q-54 0 -91.5 -24t-56.5 -64t-20 -86q2 -68 45.5 -115.5t122.5 -47.5
q71 0 115 47.5z" />
    <glyph glyph-name="r" unicode="r" horiz-adv-x="498" 
d="M226 454q78 85 245 101v-156h-125q-69 0 -93.5 -48t-24.5 -130v-221h-195v545h174z" />
    <glyph glyph-name="s" unicode="s" horiz-adv-x="740" 
d="M413 321l53 1q114 0 185 -30.5t71 -121.5q0 -118 -104 -155.5t-242 -37.5q-135 0 -247 41.5t-112 159.5l197 -1q0 -50 48 -68.5t114 -18.5q81 0 118 18t37 56q0 37 -42.5 47.5t-78.5 10.5h-44q-93 0 -166 9.5t-128 46t-55 110.5q0 111 108 145t249 34q134 0 241 -41
t107 -159l-194 1q0 52 -55 69t-99 17q-160 0 -160 -64q0 -68 156 -70q28 0 43 1z" />
    <glyph glyph-name="t" unicode="t" horiz-adv-x="463" 
d="M332 545h104v-140h-104v-405h-195v405h-109v140h109v118l195 93v-211z" />
    <glyph glyph-name="u" unicode="u" horiz-adv-x="746" 
d="M519 545h195v-545h-195v70q-78 -88 -236 -88q-119 0 -184.5 78.5t-65.5 259.5v225h195v-222q0 -63 8.5 -107.5t39.5 -74.5t93 -30q90 0 120 59.5t30 154.5v220z" />
    <glyph glyph-name="v" unicode="v" horiz-adv-x="802" 
d="M402 164l168 381l215 1l-273 -546h-222l-272 545h215z" />
    <glyph glyph-name="w" unicode="w" horiz-adv-x="1157" 
d="M777 183l157 362h211l-272 -545h-180l-114 335l-115 -335h-179l-272 545h210l157 -363l102 363h193z" />
    <glyph glyph-name="x" unicode="x" horiz-adv-x="793" 
d="M570 545h226l-246 -275l246 -270h-226l-173 188l-173 -188h-227l248 270l-248 275h227l173 -190z" />
    <glyph glyph-name="y" unicode="y" horiz-adv-x="848" 
d="M838 545l-330 -668q-30 -59 -113 -76.5t-190 -17.5l-1 163q54 0 74.5 8t20.5 22q0 6 -3 14t-4 10l-282 545h211l208 -442l198 442h211z" />
    <glyph glyph-name="z" unicode="z" horiz-adv-x="735" 
d="M33 545l670 -1v-138l-406 -268l406 -1v-137l-670 1v138l414 268l-414 1v137z" />
    <glyph glyph-name="braceleft" unicode="{" horiz-adv-x="447" 
d="M309 31q15 -23 41 -29.5t71 -6.5l1 -118q-95 0 -148.5 9.5t-93.5 56.5t-42 151v185q-1 50 -31 65.5t-96 15.5h-1l1 34l-1 33h1v0q44 0 70.5 5.5t41.5 23.5t15 54v184q3 104 42.5 150.5t92.5 55.5t149 9l-1 -117q-45 0 -71 -6.5t-41 -29.5t-15 -69v-184q-6 -75 -66 -109
q62 -34 66 -110v-184q0 -46 15 -69z" />
    <glyph glyph-name="bar" unicode="|" horiz-adv-x="233" 
d="M213 -185h-193v983h193v-983z" />
    <glyph glyph-name="braceright" unicode="}" horiz-adv-x="447" 
d="M437 360h-1v0q-66 0 -96 -15.5t-31 -65.5v-185q-2 -104 -42 -151t-93.5 -56.5t-148.5 -9.5l1 118q45 0 71 6.5t41 29.5t15 69v184q4 76 66 110q-60 34 -66 109v184q0 46 -15 69t-41 29.5t-71 6.5l-1 117q96 0 149 -9t92.5 -55.5t42.5 -150.5v-184q0 -36 15 -54
t41.5 -23.5t70.5 -5.5h1v-67z" />
    <glyph glyph-name="asciitilde" unicode="~" horiz-adv-x="505" 
d="M15 431q54 43 109 43q31 0 60 -11t68 -32q42 -22 70 -32.5t58 -10.5q55 0 109 43v-125q-53 -42 -106 -42q-31 0 -60.5 11.5t-68.5 33.5q-40 22 -69 33t-59 11q-56 0 -111 -47v125z" />
    <glyph glyph-name="exclamdown" unicode="&#xa1;" horiz-adv-x="305" 
d="M250 545h-194v-170h194v170zM268 -190h-230l65 520h100z" />
    <glyph glyph-name="cent" unicode="&#xa2;" horiz-adv-x="736" 
d="M492.5 132.5q43.5 31.5 54.5 79.5h196q-9 -60 -53 -111.5t-113 -85t-152 -39.5v-72h-107v76q-85 13 -153.5 53.5t-107.5 102t-39 134.5q0 74 38.5 135.5t106.5 102t155 52.5v71h107v-67q131 -8 211.5 -71.5t107.5 -165.5h-196q-12 49 -54.5 80.5t-103.5 31.5
q-80 0 -127 -46.5t-47 -122.5q0 -45 20 -83.5t58.5 -62t91.5 -23.5q63 0 106.5 31.5z" />
    <glyph glyph-name="sterling" unicode="&#xa3;" horiz-adv-x="856" 
d="M841 136v-136h-809v136q44 46 63.5 79t21.5 60h-102l-1 127h51q-23 50 -23 108q0 81 57.5 140.5t150.5 90.5t196 31q101 0 188 -30.5t141 -92.5t54 -152h-205q0 47 -27.5 81t-72.5 51.5t-95 17.5q-49 0 -91.5 -16.5t-69 -49.5t-26.5 -80q0 -53 24 -99h352l1 -127h-302
q0 -57 -70 -139h594z" />
    <glyph glyph-name="currency" unicode="&#xa4;" horiz-adv-x="633" 
d="M518 316l60 -60l-63 -63l-60 60q-62 -43 -138 -43t-138 43l-61 -61l-63 63l62 61q-43 62 -43 137t43 137l-62 62l63 63l62 -62q62 43 137 43q74 0 137 -42l61 60l63 -63l-61 -60q43 -62 43 -138q0 -74 -42 -137zM403 367.5q35 35.5 35 85.5q0 51 -35.5 86t-85.5 35
t-85.5 -35.5t-35.5 -85.5t35.5 -85.5t85.5 -35.5q51 0 86 35.5z" />
    <glyph glyph-name="yen" unicode="&#xa5;" horiz-adv-x="961" 
d="M718 740h225l-302 -365h144v-108h-197v-34h197v-108h-197v-125h-225v125h-193v108h193v34h-193v108h139l-301 365h225l238 -290z" />
    <glyph glyph-name="brokenbar" unicode="&#xa6;" horiz-adv-x="382" 
d="M213 398h-193v400h193v-400zM213 -185h-193v400h193v-400z" />
    <glyph glyph-name="section" unicode="&#xa7;" horiz-adv-x="805" 
d="M726 260q64 -38 64 -115q0 -115 -115 -155.5t-259 -40.5q-145 0 -265.5 41.5t-120.5 159.5h199q0 -50 60.5 -65.5t126.5 -15.5q173 0 173 73q0 34 -48 44t-125 10h-2h-10q-368 3 -374 185v3v3q3 56 58 93q-58 38 -58 112q0 117 116.5 153t269.5 36q144 0 259 -41
t115 -159h-197q0 42 -51.5 61.5t-125.5 18.5q-78 1 -132 -14.5t-54 -51.5q0 -59 177 -59h67q87 0 154 -9.5t114.5 -42.5t47.5 -97q0 -79 -64 -127zM284 326q53 -12 124 -12q78 0 131 12.5t53 57.5q0 32 -58 43t-123 11l-72 -1q-46 -4 -77.5 -16t-32.5 -36q2 -47 55 -59z" />
    <glyph glyph-name="dieresis" unicode="&#xa8;" horiz-adv-x="603" 
d="M113.5 809q-25.5 26 -25.5 63t26 63t63 26t62.5 -26t25.5 -63t-25.5 -63t-62.5 -26q-38 0 -63.5 26zM364 809q-26 26 -26 63t26.5 63t63.5 26t62.5 -26t25.5 -63t-25.5 -63t-62.5 -26q-38 0 -64 26z" />
    <glyph glyph-name="copyright" unicode="&#xa9;" horiz-adv-x="764" 
d="M192.5 29.5q-86.5 50.5 -137 137t-50.5 189.5t50.5 189.5t137 137t189.5 50.5t189.5 -50.5t137 -137.5t50.5 -189q0 -103 -50.5 -189.5t-137 -137t-189.5 -50.5t-189.5 50.5zM525.5 109.5q65.5 38.5 104 104t38.5 142.5t-38.5 142.5t-104 104.5t-143.5 39
q-77 0 -142.5 -38.5t-104 -104t-38.5 -143.5q0 -77 38.5 -142.5t104 -104t142.5 -38.5q78 0 143.5 38.5zM194 442q29 40 79.5 63t111.5 23q88 0 141.5 -38t70.5 -103h-114q-8 29 -34 48t-63 19q-49 0 -77.5 -28t-28.5 -74q0 -41 28 -71.5t76 -30.5q38 0 64.5 19t34.5 48h113
q-6 -38 -35.5 -70t-75.5 -51t-100 -19q-59 0 -109.5 23t-80.5 63t-30 89q0 50 29 90z" />
    <glyph glyph-name="ordfeminine" unicode="&#xaa;" horiz-adv-x="520" 
d="M417.5 514q70.5 -31 70.5 -109v-227h-118l-10 54v1q-16 -29 -69 -45t-115 -16q-49 0 -101 21.5t-52 90.5q0 66 44 87.5t95 21.5q98 0 136.5 1.5t50.5 6.5t13 18v7q-1 22 -32.5 35t-72.5 13q-44 0 -74 -14.5t-30 -44.5h-126q0 71 72.5 100.5t158.5 29.5q89 0 159.5 -31z
M361 354q-28 -14 -95 -14q-63 0 -88.5 -8t-26.5 -31q2 -21 22.5 -32t68.5 -11q64 0 91.5 27.5t27.5 67.5v1z" />
    <glyph glyph-name="guillemotleft" unicode="&#xab;" horiz-adv-x="677" 
d="M193 276l208 -211h-194l-202 212l192 202h196zM458 276l208 -211h-194l-202 212l192 202h196z" />
    <glyph glyph-name="logicalnot" unicode="&#xac;" horiz-adv-x="617" 
d="M618 426v-263h-157v138h-446v125h603z" />
    <glyph glyph-name="registered" unicode="&#xae;" horiz-adv-x="549" 
d="M202 493v-19v19zM408.5 696.5q62.5 -36.5 99 -98.5t36.5 -134q0 -73 -36.5 -135t-98.5 -98.5t-135 -36.5t-135 36.5t-98 98.5t-36 135t36 135t98 98t135 36q72 0 134.5 -36.5zM367 304q43 25 68 67.5t25 92.5q0 49 -25.5 91.5t-68 68t-92.5 25.5t-92.5 -24.5t-67 -67
t-24.5 -93.5q0 -50 24.5 -92.5t67 -67.5t92.5 -25t93 25zM389.5 457.5q-16.5 -18.5 -45.5 -25.5l64 -74h-72l-60 70h-68v-70h-57v221h160q42 0 68.5 -20.5t26.5 -52.5v-2q0 -28 -16.5 -46.5zM301 474q25 0 36.5 4.5t11.5 24.5q0 22 -11 27t-37 5q-6 0 -23 -0.5t-70 -0.5v-60
h93z" />
    <glyph glyph-name="macron" unicode="&#xaf;" horiz-adv-x="600" 
d="M85 785v125h437v-125h-437z" />
    <glyph glyph-name="degree" unicode="&#xb0;" horiz-adv-x="364" 
d="M93.5 376q-40.5 24 -64.5 64.5t-24 88.5t24 88.5t64.5 64.5t88.5 24q49 0 89.5 -23.5t64 -64.5t23.5 -89t-24 -88.5t-64.5 -64.5t-88.5 -24t-88.5 24zM240.5 471q23.5 24 23.5 58t-24 58t-58 24t-58 -24t-24 -58t24 -58t58 -24q35 0 58.5 24z" />
    <glyph glyph-name="plusminus" unicode="&#xb1;" horiz-adv-x="477" 
d="M293 494h169v-108h-169v-170h-108v170h-170v108h170v169h108v-169zM462 194v-108h-447v108h447z" />
    <glyph glyph-name="uni00B2" unicode="&#xb2;" horiz-adv-x="651" 
d="M626 349v-101h-594v52q0 83 34.5 127.5t81 60t116.5 26.5q14 3 35 5t32 4q75 9 110.5 20t35.5 39q0 34 -46 50t-112 15q-64 0 -108 -19.5t-44 -59.5h-135q0 97 90 134.5t196 37.5q114 0 204.5 -31t90.5 -128q0 -51 -38.5 -81t-86 -43t-109.5 -22q-29 -4 -31 -5
q-74 -9 -134 -32t-60 -49h472z" />
    <glyph glyph-name="uni00B3" unicode="&#xb3;" horiz-adv-x="661" 
d="M625 407q-1 -89 -82 -130.5t-210 -41.5q-145 0 -223 51.5t-78 149.5h128q0 -55 50.5 -81t122.5 -25q65 -1 110.5 17.5t46.5 59.5q-1 19 -10.5 29t-35 14.5t-76.5 4.5h-119v86h119q58 0 87.5 11.5t29.5 37.5q0 28 -44 42t-108 15q-72 0 -122.5 -15.5t-50.5 -49.5h-128
q0 93 94 126t207 33q114 0 196.5 -27.5t82.5 -115.5q0 -67 -68 -90q76 -26 81 -99v-2v0z" />
    <glyph glyph-name="acute" unicode="&#xb4;" horiz-adv-x="442" 
d="M91 777l70 133h204l-120 -133h-154z" />
    <glyph glyph-name="paragraph" unicode="&#xb6;" horiz-adv-x="957" 
d="M942 568h-99v-688h-196v688h-137v-688h-196v360q-94 0 -163 33t-104 89t-32 124q0 123 76.5 188t222.5 66h628v-172z" />
    <glyph glyph-name="periodcentered" unicode="&#xb7;" horiz-adv-x="158" 
d="M51.5 251.5q-11.5 11.5 -11.5 27.5t11.5 27.5t27.5 11.5q17 0 28 -11t11 -28q0 -16 -11.5 -27.5t-27.5 -11.5t-27.5 11.5z" />
    <glyph glyph-name="cedilla" unicode="&#xb8;" horiz-adv-x="600" 
d="M350 -42q57 0 104.5 -18.5t46.5 -71.5q0 -68 -69.5 -91.5t-151.5 -23.5q-83 0 -146 23.5t-63 99.5h106q0 -34 34 -44t58 -10q26 0 57 7t31 36q0 20 -21.5 25.5t-41 5.5h-25.5h-38v202h119v-140z" />
    <glyph glyph-name="uni00B9" unicode="&#xb9;" horiz-adv-x="277" 
d="M252 740v-478h-127v319h-107v77q135 0 135 82h99z" />
    <glyph glyph-name="ordmasculine" unicode="&#xba;" horiz-adv-x="519" 
d="M386 525.5q54 -24.5 85 -68t31 -98.5q0 -54 -31 -97t-85 -67.5t-122 -24.5q-65 0 -121.5 24.5t-90.5 68t-34 96.5q0 54 34 97.5t90.5 68.5t121.5 25q68 0 122 -24.5zM344 278.5q33 27.5 33 80.5t-33 81t-80 28t-83 -28t-36 -81t36 -80.5t83 -27.5t80 27.5z" />
    <glyph glyph-name="guillemotright" unicode="&#xbb;" horiz-adv-x="677" 
d="M205 65h-194l208 211l-200 203h196l192 -202zM470 65h-194l208 211l-200 203h196l192 -202z" />
    <glyph glyph-name="questiondown" unicode="&#xbf;" horiz-adv-x="865" 
d="M598 545l1 -170h-193l-1 170h193zM848 50q0 -158 -125.5 -213t-282.5 -55q-101 0 -191 15.5t-160.5 71t-70.5 165.5q0 128 84.5 164.5t179.5 36.5q55 0 82.5 13.5t35.5 34t8 48.5h191q0 -97 -40.5 -148.5t-136.5 -54.5q-66 0 -139 -20.5t-73 -76.5q0 -51 67 -74t164 -22
q91 2 154 30t63 86z" />
    <glyph glyph-name="Agrave" unicode="&#xc0;" 
d="M1010 0h-213l-77 142h-443l-77 -142h-213l402 740h220zM499 551l-140 -257h279zM300 910h204l70 -133h-154z" />
    <glyph glyph-name="Aacute" unicode="&#xc1;" 
d="M1010 0h-213l-77 142h-443l-77 -142h-213l402 740h220zM499 551l-140 -257h279zM422 777l70 133h204l-120 -133h-154z" />
    <glyph glyph-name="Acircumflex" unicode="&#xc2;" 
d="M1010 0h-213l-77 142h-443l-77 -142h-213l402 740h220zM499 551l-140 -257h279zM591 910l180 -136h-189l-91 68l-85 -68h-189l170 136h204z" />
    <glyph glyph-name="Atilde" unicode="&#xc3;" 
d="M1010 0h-213l-77 142h-443l-77 -142h-213l402 740h220zM499 551l-140 -257h279zM741 930q0 -142 -119 -142q-28 0 -55 6t-47.5 12.5t-27.5 8.5q-34 9 -70 9q-61 0 -61 -35h-118q0 142 120 142q32 0 61 -7.5t68 -19.5q34 -9 70 -9q61 0 61 35h118z" />
    <glyph glyph-name="Adieresis" unicode="&#xc4;" 
d="M1010 0h-213l-77 142h-443l-77 -142h-213l402 740h220zM499 551l-140 -257h279zM307.5 809q-25.5 26 -25.5 63t26 63t63 26t62.5 -26t25.5 -63t-25.5 -63t-62.5 -26q-38 0 -63.5 26zM558 809q-26 26 -26 63t26.5 63t63.5 26t62.5 -26t25.5 -63t-25.5 -63t-62.5 -26
q-38 0 -64 26z" />
    <glyph glyph-name="Aring" unicode="&#xc5;" 
d="M1010 0h-213l-77 142h-443l-77 -142h-213l402 740h220zM499 551l-140 -257h279zM356 1016q22 37 59.5 59t81.5 22q43 0 80.5 -22t59.5 -59.5t22 -80.5q0 -44 -22 -81.5t-59 -59.5t-81 -22t-81.5 22t-59.5 59.5t-22 81.5t22 81zM446 884q21 -21 51 -21t51 21t21 51
q0 29 -21.5 50.5t-50.5 21.5q-30 0 -51 -21t-21 -51t21 -51z" />
    <glyph glyph-name="AE" unicode="&#xc6;" horiz-adv-x="1508" 
d="M1391 302h-483v-148l567 4v-158h-775v128h-375l-107 -128h-231l621 740h867l1 -157h-568v-126h483v-155zM700 570l-250 -291h250v291z" />
    <glyph glyph-name="Ccedilla" unicode="&#xc7;" horiz-adv-x="995" 
d="M649.5 181q66.5 37 99.5 105h218q-38 -132 -145 -212t-263 -92v-31q57 0 104.5 -18.5t46.5 -71.5q0 -68 -69.5 -91.5t-151.5 -23.5q-83 0 -146 23.5t-63 99.5h106q0 -34 33.5 -43.5t58.5 -9.5q88 0 88 42q0 29 -60 31h-66v95q-117 12 -211 65.5t-147.5 136.5t-53.5 183
q0 111 63.5 200t173 139.5t243.5 50.5q116 0 211.5 -37.5t159 -107t88.5 -163.5l-216 -1q-17 46 -57 79t-90 50t-95 17q-65 0 -126.5 -27t-100.5 -78.5t-39 -121.5q0 -71 37 -121.5t98 -77t131 -26.5q74 0 140.5 37z" />
    <glyph glyph-name="Egrave" unicode="&#xc8;" horiz-adv-x="856" 
d="M739 302h-484v-148l568 4v-158h-775v740h775l1 -157h-569v-126h484v-155zM254 908h204l70 -133h-154z" />
    <glyph glyph-name="Eacute" unicode="&#xc9;" horiz-adv-x="856" 
d="M739 302h-484v-148l568 4v-158h-775v740h775l1 -157h-569v-126h484v-155zM306 777l70 133h204l-120 -133h-154z" />
    <glyph glyph-name="Ecircumflex" unicode="&#xca;" horiz-adv-x="856" 
d="M739 302h-484v-148l568 4v-158h-775v740h775l1 -157h-569v-126h484v-155zM527 910l180 -136h-189l-91 68l-85 -68h-189l170 136h204z" />
    <glyph glyph-name="Edieresis" unicode="&#xcb;" horiz-adv-x="856" 
d="M739 302h-484v-148l568 4v-158h-775v740h775l1 -157h-569v-126h484v-155zM236.5 809q-25.5 26 -25.5 63t26 63t63 26t62.5 -26t25.5 -63t-25.5 -63t-62.5 -26q-38 0 -63.5 26zM487 809q-26 26 -26 63t26.5 63t63.5 26t62.5 -26t25.5 -63t-25.5 -63t-62.5 -26
q-38 0 -64 26z" />
    <glyph glyph-name="Igrave" unicode="&#xcc;" horiz-adv-x="303" 
d="M255 0h-207v740h207v-740zM-52 910h204l70 -133h-154z" />
    <glyph glyph-name="Iacute" unicode="&#xcd;" horiz-adv-x="303" 
d="M255 0h-207v740h207v-740zM71 777l70 133h204l-120 -133h-154z" />
    <glyph glyph-name="Icircumflex" unicode="&#xce;" horiz-adv-x="303" 
d="M255 0h-207v740h207v-740zM249 910l180 -136h-189l-91 68l-85 -68h-189l170 136h204z" />
    <glyph glyph-name="Idieresis" unicode="&#xcf;" horiz-adv-x="303" 
d="M255 0h-207v740h207v-740zM-37.5 809q-25.5 26 -25.5 63t26 63t63 26t62.5 -26t25.5 -63t-25.5 -63t-62.5 -26q-38 0 -63.5 26zM213 809q-26 26 -26 63t26.5 63t63.5 26t62.5 -26t25.5 -63t-25.5 -63t-62.5 -26q-38 0 -64 26z" />
    <glyph glyph-name="Eth" unicode="&#xd0;" horiz-adv-x="911" 
d="M830.5 180q-53.5 -84 -152.5 -132t-229 -48v-1h-213v1h-169v293h-67v158h67v289h381q131 0 230 -48t152.5 -132t53.5 -191q0 -105 -53.5 -189zM458 173q96 0 158.5 50t62.5 146q0 54 -30 99.5t-80.5 72t-110.5 26.5h-184v-116h199v-158h-199v-120h184z" />
    <glyph glyph-name="Ntilde" unicode="&#xd1;" horiz-adv-x="1005" 
d="M255 0h-207v740zM958 0h-208h208zM750 251v489h208v-740h-208l-495 490v-490h-207v740h207zM744 940q0 -142 -119 -142q-28 0 -55 6t-47.5 12.5t-27.5 8.5q-34 9 -70 9q-61 0 -61 -35h-118q0 142 120 142q32 0 61 -7.5t68 -19.5q34 -9 70 -9q61 0 61 35h118z" />
    <glyph glyph-name="Ograve" unicode="&#xd2;" horiz-adv-x="994" 
d="M740 705.5q107 -50.5 168 -139t61 -199.5q0 -110 -61 -198t-168 -138.5t-241 -50.5q-129 0 -237.5 50.5t-172.5 139t-64 197.5q0 110 63.5 199t172.5 139.5t238 50.5q134 0 241 -50.5zM622 169.5q58 26.5 94 77t36 120.5q0 69 -36 120.5t-94 78.5t-123 27
q-67 0 -125.5 -26.5t-93.5 -77.5t-35 -120q0 -70 35.5 -121.5t94 -78t124.5 -26.5q65 0 123 26.5zM302 915h204l70 -133h-154z" />
    <glyph glyph-name="Oacute" unicode="&#xd3;" horiz-adv-x="994" 
d="M740 705.5q107 -50.5 168 -139t61 -199.5q0 -110 -61 -198t-168 -138.5t-241 -50.5q-129 0 -237.5 50.5t-172.5 139t-64 197.5q0 110 63.5 199t172.5 139.5t238 50.5q134 0 241 -50.5zM622 169.5q58 26.5 94 77t36 120.5q0 69 -36 120.5t-94 78.5t-123 27
q-67 0 -125.5 -26.5t-93.5 -77.5t-35 -120q0 -70 35.5 -121.5t94 -78t124.5 -26.5q65 0 123 26.5zM397 777l70 133h204l-120 -133h-154z" />
    <glyph glyph-name="Ocircumflex" unicode="&#xd4;" horiz-adv-x="994" 
d="M740 705.5q107 -50.5 168 -139t61 -199.5q0 -110 -61 -198t-168 -138.5t-241 -50.5q-129 0 -237.5 50.5t-172.5 139t-64 197.5q0 110 63.5 199t172.5 139.5t238 50.5q134 0 241 -50.5zM622 169.5q58 26.5 94 77t36 120.5q0 69 -36 120.5t-94 78.5t-123 27
q-67 0 -125.5 -26.5t-93.5 -77.5t-35 -120q0 -70 35.5 -121.5t94 -78t124.5 -26.5q65 0 123 26.5zM597 910l180 -136h-189l-91 68l-85 -68h-189l170 136h204z" />
    <glyph glyph-name="Otilde" unicode="&#xd5;" horiz-adv-x="994" 
d="M740 705.5q107 -50.5 168 -139t61 -199.5q0 -110 -61 -198t-168 -138.5t-241 -50.5q-129 0 -237.5 50.5t-172.5 139t-64 197.5q0 110 63.5 199t172.5 139.5t238 50.5q134 0 241 -50.5zM622 169.5q58 26.5 94 77t36 120.5q0 69 -36 120.5t-94 78.5t-123 27
q-67 0 -125.5 -26.5t-93.5 -77.5t-35 -120q0 -70 35.5 -121.5t94 -78t124.5 -26.5q65 0 123 26.5zM741 940q0 -142 -119 -142q-28 0 -55 6t-47.5 12.5t-27.5 8.5q-34 9 -70 9q-61 0 -61 -35h-118q0 142 120 142q32 0 61 -7.5t68 -19.5q34 -9 70 -9q61 0 61 35h118z" />
    <glyph glyph-name="Odieresis" unicode="&#xd6;" horiz-adv-x="994" 
d="M740 705.5q107 -50.5 168 -139t61 -199.5q0 -110 -61 -198t-168 -138.5t-241 -50.5q-129 0 -237.5 50.5t-172.5 139t-64 197.5q0 110 63.5 199t172.5 139.5t238 50.5q134 0 241 -50.5zM622 169.5q58 26.5 94 77t36 120.5q0 69 -36 120.5t-94 78.5t-123 27
q-67 0 -125.5 -26.5t-93.5 -77.5t-35 -120q0 -70 35.5 -121.5t94 -78t124.5 -26.5q65 0 123 26.5zM309.5 809q-25.5 26 -25.5 63t26 63t63 26t62.5 -26t25.5 -63t-25.5 -63t-62.5 -26q-38 0 -63.5 26zM560 809q-26 26 -26 63t26.5 63t63.5 26t62.5 -26t25.5 -63t-25.5 -63
t-62.5 -26q-38 0 -64 26z" />
    <glyph glyph-name="multiply" unicode="&#xd7;" horiz-adv-x="423" 
d="M331 519l77 -76l-120 -120l120 -120l-77 -76l-119 120l-120 -120l-77 76l120 120l-120 120l77 76l120 -119z" />
    <glyph glyph-name="Oslash" unicode="&#xd8;" horiz-adv-x="992" 
d="M838 644q62 -53 96.5 -124t34.5 -153q0 -110 -61 -198t-168 -138.5t-241 -50.5q-90 0 -168 24l-42 -53h-210l101 127q-73 54 -114 128t-41 161q0 110 63.5 199t172.5 139.5t238 50.5q103 0 193 -31l43 54h210zM297 226l282 356q-41 11 -80 11q-67 0 -125.5 -26.5
t-93.5 -77.5t-35 -120q0 -84 52 -143zM622 169.5q58 26.5 94 77t36 120.5q0 67 -37 122l-270 -341q30 -5 54 -5q65 0 123 26.5z" />
    <glyph glyph-name="Ugrave" unicode="&#xd9;" horiz-adv-x="977" 
d="M722 740h212v-385q0 -108 -58 -194t-157 -134t-220 -48q-125 0 -229 48t-165 133.5t-62 193.5v386h215v-389q0 -72 38.5 -116.5t93.5 -63.5t110 -19q49 0 100 19t86.5 63.5t35.5 116.5v389zM292 910h204l70 -133h-154z" />
    <glyph glyph-name="Uacute" unicode="&#xda;" horiz-adv-x="977" 
d="M722 740h212v-385q0 -108 -58 -194t-157 -134t-220 -48q-125 0 -229 48t-165 133.5t-62 193.5v386h215v-389q0 -72 38.5 -116.5t93.5 -63.5t110 -19q49 0 100 19t86.5 63.5t35.5 116.5v389zM407 777l70 133h204l-120 -133h-154z" />
    <glyph glyph-name="Ucircumflex" unicode="&#xdb;" horiz-adv-x="977" 
d="M722 740h212v-385q0 -108 -58 -194t-157 -134t-220 -48q-125 0 -229 48t-165 133.5t-62 193.5v386h215v-389q0 -72 38.5 -116.5t93.5 -63.5t110 -19q49 0 100 19t86.5 63.5t35.5 116.5v389zM585 910l180 -136h-189l-91 68l-85 -68h-189l170 136h204z" />
    <glyph glyph-name="Udieresis" unicode="&#xdc;" horiz-adv-x="977" 
d="M722 740h212v-385q0 -108 -58 -194t-157 -134t-220 -48q-125 0 -229 48t-165 133.5t-62 193.5v386h215v-389q0 -72 38.5 -116.5t93.5 -63.5t110 -19q49 0 100 19t86.5 63.5t35.5 116.5v389zM294.5 809q-25.5 26 -25.5 63t26 63t63 26t62.5 -26t25.5 -63t-25.5 -63
t-62.5 -26q-38 0 -63.5 26zM545 809q-26 26 -26 63t26.5 63t63.5 26t62.5 -26t25.5 -63t-25.5 -63t-62.5 -26q-38 0 -64 26z" />
    <glyph glyph-name="Yacute" unicode="&#xdd;" horiz-adv-x="951" 
d="M718 740h225l-355 -429v-311h-225v310l-355 430h225l238 -290zM393 777l70 133h204l-120 -133h-154z" />
    <glyph glyph-name="Thorn" unicode="&#xde;" horiz-adv-x="931" 
d="M753.5 614q71.5 -31 111 -86.5t39.5 -128.5v-4q0 -120 -83.5 -185t-226.5 -65h-338v-145h-208v740h207v-95h334q93 0 164.5 -31zM641.5 302.5q29.5 4.5 50 25t20.5 66.5q0 47 -20.5 68.5t-51 26.5t-83.5 5h-37q-23 0 -79.5 -0.5t-185.5 -0.5l1 -195h300h1q55 0 84.5 4.5z
" />
    <glyph glyph-name="germandbls" unicode="&#xdf;" horiz-adv-x="940" 
d="M834 342q78 -40 78 -156q0 -75 -55 -115t-183 -55.5t-366 -15.5v139l103 -1q133 0 211 16t78 66q0 26 -16 40t-38.5 20.5t-61.5 12.5q-41 7 -65 13.5t-40.5 22.5t-16.5 44q0 33 17 48t51 28t51.5 28t17.5 50q0 55 -47 83.5t-129 28.5q-85 0 -126.5 -39.5t-51.5 -86
t-10 -96.5v-417h-207v417q0 172 102 252.5t304 80.5q120 0 197 -31t112 -79.5t35 -102.5q0 -41 -18 -76.5t-49 -57t-69 -21.5q114 0 192 -40z" />
    <glyph glyph-name="agrave" unicode="&#xe0;" horiz-adv-x="776" 
d="M635 521q109 -48 109 -169v-352h-182l-16 83v5q-23 -46 -105.5 -72t-179.5 -26q-78 0 -158 32.5t-80 140.5q0 103 68.5 136t147.5 33q153 0 212 2.5t77.5 10.5t19.5 29v11q-1 35 -49.5 54.5t-111.5 19.5q-68 0 -115.5 -22.5t-47.5 -69.5h-195q0 77 58.5 122t140 62.5
t160.5 17.5q138 0 247 -48zM547 272q-48 -22 -147 -22q-67 0 -104.5 -5t-55 -17.5t-18.5 -36.5q3 -33 34.5 -50t106.5 -17q99 0 141.5 43t42.5 104v1zM181 730h204l70 -133h-154z" />
    <glyph glyph-name="aacute" unicode="&#xe1;" horiz-adv-x="776" 
d="M635 521q109 -48 109 -169v-352h-182l-16 83v5q-23 -46 -105.5 -72t-179.5 -26q-78 0 -158 32.5t-80 140.5q0 103 68.5 136t147.5 33q153 0 212 2.5t77.5 10.5t19.5 29v11q-1 35 -49.5 54.5t-111.5 19.5q-68 0 -115.5 -22.5t-47.5 -69.5h-195q0 77 58.5 122t140 62.5
t160.5 17.5q138 0 247 -48zM547 272q-48 -22 -147 -22q-67 0 -104.5 -5t-55 -17.5t-18.5 -36.5q3 -33 34.5 -50t106.5 -17q99 0 141.5 43t42.5 104v1zM274 597l70 133h204l-120 -133h-154z" />
    <glyph glyph-name="acircumflex" unicode="&#xe2;" horiz-adv-x="776" 
d="M635 521q109 -48 109 -169v-352h-182l-16 83v5q-23 -46 -105.5 -72t-179.5 -26q-78 0 -158 32.5t-80 140.5q0 103 68.5 136t147.5 33q153 0 212 2.5t77.5 10.5t19.5 29v11q-1 35 -49.5 54.5t-111.5 19.5q-68 0 -115.5 -22.5t-47.5 -69.5h-195q0 77 58.5 122t140 62.5
t160.5 17.5q138 0 247 -48zM547 272q-48 -22 -147 -22q-67 0 -104.5 -5t-55 -17.5t-18.5 -36.5q3 -33 34.5 -50t106.5 -17q99 0 141.5 43t42.5 104v1zM483 730l180 -136h-189l-91 68l-85 -68h-189l170 136h204z" />
    <glyph glyph-name="atilde" unicode="&#xe3;" horiz-adv-x="776" 
d="M635 521q109 -48 109 -169v-352h-182l-16 83v5q-23 -46 -105.5 -72t-179.5 -26q-78 0 -158 32.5t-80 140.5q0 103 68.5 136t147.5 33q153 0 212 2.5t77.5 10.5t19.5 29v11q-1 35 -49.5 54.5t-111.5 19.5q-68 0 -115.5 -22.5t-47.5 -69.5h-195q0 77 58.5 122t140 62.5
t160.5 17.5q138 0 247 -48zM547 272q-48 -22 -147 -22q-67 0 -104.5 -5t-55 -17.5t-18.5 -36.5q3 -33 34.5 -50t106.5 -17q99 0 141.5 43t42.5 104v1zM630 749q0 -142 -119 -142q-28 0 -55 6t-47.5 12.5t-27.5 8.5q-34 9 -70 9q-61 0 -61 -35h-118q0 142 120 142
q32 0 61 -7.5t68 -19.5q34 -9 70 -9q61 0 61 35h118z" />
    <glyph glyph-name="adieresis" unicode="&#xe4;" horiz-adv-x="776" 
d="M635 521q109 -48 109 -169v-352h-182l-16 83v5q-23 -46 -105.5 -72t-179.5 -26q-78 0 -158 32.5t-80 140.5q0 103 68.5 136t147.5 33q153 0 212 2.5t77.5 10.5t19.5 29v11q-1 35 -49.5 54.5t-111.5 19.5q-68 0 -115.5 -22.5t-47.5 -69.5h-195q0 77 58.5 122t140 62.5
t160.5 17.5q138 0 247 -48zM547 272q-48 -22 -147 -22q-67 0 -104.5 -5t-55 -17.5t-18.5 -36.5q3 -33 34.5 -50t106.5 -17q99 0 141.5 43t42.5 104v1zM197.5 629q-25.5 26 -25.5 63t26 63t63 26t62.5 -26t25.5 -63t-25.5 -63t-62.5 -26q-38 0 -63.5 26zM448 629
q-26 26 -26 63t26.5 63t63.5 26t62.5 -26t25.5 -63t-25.5 -63t-62.5 -26q-38 0 -64 26z" />
    <glyph glyph-name="aring" unicode="&#xe5;" horiz-adv-x="776" 
d="M635 521q109 -48 109 -169v-352h-182l-16 83v5q-23 -46 -105.5 -72t-179.5 -26q-78 0 -158 32.5t-80 140.5q0 103 68.5 136t147.5 33q153 0 212 2.5t77.5 10.5t19.5 29v11q-1 35 -49.5 54.5t-111.5 19.5q-68 0 -115.5 -22.5t-47.5 -69.5h-195q0 77 58.5 122t140 62.5
t160.5 17.5q138 0 247 -48zM547 272q-48 -22 -147 -22q-67 0 -104.5 -5t-55 -17.5t-18.5 -36.5q3 -33 34.5 -50t106.5 -17q99 0 141.5 43t42.5 104v1zM237 836q22 37 59.5 59t81.5 22q43 0 80.5 -22t59.5 -59.5t22 -80.5q0 -44 -22 -81.5t-59 -59.5t-81 -22t-81.5 22
t-59.5 59.5t-22 81.5t22 81zM327 704q21 -21 51 -21t51 21t21 51q0 29 -21.5 50.5t-50.5 21.5q-30 0 -51 -21t-21 -51t21 -51z" />
    <glyph glyph-name="ae" unicode="&#xe6;" horiz-adv-x="1324" 
d="M1299 255h-544q6 -70 52.5 -115.5t128.5 -45.5q44 0 82.5 15t62 43t23.5 64h195q0 -69 -43.5 -122.5t-125.5 -83.5t-195 -30q-100 0 -183 33.5t-134 94.5q-17 -30 -65.5 -57t-120.5 -44t-156 -17q-82 0 -167.5 32.5t-85.5 140.5q0 103 68.5 136t147.5 33q161 0 220.5 3
t74 12.5t14.5 35.5q0 36 -48.5 56t-112.5 20q-68 0 -115.5 -22t-47.5 -70h-195q0 77 58.5 122t140 62.5t160.5 17.5t156 -16.5t129 -56.5q50 37 117.5 56.5t144.5 19.5q108 0 190 -36t127.5 -101.5t46.5 -153.5v-5h1h-1v-21zM765 344h332q-27 117 -161 117q-136 0 -171 -117
zM557 271v5v2l-3 -2zM473 146.5q43 22.5 62 57t19 72.5q-43 -26 -154 -26q-67 0 -104.5 -5t-55 -17.5t-18.5 -36.5q3 -33 34.5 -50t106.5 -17q67 0 110 22.5z" />
    <glyph glyph-name="ccedilla" unicode="&#xe7;" horiz-adv-x="761" 
d="M492.5 132.5q43.5 31.5 54.5 79.5h196q-9 -57 -49 -106.5t-104 -83t-142 -43.5v-39q57 0 104.5 -18.5t46.5 -71.5q0 -68 -69.5 -91.5t-151.5 -23.5q-84 0 -146.5 23.5t-62.5 99.5h106q0 -34 33.5 -43.5t58.5 -9.5q88 0 88 42q0 29 -60 31h-66v101q-88 11 -159 51.5
t-111.5 103t-40.5 136.5q0 84 49 151.5t134 105.5t188 38q148 0 237.5 -64.5t117.5 -173.5h-196q-12 49 -54.5 80.5t-103.5 31.5q-80 0 -127 -46.5t-47 -122.5q0 -45 20 -83.5t58.5 -62t91.5 -23.5q63 0 106.5 31.5z" />
    <glyph glyph-name="egrave" unicode="&#xe8;" horiz-adv-x="779" 
d="M760 255h-544q6 -70 52.5 -115.5t128.5 -45.5q44 0 82.5 15t62 43t23.5 64h195q0 -69 -43.5 -122.5t-125.5 -83.5t-195 -30q-104 0 -191 37t-137 104.5t-50 154.5q0 88 50 155.5t136 104t192 36.5q108 0 190 -36t127.5 -101.5t46.5 -153.5v-5h1h-1v-21zM226 344h332
q-27 117 -161 117q-136 0 -171 -117zM200 730h204l70 -133h-154z" />
    <glyph glyph-name="eacute" unicode="&#xe9;" horiz-adv-x="779" 
d="M760 255h-544q6 -70 52.5 -115.5t128.5 -45.5q44 0 82.5 15t62 43t23.5 64h195q0 -69 -43.5 -122.5t-125.5 -83.5t-195 -30q-104 0 -191 37t-137 104.5t-50 154.5q0 88 50 155.5t136 104t192 36.5q108 0 190 -36t127.5 -101.5t46.5 -153.5v-5h1h-1v-21zM226 344h332
q-27 117 -161 117q-136 0 -171 -117zM299 597l70 133h204l-120 -133h-154z" />
    <glyph glyph-name="ecircumflex" unicode="&#xea;" horiz-adv-x="779" 
d="M760 255h-544q6 -70 52.5 -115.5t128.5 -45.5q44 0 82.5 15t62 43t23.5 64h195q0 -69 -43.5 -122.5t-125.5 -83.5t-195 -30q-104 0 -191 37t-137 104.5t-50 154.5q0 88 50 155.5t136 104t192 36.5q108 0 190 -36t127.5 -101.5t46.5 -153.5v-5h1h-1v-21zM226 344h332
q-27 117 -161 117q-136 0 -171 -117zM490 730l180 -136h-189l-91 68l-85 -68h-189l170 136h204z" />
    <glyph glyph-name="edieresis" unicode="&#xeb;" horiz-adv-x="779" 
d="M760 255h-544q6 -70 52.5 -115.5t128.5 -45.5q44 0 82.5 15t62 43t23.5 64h195q0 -69 -43.5 -122.5t-125.5 -83.5t-195 -30q-104 0 -191 37t-137 104.5t-50 154.5q0 88 50 155.5t136 104t192 36.5q108 0 190 -36t127.5 -101.5t46.5 -153.5v-5h1h-1v-21zM226 344h332
q-27 117 -161 117q-136 0 -171 -117zM204.5 629q-25.5 26 -25.5 63t26 63t63 26t62.5 -26t25.5 -63t-25.5 -63t-62.5 -26q-38 0 -63.5 26zM455 629q-26 26 -26 63t26.5 63t63.5 26t62.5 -26t25.5 -63t-25.5 -63t-62.5 -26q-38 0 -64 26z" />
    <glyph glyph-name="igrave" unicode="&#xec;" horiz-adv-x="254" 
d="M-73 697h205l70 -133h-154zM221 0h-195v545h195v-545z" />
    <glyph glyph-name="iacute" unicode="&#xed;" horiz-adv-x="356" 
d="M49 565l70 133h204l-120 -133h-154zM228 0h-195v545h195v-545z" />
    <glyph glyph-name="icircumflex" unicode="&#xee;" horiz-adv-x="288" 
d="M232 570l-91 68l-85 -68h-189l170 136h204l180 -136h-189zM238 0h-195v545h195v-545z" />
    <glyph glyph-name="idieresis" unicode="&#xef;" horiz-adv-x="318" 
d="M-29.5 595q-25.5 26 -25.5 63t26 63t63 26t63 -26t26 -63t-26 -63t-63 -26q-38 0 -63.5 26zM222 595q-26 26 -26 63t26 63t63 26t62.5 -26t25.5 -63t-25.5 -63t-62.5 -26t-63 26zM256 0h-195v545h195v-545z" />
    <glyph glyph-name="eth" unicode="&#xf0;" horiz-adv-x="785" 
d="M741.5 389q26.5 -54 26.5 -116q0 -83 -47.5 -150.5t-131.5 -105.5t-189 -38q-101 0 -189 38.5t-140.5 106t-52.5 149.5q0 78 46.5 143t126 104.5t173.5 46.5l-35 26l-167 -45l-85 64l163 44l-17 12q-61 42 -99 71h210l59 -43l157 42l84 -63l-154 -42q127 -91 186 -150
q49 -40 75.5 -94zM485.5 123q39.5 18 64 56t24.5 93q0 27 -6 52q-15 58 -61.5 88t-106.5 30q-46 0 -88.5 -18.5t-69.5 -56.5t-27 -94q0 -55 27 -93t69.5 -56.5t88.5 -18.5t85.5 18z" />
    <glyph glyph-name="ntilde" unicode="&#xf1;" horiz-adv-x="741" 
d="M648 485q66 -78 66 -260v-225h-195v222q0 64 -8.5 108t-39.5 74t-94 30q-66 0 -98.5 -29.5t-41.5 -74t-9 -110.5v-220h-195v545h195v-70q78 88 236 88q118 0 184 -78zM609 741q0 -142 -119 -142q-28 0 -55 6t-47.5 12.5t-27.5 8.5q-34 9 -70 9q-61 0 -61 -35h-118
q0 142 120 142q32 0 61 -7.5t68 -19.5q34 -9 70 -9q61 0 61 35h118z" />
    <glyph glyph-name="ograve" unicode="&#xf2;" horiz-adv-x="785" 
d="M589 530q84 -38 131.5 -105.5t47.5 -151.5q0 -83 -47.5 -150.5t-131.5 -105.5t-189 -38q-101 0 -189 38.5t-140.5 106t-52.5 149.5q0 83 52.5 150.5t140.5 106t189 38.5q105 0 189 -38zM523 148q51 43 51 125q0 83 -51 126t-123 43q-46 0 -88.5 -18.5t-69.5 -56.5
t-27 -94q0 -55 27 -93t69.5 -56.5t88.5 -18.5q72 0 123 43zM205 730h204l70 -133h-154z" />
    <glyph glyph-name="oacute" unicode="&#xf3;" horiz-adv-x="785" 
d="M589 530q84 -38 131.5 -105.5t47.5 -151.5q0 -83 -47.5 -150.5t-131.5 -105.5t-189 -38q-101 0 -189 38.5t-140.5 106t-52.5 149.5q0 83 52.5 150.5t140.5 106t189 38.5q105 0 189 -38zM523 148q51 43 51 125q0 83 -51 126t-123 43q-46 0 -88.5 -18.5t-69.5 -56.5
t-27 -94q0 -55 27 -93t69.5 -56.5t88.5 -18.5q72 0 123 43zM302 597l70 133h204l-120 -133h-154z" />
    <glyph glyph-name="ocircumflex" unicode="&#xf4;" horiz-adv-x="785" 
d="M589 530q84 -38 131.5 -105.5t47.5 -151.5q0 -83 -47.5 -150.5t-131.5 -105.5t-189 -38q-101 0 -189 38.5t-140.5 106t-52.5 149.5q0 83 52.5 150.5t140.5 106t189 38.5q105 0 189 -38zM523 148q51 43 51 125q0 83 -51 126t-123 43q-46 0 -88.5 -18.5t-69.5 -56.5
t-27 -94q0 -55 27 -93t69.5 -56.5t88.5 -18.5q72 0 123 43zM493 730l180 -136h-189l-91 68l-85 -68h-189l170 136h204z" />
    <glyph glyph-name="otilde" unicode="&#xf5;" horiz-adv-x="785" 
d="M589 530q84 -38 131.5 -105.5t47.5 -151.5q0 -83 -47.5 -150.5t-131.5 -105.5t-189 -38q-101 0 -189 38.5t-140.5 106t-52.5 149.5q0 83 52.5 150.5t140.5 106t189 38.5q105 0 189 -38zM523 148q51 43 51 125q0 83 -51 126t-123 43q-46 0 -88.5 -18.5t-69.5 -56.5
t-27 -94q0 -55 27 -93t69.5 -56.5t88.5 -18.5q72 0 123 43zM642 734q0 -142 -119 -142q-28 0 -55 6t-47.5 12.5t-27.5 8.5q-34 9 -70 9q-61 0 -61 -35h-118q0 142 120 142q32 0 61 -7.5t68 -19.5q34 -9 70 -9q61 0 61 35h118z" />
    <glyph glyph-name="odieresis" unicode="&#xf6;" horiz-adv-x="785" 
d="M589 530q84 -38 131.5 -105.5t47.5 -151.5q0 -83 -47.5 -150.5t-131.5 -105.5t-189 -38q-101 0 -189 38.5t-140.5 106t-52.5 149.5q0 83 52.5 150.5t140.5 106t189 38.5q105 0 189 -38zM523 148q51 43 51 125q0 83 -51 126t-123 43q-46 0 -88.5 -18.5t-69.5 -56.5
t-27 -94q0 -55 27 -93t69.5 -56.5t88.5 -18.5q72 0 123 43zM204.5 629q-25.5 26 -25.5 63t26 63t63 26t62.5 -26t25.5 -63t-25.5 -63t-62.5 -26q-38 0 -63.5 26zM455 629q-26 26 -26 63t26.5 63t63.5 26t62.5 -26t25.5 -63t-25.5 -63t-62.5 -26q-38 0 -64 26z" />
    <glyph glyph-name="divide" unicode="&#xf7;" horiz-adv-x="477" 
d="M188.5 451.5q-20.5 20.5 -20.5 51.5q0 30 20.5 51t51.5 21q30 0 51 -21t21 -51q0 -31 -21 -51.5t-51 -20.5q-31 0 -51.5 20.5zM462 378v-108h-447v108h447zM188.5 91.5q-20.5 20.5 -20.5 51.5q0 30 20.5 51t51.5 21q30 0 51 -21t21 -51q0 -31 -21 -51.5t-51 -20.5
q-31 0 -51.5 20.5z" />
    <glyph glyph-name="oslash" unicode="&#xf8;" horiz-adv-x="775" 
d="M626 505q63 -40 98.5 -100t35.5 -132q0 -83 -47.5 -150.5t-131.5 -105.5t-189 -38q-74 0 -140 21l-23 -31h-140l58 78q-64 41 -100.5 99.5t-36.5 126.5q0 83 52.5 150.5t140.5 106t189 38.5q68 0 128 -17l23 31h140zM240 173l196 265q-19 4 -43 4q-46 0 -88.5 -18.5
t-69.5 -56.5t-27 -94q0 -58 32 -100zM515.5 148q50.5 43 50.5 125q0 65 -33 107l-198 -267q25 -8 58 -8q72 0 122.5 43z" />
    <glyph glyph-name="ugrave" unicode="&#xf9;" horiz-adv-x="746" 
d="M519 545h195v-545h-195v70q-78 -88 -236 -88q-119 0 -184.5 78.5t-65.5 259.5v225h195v-222q0 -63 8.5 -107.5t39.5 -74.5t93 -30q90 0 120 59.5t30 154.5v220zM178 730h204l70 -133h-154z" />
    <glyph glyph-name="uacute" unicode="&#xfa;" horiz-adv-x="746" 
d="M519 545h195v-545h-195v70q-78 -88 -236 -88q-119 0 -184.5 78.5t-65.5 259.5v225h195v-222q0 -63 8.5 -107.5t39.5 -74.5t93 -30q90 0 120 59.5t30 154.5v220zM270 597l70 133h204l-120 -133h-154z" />
    <glyph glyph-name="ucircumflex" unicode="&#xfb;" horiz-adv-x="746" 
d="M519 545h195v-545h-195v70q-78 -88 -236 -88q-119 0 -184.5 78.5t-65.5 259.5v225h195v-222q0 -63 8.5 -107.5t39.5 -74.5t93 -30q90 0 120 59.5t30 154.5v220zM466 730l180 -136h-189l-91 68l-85 -68h-189l170 136h204z" />
    <glyph glyph-name="udieresis" unicode="&#xfc;" horiz-adv-x="746" 
d="M519 545h195v-545h-195v70q-78 -88 -236 -88q-119 0 -184.5 78.5t-65.5 259.5v225h195v-222q0 -63 8.5 -107.5t39.5 -74.5t93 -30q90 0 120 59.5t30 154.5v220zM177.5 624q-25.5 26 -25.5 63t26 63t63 26t62.5 -26t25.5 -63t-25.5 -63t-62.5 -26q-38 0 -63.5 26zM428 624
q-26 26 -26 63t26.5 63t63.5 26t62.5 -26t25.5 -63t-25.5 -63t-62.5 -26q-38 0 -64 26z" />
    <glyph glyph-name="yacute" unicode="&#xfd;" horiz-adv-x="848" 
d="M838 545l-330 -668q-30 -59 -113 -76.5t-190 -17.5l-1 163q54 0 74.5 8t20.5 22q0 6 -3 14t-4 10l-282 545h211l208 -442l198 442h211zM320 597l70 133h204l-120 -133h-154z" />
    <glyph glyph-name="thorn" unicode="&#xfe;" horiz-adv-x="778" 
d="M753 179v0q-2 -71 -35 -135.5t-92.5 -104t-137.5 -39.5q-172 0 -260 81v-171h-195v735h195v-149q90 83 260 80q77 0 136.5 -38t93.5 -104t35 -148v-3v-4zM478.5 45q37.5 24 56.5 61.5t20 77.5q-2 73 -43.5 123t-123.5 50q-46 0 -82.5 -23t-57 -61t-20.5 -81v-1
q0 -75 44.5 -122.5t115.5 -47.5q53 0 90.5 24z" />
    <glyph glyph-name="ydieresis" unicode="&#xff;" horiz-adv-x="848" 
d="M838 545l-330 -668q-30 -59 -113 -76.5t-190 -17.5l-1 163q54 0 74.5 8t20.5 22q0 6 -3 14t-4 10l-282 545h211l208 -442l198 442h211zM226.5 629q-25.5 26 -25.5 63t26 63t63 26t62.5 -26t25.5 -63t-25.5 -63t-62.5 -26q-38 0 -63.5 26zM477 629q-26 26 -26 63t26.5 63
t63.5 26t62.5 -26t25.5 -63t-25.5 -63t-62.5 -26q-38 0 -64 26z" />
    <glyph glyph-name="Amacron" unicode="&#x100;" 
d="M1010 0h-213l-77 142h-443l-77 -142h-213l402 740h220zM499 551l-140 -257h279zM278 773v125h437v-125h-437z" />
    <glyph glyph-name="amacron" unicode="&#x101;" horiz-adv-x="776" 
d="M635 521q109 -48 109 -169v-352h-182l-16 83v5q-23 -46 -105.5 -72t-179.5 -26q-78 0 -158 32.5t-80 140.5q0 103 68.5 136t147.5 33q153 0 212 2.5t77.5 10.5t19.5 29v11q-1 35 -49.5 54.5t-111.5 19.5q-68 0 -115.5 -22.5t-47.5 -69.5h-195q0 77 58.5 122t140 62.5
t160.5 17.5q138 0 247 -48zM547 272q-48 -22 -147 -22q-67 0 -104.5 -5t-55 -17.5t-18.5 -36.5q3 -33 34.5 -50t106.5 -17q99 0 141.5 43t42.5 104v1zM167 601v125h437v-125h-437z" />
    <glyph glyph-name="Abreve" unicode="&#x102;" 
d="M1010 0h-213l-77 142h-443l-77 -142h-213l402 740h220zM499 551l-140 -257h279zM739 978q0 -99 -68.5 -149t-177.5 -50q-111 0 -180 50t-69 149h128q0 -49 34.5 -82t85.5 -33q50 0 84.5 33t34.5 82h128z" />
    <glyph glyph-name="abreve" unicode="&#x103;" horiz-adv-x="776" 
d="M635 521q109 -48 109 -169v-352h-182l-16 83v5q-23 -46 -105.5 -72t-179.5 -26q-78 0 -158 32.5t-80 140.5q0 103 68.5 136t147.5 33q153 0 212 2.5t77.5 10.5t19.5 29v11q-1 35 -49.5 54.5t-111.5 19.5q-68 0 -115.5 -22.5t-47.5 -69.5h-195q0 77 58.5 122t140 62.5
t160.5 17.5q138 0 247 -48zM547 272q-48 -22 -147 -22q-67 0 -104.5 -5t-55 -17.5t-18.5 -36.5q3 -33 34.5 -50t106.5 -17q99 0 141.5 43t42.5 104v1zM629 801q0 -99 -68.5 -149t-177.5 -50q-111 0 -180 50t-69 149h128q0 -49 34.5 -82t85.5 -33q50 0 84.5 33t34.5 82h128z
" />
    <glyph glyph-name="Aogonek" unicode="&#x104;" 
d="M780.5 -120q16.5 -18 69.5 -18v-43q-68 -2 -107.5 8.5t-57 35t-17.5 68.5q0 52 24.5 77.5t82.5 32.5l-55 101h-443l-77 -142h-213l402 740h220l401 -740h-181q-40 -4 -52.5 -21.5t-12.5 -47.5q0 -33 16.5 -51zM499 551l-140 -257h279z" />
    <glyph glyph-name="aogonek" unicode="&#x105;" horiz-adv-x="776" 
d="M744 0h-3v-1q-53 0 -69.5 -18t-16.5 -51t16.5 -51t69.5 -18v-43q-68 -2 -107.5 8.5t-57 35t-17.5 68.5t18 70h-15l-16 83v5q-23 -46 -105.5 -72t-179.5 -26q-78 0 -158 32.5t-80 140.5q0 103 68.5 136t147.5 33q153 0 212 2.5t77.5 10.5t19.5 29v11q-1 35 -49.5 54.5
t-111.5 19.5q-68 0 -115.5 -22.5t-47.5 -69.5h-195q0 77 58.5 122t140 62.5t160.5 17.5q138 0 247 -48t109 -169v-352zM547 272q-48 -22 -147 -22q-67 0 -104.5 -5t-55 -17.5t-18.5 -36.5q3 -33 34.5 -50t106.5 -17q99 0 141.5 43t42.5 104v1z" />
    <glyph glyph-name="Cacute" unicode="&#x106;" horiz-adv-x="995" 
d="M91.5 569q63.5 89 173 139.5t243.5 50.5q116 0 211.5 -37.5t159 -107t88.5 -163.5l-216 -1q-17 46 -57 79t-90 50t-95 17q-65 0 -126.5 -27t-100.5 -78.5t-39 -121.5q0 -71 37 -121.5t98 -77t131 -26.5q74 0 140.5 37t99.5 105h218q-27 -95 -91 -163.5t-158 -105.5
t-210 -37q-133 0 -243 51t-173.5 140t-63.5 198q0 111 63.5 200zM406 792l70 133h204l-120 -133h-154z" />
    <glyph glyph-name="cacute" unicode="&#x107;" horiz-adv-x="761" 
d="M67 421.5q49 67.5 134 105.5t188 38q148 0 237.5 -64.5t117.5 -173.5h-196q-12 49 -54.5 80.5t-103.5 31.5q-80 0 -127 -46.5t-47 -122.5q0 -45 20 -83.5t58.5 -62t91.5 -23.5q63 0 106.5 31.5t54.5 79.5h196q-10 -64 -59 -118.5t-126.5 -86.5t-168.5 -32
q-101 0 -186 38.5t-135 106t-50 150.5q0 84 49 151.5zM291 597l70 133h204l-120 -133h-154z" />
    <glyph glyph-name="Cdotaccent" unicode="&#x10a;" horiz-adv-x="995" 
d="M91.5 569q63.5 89 173 139.5t243.5 50.5q116 0 211.5 -37.5t159 -107t88.5 -163.5l-216 -1q-17 46 -57 79t-90 50t-95 17q-65 0 -126.5 -27t-100.5 -78.5t-39 -121.5q0 -71 37 -121.5t98 -77t131 -26.5q74 0 140.5 37t99.5 105h218q-27 -95 -91 -163.5t-158 -105.5
t-210 -37q-133 0 -243 51t-173.5 140t-63.5 198q0 111 63.5 200zM425.5 819q-25.5 26 -25.5 63t26 63t63 26t62.5 -26t25.5 -63t-25.5 -63t-62.5 -26q-38 0 -63.5 26z" />
    <glyph glyph-name="cdotaccent" unicode="&#x10b;" horiz-adv-x="761" 
d="M67 421.5q49 67.5 134 105.5t188 38q148 0 237.5 -64.5t117.5 -173.5h-196q-12 49 -54.5 80.5t-103.5 31.5q-80 0 -127 -46.5t-47 -122.5q0 -45 20 -83.5t58.5 -62t91.5 -23.5q63 0 106.5 31.5t54.5 79.5h196q-10 -64 -59 -118.5t-126.5 -86.5t-168.5 -32
q-101 0 -186 38.5t-135 106t-50 150.5q0 84 49 151.5zM316.5 623q-25.5 26 -25.5 63t26 63t63 26t62.5 -26t25.5 -63t-25.5 -63t-62.5 -26q-38 0 -63.5 26z" />
    <glyph glyph-name="Ccaron" unicode="&#x10c;" horiz-adv-x="995" 
d="M91.5 569q63.5 89 173 139.5t243.5 50.5q116 0 211.5 -37.5t159 -107t88.5 -163.5l-216 -1q-17 46 -57 79t-90 50t-95 17q-65 0 -126.5 -27t-100.5 -78.5t-39 -121.5q0 -71 37 -121.5t98 -77t131 -26.5q74 0 140.5 37t99.5 105h218q-27 -95 -91 -163.5t-158 -105.5
t-210 -37q-133 0 -243 51t-173.5 140t-63.5 198q0 111 63.5 200zM497 860l91 68h189l-180 -136h-204l-170 136h189z" />
    <glyph glyph-name="ccaron" unicode="&#x10d;" horiz-adv-x="761" 
d="M67 421.5q49 67.5 134 105.5t188 38q148 0 237.5 -64.5t117.5 -173.5h-196q-12 49 -54.5 80.5t-103.5 31.5q-80 0 -127 -46.5t-47 -122.5q0 -45 20 -83.5t58.5 -62t91.5 -23.5q63 0 106.5 31.5t54.5 79.5h196q-10 -64 -59 -118.5t-126.5 -86.5t-168.5 -32
q-101 0 -186 38.5t-135 106t-50 150.5q0 84 49 151.5zM375 665l91 68h189l-180 -136h-204l-170 136h189z" />
    <glyph glyph-name="Dcaron" unicode="&#x10e;" horiz-adv-x="892" 
d="M811.5 180q-53.5 -84 -152.5 -132t-229 -48v-1h-213v1h-169v740h381q131 0 230 -48t152.5 -132t53.5 -191q0 -105 -53.5 -189zM439 173q96 0 158.5 50t62.5 146q0 54 -30 99.5t-80.5 72t-110.5 26.5h-184v-394h184zM371 842l91 68h189l-180 -136h-204l-170 136h189z" />
    <glyph glyph-name="dcaron" unicode="&#x10f;" horiz-adv-x="936" 
d="M790 739h149v-124q-2 -39 -22.5 -63t-60.5 -24h-67v43h19q17 0 21 6t4 23v15h-43v124zM545 739h195v-737h-175l-12 64q-87 -79 -268 -76q-77 0 -137 38.5t-93.5 105t-34.5 148.5v2v3q1 71 34 135t93 103.5t138 39.5q172 0 260 -81v255zM468.5 132q36.5 23 56.5 61t20 81
v1q0 75 -44 122.5t-115 47.5q-54 0 -91.5 -23.5t-56.5 -60.5t-20 -77q1 -46 19.5 -86t56.5 -64.5t92 -24.5q46 0 82.5 23z" />
    <glyph glyph-name="Dcroat" unicode="&#x110;" horiz-adv-x="911" 
d="M830.5 180q-53.5 -84 -152.5 -132t-229 -48v-1h-213v1h-169v293h-67v158h67v289h381q131 0 230 -48t152.5 -132t53.5 -191q0 -105 -53.5 -189zM458 173q96 0 158.5 50t62.5 146q0 54 -30 99.5t-80.5 72t-110.5 26.5h-184v-116h199v-158h-199v-120h184z" />
    <glyph glyph-name="dcroat" unicode="&#x111;" horiz-adv-x="833" 
d="M818 689v-106h-78v-581h-175l-12 64q-87 -79 -268 -76q-77 0 -137 38.5t-93.5 105t-34.5 148.5v2v3q1 71 34 135t93 103.5t138 39.5q172 0 260 -81v99h-156v106h156v50h195v-50h78zM468.5 132q36.5 23 56.5 61t20 81v1q0 75 -44 122.5t-115 47.5q-54 0 -91.5 -23.5
t-56.5 -60.5t-20 -77q1 -46 19.5 -86t56.5 -64.5t92 -24.5q46 0 82.5 23z" />
    <glyph glyph-name="Emacron" unicode="&#x112;" horiz-adv-x="856" 
d="M739 302h-484v-148l568 4v-158h-775v740h775l1 -157h-569v-126h484v-155zM204 773v125h437v-125h-437z" />
    <glyph glyph-name="emacron" unicode="&#x113;" horiz-adv-x="779" 
d="M760 255h-544q6 -70 52.5 -115.5t128.5 -45.5q44 0 82.5 15t62 43t23.5 64h195q0 -69 -43.5 -122.5t-125.5 -83.5t-195 -30q-104 0 -191 37t-137 104.5t-50 154.5q0 88 50 155.5t136 104t192 36.5q108 0 190 -36t127.5 -101.5t46.5 -153.5v-5h1h-1v-21zM226 344h332
q-27 117 -161 117q-136 0 -171 -117zM181 604v125h437v-125h-437z" />
    <glyph glyph-name="Edotaccent" unicode="&#x116;" horiz-adv-x="856" 
d="M739 302h-484v-148l568 4v-158h-775v740h775l1 -157h-569v-126h484v-155zM364.5 809q-25.5 26 -25.5 63t26 63t63 26t62.5 -26t25.5 -63t-25.5 -63t-62.5 -26q-38 0 -63.5 26z" />
    <glyph glyph-name="edotaccent" unicode="&#x117;" horiz-adv-x="779" 
d="M760 255h-544q6 -70 52.5 -115.5t128.5 -45.5q44 0 82.5 15t62 43t23.5 64h195q0 -69 -43.5 -122.5t-125.5 -83.5t-195 -30q-104 0 -191 37t-137 104.5t-50 154.5q0 88 50 155.5t136 104t192 36.5q108 0 190 -36t127.5 -101.5t46.5 -153.5v-5h1h-1v-21zM226 344h332
q-27 117 -161 117q-136 0 -171 -117zM327.5 631q-25.5 26 -25.5 63t26 63t63 26t62.5 -26t25.5 -63t-25.5 -63t-62.5 -26q-38 0 -63.5 26z" />
    <glyph glyph-name="Eogonek" unicode="&#x118;" horiz-adv-x="856" 
d="M255 302v-148l568 4v-158h-24q-40 -4 -52.5 -21.5t-12.5 -47.5q0 -33 16.5 -51t69.5 -18v-43q-68 -2 -107.5 8.5t-57 35t-17.5 68.5q0 45 17 69h-607v740h775l1 -157h-569v-126h484v-155h-484z" />
    <glyph glyph-name="eogonek" unicode="&#x119;" horiz-adv-x="779" 
d="M760 255h-544q6 -70 52.5 -115.5t128.5 -45.5q44 0 82.5 15t62 43t23.5 64h195q0 -69 -43 -122t-124 -83.5t-193 -30.5q-11 -15 -11 -45q0 -33 16.5 -51t69.5 -18v-43q-68 -2 -107.5 8.5t-57 35t-17.5 68.5q0 32 9 53q-83 15 -147.5 55t-100.5 100t-36 133q0 88 50 155.5
t136 104t192 36.5q108 0 190 -36t127.5 -101.5t46.5 -153.5v-5h1h-1v-21zM226 344h332q-27 117 -161 117q-136 0 -171 -117z" />
    <glyph glyph-name="Ecaron" unicode="&#x11a;" horiz-adv-x="856" 
d="M739 302h-484v-148l568 4v-158h-775v740h775l1 -157h-569v-126h484v-155zM423 842l91 68h189l-180 -136h-204l-170 136h189z" />
    <glyph glyph-name="ecaron" unicode="&#x11b;" horiz-adv-x="779" 
d="M760 255h-544q6 -70 52.5 -115.5t128.5 -45.5q44 0 82.5 15t62 43t23.5 64h195q0 -69 -43.5 -122.5t-125.5 -83.5t-195 -30q-104 0 -191 37t-137 104.5t-50 154.5q0 88 50 155.5t136 104t192 36.5q108 0 190 -36t127.5 -101.5t46.5 -153.5v-5h1h-1v-21zM226 344h332
q-27 117 -161 117q-136 0 -171 -117zM394 673l91 68h189l-180 -136h-204l-170 136h189z" />
    <glyph glyph-name="Gbreve" unicode="&#x11e;" 
d="M969 0h-131l-20 70q-62 -43 -141 -66.5t-170 -23.5q-134 0 -243.5 51t-172.5 140t-63 198q0 111 63.5 200t173.5 139t242 50q111 0 206.5 -33.5t161.5 -99t88 -159.5h-217q-25 66 -92.5 97t-145.5 31q-71 0 -129.5 -27.5t-92 -78.5t-33.5 -119q0 -70 34.5 -121t93 -77.5
t127.5 -26.5q71 0 133 29t96 86h-224v122h454v-82zM748 991q0 -99 -68.5 -149t-177.5 -50q-111 0 -180 50t-69 149h128q0 -49 34.5 -82t85.5 -33q50 0 84.5 33t34.5 82h128z" />
    <glyph glyph-name="gbreve" unicode="&#x11f;" horiz-adv-x="775" 
d="M739 545v-545q-4 -79 -57.5 -126.5t-128 -67t-147.5 -19.5q-109 0 -178.5 7.5t-125 45.5t-55.5 121h199q0 -62 125 -62l35 1q48 0 92.5 23t44.5 87v49q-86 -77 -258 -77q-76 0 -136 39.5t-94.5 103.5t-36.5 135v4v3q1 82 35 148t94.5 104t137.5 38q178 5 262 -75l15 63
h177zM499.5 147q43.5 45 43.5 129v3q0 41 -19.5 78t-54.5 59.5t-79 22.5q-80 0 -124.5 -48.5t-46.5 -123.5q2 -73 45 -119t120 -46q72 0 115.5 45zM629 785q0 -99 -68.5 -149t-177.5 -50q-111 0 -180 50t-69 149h128q0 -49 34.5 -82t85.5 -33q50 0 84.5 33t34.5 82h128z" />
    <glyph glyph-name="Gdotaccent" unicode="&#x120;" 
d="M969 0h-131l-20 70q-62 -43 -141 -66.5t-170 -23.5q-134 0 -243.5 51t-172.5 140t-63 198q0 111 63.5 200t173.5 139t242 50q111 0 206.5 -33.5t161.5 -99t88 -159.5h-217q-25 66 -92.5 97t-145.5 31q-71 0 -129.5 -27.5t-92 -78.5t-33.5 -119q0 -70 34.5 -121t93 -77.5
t127.5 -26.5q71 0 133 29t96 86h-224v122h454v-82zM437.5 809q-25.5 26 -25.5 63t26 63t63 26t62.5 -26t25.5 -63t-25.5 -63t-62.5 -26q-38 0 -63.5 26z" />
    <glyph glyph-name="gdotaccent" unicode="&#x121;" horiz-adv-x="775" 
d="M739 545v-545q-4 -79 -57.5 -126.5t-128 -67t-147.5 -19.5q-109 0 -178.5 7.5t-125 45.5t-55.5 121h199q0 -62 125 -62l35 1q48 0 92.5 23t44.5 87v49q-86 -77 -258 -77q-76 0 -136 39.5t-94.5 103.5t-36.5 135v4v3q1 82 35 148t94.5 104t137.5 38q178 5 262 -75l15 63
h177zM499.5 147q43.5 45 43.5 129v3q0 41 -19.5 78t-54.5 59.5t-79 22.5q-80 0 -124.5 -48.5t-46.5 -123.5q2 -73 45 -119t120 -46q72 0 115.5 45zM313.5 613q-25.5 26 -25.5 63t26 63t63 26t62.5 -26t25.5 -63t-25.5 -63t-62.5 -26q-38 0 -63.5 26z" />
    <glyph glyph-name="uni0122" unicode="&#x122;" 
d="M969 0h-131l-20 70q-62 -43 -141 -66.5t-170 -23.5q-134 0 -243.5 51t-172.5 140t-63 198q0 111 63.5 200t173.5 139t242 50q111 0 206.5 -33.5t161.5 -99t88 -159.5h-217q-25 66 -92.5 97t-145.5 31q-71 0 -129.5 -27.5t-92 -78.5t-33.5 -119q0 -70 34.5 -121t93 -77.5
t127.5 -26.5q71 0 133 29t96 86h-224v122h454v-82zM441 -51h149v-124q-2 -39 -22.5 -63t-60.5 -24h-67v43h19q17 0 21 6t4 23v15h-43v124z" />
    <glyph glyph-name="uni0123" unicode="&#x123;" horiz-adv-x="775" 
d="M739 545v-545q-4 -79 -57.5 -126.5t-128 -67t-147.5 -19.5q-109 0 -178.5 7.5t-125 45.5t-55.5 121h199q0 -62 125 -62l35 1q48 0 92.5 23t44.5 87v49q-86 -77 -258 -77q-76 0 -136 39.5t-94.5 103.5t-36.5 135v4v3q1 82 35 148t94.5 104t137.5 38q178 5 262 -75l15 63
h177zM499.5 147q43.5 45 43.5 129v3q0 41 -19.5 78t-54.5 59.5t-79 22.5q-80 0 -124.5 -48.5t-46.5 -123.5q2 -73 45 -119t120 -46q72 0 115.5 45zM407 713h43v-124h-149v124q2 39 22.5 63t60.5 24h67v-43h-19q-17 0 -21 -6t-4 -23v-15z" />
    <glyph glyph-name="Hbar" unicode="&#x126;" horiz-adv-x="1096" 
d="M989 651h82v-115h-82v-536h-208v302h-440v-302h-207v536h-84v115h84v89h207v-89h440v89h208v-89zM341 471h440v65h-440v-65z" />
    <glyph glyph-name="hbar" unicode="&#x127;" horiz-adv-x="790" 
d="M691.5 483q71.5 -80 71.5 -258v-225h-195v222q0 64 -8.5 108t-39.5 74t-94 30q-66 0 -98.5 -31t-41.5 -75.5t-9 -107.5v-220h-195v580h-74v107h74v53h195v-53h160v-107h-160v-102q76 85 232 85q111 0 182.5 -80z" />
    <glyph glyph-name="Imacron" unicode="&#x12a;" horiz-adv-x="303" 
d="M255 0h-207v740h207v-740zM-65 774v125h437v-125h-437z" />
    <glyph glyph-name="imacron" unicode="&#x12b;" horiz-adv-x="492" 
d="M28 620v125h437v-125h-437zM347 0h-195v575h195v-575z" />
    <glyph glyph-name="Iogonek" unicode="&#x12e;" horiz-adv-x="303" 
d="M48 740h207v-740h-3q-53 0 -69.5 -18t-16.5 -51t16.5 -51t69.5 -18v-43q-68 -2 -107.5 8.5t-57 35t-17.5 68.5q0 45 18 69h-40v740z" />
    <glyph glyph-name="iogonek" unicode="&#x12f;" horiz-adv-x="260" 
d="M33 604v136h195v-136h-195zM33 0v575h195v-575h-14q-53 0 -69.5 -18t-16.5 -51t16.5 -51t69.5 -18v-43q-68 -2 -107.5 8.5t-57 35t-17.5 68.5q0 45 18 69h-17z" />
    <glyph glyph-name="Idotaccent" unicode="&#x130;" horiz-adv-x="303" 
d="M255 0h-207v740h207v-740zM82.5 809q-25.5 26 -25.5 63t26 63t63 26t62.5 -26t25.5 -63t-25.5 -63t-62.5 -26q-38 0 -63.5 26z" />
    <glyph glyph-name="dotlessi" unicode="&#x131;" horiz-adv-x="260" 
d="M228 0h-195v575h195v-575z" />
    <glyph glyph-name="uni0136" unicode="&#x136;" horiz-adv-x="847" 
d="M426 401l434 -401h-269l-336 323v-323h-207v740h207v-269l318 269h272zM353 -33h149v-124q-2 -39 -22.5 -63t-60.5 -24h-67v43h19q17 0 21 6t4 23v15h-43v124z" />
    <glyph glyph-name="uni0137" unicode="&#x137;" horiz-adv-x="718" 
d="M420 301l303 -301h-232l-268 260v-260h-195v740h195v-400l229 205h236zM295 -36h149v-124q-2 -39 -22.5 -63t-60.5 -24h-67v43h19q17 0 21 6t4 23v15h-43v124z" />
    <glyph glyph-name="Lacute" unicode="&#x139;" horiz-adv-x="775" 
d="M255 740v-576h488v-164h-695v740h207zM74 773l70 133h204l-120 -133h-154z" />
    <glyph glyph-name="lacute" unicode="&#x13a;" horiz-adv-x="268" 
d="M228 0h-195v740h195v-740zM51 777l70 133h204l-120 -133h-154z" />
    <glyph glyph-name="uni013B" unicode="&#x13b;" horiz-adv-x="775" 
d="M255 740v-576h488v-164h-695v740h207zM304 -35h149v-124q-2 -39 -22.5 -63t-60.5 -24h-67v43h19q17 0 21 6t4 23v15h-43v124z" />
    <glyph glyph-name="uni013C" unicode="&#x13c;" horiz-adv-x="268" 
d="M228 0h-195v740h195v-740zM57 -36h149v-124q-2 -39 -22.5 -63t-60.5 -24h-67v43h19q17 0 21 6t4 23v15h-43v124z" />
    <glyph glyph-name="Lcaron" unicode="&#x13d;" horiz-adv-x="775" 
d="M255 740v-576h488v-164h-695v740h207zM153 842l91 68h189l-180 -136h-204l-170 136h189z" />
    <glyph glyph-name="lcaron" unicode="&#x13e;" horiz-adv-x="268" 
d="M228 0h-195v740h195v-740zM132 841l91 68h189l-180 -136h-204l-170 136h189z" />
    <glyph glyph-name="Lslash" unicode="&#x141;" horiz-adv-x="803" 
d="M310 355v-191h488v-164h-695v256l-93 -44v131l93 44v353h207v-254l131 62v-131z" />
    <glyph glyph-name="lslash" unicode="&#x142;" horiz-adv-x="383" 
d="M288 521l88 42v-131l-88 -42v-390h-195v297l-85 -41v131l85 41v312h195v-219z" />
    <glyph glyph-name="Nacute" unicode="&#x143;" horiz-adv-x="1005" 
d="M255 0h-207v740zM958 0h-208h208zM750 251v489h208v-740h-208l-495 490v-490h-207v740h207zM407 777l70 133h204l-120 -133h-154z" />
    <glyph glyph-name="nacute" unicode="&#x144;" horiz-adv-x="741" 
d="M648 485q66 -78 66 -260v-225h-195v222q0 64 -8.5 108t-39.5 74t-94 30q-66 0 -98.5 -29.5t-41.5 -74t-9 -110.5v-220h-195v545h195v-70q78 88 236 88q118 0 184 -78zM296 593l70 133h204l-120 -133h-154z" />
    <glyph glyph-name="uni0145" unicode="&#x145;" horiz-adv-x="1005" 
d="M255 0h-207v740zM958 0h-208h208zM750 251v489h208v-740h-208l-495 490v-490h-207v740h207zM424 -34h149v-124q-2 -39 -22.5 -63t-60.5 -24h-67v43h19q17 0 21 6t4 23v15h-43v124z" />
    <glyph glyph-name="uni0146" unicode="&#x146;" horiz-adv-x="741" 
d="M648 485q66 -78 66 -260v-225h-195v222q0 64 -8.5 108t-39.5 74t-94 30q-66 0 -98.5 -29.5t-41.5 -74t-9 -110.5v-220h-195v545h195v-70q78 88 236 88q118 0 184 -78zM303 -36h149v-124q-2 -39 -22.5 -63t-60.5 -24h-67v43h19q17 0 21 6t4 23v15h-43v124z" />
    <glyph glyph-name="Ncaron" unicode="&#x147;" horiz-adv-x="1005" 
d="M255 0h-207v740zM958 0h-208h208zM750 251v489h208v-740h-208l-495 490v-490h-207v740h207zM503 842l91 68h189l-180 -136h-204l-170 136h189z" />
    <glyph glyph-name="ncaron" unicode="&#x148;" horiz-adv-x="741" 
d="M648 485q66 -78 66 -260v-225h-195v222q0 64 -8.5 108t-39.5 74t-94 30q-66 0 -98.5 -29.5t-41.5 -74t-9 -110.5v-220h-195v545h195v-70q78 88 236 88q118 0 184 -78zM370 663l91 68h189l-180 -136h-204l-170 136h189z" />
    <glyph glyph-name="Eng" unicode="&#x14a;" horiz-adv-x="1006" 
d="M255 0h-207v740zM958 0h-208h208zM750 740h208v-745q0 -96 -34.5 -151t-116.5 -80t-229 -24v158q72 0 123 22t50 80h-1l-495 490v-490h-207v740h207l495 -489v489z" />
    <glyph glyph-name="eng" unicode="&#x14b;" horiz-adv-x="739" 
d="M645.5 485q65.5 -78 65.5 -260v-228q0 -96 -42.5 -150t-125 -75.5t-215.5 -21.5v148q69 0 107 6.5t59.5 28t21.5 67.5v222q0 63 -8.5 107.5t-39.5 74.5t-93 30q-66 0 -99 -29.5t-42 -74t-9 -110.5v-220h-195v545h195v-70q78 88 236 88q119 0 184.5 -78z" />
    <glyph glyph-name="Omacron" unicode="&#x14c;" horiz-adv-x="994" 
d="M740 705.5q107 -50.5 168 -139t61 -199.5q0 -110 -61 -198t-168 -138.5t-241 -50.5q-129 0 -237.5 50.5t-172.5 139t-64 197.5q0 110 63.5 199t172.5 139.5t238 50.5q134 0 241 -50.5zM622 169.5q58 26.5 94 77t36 120.5q0 69 -36 120.5t-94 78.5t-123 27
q-67 0 -125.5 -26.5t-93.5 -77.5t-35 -120q0 -70 35.5 -121.5t94 -78t124.5 -26.5q65 0 123 26.5zM277 795v125h437v-125h-437z" />
    <glyph glyph-name="omacron" unicode="&#x14d;" horiz-adv-x="785" 
d="M589 530q84 -38 131.5 -105.5t47.5 -151.5q0 -83 -47.5 -150.5t-131.5 -105.5t-189 -38q-101 0 -189 38.5t-140.5 106t-52.5 149.5q0 83 52.5 150.5t140.5 106t189 38.5q105 0 189 -38zM523 148q51 43 51 125q0 83 -51 126t-123 43q-46 0 -88.5 -18.5t-69.5 -56.5
t-27 -94q0 -55 27 -93t69.5 -56.5t88.5 -18.5q72 0 123 43zM181 603v125h437v-125h-437z" />
    <glyph glyph-name="Ohungarumlaut" unicode="&#x150;" horiz-adv-x="994" 
d="M740 705.5q107 -50.5 168 -139t61 -199.5q0 -110 -61 -198t-168 -138.5t-241 -50.5q-129 0 -237.5 50.5t-172.5 139t-64 197.5q0 110 63.5 199t172.5 139.5t238 50.5q134 0 241 -50.5zM622 169.5q58 26.5 94 77t36 120.5q0 69 -36 120.5t-94 78.5t-123 27
q-67 0 -125.5 -26.5t-93.5 -77.5t-35 -120q0 -70 35.5 -121.5t94 -78t124.5 -26.5q65 0 123 26.5zM331 791l70 133h130l-70 -133h-130zM522 791l70 133h130l-70 -133h-130z" />
    <glyph glyph-name="ohungarumlaut" unicode="&#x151;" horiz-adv-x="785" 
d="M589 530q84 -38 131.5 -105.5t47.5 -151.5q0 -83 -47.5 -150.5t-131.5 -105.5t-189 -38q-101 0 -189 38.5t-140.5 106t-52.5 149.5q0 83 52.5 150.5t140.5 106t189 38.5q105 0 189 -38zM523 148q51 43 51 125q0 83 -51 126t-123 43q-46 0 -88.5 -18.5t-69.5 -56.5
t-27 -94q0 -55 27 -93t69.5 -56.5t88.5 -18.5q72 0 123 43zM218 600l70 133h130l-70 -133h-130zM409 600l70 133h130l-70 -133h-130z" />
    <glyph glyph-name="OE" unicode="&#x152;" horiz-adv-x="1581" 
d="M980 302v-148l568 4v-158h-775v47q-121 -67 -274 -67q-129 0 -237.5 50.5t-172.5 139t-64 197.5q0 110 63.5 199t172.5 139.5t238 50.5q156 0 274 -67v51h775l1 -157h-569v-126h484v-155h-484zM622 169.5q58 26.5 94 77t36 120.5q0 69 -36 120.5t-94 78.5t-123 27
q-67 0 -125.5 -26.5t-93.5 -77.5t-35 -120q0 -70 35.5 -121.5t94 -78t124.5 -26.5q65 0 123 26.5z" />
    <glyph glyph-name="oe" unicode="&#x153;" horiz-adv-x="1343" 
d="M1324 253h-544q6 -69 52.5 -115t128.5 -46q44 0 83 15t62.5 43t23.5 64h194q0 -69 -43.5 -122.5t-125.5 -83.5t-195 -30q-84 0 -158 25t-126 70q-50 -45 -121 -69.5t-155 -24.5q-101 0 -189 38.5t-140.5 106t-52.5 149.5q0 83 52.5 150.5t140.5 106t189 38.5
q83 0 153.5 -24t120.5 -68q52 45 126 69.5t160 24.5q108 0 190 -36t127.5 -101.5t46.5 -153.5v-5h2h-2v-21zM790 342h333q-27 117 -162 117q-136 0 -171 -117zM523 148q51 43 51 125q0 83 -51 126t-123 43q-46 0 -88.5 -18.5t-69.5 -56.5t-27 -94q0 -55 27 -93t69.5 -56.5
t88.5 -18.5q72 0 123 43z" />
    <glyph glyph-name="Racute" unicode="&#x154;" horiz-adv-x="935" 
d="M662 1l-205 239h-209v-239h-200v740h541q93 0 164.5 -31t111 -86.5t39.5 -128.5v-4q0 -95 -55.5 -157t-153.5 -83l215 -250h-248zM684 559q-19 22 -49 27t-85 5q-24 0 -41 -1q-82 -2 -261 -2v-195h301h1q55 0 85 4.5t49 25.5t19 66q0 48 -19 70zM363 774l70 133h204
l-120 -133h-154z" />
    <glyph glyph-name="racute" unicode="&#x155;" horiz-adv-x="498" 
d="M226 454q78 85 245 101v-156h-125q-69 0 -93.5 -48t-24.5 -130v-221h-195v545h174zM147 578l70 133h204l-120 -133h-154z" />
    <glyph glyph-name="uni0156" unicode="&#x156;" horiz-adv-x="935" 
d="M662 1l-205 239h-209v-239h-200v740h541q93 0 164.5 -31t111 -86.5t39.5 -128.5v-4q0 -95 -55.5 -157t-153.5 -83l215 -250h-248zM684 559q-19 22 -49 27t-85 5q-24 0 -41 -1q-82 -2 -261 -2v-195h301h1q55 0 85 4.5t49 25.5t19 66q0 48 -19 70zM368 -32h149v-124
q-2 -39 -22.5 -63t-60.5 -24h-67v43h19q17 0 21 6t4 23v15h-43v124z" />
    <glyph glyph-name="uni0157" unicode="&#x157;" horiz-adv-x="498" 
d="M226 454q78 85 245 101v-156h-125q-69 0 -93.5 -48t-24.5 -130v-221h-195v545h174zM54 -34h149v-124q-2 -39 -22.5 -63t-60.5 -24h-67v43h19q17 0 21 6t4 23v15h-43v124z" />
    <glyph glyph-name="Rcaron" unicode="&#x158;" horiz-adv-x="935" 
d="M662 1l-205 239h-209v-239h-200v740h541q93 0 164.5 -31t111 -86.5t39.5 -128.5v-4q0 -95 -55.5 -157t-153.5 -83l215 -250h-248zM684 559q-19 22 -49 27t-85 5q-24 0 -41 -1q-82 -2 -261 -2v-195h301h1q55 0 85 4.5t49 25.5t19 66q0 48 -19 70zM456 841l91 68h189
l-180 -136h-204l-170 136h189z" />
    <glyph glyph-name="rcaron" unicode="&#x159;" horiz-adv-x="498" 
d="M226 454q78 85 245 101v-156h-125q-69 0 -93.5 -48t-24.5 -130v-221h-195v545h174zM241 647l91 68h189l-180 -136h-204l-170 136h189z" />
    <glyph glyph-name="Sacute" unicode="&#x15a;" horiz-adv-x="947" 
d="M557 435q105 0 182 -13t128.5 -56t51.5 -127q0 -154 -135 -208t-303 -54q-165 0 -309 55.5t-144 211.5l215 2q0 -55 42.5 -82t93 -33.5t109.5 -6.5q90 0 155 26t66 84v1q0 43 -64.5 55.5t-155.5 12.5h-1h-61q-120 0 -203 12.5t-139.5 58t-56.5 137.5q0 251 453 251
q161 0 299.5 -55t138.5 -212h-213q0 56 -65 85t-158 33q-101 0 -171.5 -24t-70.5 -75q0 -80 232 -80zM391 796l70 133h204l-120 -133h-154z" />
    <glyph glyph-name="sacute" unicode="&#x15b;" horiz-adv-x="740" 
d="M413 321l53 1q114 0 185 -30.5t71 -121.5q0 -118 -104 -155.5t-242 -37.5q-135 0 -247 41.5t-112 159.5l197 -1q0 -50 48 -68.5t114 -18.5q81 0 118 18t37 56q0 37 -42.5 47.5t-78.5 10.5h-44q-93 0 -166 9.5t-128 46t-55 110.5q0 111 108 145t249 34q134 0 241 -41
t107 -159l-194 1q0 52 -55 69t-99 17q-160 0 -160 -64q0 -68 156 -70q28 0 43 1zM281 600l70 133h204l-120 -133h-154z" />
    <glyph glyph-name="Scedilla" unicode="&#x15e;" horiz-adv-x="947" 
d="M557 435q105 0 182 -13t128.5 -56t51.5 -127q0 -139 -113.5 -196t-268.5 -65v-21q57 0 104.5 -18.5t46.5 -71.5q0 -68 -69.5 -91.5t-151.5 -23.5q-83 0 -146 23.5t-63 99.5h106q0 -34 34 -44t58 -10q26 0 57 7t31 36q0 20 -21.5 25.5t-41 5.5h-25.5h-38v84
q-155 9 -272.5 68t-117.5 197l215 2q0 -55 42.5 -82t93 -33.5t109.5 -6.5q90 0 155 26t66 84v1q0 43 -64.5 55.5t-155.5 12.5h-1h-61q-120 0 -203 12.5t-139.5 58t-56.5 137.5q0 251 453 251q161 0 299.5 -55t138.5 -212h-213q0 56 -65 85t-158 33q-101 0 -171.5 -24
t-70.5 -75q0 -80 232 -80z" />
    <glyph glyph-name="scedilla" unicode="&#x15f;" horiz-adv-x="740" 
d="M413 321l53 1q114 0 185 -30.5t71 -121.5q0 -178 -288 -192v-32q57 0 104.5 -18.5t46.5 -71.5q0 -68 -69.5 -91.5t-151.5 -23.5q-83 0 -146 23.5t-63 99.5h106q0 -34 34 -44t58 -10q26 0 57 7t31 36q0 20 -21.5 25.5t-41 5.5h-25.5h-38v95q-122 8 -210 52.5t-88 146.5
l197 -1q0 -50 48 -68.5t114 -18.5q81 0 118 18t37 56q0 37 -42.5 47.5t-78.5 10.5h-44q-93 0 -166 9.5t-128 46t-55 110.5q0 111 108 145t249 34q134 0 241 -41t107 -159l-194 1q0 52 -55 69t-99 17q-160 0 -160 -64q0 -68 156 -70q28 0 43 1z" />
    <glyph glyph-name="Scaron" unicode="&#x160;" horiz-adv-x="947" 
d="M557 435q105 0 182 -13t128.5 -56t51.5 -127q0 -154 -135 -208t-303 -54q-165 0 -309 55.5t-144 211.5l215 2q0 -55 42.5 -82t93 -33.5t109.5 -6.5q90 0 155 26t66 84v1q0 43 -64.5 55.5t-155.5 12.5h-1h-61q-120 0 -203 12.5t-139.5 58t-56.5 137.5q0 251 453 251
q161 0 299.5 -55t138.5 -212h-213q0 56 -65 85t-158 33q-101 0 -171.5 -24t-70.5 -75q0 -80 232 -80zM483 864l91 68h189l-180 -136h-204l-170 136h189z" />
    <glyph glyph-name="scaron" unicode="&#x161;" horiz-adv-x="740" 
d="M413 321l53 1q114 0 185 -30.5t71 -121.5q0 -118 -104 -155.5t-242 -37.5q-135 0 -247 41.5t-112 159.5l197 -1q0 -50 48 -68.5t114 -18.5q81 0 118 18t37 56q0 37 -42.5 47.5t-78.5 10.5h-44q-93 0 -166 9.5t-128 46t-55 110.5q0 111 108 145t249 34q134 0 241 -41
t107 -159l-194 1q0 52 -55 69t-99 17q-160 0 -160 -64q0 -68 156 -70q28 0 43 1zM367 668l91 68h189l-180 -136h-204l-170 136h189z" />
    <glyph glyph-name="uni0162" unicode="&#x162;" horiz-adv-x="921" 
d="M33 569v171h856zM567 0h-43v-40q57 0 104.5 -18.5t46.5 -71.5q0 -68 -69.5 -91.5t-151.5 -23.5q-83 0 -146 23.5t-63 99.5h106q0 -34 34 -44t58 -10q26 0 57 7t31 36q0 20 -21.5 25.5t-41 5.5h-25.5h-38v102h-46v568h-326v172h856v-172h-322v-568z" />
    <glyph glyph-name="uni0163" unicode="&#x163;" horiz-adv-x="463" 
d="M294 -32q57 0 104.5 -18.5t46.5 -71.5q0 -68 -69.5 -91.5t-151.5 -23.5q-84 0 -146.5 23.5t-62.5 99.5h106q0 -34 34 -44t58 -10q26 0 57 7t31 36q0 20 -21.5 25.5t-41 5.5h-25.5h-38v94h-38v405h-109v140h109v118l195 93v-211h104v-140h-104v-405h-38v-32z" />
    <glyph glyph-name="Tcaron" unicode="&#x164;" horiz-adv-x="921" 
d="M33 569v171h856zM889 740v-172h-322v-568h-208v568h-326v172h856zM461 841l91 68h189l-180 -136h-204l-170 136h189z" />
    <glyph glyph-name="tcaron" unicode="&#x165;" horiz-adv-x="463" 
d="M332 545h104v-140h-104v-405h-195v405h-109v140h109v118l195 93v-211zM233 842l91 68h189l-180 -136h-204l-170 136h189z" />
    <glyph glyph-name="Tbar" unicode="&#x166;" horiz-adv-x="916" 
d="M33 569v171h856zM889 740v-172h-322v-144h196v-114h-196v-310h-208v310h-198v114h198v144h-326v172h856z" />
    <glyph glyph-name="tbar" unicode="&#x167;" horiz-adv-x="443" 
d="M428 545v-140h-104v-72h104v-126h-104v-207h-195v207h-109v126h109v72h-109v140h109v118l195 93v-211h104z" />
    <glyph glyph-name="Umacron" unicode="&#x16a;" horiz-adv-x="977" 
d="M722 740h212v-385q0 -108 -58 -194t-157 -134t-220 -48q-125 0 -229 48t-165 133.5t-62 193.5v386h215v-389q0 -72 38.5 -116.5t93.5 -63.5t110 -19q49 0 100 19t86.5 63.5t35.5 116.5v389zM269 785v125h437v-125h-437z" />
    <glyph glyph-name="umacron" unicode="&#x16b;" horiz-adv-x="746" 
d="M519 545h195v-545h-195v70q-78 -88 -236 -88q-119 0 -184.5 78.5t-65.5 259.5v225h195v-222q0 -63 8.5 -107.5t39.5 -74.5t93 -30q90 0 120 59.5t30 154.5v220zM156 578v125h437v-125h-437z" />
    <glyph glyph-name="Uring" unicode="&#x16e;" horiz-adv-x="977" 
d="M722 740h212v-385q0 -108 -58 -194t-157 -134t-220 -48q-125 0 -229 48t-165 133.5t-62 193.5v386h215v-389q0 -72 38.5 -116.5t93.5 -63.5t110 -19q49 0 100 19t86.5 63.5t35.5 116.5v389zM351 1016q22 37 59.5 59t81.5 22q43 0 80.5 -22t59.5 -59.5t22 -80.5
q0 -44 -22 -81.5t-59 -59.5t-81 -22t-81.5 22t-59.5 59.5t-22 81.5t22 81zM441 884q21 -21 51 -21t51 21t21 51q0 29 -21.5 50.5t-50.5 21.5q-30 0 -51 -21t-21 -51t21 -51z" />
    <glyph glyph-name="uring" unicode="&#x16f;" horiz-adv-x="746" 
d="M519 545h195v-545h-195v70q-78 -88 -236 -88q-119 0 -184.5 78.5t-65.5 259.5v225h195v-222q0 -63 8.5 -107.5t39.5 -74.5t93 -30q90 0 120 59.5t30 154.5v220zM236 823q22 37 59.5 59t81.5 22q43 0 80.5 -22t59.5 -59.5t22 -80.5q0 -44 -22 -81.5t-59 -59.5t-81 -22
t-81.5 22t-59.5 59.5t-22 81.5t22 81zM326 691q21 -21 51 -21t51 21t21 51q0 29 -21.5 50.5t-50.5 21.5q-30 0 -51 -21t-21 -51t21 -51z" />
    <glyph glyph-name="Uhungarumlaut" unicode="&#x170;" horiz-adv-x="977" 
d="M722 740h212v-385q0 -108 -58 -194t-157 -134t-220 -48q-125 0 -229 48t-165 133.5t-62 193.5v386h215v-389q0 -72 38.5 -116.5t93.5 -63.5t110 -19q49 0 100 19t86.5 63.5t35.5 116.5v389zM316 777l70 133h130l-70 -133h-130zM507 777l70 133h130l-70 -133h-130z" />
    <glyph glyph-name="uhungarumlaut" unicode="&#x171;" horiz-adv-x="746" 
d="M519 545h195v-545h-195v70q-78 -88 -236 -88q-119 0 -184.5 78.5t-65.5 259.5v225h195v-222q0 -63 8.5 -107.5t39.5 -74.5t93 -30q90 0 120 59.5t30 154.5v220zM209 579l70 133h130l-70 -133h-130zM400 579l70 133h130l-70 -133h-130z" />
    <glyph glyph-name="Uogonek" unicode="&#x172;" horiz-adv-x="977" 
d="M722 740h212v-385q0 -96 -45.5 -174t-125 -129t-180.5 -67v-1h-11l-24 -3q-31 -6 -41 -22.5t-10 -43.5q0 -33 16.5 -51t69.5 -18v-43q-68 -2 -107.5 8.5t-57 35t-17.5 68.5q0 43 18 69q-106 14 -191.5 65t-134.5 130t-50 175v386h215v-389q0 -72 38.5 -116.5t93.5 -63.5
t110 -19q49 0 100 19t86.5 63.5t35.5 116.5v389z" />
    <glyph glyph-name="uogonek" unicode="&#x173;" horiz-adv-x="746" 
d="M519 545h195v-545h-3q-53 0 -69.5 -18t-16.5 -51t16.5 -51t69.5 -18v-43q-68 -2 -107.5 8.5t-57 35t-17.5 68.5q0 45 18 69h-28v70q-78 -88 -236 -88q-119 0 -184.5 78.5t-65.5 259.5v225h195v-222q0 -63 8.5 -107.5t39.5 -74.5t93 -30q90 0 120 59.5t30 154.5v220z" />
    <glyph glyph-name="Wcircumflex" unicode="&#x174;" horiz-adv-x="1510" 
d="M1037 251l251 489h215l-380 -740h-215l-151 448l-149 -448h-215l-385 740h220l252 -490l169 490h220zM853 910l180 -136h-189l-91 68l-85 -68h-189l170 136h204z" />
    <glyph glyph-name="wcircumflex" unicode="&#x175;" horiz-adv-x="1157" 
d="M777 183l157 362h211l-272 -545h-180l-114 335l-115 -335h-179l-272 545h210l157 -363l102 363h193zM680 730l180 -136h-189l-91 68l-85 -68h-189l170 136h204z" />
    <glyph glyph-name="Ycircumflex" unicode="&#x176;" horiz-adv-x="951" 
d="M718 740h225l-355 -429v-311h-225v310l-355 430h225l238 -290zM570 910l180 -136h-189l-91 68l-85 -68h-189l170 136h204z" />
    <glyph glyph-name="ycircumflex" unicode="&#x177;" horiz-adv-x="848" 
d="M838 545l-330 -668q-30 -59 -113 -76.5t-190 -17.5l-1 163q54 0 74.5 8t20.5 22q0 6 -3 14t-4 10l-282 545h211l208 -442l198 442h211zM507 730l180 -136h-189l-91 68l-85 -68h-189l170 136h204z" />
    <glyph glyph-name="Ydieresis" unicode="&#x178;" horiz-adv-x="951" 
d="M718 740h225l-355 -429v-311h-225v310l-355 430h225l238 -290zM283.5 809q-25.5 26 -25.5 63t26 63t63 26t62.5 -26t25.5 -63t-25.5 -63t-62.5 -26q-38 0 -63.5 26zM534 809q-26 26 -26 63t26.5 63t63.5 26t62.5 -26t25.5 -63t-25.5 -63t-62.5 -26q-38 0 -64 26z" />
    <glyph glyph-name="Zacute" unicode="&#x179;" horiz-adv-x="896" 
d="M35 741l834 -1v-171l-559 -398l553 -1v-171l-835 1v171h3l557 399l-553 1v170zM349 777l70 133h204l-120 -133h-154z" />
    <glyph glyph-name="zacute" unicode="&#x17a;" horiz-adv-x="735" 
d="M33 545l670 -1v-138l-406 -268l406 -1v-137l-670 1v138l414 268l-414 1v137zM279 578l70 133h204l-120 -133h-154z" />
    <glyph glyph-name="Zdotaccent" unicode="&#x17b;" horiz-adv-x="896" 
d="M35 741l834 -1v-171l-559 -398l553 -1v-171l-835 1v171h3l557 399l-553 1v170zM385.5 809q-25.5 26 -25.5 63t26 63t63 26t62.5 -26t25.5 -63t-25.5 -63t-62.5 -26q-38 0 -63.5 26z" />
    <glyph glyph-name="zdotaccent" unicode="&#x17c;" horiz-adv-x="735" 
d="M33 545l670 -1v-138l-406 -268l406 -1v-137l-670 1v138l414 268l-414 1v137zM311.5 604q-25.5 26 -25.5 63t26 63t63 26t62.5 -26t25.5 -63t-25.5 -63t-62.5 -26q-38 0 -63.5 26z" />
    <glyph glyph-name="Zcaron" unicode="&#x17d;" horiz-adv-x="896" 
d="M35 741l834 -1v-171l-559 -398l553 -1v-171l-835 1v171h3l557 399l-553 1v170zM456 842l91 68h189l-180 -136h-204l-170 136h189z" />
    <glyph glyph-name="zcaron" unicode="&#x17e;" horiz-adv-x="735" 
d="M33 545l670 -1v-138l-406 -268l406 -1v-137l-670 1v138l414 268l-414 1v137zM372 646l91 68h189l-180 -136h-204l-170 136h189z" />
    <glyph glyph-name="uni0218" unicode="&#x218;" horiz-adv-x="947" 
d="M557 435q105 0 182 -13t128.5 -56t51.5 -127q0 -154 -135 -208t-303 -54q-165 0 -309 55.5t-144 211.5l215 2q0 -55 42.5 -82t93 -33.5t109.5 -6.5q90 0 155 26t66 84v1q0 43 -64.5 55.5t-155.5 12.5h-1h-61q-120 0 -203 12.5t-139.5 58t-56.5 137.5q0 251 453 251
q161 0 299.5 -55t138.5 -212h-213q0 56 -65 85t-158 33q-101 0 -171.5 -24t-70.5 -75q0 -80 232 -80zM412 -53h149v-124q-2 -39 -22.5 -63t-60.5 -24h-67v43h19q17 0 21 6t4 23v15h-43v124z" />
    <glyph glyph-name="uni0219" unicode="&#x219;" horiz-adv-x="740" 
d="M413 321l53 1q114 0 185 -30.5t71 -121.5q0 -118 -104 -155.5t-242 -37.5q-135 0 -247 41.5t-112 159.5l197 -1q0 -50 48 -68.5t114 -18.5q81 0 118 18t37 56q0 37 -42.5 47.5t-78.5 10.5h-44q-93 0 -166 9.5t-128 46t-55 110.5q0 111 108 145t249 34q134 0 241 -41
t107 -159l-194 1q0 52 -55 69t-99 17q-160 0 -160 -64q0 -68 156 -70q28 0 43 1zM304 -57h149v-124q-2 -39 -22.5 -63t-60.5 -24h-67v43h19q17 0 21 6t4 23v15h-43v124z" />
    <glyph glyph-name="uni021A" unicode="&#x21a;" horiz-adv-x="921" 
d="M33 569v171h856zM889 740v-172h-322v-568h-208v568h-326v172h856zM386 -34h149v-124q-2 -39 -22.5 -63t-60.5 -24h-67v43h19q17 0 21 6t4 23v15h-43v124z" />
    <glyph glyph-name="uni021B" unicode="&#x21b;" horiz-adv-x="463" 
d="M332 545h104v-140h-104v-405h-195v405h-109v140h109v118l195 93v-211zM161 -34h149v-124q-2 -39 -22.5 -63t-60.5 -24h-67v43h19q17 0 21 6t4 23v15h-43v124z" />
    <glyph glyph-name="uni02BC" unicode="&#x2bc;" horiz-adv-x="223" 
d="M15 630v110h193v-110l-87 -104h-103l88 104h-91z" />
    <glyph glyph-name="circumflex" unicode="&#x2c6;" horiz-adv-x="580" 
d="M388 910l180 -136h-189l-91 68l-85 -68h-189l170 136h204z" />
    <glyph glyph-name="caron" unicode="&#x2c7;" horiz-adv-x="600" 
d="M288 842l91 68h189l-180 -136h-204l-170 136h189z" />
    <glyph glyph-name="breve" unicode="&#x2d8;" horiz-adv-x="598" 
d="M545 924q0 -99 -68.5 -149t-177.5 -50q-111 0 -180 50t-69 149h128q0 -49 34.5 -82t85.5 -33q50 0 84.5 33t34.5 82h128z" />
    <glyph glyph-name="dotaccent" unicode="&#x2d9;" horiz-adv-x="303" 
d="M88.5 809q-25.5 26 -25.5 63t26 63t63 26t62.5 -26t25.5 -63t-25.5 -63t-62.5 -26q-38 0 -63.5 26z" />
    <glyph glyph-name="ring" unicode="&#x2da;" horiz-adv-x="513" 
d="M72 1016q22 37 59.5 59t81.5 22q43 0 80.5 -22t59.5 -59.5t22 -80.5q0 -44 -22 -81.5t-59 -59.5t-81 -22t-81.5 22t-59.5 59.5t-22 81.5t22 81zM162 884q21 -21 51 -21t51 21t21 51q0 29 -21.5 50.5t-50.5 21.5q-30 0 -51 -21t-21 -51t21 -51z" />
    <glyph glyph-name="ogonek" unicode="&#x2db;" horiz-adv-x="600" 
d="M485 4q-53 0 -69.5 -18t-16.5 -51t16.5 -51t69.5 -18v-43q-68 -2 -107.5 8.5t-57 35t-17.5 68.5t17.5 68.5t57 35t107.5 8.5v-43z" />
    <glyph glyph-name="tilde" unicode="&#x2dc;" horiz-adv-x="600" 
d="M552 940q0 -142 -119 -142q-28 0 -55 6t-47.5 12.5t-27.5 8.5q-34 9 -70 9q-61 0 -61 -35h-118q0 142 120 142q32 0 61 -7.5t68 -19.5q34 -9 70 -9q61 0 61 35h118z" />
    <glyph glyph-name="hungarumlaut" unicode="&#x2dd;" horiz-adv-x="600" 
d="M96 777l70 133h130l-70 -133h-130zM287 777l70 133h130l-70 -133h-130z" />
    <glyph glyph-name="gravecomb" unicode="&#x300;" horiz-adv-x="0" 
d="M-364 910h204l70 -133h-154z" />
    <glyph glyph-name="acutecomb" unicode="&#x301;" horiz-adv-x="0" 
d="M-351 777l70 133h204l-120 -133h-154z" />
    <glyph glyph-name="uni0302" unicode="&#x302;" horiz-adv-x="0" 
d="M-192 910l180 -136h-189l-91 68l-85 -68h-189l170 136h204z" />
    <glyph glyph-name="tildecomb" unicode="&#x303;" horiz-adv-x="0" 
d="M-48 940q0 -142 -119 -142q-28 0 -55 6t-47.5 12.5t-27.5 8.5q-34 9 -70 9q-61 0 -61 -35h-118q0 142 120 142q32 0 61 -7.5t68 -19.5q34 -9 70 -9q61 0 61 35h118z" />
    <glyph glyph-name="uni0304" unicode="&#x304;" horiz-adv-x="0" 
d="M-515 785v125h437v-125h-437z" />
    <glyph glyph-name="uni0306" unicode="&#x306;" horiz-adv-x="0" 
d="M-53 924q0 -99 -68.5 -149t-177.5 -50q-111 0 -180 50t-69 149h128q0 -49 34.5 -82t85.5 -33q50 0 84.5 33t34.5 82h128z" />
    <glyph glyph-name="uni0307" unicode="&#x307;" horiz-adv-x="0" 
d="M-214.5 809q-25.5 26 -25.5 63t26 63t63 26t62.5 -26t25.5 -63t-25.5 -63t-62.5 -26q-38 0 -63.5 26z" />
    <glyph glyph-name="uni0308" unicode="&#x308;" horiz-adv-x="0" 
d="M-489.5 809q-25.5 26 -25.5 63t26 63t63 26t62.5 -26t25.5 -63t-25.5 -63t-62.5 -26q-38 0 -63.5 26zM-239 809q-26 26 -26 63t26.5 63t63.5 26t62.5 -26t25.5 -63t-25.5 -63t-62.5 -26q-38 0 -64 26z" />
    <glyph glyph-name="uni030A" unicode="&#x30a;" horiz-adv-x="0" 
d="M-353 1016q22 37 59.5 59t81.5 22q43 0 80.5 -22t59.5 -59.5t22 -80.5q0 -44 -22 -81.5t-59 -59.5t-81 -22t-81.5 22t-59.5 59.5t-22 81.5t22 81zM-263 884q21 -21 51 -21t51 21t21 51q0 29 -21.5 50.5t-50.5 21.5q-30 0 -51 -21t-21 -51t21 -51z" />
    <glyph glyph-name="uni030B" unicode="&#x30b;" horiz-adv-x="0" 
d="M-504 777l70 133h130l-70 -133h-130zM-313 777l70 133h130l-70 -133h-130z" />
    <glyph glyph-name="uni030C" unicode="&#x30c;" horiz-adv-x="0" 
d="M-312 842l91 68h189l-180 -136h-204l-170 136h189z" />
    <glyph glyph-name="uni0312" unicode="&#x312;" horiz-adv-x="0" 
d="M-59 851h43v-124h-149v124q2 39 22.5 63t60.5 24h67v-43h-19q-17 0 -21 -6t-4 -23v-15z" />
    <glyph glyph-name="uni0326" unicode="&#x326;" horiz-adv-x="0" 
d="M-164 -3h149v-124q-2 -39 -22.5 -63t-60.5 -24h-67v43h19q17 0 21 6t4 23v15h-43v124z" />
    <glyph glyph-name="uni0327" unicode="&#x327;" horiz-adv-x="0" 
d="M-250 -42q57 0 104.5 -18.5t46.5 -71.5q0 -68 -69.5 -91.5t-151.5 -23.5q-83 0 -146 23.5t-63 99.5h106q0 -34 34 -44t58 -10q26 0 57 7t31 36q0 20 -21.5 25.5t-41 5.5h-25.5h-38v202h119v-140z" />
    <glyph glyph-name="uni0328" unicode="&#x328;" horiz-adv-x="0" 
d="M-115 4q-53 0 -69.5 -18t-16.5 -51t16.5 -51t69.5 -18v-43q-68 -2 -107.5 8.5t-57 35t-17.5 68.5t17.5 68.5t57 35t107.5 8.5v-43z" />
    <glyph glyph-name="Alphatonos" unicode="&#x386;" horiz-adv-x="600" 
 />
    <glyph glyph-name="uni0400" unicode="&#x400;" horiz-adv-x="856" 
d="M739 302h-484v-148l568 4v-158h-775v740h775l1 -157h-569v-126h484v-155zM243 910h204l70 -133h-154z" />
    <glyph glyph-name="uni0401" unicode="&#x401;" horiz-adv-x="856" 
d="M218 801q-25 25 -25 62q0 36 25 61.5t62 25.5t62 -25.5t25 -61.5q0 -37 -25 -62t-62 -25t-62 25zM518.5 801q-25.5 25 -25.5 62q0 36 25.5 61.5t62.5 25.5q36 0 61.5 -25.5t25.5 -61.5q0 -37 -25.5 -62t-61.5 -25q-37 0 -62.5 25zM739 301h-484v-147l568 4v-158h-775v740
h775l1 -157h-569v-125h484v-157z" />
    <glyph glyph-name="uni0402" unicode="&#x402;" horiz-adv-x="1004" 
d="M826 482q71 -30 110.5 -88t39.5 -139v-4q0 -115 -81.5 -183t-234.5 -68h-183v144h160q143 0 143 107q0 64 -43 99.5t-154 35.5q-132 0 -213 -37v-349h-207v611h-145v129h578v-129h-226v-147q99 48 290 48q95 0 166 -30z" />
    <glyph glyph-name="uni0403" unicode="&#x403;" horiz-adv-x="754" 
d="M726 740v-155h-471v-585h-207v740h678zM266 777l70 133h204l-120 -133h-154z" />
    <glyph glyph-name="uni0404" unicode="&#x404;" horiz-adv-x="987" 
d="M650 180.5q65 36.5 95 105.5h218q-27 -95 -91 -163.5t-158 -105.5t-210 -37q-140 0 -249.5 50.5t-170 139.5t-60.5 199q0 111 63.5 200t173 139.5t243.5 50.5q116 0 211.5 -37.5t159 -107t88.5 -163.5l-216 -1q-16 46 -55 79t-89 50t-98 17q-54 0 -107 -19t-93 -55.5
t-56 -87.5h314v-129h-315q23 -77 95 -119t162 -42q80 0 145 36.5z" />
    <glyph glyph-name="uni0405" unicode="&#x405;" horiz-adv-x="947" 
d="M557 435q105 0 182 -13t128.5 -56t51.5 -127q0 -154 -135 -208t-303 -54q-165 0 -309 55.5t-144 211.5l215 2q0 -55 42.5 -82t93 -33.5t109.5 -6.5q90 0 155 26t66 84v1q0 43 -64.5 55.5t-155.5 12.5h-1h-61q-120 0 -203 12.5t-139.5 58t-56.5 137.5q0 251 453 251
q161 0 299.5 -55t138.5 -212h-213q0 56 -65 85t-158 33q-101 0 -171.5 -24t-70.5 -75q0 -80 232 -80z" />
    <glyph glyph-name="uni0406" unicode="&#x406;" horiz-adv-x="303" 
d="M255 0h-207v740h207v-740z" />
    <glyph glyph-name="uni0407" unicode="&#x407;" horiz-adv-x="303" 
d="M255 0h-207v740h207v-740zM-41.5 809q-25.5 26 -25.5 63t26 63t63 26t62.5 -26t25.5 -63t-25.5 -63t-62.5 -26q-38 0 -63.5 26zM209 809q-26 26 -26 63t26.5 63t63.5 26t62.5 -26t25.5 -63t-25.5 -63t-62.5 -26q-38 0 -64 26z" />
    <glyph glyph-name="uni0408" unicode="&#x408;" horiz-adv-x="816" 
d="M769 740v-445q0 -71 -32.5 -137.5t-115.5 -112t-223 -45.5q-132 0 -215.5 54.5t-119 127t-35.5 131.5h197q0 -41 21 -78t62 -59.5t97 -22.5q49 0 85.5 19.5t56 52t19.5 70.5v445h203z" />
    <glyph glyph-name="uni0409" unicode="&#x409;" horiz-adv-x="1485" 
d="M814 283q-1 -11 -1 -33zM1322 482q71 -30 110.5 -88t39.5 -139v-4q0 -74 -39.5 -131t-111 -88.5t-164.5 -31.5h-458v585h-281q-21 -135 -45.5 -236t-69.5 -204q-30 -63 -81.5 -94t-81 -36.5t-102.5 -14.5v176q76 0 103 76q70 222 89 488h676v-228h248h2q95 0 166 -30z
M1244 164.5q37 23.5 37 90.5q0 48 -18 71.5t-44.5 30t-65.5 6.5h-2h-245v-221q176 0 208 -1h35q58 0 95 23.5z" />
    <glyph glyph-name="uni040A" unicode="&#x40a;" horiz-adv-x="1484" 
d="M808 273q-1 -7 -1 -21zM1316 482q71 -30 110.5 -88t39.5 -139v-4q0 -74 -39.5 -131t-111 -88.5t-164.5 -31.5h-456v302h-440v-302h-207v740h207v-269h440v269h208v-228h245h2q95 0 166 -30zM1237 165.5q34 24.5 34 89.5q0 45 -16 69t-45 32t-78 8h-1h-228v-221l229 -2
q71 0 105 24.5z" />
    <glyph glyph-name="uni040B" unicode="&#x40b;" horiz-adv-x="990" 
d="M764.5 527q84.5 -36 135 -111t50.5 -186v-230h-197v227q0 80 -51.5 129.5t-156.5 49.5q-98 0 -145 -42.5t-47 -133.5v-230h-198v611h-137v129h620v-129h-285v-132q78 84 225 84q102 0 186.5 -36z" />
    <glyph glyph-name="uni040C" unicode="&#x40c;" horiz-adv-x="859" 
d="M426 401l434 -401h-269l-336 323v-323h-207v740h207v-269l318 269h272zM325 777l70 133h204l-120 -133h-154z" />
    <glyph glyph-name="uni040D" unicode="&#x40d;" horiz-adv-x="980" 
d="M255 740v-502l470 502h208v-740h-208v502l-470 -502h-207v740h207zM327 910h204l70 -133h-154z" />
    <glyph glyph-name="uni040E" unicode="&#x40e;" horiz-adv-x="903" 
d="M911 740l-372 -628q-35 -64 -138.5 -91t-213.5 -23v158q65 0 87.5 10t22.5 27q0 8 -2 18l-303 529h222l231 -426l245 426h221zM709 945q0 -99 -68.5 -149t-177.5 -50q-112 0 -181.5 50t-67.5 149h135q0 -46 29 -77t84 -31t83.5 31t28.5 77h135z" />
    <glyph glyph-name="uni040F" unicode="&#x40f;" horiz-adv-x="970" 
d="M713 155v585h210v-740h-342v-95h-192v95h-341v740h210v-585h455z" />
    <glyph glyph-name="uni0410" unicode="&#x410;" 
d="M1010 0h-213l-77 142h-443l-77 -142h-213l402 740h220zM499 551l-140 -257h279z" />
    <glyph glyph-name="uni0411" unicode="&#x411;" horiz-adv-x="929" 
d="M751.5 455q89.5 -27 125 -78t35.5 -129v-3q0 -105 -83 -175.5t-294 -71.5h-487v741h811v-147h-614v-110h259q158 0 247.5 -27zM658.5 175q42.5 23 42.5 79q0 38 -19 57t-57 26t-105 7h-1h-274v-191q147 0 193 -0.5t58 -0.5h24q96 0 138.5 23z" />
    <glyph glyph-name="uni0412" unicode="&#x412;" horiz-adv-x="994" 
d="M924 329.5q43 -41.5 43 -118.5v-4q0 -82 -44 -127t-122 -62.5t-196 -18.5h-2h-40l-515 1v740h603q116 -1 185 -48t69 -133v-4q0 -65 -27 -106t-81 -61q84 -17 127 -58.5zM685 579.5q-17 16.5 -44.5 20.5t-78.5 4h-1h-316v-156l240 -2h77q54 0 79 3t43 20t18 57
q0 37 -17 53.5zM686 151.5q30 4.5 48 23.5t18 61q0 41 -18 59.5t-48 22.5t-91 4h-1h-349v-173q217 0 309 -2h41q61 0 91 4.5z" />
    <glyph glyph-name="uni0413" unicode="&#x413;" horiz-adv-x="754" 
d="M726 740v-155h-471v-585h-207v740h678z" />
    <glyph glyph-name="uni0414" unicode="&#x414;" horiz-adv-x="1010" 
d="M891 160h99v-256h-196v95l-577 1v-96h-196v256h67q84 153 123 284.5t39 295.5h640zM434 585q-15 -112 -50.5 -213t-92.5 -212h405v424z" />
    <glyph glyph-name="uni0415" unicode="&#x415;" horiz-adv-x="856" 
d="M739 302h-484v-148l568 4v-158h-775v740h775l1 -157h-569v-126h484v-155z" />
    <glyph glyph-name="uni0416" unicode="&#x416;" horiz-adv-x="1407" 
d="M976 401l433 -401h-268l-336 322v-322h-208v317l-330 -317h-269l434 401l-419 339h272l312 -264v264h208v-268l318 268h271z" />
    <glyph glyph-name="uni0417" unicode="&#x417;" horiz-adv-x="977" 
d="M950 245q-1 -139 -126 -203t-326 -64q-224 0 -345.5 80t-121.5 231h199q0 -86 78 -126t190 -39q100 -1 171 28t72 93q-1 30 -15.5 45t-54 21.5t-119.5 6.5h-185v134h185q90 0 135.5 18t45.5 58q0 44 -68.5 65.5t-166.5 22.5q-112 1 -190 -23.5t-78 -77.5h-199
q0 144 145.5 195.5t321.5 51.5q107 0 199.5 -13.5t162.5 -62.5t70 -145q0 -103 -105 -140q118 -38 125 -154v-2v0z" />
    <glyph glyph-name="uni0418" unicode="&#x418;" horiz-adv-x="980" 
d="M255 740v-502l470 502h208v-740h-208v502l-470 -502h-207v740h207z" />
    <glyph glyph-name="uni0419" unicode="&#x419;" horiz-adv-x="980" 
d="M308.5 774.5q-69.5 49.5 -68.5 149.5h121q-1 -50 34.5 -81.5t92.5 -31.5q55 0 91 32t36 81h120q0 -99 -68.5 -149t-177.5 -50q-111 0 -180.5 49.5zM255 238l470 502h208v-740h-208v502l-470 -502h-207v740h207v-502z" />
    <glyph glyph-name="uni041A" unicode="&#x41a;" horiz-adv-x="859" 
d="M426 401l434 -401h-269l-336 323v-323h-207v740h207v-269l318 269h272z" />
    <glyph glyph-name="uni041B" unicode="&#x41b;" horiz-adv-x="944" 
d="M896 740v-740h-207v585h-281q-21 -135 -45.5 -236t-69.5 -204q-30 -63 -81.5 -94t-81 -36.5t-102.5 -14.5v176q76 0 103 76q70 222 89 488h676z" />
    <glyph glyph-name="uni041C" unicode="&#x41c;" horiz-adv-x="1111" 
d="M1064 740v-740h-208v398l-194 -398h-198l-209 406v-406h-207v740h243l271 -540l263 540h239z" />
    <glyph glyph-name="uni041D" unicode="&#x41d;" horiz-adv-x="950" 
d="M255 471h440v269h208v-740h-208v302h-440v-302h-207v740h207v-269z" />
    <glyph glyph-name="uni041E" unicode="&#x41e;" horiz-adv-x="994" 
d="M740 705.5q107 -50.5 168 -139t61 -199.5q0 -110 -61 -198t-168 -138.5t-241 -50.5q-129 0 -237.5 50.5t-172.5 139t-64 197.5q0 110 63.5 199t172.5 139.5t238 50.5q134 0 241 -50.5zM622 169.5q58 26.5 94 77t36 120.5q0 69 -36 120.5t-94 78.5t-123 27
q-67 0 -125.5 -26.5t-93.5 -77.5t-35 -120q0 -70 35.5 -121.5t94 -78t124.5 -26.5q65 0 123 26.5z" />
    <glyph glyph-name="uni041F" unicode="&#x41f;" horiz-adv-x="970" 
d="M923 740v-740h-210v585h-455v-585h-210v740h875z" />
    <glyph glyph-name="uni0420" unicode="&#x420;" horiz-adv-x="931" 
d="M753.5 709q71.5 -31 111 -86.5t39.5 -128.5v-4q0 -121 -77.5 -185.5t-219.5 -64.5h-351v-240h-208v740h541q93 0 164.5 -31zM641.5 397.5q29.5 4.5 50 25t20.5 66.5q0 47 -20.5 68.5t-51 26.5t-83.5 5h-37q-23 0 -79.5 -0.5t-185.5 -0.5v-195h301h1q55 0 84.5 4.5z" />
    <glyph glyph-name="uni0421" unicode="&#x421;" horiz-adv-x="995" 
d="M91.5 569q63.5 89 173 139.5t243.5 50.5q116 0 211.5 -37.5t159 -107t88.5 -163.5l-216 -1q-17 46 -57 79t-90 50t-95 17q-65 0 -126.5 -27t-100.5 -78.5t-39 -121.5q0 -71 37 -121.5t98 -77t131 -26.5q74 0 140.5 37t99.5 105h218q-27 -95 -91 -163.5t-158 -105.5
t-210 -37q-133 0 -243 51t-173.5 140t-63.5 198q0 111 63.5 200z" />
    <glyph glyph-name="uni0422" unicode="&#x422;" horiz-adv-x="921" 
d="M33 569v171h856zM889 740v-172h-322v-568h-208v568h-326v172h856z" />
    <glyph glyph-name="uni0423" unicode="&#x423;" horiz-adv-x="903" 
d="M911 740l-372 -628q-35 -64 -138.5 -91t-213.5 -23v158q65 0 87.5 10t22.5 27q0 8 -2 18l-303 529h222l231 -426l245 426h221z" />
    <glyph glyph-name="uni0424" unicode="&#x424;" horiz-adv-x="1331" 
d="M1248.5 216.5q-64.5 -68.5 -177.5 -108t-254 -39.5h-40v-69h-208v69h-31h-6h-1q-136 0 -254 40t-188.5 108.5t-70.5 151.5q0 84 70 152t187 108t253 41h41v70h208v-70h40q141 -1 254.5 -40t177.5 -107.5t64 -153.5q0 -84 -64.5 -152.5zM569 225v290h-28q-114 0 -205 -34
t-91 -112q0 -76 91 -110t205 -34h28zM814 225q115 0 197 33.5t82 110.5q0 79 -83.5 112.5t-196.5 33.5h-36v-290h37z" />
    <glyph glyph-name="uni0425" unicode="&#x425;" horiz-adv-x="917" 
d="M665 740h239l-292 -373l292 -367h-239l-206 256l-206 -256h-240l293 367l-293 373h240l206 -258z" />
    <glyph glyph-name="uni0426" unicode="&#x426;" horiz-adv-x="1034" 
d="M703 740h207v-580h106v-290h-210v130h-758v740h207v-580h448v580z" />
    <glyph glyph-name="uni0427" unicode="&#x427;" horiz-adv-x="875" 
d="M630 740h198v-740h-198v262q-78 -84 -225 -84q-102 0 -186.5 36t-135 110.5t-50.5 185.5v230h197v-227q0 -80 51.5 -129.5t156.5 -49.5q98 0 145 42.5t47 133.5v230z" />
    <glyph glyph-name="uni0428" unicode="&#x428;" horiz-adv-x="1391" 
d="M48 740h207h-207zM799 160h337v580h208v-740h-1296v740h207v-580h337v580h207v-580z" />
    <glyph glyph-name="uni0429" unicode="&#x429;" horiz-adv-x="1481" 
d="M1136 740h208v-580h105v-290h-208v130h-1193v740h207v-580h337v580h207v-580h337v580z" />
    <glyph glyph-name="uni042A" unicode="&#x42a;" horiz-adv-x="1021" 
d="M336 273q-1 -7 -1 -21zM913.5 440q80.5 -67 80.5 -185v-4q0 -74 -39.5 -131t-111 -88.5t-164.5 -31.5h-499v589h-162v151h370v-228h308q137 -5 217.5 -72zM802 257q0 65 -33.5 88.5t-95.5 23.5h-1h-284v-226q134 0 186 -0.5t70 -0.5h29q129 0 129 115z" />
    <glyph glyph-name="uni042B" unicode="&#x42b;" horiz-adv-x="1159" 
d="M545 512q95 0 166 -30t110.5 -88t39.5 -139v-4q0 -74 -39.5 -131t-111 -88.5t-164.5 -31.5h-498v740h207v-228h290zM904 0v740h207v-740h-207zM670 257q0 65 -34 88.5t-96 23.5h-1h-284v-226q134 0 186 -0.5t70 -0.5h29q130 0 130 115z" />
    <glyph glyph-name="uni042C" unicode="&#x42c;" horiz-adv-x="889" 
d="M711 482q71 -30 110.5 -88t39.5 -139v-4q0 -74 -39.5 -131t-111 -88.5t-164.5 -31.5h-498v740h207v-228h288h2q95 0 166 -30zM670 257q0 65 -34 88.5t-96 23.5h-1h-284v-226q134 0 186 -0.5t70 -0.5h29q130 0 130 115z" />
    <glyph glyph-name="uni042D" unicode="&#x42d;" horiz-adv-x="987" 
d="M727 708.5q110 -50.5 173.5 -139.5t63.5 -200q0 -110 -61 -199t-170.5 -139.5t-249.5 -50.5q-116 0 -210 37t-158 105.5t-91 163.5h219q30 -69 94.5 -105.5t144.5 -36.5q91 0 163 42.5t95 118.5h-315v129h314q-16 50 -56.5 87t-93.5 56t-107 19q-47 0 -97 -17t-89.5 -50
t-55.5 -79l-216 1q25 94 89 163.5t159 107t211 37.5q134 0 244 -50.5z" />
    <glyph glyph-name="uni042E" unicode="&#x42e;" horiz-adv-x="1314" 
d="M1057 708.5q107 -50.5 168 -139t61 -199.5q0 -110 -60.5 -198.5t-167.5 -139t-241 -50.5q-113 0 -213.5 39.5t-169 110t-90.5 160.5h-89v-287h-208v740h208v-278h94q26 86 94.5 152.5t165.5 103t207 36.5q134 0 241 -50.5zM939.5 171.5q58.5 26.5 94.5 77.5t36 121
q0 69 -36 120t-94.5 78t-122.5 27q-69 0 -129 -27t-96.5 -78t-36.5 -120q0 -70 37.5 -121t97.5 -77.5t127 -26.5q64 0 122.5 26.5z" />
    <glyph glyph-name="uni042F" unicode="&#x42f;" horiz-adv-x="922" 
d="M699 459v-66q1 78 0 66zM875 1h-201v239h-214l-205 -239h-242l215 250q-98 21 -153.5 83t-55.5 157v4q0 73 39.5 128.5t111 86.5t164.5 31h541v-740zM296.5 586q-30.5 -5 -50 -27t-19.5 -70q0 -45 19.5 -66t50 -25.5t85.5 -4.5h2h290v195q-171 0 -251 2q-17 1 -41 1
q-55 0 -85.5 -5z" />
    <glyph glyph-name="uni0430" unicode="&#x430;" horiz-adv-x="776" 
d="M635 521q109 -48 109 -169v-352h-182l-16 83v5q-23 -46 -105.5 -72t-179.5 -26q-78 0 -158 32.5t-80 140.5q0 103 68.5 136t147.5 33q153 0 212 2.5t77.5 10.5t19.5 29v11q-1 35 -49.5 54.5t-111.5 19.5q-68 0 -115.5 -22.5t-47.5 -69.5h-195q0 77 58.5 122t140 62.5
t160.5 17.5q138 0 247 -48zM547 272q-48 -22 -147 -22q-67 0 -104.5 -5t-55 -17.5t-18.5 -36.5q3 -33 34.5 -50t106.5 -17q99 0 141.5 43t42.5 104v1z" />
    <glyph glyph-name="uni0431" unicode="&#x431;" horiz-adv-x="806" 
d="M769 252v-1q-1 -135 -98.5 -201t-262.5 -66q-177 0 -273 70t-116 231q-1 16 -1 47q0 163 63 245t151.5 105t206.5 23h2q43 -2 103 4t60 31l180 -1q0 -78 -48.5 -116.5t-115.5 -48.5t-158 -10h-38q-173 0 -210 -133q49 29 114.5 39t142.5 10q134 0 215.5 -59.5
t82.5 -167.5v-1zM576 252q0 68 -45.5 96t-113.5 28q-97 -1 -143 -22t-54 -64q-1 -9 -1 -24q0 -60 33 -89.5t74 -37t89 -7.5q161 0 161 120z" />
    <glyph glyph-name="uni0432" unicode="&#x432;" horiz-adv-x="798" 
d="M224 192q-1 -8 -1 -21zM748.5 241.5q32.5 -30.5 32.5 -87.5v-2q0 -80 -70 -116t-217 -37h-2h-26h-433v546h485h7q101 0 155.5 -34t54.5 -99v-4q0 -48 -20.5 -78t-63.5 -45q65 -13 97.5 -43.5zM532 421.5q-14 11.5 -36 14t-63 2.5h-209v-111q64 0 89 -1q114 0 114 -1h-27
h33q42 0 63 2.5t35.5 15t14.5 41.5q0 26 -14 37.5zM528 118q26 3 42.5 15.5t16.5 40.5q0 27 -16.5 39.5t-42.5 15.5t-74 3h-2h-228v-117h230q48 0 74 3z" />
    <glyph glyph-name="uni0433" unicode="&#x433;" horiz-adv-x="560" 
d="M540 545v-134h-302v-411h-205v545h507z" />
    <glyph glyph-name="uni0434" unicode="&#x434;" horiz-adv-x="979" 
d="M863 142h99v-238h-195v95l-554 1v-96h-195v238h80q39 56 58 106.5t25 116t6 180.5h675zM375 411q-2 -97 -15 -156t-47 -113h354v268z" />
    <glyph glyph-name="uni0435" unicode="&#x435;" horiz-adv-x="779" 
d="M760 255h-544q6 -70 52.5 -115.5t128.5 -45.5q44 0 82.5 15t62 43t23.5 64h195q0 -69 -43.5 -122.5t-125.5 -83.5t-195 -30q-104 0 -191 37t-137 104.5t-50 154.5q0 88 50 155.5t136 104t192 36.5q108 0 190 -36t127.5 -101.5t46.5 -153.5v-5h1h-1v-21zM226 344h332
q-27 117 -161 117q-136 0 -171 -117z" />
    <glyph glyph-name="uni0436" unicode="&#x436;" horiz-adv-x="1123" 
d="M838 300l288 -300h-223l-244 250v-250h-195v250l-243 -250h-224l289 301l-260 244h226l212 -196v196h195v-198l213 198h226z" />
    <glyph glyph-name="uni0437" unicode="&#x437;" horiz-adv-x="751" 
d="M734 183q0 -103 -96.5 -151.5t-255.5 -48.5q-115 0 -197.5 32.5t-124.5 86t-42 116.5h193q0 -52 49.5 -77.5t121.5 -27.5q64 -2 109.5 15t46.5 56q-1 17 -11 27t-37 14.5t-79 4.5h-108v104h108q65 0 93.5 11t28.5 35q0 29 -44 42.5t-107 13.5q-72 1 -121.5 -15t-49.5 -51
h-193q0 74 60 116.5t142.5 58.5t161.5 16q129 0 232.5 -38t103.5 -138q0 -69 -70 -98q86 -28 86 -104z" />
    <glyph glyph-name="uni0438" unicode="&#x438;" horiz-adv-x="784" 
d="M223 198l334 347h195v-545h-195v347l-334 -347h-190v545h190v-347z" />
    <glyph glyph-name="uni0439" unicode="&#x439;" horiz-adv-x="784" 
d="M227 602q-64 46 -64 138h126q0 -40 27.5 -66.5t74.5 -26.5q48 0 76.5 26.5t28.5 66.5h126q0 -92 -64 -138t-164 -46q-103 0 -167 46zM223 198l334 347h195v-545h-195v347l-334 -347h-190v545h190v-347z" />
    <glyph glyph-name="uni043A" unicode="&#x43a;" horiz-adv-x="757" 
d="M432 302l328 -301h-243l-289 257v-258h-195v545h195v-203l258 202h246z" />
    <glyph glyph-name="uni043B" unicode="&#x43b;" horiz-adv-x="816" 
d="M784 543v-543h-195v405h-250q-11 -133 -22 -192.5t-34 -99.5q-45 -74 -115 -94t-101.5 -20h-33.5v156q32 0 49.5 8t26 21.5t17.5 38.5q21 64 25 122t4 198h629z" />
    <glyph glyph-name="uni043C" unicode="&#x43c;" horiz-adv-x="1063" 
d="M1031 545v-545h-195v331l-207 -331h-185l-216 326v-326h-195v545h235l269 -405l268 405h226z" />
    <glyph glyph-name="uni043D" unicode="&#x43d;" horiz-adv-x="775" 
d="M549 340v205h194v-545h-194v211h-328v-211h-188v545h188v-205h328z" />
    <glyph glyph-name="uni043E" unicode="&#x43e;" horiz-adv-x="785" 
d="M589 530q84 -38 131.5 -105.5t47.5 -151.5q0 -83 -47.5 -150.5t-131.5 -105.5t-189 -38q-101 0 -189 38.5t-140.5 106t-52.5 149.5q0 83 52.5 150.5t140.5 106t189 38.5q105 0 189 -38zM523 148q51 43 51 125q0 83 -51 126t-123 43q-46 0 -88.5 -18.5t-69.5 -56.5
t-27 -94q0 -55 27 -93t69.5 -56.5t88.5 -18.5q72 0 123 43z" />
    <glyph glyph-name="uni043F" unicode="&#x43f;" horiz-adv-x="770" 
d="M33 545h705v-545h-195v402h-315v-402h-195v545z" />
    <glyph glyph-name="uni0440" unicode="&#x440;" horiz-adv-x="776" 
d="M753 260v0q-2 -71 -35 -135t-93 -103.5t-137 -39.5q-172 0 -260 81v-253h-195v735h175l14 -73q88 88 266 85q77 0 136.5 -38t93.5 -104t35 -148v-3v-4zM477.5 126q37.5 24 57 61.5t20.5 77.5q-2 74 -44 124t-124 50q-46 0 -82.5 -23t-56.5 -61t-20 -81v-2
q0 -75 44 -122.5t115 -47.5q53 0 90.5 24z" />
    <glyph glyph-name="uni0441" unicode="&#x441;" horiz-adv-x="761" 
d="M67 421.5q49 67.5 134 105.5t188 38q148 0 237.5 -64.5t117.5 -173.5h-196q-12 49 -54.5 80.5t-103.5 31.5q-80 0 -127 -46.5t-47 -122.5q0 -45 20 -83.5t58.5 -62t91.5 -23.5q63 0 106.5 31.5t54.5 79.5h196q-10 -64 -59 -118.5t-126.5 -86.5t-168.5 -32
q-101 0 -186 38.5t-135 106t-50 150.5q0 84 49 151.5z" />
    <glyph glyph-name="uni0442" unicode="&#x442;" horiz-adv-x="771" 
d="M741 545v-150h-256v-395h-195v395h-260v150h711z" />
    <glyph glyph-name="uni0443" unicode="&#x443;" horiz-adv-x="848" 
d="M838 545l-330 -668q-30 -59 -113 -76.5t-190 -17.5l-1 163q54 0 74.5 8t20.5 22q0 6 -3 14t-4 10l-282 545h211l208 -442l198 442h211z" />
    <glyph glyph-name="uni0444" unicode="&#x444;" horiz-adv-x="1098" 
d="M1025 125.5q-56 -64.5 -154.5 -102t-221.5 -37.5v-1h-5v-150h-195v150h-6v1q-113 1 -211 38.5t-156 102t-58 143.5q0 78 56.5 142t151 101.5t205.5 41.5h18v185h195v-185h5q123 -1 221.5 -38t154.5 -101.5t56 -145.5q0 -80 -56 -144.5zM246.5 191.5q36.5 -31.5 90.5 -47
t106 -15.5h6v283h-6q-53 0 -106.5 -15t-90 -46.5t-36.5 -80.5q0 -47 36.5 -78.5zM649 129q55 0 110 15t91 47t36 79q0 49 -36 81t-90.5 46.5t-110.5 14.5h-5v-283h5z" />
    <glyph glyph-name="uni0445" unicode="&#x445;" horiz-adv-x="793" 
d="M570 545h226l-246 -275l246 -270h-226l-173 188l-173 -188h-227l248 270l-248 275h227l173 -190z" />
    <glyph glyph-name="uni0446" unicode="&#x446;" horiz-adv-x="868" 
d="M763 545v-400h93v-258h-195v113h-628v545h195v-400h340v400h195z" />
    <glyph glyph-name="uni0447" unicode="&#x447;" horiz-adv-x="762" 
d="M535 545h195v-545h-195v191q-62 -69 -178 -69q-152 0 -238 71t-86 246v106h195v-119q0 -57 12 -95t45.5 -60.5t96.5 -22.5q68 0 101.5 21.5t42.5 57t9 96.5v122z" />
    <glyph glyph-name="uni0448" unicode="&#x448;" horiz-adv-x="1161" 
d="M934 145v400h195v-545h-1096v545h195v-400h255v400h196v-400h255z" />
    <glyph glyph-name="uni0449" unicode="&#x449;" horiz-adv-x="1229" 
d="M1129 545v-420h88v-235h-201v110h-983v545h195v-400h255v400h196v-400h255v400h195z" />
    <glyph glyph-name="uni044A" unicode="&#x44a;" horiz-adv-x="856" 
d="M768.5 352q69.5 -51 69.5 -151v-3q0 -95 -55.5 -146.5t-189.5 -51.5q-28 0 -41 1v-1h-414l-2 395h-126v150h320l1 -142h218h2q148 0 217.5 -51zM600.5 123q25.5 4 44.5 23t19 59q0 41 -19 59t-42.5 21t-66.5 3h-1h-204l1 -169h204q39 0 64.5 4z" />
    <glyph glyph-name="uni044B" unicode="&#x44b;" horiz-adv-x="1003" 
d="M666.5 352q69.5 -51 69.5 -151v-3q0 -95 -55.5 -146.5t-189.5 -51.5q-28 0 -41 1v-1h-414l-3 545h195l1 -142h218h2q148 0 217.5 -51zM776 0v545h195v-545h-195zM497.5 123q25.5 4 44.5 23t19 59q0 41 -19 59t-42 21t-66 3h-2h-203l1 -169h204q38 0 63.5 4z" />
    <glyph glyph-name="uni044C" unicode="&#x44c;" horiz-adv-x="756" 
d="M666.5 352q69.5 -51 69.5 -151v-3q0 -95 -55.5 -146.5t-189.5 -51.5q-28 0 -41 1v-1h-414l-3 545h195l1 -142h218h2q148 0 217.5 -51zM497.5 123q25.5 4 44.5 23t19 59q0 41 -19 59t-42 21t-66 3h-2h-203l1 -169h204q38 0 63.5 4z" />
    <glyph glyph-name="uni044D" unicode="&#x44d;" horiz-adv-x="763" 
d="M561 527q85 -38 134 -105.5t49 -151.5q0 -83 -50 -150.5t-135 -106t-186 -38.5q-91 0 -168.5 32t-126.5 86.5t-59 118.5h195q12 -48 54.5 -79.5t102.5 -31.5q62 -1 105 29.5t60 79.5h-175v119h176q-16 51 -59.5 80.5t-106.5 29.5q-60 0 -103 -31.5t-55 -80.5h-195
q28 109 117.5 173.5t237.5 64.5q103 0 188 -38z" />
    <glyph glyph-name="uni044E" unicode="&#x44e;" horiz-adv-x="1037" 
d="M841.5 530q83.5 -38 131 -105.5t47.5 -151.5q0 -83 -47.5 -150.5t-131 -105.5t-187.5 -38q-89 0 -168 30.5t-133.5 84.5t-71.5 123h-53v-217h-195v546h195v-192h60q23 63 77.5 111.5t130 75.5t158.5 27q104 0 187.5 -38zM740 123q39 20 62.5 58.5t23.5 91.5q0 79 -49 124
t-123 45q-45 0 -87.5 -20t-69.5 -58.5t-27 -90.5t26.5 -90.5t68.5 -59t89 -20.5t86 20z" />
    <glyph glyph-name="uni044F" unicode="&#x44f;" horiz-adv-x="796" 
d="M576 1v139h-185l-151 -139h-215l169 156q-82 21 -127.5 69t-45.5 118v4q0 59 39.5 104t111 70t164.5 25h426l2 -546h-188zM290 421q-33 -4 -54 -22t-21 -57q0 -37 21 -53.5t54 -20.5t94 -4h2h190l-1 159q-88 0 -119 0.5t-42 0.5q-10 1 -30 1q-61 0 -94 -4z" />
    <glyph glyph-name="uni0450" unicode="&#x450;" horiz-adv-x="779" 
d="M760 255h-544q6 -70 52.5 -115.5t128.5 -45.5q44 0 82.5 15t62 43t23.5 64h195q0 -69 -43.5 -122.5t-125.5 -83.5t-195 -30q-104 0 -191 37t-137 104.5t-50 154.5q0 88 50 155.5t136 104t192 36.5q108 0 190 -36t127.5 -101.5t46.5 -153.5v-5h1h-1v-21zM226 344h332
q-27 117 -161 117q-136 0 -171 -117zM200 730h204l70 -133h-154z" />
    <glyph glyph-name="uni0451" unicode="&#x451;" horiz-adv-x="779" 
d="M210 623q-22 22 -22 54q0 31 22 52.5t54 21.5q31 0 53 -21.5t22 -52.5q0 -32 -22 -54t-53 -22q-32 0 -54 22zM461 623q-22 22 -22 54q0 31 22 52.5t54 21.5q31 0 53 -21.5t22 -52.5q0 -32 -21.5 -54t-53.5 -22t-54 22zM760 255h-544q6 -70 52.5 -115.5t128.5 -45.5
q44 0 82.5 15t62 43t23.5 64h195q0 -69 -43.5 -122.5t-125.5 -83.5t-195 -30q-104 0 -191 37t-137 104.5t-50 154.5q0 88 50 155.5t136 104t192 36.5t188 -36t128.5 -102t47.5 -153v-5h1h-1v-21zM226 344h332q-27 117 -161 117q-136 0 -171 -117z" />
    <glyph glyph-name="uni0452" unicode="&#x452;" horiz-adv-x="767" 
d="M675.5 423.5q69.5 -79.5 69.5 -258.5v-170q0 -96 -42.5 -149.5t-124.5 -74.5t-216 -21v148q68 -1 105.5 4t60 27.5t22.5 70.5v162q0 68 -9.5 113.5t-40 74.5t-90.5 29q-85 0 -113.5 -63t-28.5 -151v-165h-195v540h-81v127h81v73h195v-73h247v-127h-247v-120q75 83 212 83
q126 0 195.5 -79.5z" />
    <glyph glyph-name="uni0453" unicode="&#x453;" horiz-adv-x="560" 
d="M540 545v-134h-302v-411h-205v545h507zM173 597l70 133h204l-120 -133h-154z" />
    <glyph glyph-name="uni0454" unicode="&#x454;" horiz-adv-x="763" 
d="M495.5 132.5q42.5 31.5 53.5 79.5h196q-10 -64 -59 -118.5t-126.5 -86.5t-168.5 -32q-101 0 -186 38.5t-135 106t-50 150.5q0 84 49 151.5t134 105.5t188 38q148 0 237.5 -64.5t117.5 -173.5h-196q-12 49 -54.5 80.5t-103.5 31.5q-63 0 -106 -29.5t-59 -80.5h176v-119
h-175q17 -49 59.5 -79.5t104.5 -29.5q61 0 103.5 31.5z" />
    <glyph glyph-name="uni0455" unicode="&#x455;" horiz-adv-x="740" 
d="M413 321l53 1q114 0 185 -30.5t71 -121.5q0 -118 -104 -155.5t-242 -37.5q-135 0 -247 41.5t-112 159.5l197 -1q0 -50 48 -68.5t114 -18.5q81 0 118 18t37 56q0 37 -42.5 47.5t-78.5 10.5h-44q-93 0 -166 9.5t-128 46t-55 110.5q0 111 108 145t249 34q134 0 241 -41
t107 -159l-194 1q0 52 -55 69t-99 17q-160 0 -160 -64q0 -68 156 -70q28 0 43 1z" />
    <glyph glyph-name="uni0456" unicode="&#x456;" horiz-adv-x="260" 
d="M228 740h-195v-136h195v136zM228 0h-195v575h195v-575z" />
    <glyph glyph-name="uni0457" unicode="&#x457;" horiz-adv-x="478" 
d="M51 609q-26 26 -26 63t26 63t63 26t63 -26t26 -63t-26 -63t-63 -26t-63 26zM302 609q-26 26 -26 63t26 63t63 26t62.5 -26t25.5 -63t-25.5 -63t-62.5 -26t-63 26zM335 0h-194v545h194v-545z" />
    <glyph glyph-name="uni0458" unicode="&#x458;" horiz-adv-x="284" 
d="M49 605v135h195v-135h-195zM49 576h195v-600q0 -113 -75 -154.5t-169 -41.5q-33 0 -60 4v158q47 0 70.5 8t31 23.5t7.5 45.5v557z" />
    <glyph glyph-name="uni0459" unicode="&#x459;" horiz-adv-x="1276" 
d="M1184.5 352q69.5 -51 69.5 -151v-3q0 -95 -55.5 -146.5t-189.5 -51.5q-28 0 -41 1v-1h-379v405h-250q-11 -133 -22 -192.5t-34 -99.5q-45 -74 -115 -94t-101.5 -20h-33.5v156q32 0 49.5 8t26 21.5t17.5 38.5q21 64 25 122t4 198h629v-140h181h2q148 0 217.5 -51z
M1015.5 123q25.5 4 44.5 23t19 59q0 41 -19 59t-42 21t-66 3h-2h-166v-169h168q38 0 63.5 4z" />
    <glyph glyph-name="uni045A" unicode="&#x45a;" horiz-adv-x="1230" 
d="M1137.5 352q69.5 -51 69.5 -151v-3q0 -95 -55.5 -146.5t-189.5 -51.5q-28 0 -41 1v-1h-372v211h-328v-211h-188v545h188v-205h328v205h194v-142h175h2q148 0 217.5 -51zM969.5 123q25.5 4 44.5 23t19 59q0 41 -19 59t-42.5 21t-66.5 3h-1h-161v-169h162q39 0 64.5 4z" />
    <glyph glyph-name="uni045B" unicode="&#x45b;" horiz-adv-x="785" 
d="M687.5 423q69.5 -80 69.5 -258v-165h-195v162q0 68 -9.5 113.5t-40 74.5t-90.5 29q-85 0 -113.5 -63t-28.5 -151v-165h-195v540h-80v127h80v73h195v-73h247v-127h-247v-121q73 84 212 84q126 0 195.5 -80z" />
    <glyph glyph-name="uni045C" unicode="&#x45c;" horiz-adv-x="757" 
d="M432 302l328 -301h-243l-289 257v-258h-195v545h195v-203l258 202h246zM265 597l70 133h204l-120 -133h-154z" />
    <glyph glyph-name="uni045D" unicode="&#x45d;" horiz-adv-x="784" 
d="M223 198l334 347h195v-545h-195v347l-334 -347h-190v545h190v-347zM206 730h204l70 -133h-154z" />
    <glyph glyph-name="uni045E" unicode="&#x45e;" horiz-adv-x="848" 
d="M838 545l-330 -668q-30 -59 -113 -76.5t-190 -17.5l-1 163q54 0 74.5 8t20.5 22q0 6 -3 14t-4 10l-282 545h211l208 -442l198 442h211zM668 767q0 -99 -68.5 -149t-177.5 -50q-112 0 -181.5 50t-67.5 149h135q0 -46 29 -77t84 -31t83.5 31t28.5 77h135z" />
    <glyph glyph-name="uni045F" unicode="&#x45f;" horiz-adv-x="770" 
d="M543 545h195v-545h-259v-87h-173v87h-273v545h195v-402h315v402z" />
    <glyph glyph-name="uni0462" unicode="&#x462;" horiz-adv-x="989" 
d="M824 482q71 -30 110.5 -88t39.5 -139v-4q0 -74 -39.5 -131t-111 -88.5t-164.5 -31.5h-499v565h-142v125h142v50h208v-50h306v-125h-306v-53h288h2q95 0 166 -30zM782 257q0 65 -33.5 88.5t-95.5 23.5h-1h-284v-226q134 0 186 -0.5t70 -0.5h29q129 0 129 115z" />
    <glyph glyph-name="uni0463" unicode="&#x463;" horiz-adv-x="831" 
d="M738.5 352q69.5 -51 69.5 -151v-3q0 -95 -55.5 -146.5t-189.5 -51.5q-28 0 -41 1v-1h-414l-3 501h-100v129h101v110h194v-110h227v-129h-227l1 -98h218h2q148 0 217.5 -51zM570.5 123q25.5 4 44.5 23t19 59q0 41 -19 59t-42.5 21t-66.5 3h-1h-204l1 -169h204q39 0 64.5 4
z" />
    <glyph glyph-name="uni046A" unicode="&#x46a;" horiz-adv-x="1259" 
d="M1256 0h-258l-253 283v-283h-218v299l-266 -299h-258l237 255q64 71 115 97.5t112 30.5l-379 357h1097l-381 -358q56 -6 105 -33t109 -94zM629 443l197 177h-385z" />
    <glyph glyph-name="uni046B" unicode="&#x46b;" horiz-adv-x="1150" 
d="M1137 0h-263l-203 207v-207h-195v214l-210 -214h-263l186 168q58 50 101.5 77.5t82.5 39.5l-317 260h1047l-325 -266q75 -25 177 -115zM571 302l158 123h-307z" />
    <glyph glyph-name="uni0472" unicode="&#x472;" horiz-adv-x="999" 
d="M752 705.5q107 -50.5 168 -139t61 -199.5q0 -110 -60.5 -198t-167.5 -138.5t-241 -50.5q-129 0 -238 50.5t-172.5 139t-63.5 197.5q0 110 63.5 199t172 139.5t237.5 50.5q134 0 241 -50.5zM358 551q-68 -42 -91 -116q24 18 65 18q34 0 76 -10.5t106 -31.5
q71 -22 108.5 -31.5t70.5 -9.5q48 0 70 25q-7 61 -44 106t-92 68.5t-115 23.5q-86 0 -154 -42zM655.5 180q66.5 37 93.5 103q-22 -13 -56 -13q-33 0 -70.5 9.5t-108.5 31.5q-66 21 -107.5 31.5t-75.5 10.5q-48 0 -71 -24q10 -58 47 -100.5t91 -64t114 -21.5q77 0 143.5 37z
" />
    <glyph glyph-name="uni0473" unicode="&#x473;" horiz-adv-x="785" 
d="M589 530q84 -38 131.5 -105.5t47.5 -151.5q0 -83 -47.5 -150.5t-131.5 -105.5t-189 -38q-101 0 -189 38.5t-140.5 106t-52.5 149.5q0 83 52.5 150.5t140.5 106t189 38.5q105 0 189 -38zM290.5 412q-50.5 -30 -68.5 -87q20 7 48 7q23 0 52.5 -5t47.5 -9t24 -5
q80 -19 120 -19q35 0 58 12q-11 67 -59.5 101.5t-112.5 34.5q-59 0 -109.5 -30zM499.5 131q44.5 26 63.5 76q-20 -8 -50 -8q-25 0 -53 5t-69 15q-7 1 -34 7t-49.5 9t-39.5 3q-26 0 -48 -8q15 -61 67 -93t113 -32q55 0 99.5 26z" />
    <glyph glyph-name="uni0474" unicode="&#x474;" horiz-adv-x="1166" 
d="M834 679q26 45 66 64.5t96 19.5q61 0 153 -23l-34 -114q-23 5 -36 5q-26 0 -43.5 -12.5t-30 -32t-36.5 -64.5l-255 -522h-250l-381 740h230l276 -536z" />
    <glyph glyph-name="uni0475" unicode="&#x475;" horiz-adv-x="907" 
d="M546 479q37 92 170 92q68 0 173 -25l-39 -104q-29 6 -49 6q-29 0 -47 -11.5t-31.5 -32.5t-36.5 -66l-160 -338h-246l-262 545h215l171 -404l83 195z" />
    <glyph glyph-name="uni0490" unicode="&#x490;" horiz-adv-x="754" 
d="M560 740v81h166v-236h-471v-585h-207v740h512z" />
    <glyph glyph-name="uni0491" unicode="&#x491;" horiz-adv-x="552" 
d="M373 641h174v-185h-7v-45h-302v-411h-205v545h340v96z" />
    <glyph glyph-name="uni0492" unicode="&#x492;" horiz-adv-x="889" 
d="M857 740v-165h-538v-121h314v-152h-314v-302h-207v302h-94v152h94v286h745z" />
    <glyph glyph-name="uni0493" unicode="&#x493;" horiz-adv-x="738" 
d="M703 545v-152h-426v-98h262v-147h-262v-148h-195v148h-64v147h64v250h621z" />
    <glyph glyph-name="uni0494" unicode="&#x494;" horiz-adv-x="824" 
d="M617.5 458.5q84.5 -43.5 131.5 -118.5t47 -166q0 -116 -42 -200t-122.5 -129t-194.5 -45h-140v153h93q80 0 125 40.5t61.5 91t16.5 89.5q0 47 -12 88.5t-59 75.5t-142 34q-68 0 -135 -28v-344h-207v740h656v-129h-449v-141q69 32 180 32q108 0 192.5 -43.5z" />
    <glyph glyph-name="uni0495" unicode="&#x495;" horiz-adv-x="778" 
d="M655 267.5q88 -74.5 88 -197.5q0 -110 -44 -169.5t-115.5 -80t-172.5 -20.5h-107v135h56q77 0 120.5 15t62.5 48.5t19 92.5q0 63 -48 101t-143 38q-48 0 -76.5 -8t-42 -15t-17.5 -9v-198h-195v545h646v-121h-451v-103q61 21 157 21q175 0 263 -74.5z" />
    <glyph glyph-name="uni0496" unicode="&#x496;" horiz-adv-x="1440" 
d="M976 401l303 -281h152v-235h-195v115h-95l-336 322v-322h-208v317l-330 -317h-269l434 401l-419 339h272l312 -264v264h208v-268l318 268h271z" />
    <glyph glyph-name="uni0497" unicode="&#x497;" horiz-adv-x="1169" 
d="M838 300l206 -215h120v-220h-185v135h-76l-244 250v-250h-195v250l-243 -250h-224l289 301l-260 244h226l212 -196v196h195v-198l213 198h226z" />
    <glyph glyph-name="uni0498" unicode="&#x498;" horiz-adv-x="977" 
d="M950 245q-1 -130 -111 -194.5t-290 -71.5v-30q57 0 104.5 -18.5t46.5 -71.5q0 -68 -69.5 -91.5t-151.5 -23.5q-84 0 -146.5 23.5t-62.5 99.5h106q0 -34 33.5 -43.5t58.5 -9.5q88 0 88 42q0 29 -60 31h-66v93q-193 12 -296 91t-103 218h199q0 -86 78 -126t190 -39
q100 -1 171 28t72 93q-1 30 -15.5 45t-54 21.5t-119.5 6.5h-185v134h185q90 0 135.5 18t45.5 58q0 44 -68.5 65.5t-166.5 22.5q-112 1 -190 -23.5t-78 -77.5h-199q0 144 145.5 195.5t321.5 51.5q107 0 199.5 -13.5t162.5 -62.5t70 -145q0 -103 -105 -140q118 -38 125 -154
v-2v0z" />
    <glyph glyph-name="uni0499" unicode="&#x499;" horiz-adv-x="751" 
d="M658.5 44.5q-75.5 -48.5 -205.5 -58.5v-38q57 0 104.5 -18.5t46.5 -71.5q0 -68 -69.5 -91.5t-151.5 -23.5q-83 0 -146 23.5t-63 99.5h106q0 -34 34 -44t58 -10q26 0 57 7t31 36q0 20 -21.5 25.5t-41 5.5h-25.5h-38v99q-101 7 -172.5 40t-107.5 83.5t-36 109.5h193
q0 -52 49.5 -77.5t121.5 -27.5q64 -2 109.5 15t46.5 56q-1 17 -11 27t-37 14.5t-79 4.5h-108v104h108q65 0 93.5 11t28.5 35q0 29 -44 42.5t-107 13.5q-72 1 -121.5 -15t-49.5 -51h-193q0 74 60 116.5t142.5 58.5t161.5 16q129 0 232.5 -38t103.5 -138q0 -69 -70 -98
q86 -28 86 -104q0 -90 -75.5 -138.5z" />
    <glyph glyph-name="uni049A" unicode="&#x49a;" horiz-adv-x="892" 
d="M426 401l304 -281h165v-235h-195v115h-109l-336 323v-323h-207v740h207v-269l318 269h272z" />
    <glyph glyph-name="uni049B" unicode="&#x49b;" horiz-adv-x="814" 
d="M432 302l236 -217h138v-220h-185v136h-104l-289 257v-258h-195v545h195v-203l258 202h246z" />
    <glyph glyph-name="uni049C" unicode="&#x49c;" horiz-adv-x="918" 
d="M919 -1l-252 1l-228 340h-29v-149l-116 -1v150h-39v-340h-207v740h207v-275h39v140h116v-140h35l205 275h255l-269 -339z" />
    <glyph glyph-name="uni049D" unicode="&#x49d;" horiz-adv-x="809" 
d="M809 0h-217l-190 224h-36v-112l-95 -1v113h-43v-224h-195v545h195v-198h43v95h95v-95h38l157 198h218l-208 -264z" />
    <glyph glyph-name="uni049E" unicode="&#x49e;" horiz-adv-x="906" 
d="M474 401l433 -401h-268l-336 322v-322h-208v592h-77v93h77v55h208v-55h76v-93h-76v-120l318 268h271z" />
    <glyph glyph-name="uni049F" unicode="&#x49f;" horiz-adv-x="786" 
d="M485 301l304 -301h-233l-268 260v-260h-195v582h-75v93h75v65h195v-65h190v-93h-190v-242l229 205h237z" />
    <glyph glyph-name="uni04A0" unicode="&#x4a0;" horiz-adv-x="991" 
d="M545 401l433 -401h-268l-336 322v-322h-208v611h-143v129h351v-268l318 268h271z" />
    <glyph glyph-name="uni04A1" unicode="&#x4a1;" horiz-adv-x="880" 
d="M554 302l328 -301h-243l-289 257v-258h-195v452h-137v93h332v-203l258 202h246z" />
    <glyph glyph-name="uni04A2" unicode="&#x4a2;" horiz-adv-x="970" 
d="M903 740v-620h60v-235h-195v115h-73v302h-440v-302h-207v740h207v-269h440v269h208z" />
    <glyph glyph-name="uni04A3" unicode="&#x4a3;" horiz-adv-x="849" 
d="M743 545v-450h98v-220h-185v125h-107v211h-328v-211h-188v545h188v-205h328v205h194z" />
    <glyph glyph-name="uni04A4" unicode="&#x4a4;" horiz-adv-x="1393" 
d="M1366 740v-162h-463v-578h-208v302h-440v-302h-207v740h207v-269h440v269h671z" />
    <glyph glyph-name="uni04A5" unicode="&#x4a5;" horiz-adv-x="1059" 
d="M1041 545v-134h-298v-411h-194v211h-328v-211h-188v545h188v-205h328v205h492z" />
    <glyph glyph-name="uni04A6" unicode="&#x4a6;" horiz-adv-x="1537" 
d="M1360 482q71 -30 110.5 -88t39.5 -139v-4q0 -115 -81 -183t-232 -68h-177v143h116q88 0 131.5 27.5t43.5 84.5q0 56 -44 91.5t-166 35.5q-102 0 -178 -38v-344h-210v585h-455v-585h-210v740h875v-266q101 38 271 38q95 0 166 -30z" />
    <glyph glyph-name="uni04A7" unicode="&#x4a7;" horiz-adv-x="1259" 
d="M1146 267.5q88 -74.5 88 -197.5q0 -110 -44 -169.5t-115.5 -80t-172.5 -20.5h-107v135h56q77 0 120.5 15t62.5 48.5t19 92.5q0 63 -48 101t-143 38q-75 0 -124 -26v-204h-195v402h-315v-402h-195v545h705v-220q63 17 145 17q175 0 263 -74.5z" />
    <glyph glyph-name="uni04A8" unicode="&#x4a8;" horiz-adv-x="1311" 
d="M1283 -13q-5 -1 -29.5 -4.5t-69.5 -6.5t-96 -3q-142 0 -253 27q-132 -20 -308 -20q-135 0 -249.5 50.5t-182 139t-67.5 197.5q0 110 67.5 199t182 139.5t249.5 50.5l1 -163q-79 0 -143 -27t-100.5 -78t-36.5 -121t42 -120.5t107 -77t131 -26.5h55q-72 88 -72 221
q0 78 35.5 164t119.5 148t220 62q142 0 227.5 -57.5t120 -141t34.5 -167.5q0 -149 -95 -237q51 4 110 16v-164zM863 165q93 21 138.5 68.5t45.5 134.5q0 89 -34.5 144t-125.5 55q-87 0 -122 -57t-35 -146q0 -142 133 -199z" />
    <glyph glyph-name="uni04A9" unicode="&#x4a9;" horiz-adv-x="1130" 
d="M1102 -27q-5 -2 -32 -5.5t-74.5 -7t-100.5 -3.5q-121 0 -214 21q-109 -12 -255 -12q-103 0 -195 39t-147.5 108t-55.5 153q0 82 55.5 149.5t147.5 105.5t195 38l1 -130q-87 0 -142.5 -42.5t-55.5 -120.5q0 -53 28 -92t73.5 -59.5t96.5 -20.5h41q-54 67 -54 165
q0 54 29 117.5t103.5 111t199.5 47.5q126 0 200.5 -44.5t104 -106t29.5 -119.5q0 -110 -68 -174q40 5 60 9l30 4v-131zM644.5 361q-30.5 -44 -30.5 -102q0 -114 111 -156q76 13 115 49.5t39 109.5q0 58 -27.5 100.5t-103.5 42.5q-73 0 -103.5 -44z" />
    <glyph glyph-name="uni04AA" unicode="&#x4aa;" horiz-adv-x="995" 
d="M649.5 181q66.5 37 99.5 105h218q-38 -132 -145 -212t-263 -92v-29q57 0 104.5 -18.5t46.5 -71.5q0 -68 -69.5 -91.5t-151.5 -23.5q-84 0 -146.5 23.5t-62.5 99.5h106q0 -34 34 -44t58 -10q26 0 57 7t31 36q0 20 -21.5 25.5t-41 5.5h-25.5h-38v93q-117 12 -211 65.5
t-147.5 136.5t-53.5 183q0 111 63.5 200t173 139.5t243.5 50.5q116 0 211.5 -37.5t159 -107t88.5 -163.5l-216 -1q-17 46 -57 79t-90 50t-95 17q-65 0 -126.5 -27t-100.5 -78.5t-39 -121.5q0 -71 37 -121.5t98 -77t131 -26.5q74 0 140.5 37z" />
    <glyph glyph-name="uni04AB" unicode="&#x4ab;" horiz-adv-x="761" 
d="M492.5 132.5q43.5 31.5 54.5 79.5h196q-8 -55 -46 -103t-98.5 -82t-134.5 -46v-131h-153v131q-83 14 -150 54.5t-105 101.5t-38 133q0 84 49 151.5t134 105.5t188 38q148 0 237.5 -64.5t117.5 -173.5h-196q-12 49 -54.5 80.5t-103.5 31.5q-80 0 -127 -46.5t-47 -122.5
q0 -45 20 -83.5t58.5 -62t91.5 -23.5q63 0 106.5 31.5z" />
    <glyph glyph-name="uni04AC" unicode="&#x4ac;" horiz-adv-x="921" 
d="M33 569v171h856zM889 740v-172h-322v-448h101v-235h-195v115h-114v568h-326v172h856z" />
    <glyph glyph-name="uni04AD" unicode="&#x4ad;" horiz-adv-x="771" 
d="M741 545v-150h-256v-300h107v-220h-185v125h-117v395h-260v150h711z" />
    <glyph glyph-name="uni04AE" unicode="&#x4ae;" horiz-adv-x="951" 
d="M718 740h225l-355 -429v-311h-225v310l-355 430h225l238 -290z" />
    <glyph glyph-name="uni04AF" unicode="&#x4af;" horiz-adv-x="767" 
d="M382 175l183 370h190l-282 -560v-151h-185v151l-275 560h185z" />
    <glyph glyph-name="uni04B0" unicode="&#x4b0;" horiz-adv-x="951" 
d="M718 740h225l-296 -358h153v-126h-212v-256h-225v256h-206v126h147l-296 358h225l238 -290z" />
    <glyph glyph-name="uni04B1" unicode="&#x4b1;" horiz-adv-x="767" 
d="M565 545h190l-241 -479h103v-125h-144v-107h-185v107h-130v125h90l-235 479h185l184 -370z" />
    <glyph glyph-name="uni04B2" unicode="&#x4b2;" horiz-adv-x="970" 
d="M612 367l197 -247h154v-235h-195v115h-103l-206 256l-206 -256h-240l293 367l-293 373h240l206 -258l206 258h239z" />
    <glyph glyph-name="uni04B3" unicode="&#x4b3;" horiz-adv-x="845" 
d="M550 270l169 -185h121v-220h-185v135h-85l-173 188l-173 -188h-227l248 270l-248 275h227l173 -190l173 190h226z" />
    <glyph glyph-name="uni04B4" unicode="&#x4b4;" horiz-adv-x="1287" 
d="M1173 740v-580h106v-290h-210v130h-758v568h-281v172h765v-172h-277v-408h448v580h207z" />
    <glyph glyph-name="uni04B5" unicode="&#x4b5;" horiz-adv-x="1057" 
d="M959 545v-400h93v-258h-195v113h-628v402h-211v143h617v-143h-211v-257h340v400h195z" />
    <glyph glyph-name="uni04B6" unicode="&#x4b6;" horiz-adv-x="935" 
d="M833 120h95v-235h-195v115h-98v262q-78 -84 -225 -84q-102 0 -186.5 36t-135 110.5t-50.5 185.5v230h197v-227q0 -80 51.5 -129.5t156.5 -49.5q98 0 145 42.5t47 133.5v230h198v-620z" />
    <glyph glyph-name="uni04B7" unicode="&#x4b7;" horiz-adv-x="825" 
d="M730 95h90v-220h-185v125h-100v191q-62 -69 -178 -69q-152 0 -238 71t-86 246v106h195v-119q0 -57 12 -95t45.5 -60.5t96.5 -22.5q68 0 101.5 21.5t42.5 57t9 96.5v122h195v-450z" />
    <glyph glyph-name="uni04B8" unicode="&#x4b8;" horiz-adv-x="880" 
d="M635 740h198v-740h-198v262q-56 -61 -149 -78v-103l-116 -1v99q-93 7 -168 45t-119.5 110t-44.5 176v230h197v-227q0 -64 33.5 -109.5t101.5 -61.5v153h116v-159q76 9 112.5 51.5t36.5 122.5v230z" />
    <glyph glyph-name="uni04B9" unicode="&#x4b9;" horiz-adv-x="763" 
d="M535 545h195v-545h-195v191q-39 -44 -104 -61v-76l-95 -1v69q-143 5 -223 77t-80 240v106h195v-119q0 -75 22.5 -119t85.5 -55v132h95v-132q46 7 68.5 29.5t29 55.5t6.5 86v122z" />
    <glyph glyph-name="uni04BA" unicode="&#x4ba;" horiz-adv-x="875" 
d="M656.5 527q84.5 -36 135.5 -111t51 -186v-230h-198v227q0 80 -51 129.5t-156 49.5q-99 0 -146 -42.5t-47 -133.5v-230h-197v740h197v-262q78 85 225 85q102 0 186.5 -36z" />
    <glyph glyph-name="uni04BB" unicode="&#x4bb;" horiz-adv-x="741" 
d="M642.5 483q71.5 -80 71.5 -258v-225h-195v222q0 64 -8.5 108t-39.5 74t-94 30q-66 0 -98.5 -31t-41.5 -75.5t-9 -107.5v-220h-195v740h195v-262q76 85 232 85q111 0 182.5 -80z" />
    <glyph glyph-name="uni04BC" unicode="&#x4bc;" horiz-adv-x="1127" 
d="M1106 320h-704q14 -93 85 -143.5t171 -50.5q116 0 177 40.5t61 109.5h210q0 -93 -58.5 -160t-160.5 -101.5t-229 -34.5q-115 0 -217.5 42.5t-169.5 120t-79 177.5h-29q-74 0 -112.5 45t-38.5 109q0 35 12 68.5t34 59.5h112q-40 -64 -40 -106q0 -30 18.5 -46t49.5 -18
q20 92 88.5 162t166 108t205.5 38q124 0 226 -46.5t161.5 -131.5t60.5 -196v-46zM494.5 557q-66.5 -43 -87.5 -125h481q-18 82 -79 125t-151 43q-97 0 -163.5 -43z" />
    <glyph glyph-name="uni04BD" unicode="&#x4bd;" horiz-adv-x="900" 
d="M881 255h-544q6 -70 52.5 -115.5t128.5 -45.5q44 0 82.5 15t62 43t23.5 64h195q0 -69 -43.5 -122.5t-125.5 -83.5t-195 -30q-99 0 -182.5 33.5t-135.5 95t-59 141.5q-64 1 -98.5 37.5t-34.5 90.5q0 52 30 98h102q-26 -57 -26 -91q0 -35 34 -41q18 69 70.5 121t130 79.5
t169.5 27.5q108 0 190 -36t127.5 -101.5t46.5 -153.5v-5h1h-1v-21zM347 344h332q-27 117 -161 117q-136 0 -171 -117z" />
    <glyph glyph-name="uni04BE" unicode="&#x4be;" horiz-adv-x="1127" 
d="M1106 320h-704q14 -93 85 -143.5t171 -50.5q116 0 177 40.5t61 109.5h210q0 -118 -93.5 -193.5t-246.5 -95.5v-110h-168v106q-103 11 -192 55.5t-146 117.5t-68 164h-29q-74 0 -112.5 45t-38.5 109q0 35 12 68.5t34 59.5h112q-40 -64 -40 -106q0 -30 18.5 -46t49.5 -18
q20 92 88.5 162t166 108t205.5 38q124 0 226 -46.5t161.5 -131.5t60.5 -196v-46zM494.5 557q-66.5 -43 -87.5 -125h481q-18 82 -79 125t-151 43q-97 0 -163.5 -43z" />
    <glyph glyph-name="uni04BF" unicode="&#x4bf;" horiz-adv-x="900" 
d="M881 255h-544q6 -70 52.5 -115.5t128.5 -45.5q44 0 82.5 15t62 43t23.5 64h195q0 -63 -35.5 -113t-104 -81.5t-163.5 -39.5v-132h-153v138q-119 21 -197 91t-88 171q-64 1 -98.5 37.5t-34.5 90.5q0 52 30 98h102q-26 -57 -26 -91q0 -35 34 -41q18 69 70.5 121t130 79.5
t169.5 27.5q108 0 190 -36t127.5 -101.5t46.5 -153.5v-5h1h-1v-21zM347 344h332q-27 117 -161 117q-136 0 -171 -117z" />
    <glyph glyph-name="uni04C0" unicode="&#x4c0;" horiz-adv-x="303" 
d="M255 0h-207v740h207v-740z" />
    <glyph glyph-name="uni04C1" unicode="&#x4c1;" horiz-adv-x="1407" 
d="M976 401l433 -401h-268l-336 322v-322h-208v317l-330 -317h-269l434 401l-419 339h272l312 -264v264h208v-268l318 268h271zM949 971q0 -99 -68.5 -149t-177.5 -50q-112 0 -181.5 50t-67.5 149h135q0 -46 29 -77t84 -31t83.5 31t28.5 77h135z" />
    <glyph glyph-name="uni04C2" unicode="&#x4c2;" horiz-adv-x="1123" 
d="M838 300l288 -300h-223l-244 250v-250h-195v250l-243 -250h-224l289 301l-260 244h226l212 -196v196h195v-198l213 198h226zM806 769q0 -99 -68.5 -149t-177.5 -50q-112 0 -181.5 50t-67.5 149h135q0 -46 29 -77t84 -31t83.5 31t28.5 77h135z" />
    <glyph glyph-name="uni04C3" unicode="&#x4c3;" horiz-adv-x="878" 
d="M688.5 422q67.5 -46 103 -121t35.5 -160v-4q0 -121 -52.5 -203t-140 -121t-194.5 -39q-60 0 -122 12v146q38 -19 90 -19q57 0 109.5 24t87 75.5t34.5 128.5q0 96 -56 150.5t-166 54.5q-88 0 -162 -46v-300h-207v740h207v-285l334 285h262l-326 -272h6q90 0 157.5 -46z
" />
    <glyph glyph-name="uni04C4" unicode="&#x4c4;" horiz-adv-x="737" 
d="M461 337q122 -17 180 -87.5t58 -179.5q0 -110 -44 -169.5t-115.5 -80t-172.5 -20.5h-107v135h56q76 0 119.5 15t62.5 48.5t19 92.5q0 66 -32.5 102.5t-118.5 36.5q-49 0 -77.5 -8t-42.5 -15.5t-18 -9.5v-197h-195v545h195v-198l255 198h232z" />
    <glyph glyph-name="uni04C5" unicode="&#x4c5;" horiz-adv-x="1044" 
d="M906 131h140l-64 -246h-200l30 115h-113v585h-281q-21 -135 -45.5 -236t-69.5 -204q-30 -63 -81.5 -94t-81 -36.5t-102.5 -14.5v176q76 0 103 76q70 222 89 488h676v-609z" />
    <glyph glyph-name="uni04C6" unicode="&#x4c6;" horiz-adv-x="882" 
d="M784 70h96l-64 -215h-172l42 145h-97v405h-250q-11 -133 -22 -192.5t-34 -99.5q-45 -74 -115 -94t-101.5 -20h-33.5v156q32 0 49.5 8t26 21.5t17.5 38.5q21 64 25 122t4 198h629v-473z" />
    <glyph glyph-name="uni04C7" unicode="&#x4c7;" horiz-adv-x="950" 
d="M695 740h208v-740q-1 -150 -99 -215t-302 -65v150q76 0 134.5 31.5t58.5 99.5v301h-440v-302h-207v740h207v-269h440v269z" />
    <glyph glyph-name="uni04C8" unicode="&#x4c8;" horiz-adv-x="775" 
d="M549 545h194v-550q0 -91 -39 -144t-129.5 -77t-249.5 -24v146q88 0 134 7t68 29.5t22 67.5v211h-328v-212h-188v546h188v-205h328v205z" />
    <glyph glyph-name="uni04C9" unicode="&#x4c9;" horiz-adv-x="1034" 
d="M903 740v-609h133l-64 -246h-200l30 115h-107v302h-440v-302h-207v740h207v-269h440v269h208z" />
    <glyph glyph-name="uni04CA" unicode="&#x4ca;" horiz-adv-x="836" 
d="M743 545v-475h91l-64 -215h-172l42 145h-91v211h-328v-211h-188v545h188v-205h328v205h194z" />
    <glyph glyph-name="uni04CB" unicode="&#x4cb;" horiz-adv-x="871" 
d="M828 740v-740h-27v-115h-195v234h24v143q-78 -84 -225 -84q-102 0 -186.5 36t-135 110.5t-50.5 185.5v230h197v-227q0 -80 51.5 -129.5t156.5 -49.5q98 0 145 42.5t47 133.5v230h198z" />
    <glyph glyph-name="uni04CC" unicode="&#x4cc;" horiz-adv-x="763" 
d="M730 545v-545h-110v-125h-185v220h100v96q-62 -69 -178 -69q-152 0 -238 71t-86 246v106h195v-119q0 -57 12 -95t45.5 -60.5t96.5 -22.5q68 0 101.5 21.5t42.5 57t9 96.5v122h195z" />
    <glyph glyph-name="uni04CD" unicode="&#x4cd;" horiz-adv-x="1185" 
d="M1064 740v-609h124l-65 -246h-200l30 115h-97v398l-194 -398h-198l-209 406v-406h-207v740h243l271 -540l263 540h239z" />
    <glyph glyph-name="uni04CE" unicode="&#x4ce;" horiz-adv-x="1154" 
d="M1031 545v-475h121l-64 -215h-172l42 145h-122v331l-207 -331h-185l-216 326v-326h-195v545h235l269 -405l268 405h226z" />
    <glyph glyph-name="uni04CF" unicode="&#x4cf;" horiz-adv-x="303" 
d="M255 0h-207v740h207v-740z" />
    <glyph glyph-name="uni04D0" unicode="&#x4d0;" 
d="M1010 0h-213l-77 142h-443l-77 -142h-213l402 740h220zM499 551l-140 -257h279zM744 976q0 -99 -68.5 -149t-177.5 -50q-112 0 -181.5 50t-67.5 149h135q0 -46 29 -77t84 -31t83.5 31t28.5 77h135z" />
    <glyph glyph-name="uni04D1" unicode="&#x4d1;" horiz-adv-x="776" 
d="M635 521q109 -48 109 -169v-352h-182l-16 83v5q-23 -46 -105.5 -72t-179.5 -26q-78 0 -158 32.5t-80 140.5q0 103 68.5 136t147.5 33q153 0 212 2.5t77.5 10.5t19.5 29v11q-1 35 -49.5 54.5t-111.5 19.5q-68 0 -115.5 -22.5t-47.5 -69.5h-195q0 77 58.5 122t140 62.5
t160.5 17.5q138 0 247 -48zM547 272q-48 -22 -147 -22q-67 0 -104.5 -5t-55 -17.5t-18.5 -36.5q3 -33 34.5 -50t106.5 -17q99 0 141.5 43t42.5 104v1zM628 795q0 -99 -68.5 -149t-177.5 -50q-112 0 -181.5 50t-67.5 149h135q0 -46 29 -77t84 -31t83.5 31t28.5 77h135z" />
    <glyph glyph-name="uni04D2" unicode="&#x4d2;" 
d="M1010 0h-213l-77 142h-443l-77 -142h-213l402 740h220zM499 551l-140 -257h279zM312.5 809q-25.5 26 -25.5 63t26 63t63 26t62.5 -26t25.5 -63t-25.5 -63t-62.5 -26q-38 0 -63.5 26zM563 809q-26 26 -26 63t26.5 63t63.5 26t62.5 -26t25.5 -63t-25.5 -63t-62.5 -26
q-38 0 -64 26z" />
    <glyph glyph-name="uni04D3" unicode="&#x4d3;" horiz-adv-x="776" 
d="M635 521q109 -48 109 -169v-352h-182l-16 83v5q-23 -46 -105.5 -72t-179.5 -26q-78 0 -158 32.5t-80 140.5q0 103 68.5 136t147.5 33q153 0 212 2.5t77.5 10.5t19.5 29v11q-1 35 -49.5 54.5t-111.5 19.5q-68 0 -115.5 -22.5t-47.5 -69.5h-195q0 77 58.5 122t140 62.5
t160.5 17.5q138 0 247 -48zM547 272q-48 -22 -147 -22q-67 0 -104.5 -5t-55 -17.5t-18.5 -36.5q3 -33 34.5 -50t106.5 -17q99 0 141.5 43t42.5 104v1zM195.5 632q-25.5 26 -25.5 63t26 63t63 26t62.5 -26t25.5 -63t-25.5 -63t-62.5 -26q-38 0 -63.5 26zM446 632
q-26 26 -26 63t26.5 63t63.5 26t62.5 -26t25.5 -63t-25.5 -63t-62.5 -26q-38 0 -64 26z" />
    <glyph glyph-name="uni04D4" unicode="&#x4d4;" horiz-adv-x="1508" 
d="M1391 302h-483v-148l567 4v-158h-775v128h-375l-107 -128h-231l621 740h867l1 -157h-568v-126h483v-155zM700 570l-250 -291h250v291z" />
    <glyph glyph-name="uni04D5" unicode="&#x4d5;" horiz-adv-x="1324" 
d="M1299 255h-544q6 -70 52.5 -115.5t128.5 -45.5q44 0 82.5 15t62 43t23.5 64h195q0 -69 -43.5 -122.5t-125.5 -83.5t-195 -30q-100 0 -183 33.5t-134 94.5q-17 -30 -65.5 -57t-120.5 -44t-156 -17q-82 0 -167.5 32.5t-85.5 140.5q0 103 68.5 136t147.5 33q161 0 220.5 3
t74 12.5t14.5 35.5q0 36 -48.5 56t-112.5 20q-68 0 -115.5 -22t-47.5 -70h-195q0 77 58.5 122t140 62.5t160.5 17.5t156 -16.5t129 -56.5q50 37 117.5 56.5t144.5 19.5q108 0 190 -36t127.5 -101.5t46.5 -153.5v-5h1h-1v-21zM765 344h332q-27 117 -161 117q-136 0 -171 -117
zM557 271v5v2l-3 -2zM473 146.5q43 22.5 62 57t19 72.5q-43 -26 -154 -26q-67 0 -104.5 -5t-55 -17.5t-18.5 -36.5q3 -33 34.5 -50t106.5 -17q67 0 110 22.5z" />
    <glyph glyph-name="uni04D6" unicode="&#x4d6;" horiz-adv-x="856" 
d="M739 302h-484v-148l568 4v-158h-775v740h775l1 -157h-569v-126h484v-155zM667 960q0 -99 -68.5 -149t-177.5 -50q-112 0 -181.5 50t-67.5 149h135q0 -46 29 -77t84 -31t83.5 31t28.5 77h135z" />
    <glyph glyph-name="uni04D7" unicode="&#x4d7;" horiz-adv-x="779" 
d="M760 255h-544q6 -70 52.5 -115.5t128.5 -45.5q44 0 82.5 15t62 43t23.5 64h195q0 -69 -43.5 -122.5t-125.5 -83.5t-195 -30q-104 0 -191 37t-137 104.5t-50 154.5q0 88 50 155.5t136 104t192 36.5q108 0 190 -36t127.5 -101.5t46.5 -153.5v-5h1h-1v-21zM226 344h332
q-27 117 -161 117q-136 0 -171 -117zM636 800q0 -99 -68.5 -149t-177.5 -50q-112 0 -181.5 50t-67.5 149h135q0 -46 29 -77t84 -31t83.5 31t28.5 77h135z" />
    <glyph glyph-name="uni04D8" unicode="&#x4d8;" horiz-adv-x="999" 
d="M742 705.5q107 -50.5 168 -139t61 -199.5q0 -110 -60.5 -198t-167.5 -138.5t-241 -50.5q-129 0 -238 50.5t-172.5 139t-63.5 197.5q0 23 3 44h720q-11 56 -48.5 97.5t-90.5 63t-110 21.5q-68 0 -126 -26.5t-92 -75.5h-232q30 79 96 139t157.5 93t195.5 33
q134 0 241 -50.5zM653 184.5q69 41.5 92 115.5h-488q23 -74 91.5 -115.5t153.5 -41.5q82 0 151 41.5z" />
    <glyph glyph-name="uni04D9" unicode="&#x4d9;" horiz-adv-x="790" 
d="M589 530q84 -38 131.5 -105.5t47.5 -151.5q0 -83 -47.5 -150.5t-131.5 -105.5t-189 -38q-101 0 -189 38.5t-140.5 106t-52.5 149.5q0 13 2 35h551q-11 66 -59 100t-112 34q-38 0 -75 -13t-63 -39h-214q44 80 140.5 129t211.5 49q105 0 189 -38zM506.5 135
q46.5 30 61.5 88h-346q17 -58 67.5 -88t110.5 -30t106.5 30z" />
    <glyph glyph-name="uni04DA" unicode="&#x4da;" horiz-adv-x="999" 
d="M742 705.5q107 -50.5 168 -139t61 -199.5q0 -110 -60.5 -198t-167.5 -138.5t-241 -50.5q-129 0 -238 50.5t-172.5 139t-63.5 197.5q0 23 3 44h720q-11 56 -48.5 97.5t-90.5 63t-110 21.5q-68 0 -126 -26.5t-92 -75.5h-232q30 79 96 139t157.5 93t195.5 33
q134 0 241 -50.5zM653 184.5q69 41.5 92 115.5h-488q23 -74 91.5 -115.5t153.5 -41.5q82 0 151 41.5zM306.5 809q-25.5 26 -25.5 63t26 63t63 26t62.5 -26t25.5 -63t-25.5 -63t-62.5 -26q-38 0 -63.5 26zM557 809q-26 26 -26 63t26.5 63t63.5 26t62.5 -26t25.5 -63
t-25.5 -63t-62.5 -26q-38 0 -64 26z" />
    <glyph glyph-name="uni04DB" unicode="&#x4db;" horiz-adv-x="790" 
d="M589 530q84 -38 131.5 -105.5t47.5 -151.5q0 -83 -47.5 -150.5t-131.5 -105.5t-189 -38q-101 0 -189 38.5t-140.5 106t-52.5 149.5q0 13 2 35h551q-11 66 -59 100t-112 34q-38 0 -75 -13t-63 -39h-214q44 80 140.5 129t211.5 49q105 0 189 -38zM506.5 135
q46.5 30 61.5 88h-346q17 -58 67.5 -88t110.5 -30t106.5 30zM201.5 612q-25.5 26 -25.5 63t26 63t63 26t62.5 -26t25.5 -63t-25.5 -63t-62.5 -26q-38 0 -63.5 26zM452 612q-26 26 -26 63t26.5 63t63.5 26t62.5 -26t25.5 -63t-25.5 -63t-62.5 -26q-38 0 -64 26z" />
    <glyph glyph-name="uni04DC" unicode="&#x4dc;" horiz-adv-x="1407" 
d="M976 401l433 -401h-268l-336 322v-322h-208v317l-330 -317h-269l434 401l-419 339h272l312 -264v264h208v-268l318 268h271zM510.5 809q-25.5 26 -25.5 63t26 63t63 26t62.5 -26t25.5 -63t-25.5 -63t-62.5 -26q-38 0 -63.5 26zM761 809q-26 26 -26 63t26.5 63t63.5 26
t62.5 -26t25.5 -63t-25.5 -63t-62.5 -26q-38 0 -64 26z" />
    <glyph glyph-name="uni04DD" unicode="&#x4dd;" horiz-adv-x="1123" 
d="M838 300l288 -300h-223l-244 250v-250h-195v250l-243 -250h-224l289 301l-260 244h226l212 -196v196h195v-198l213 198h226zM368.5 625q-25.5 26 -25.5 63t26 63t63 26t62.5 -26t25.5 -63t-25.5 -63t-62.5 -26q-38 0 -63.5 26zM619 625q-26 26 -26 63t26.5 63t63.5 26
t62.5 -26t25.5 -63t-25.5 -63t-62.5 -26q-38 0 -64 26z" />
    <glyph glyph-name="uni04DE" unicode="&#x4de;" horiz-adv-x="977" 
d="M950 245q-1 -139 -126 -203t-326 -64q-224 0 -345.5 80t-121.5 231h199q0 -86 78 -126t190 -39q100 -1 171 28t72 93q-1 30 -15.5 45t-54 21.5t-119.5 6.5h-185v134h185q90 0 135.5 18t45.5 58q0 44 -68.5 65.5t-166.5 22.5q-112 1 -190 -23.5t-78 -77.5h-199
q0 144 145.5 195.5t321.5 51.5q107 0 199.5 -13.5t162.5 -62.5t70 -145q0 -103 -105 -140q118 -38 125 -154v-2v0zM293.5 809q-25.5 26 -25.5 63t26 63t63 26t62.5 -26t25.5 -63t-25.5 -63t-62.5 -26q-38 0 -63.5 26zM544 809q-26 26 -26 63t26.5 63t63.5 26t62.5 -26
t25.5 -63t-25.5 -63t-62.5 -26q-38 0 -64 26z" />
    <glyph glyph-name="uni04DF" unicode="&#x4df;" horiz-adv-x="751" 
d="M734 183q0 -103 -96.5 -151.5t-255.5 -48.5q-115 0 -197.5 32.5t-124.5 86t-42 116.5h193q0 -52 49.5 -77.5t121.5 -27.5q64 -2 109.5 15t46.5 56q-1 17 -11 27t-37 14.5t-79 4.5h-108v104h108q65 0 93.5 11t28.5 35q0 29 -44 42.5t-107 13.5q-72 1 -121.5 -15t-49.5 -51
h-193q0 74 60 116.5t142.5 58.5t161.5 16q129 0 232.5 -38t103.5 -138q0 -69 -70 -98q86 -28 86 -104zM193.5 628q-25.5 26 -25.5 63t26 63t63 26t62.5 -26t25.5 -63t-25.5 -63t-62.5 -26q-38 0 -63.5 26zM444 628q-26 26 -26 63t26.5 63t63.5 26t62.5 -26t25.5 -63
t-25.5 -63t-62.5 -26q-38 0 -64 26z" />
    <glyph glyph-name="uni04E0" unicode="&#x4e0;" horiz-adv-x="946" 
d="M918 230q-1 -137 -121.5 -194.5t-315.5 -57.5q-216 0 -334 77.5t-118 233.5h199q0 -105 88 -136.5t165 -31.5q227 0 230 109q-1 32 -18.5 49t-54.5 23t-103 6h-185l1 113l277 169h-568v150h831v-150l-266 -166q123 -4 205 -44t88 -148v-2v0z" />
    <glyph glyph-name="uni04E1" unicode="&#x4e1;" horiz-adv-x="824" 
d="M797 35q-1 -135 -111.5 -193.5t-265.5 -58.5q-112 0 -200.5 34t-140 104t-51.5 173h196q0 -106 66.5 -137t129.5 -31q59 0 121 20t64 89q-1 46 -38 62t-118 16h-130l1 133l207 149h-463v150h706v-150l-212 -152q97 -14 165.5 -61t73.5 -145v-2v0z" />
    <glyph glyph-name="uni04E2" unicode="&#x4e2;" horiz-adv-x="980" 
d="M255 740v-502l470 502h208v-740h-208v502l-470 -502h-207v740h207zM263 773v125h437v-125h-437z" />
    <glyph glyph-name="uni04E3" unicode="&#x4e3;" horiz-adv-x="784" 
d="M223 198l334 347h195v-545h-195v347l-334 -347h-190v545h190v-347zM172 578v125h437v-125h-437z" />
    <glyph glyph-name="uni04E4" unicode="&#x4e4;" horiz-adv-x="980" 
d="M255 740v-502l470 502h208v-740h-208v502l-470 -502h-207v740h207zM310.5 809q-25.5 26 -25.5 63t26 63t63 26t62.5 -26t25.5 -63t-25.5 -63t-62.5 -26q-38 0 -63.5 26zM561 809q-26 26 -26 63t26.5 63t63.5 26t62.5 -26t25.5 -63t-25.5 -63t-62.5 -26q-38 0 -64 26z" />
    <glyph glyph-name="uni04E5" unicode="&#x4e5;" horiz-adv-x="784" 
d="M223 198l334 347h195v-545h-195v347l-334 -347h-190v545h190v-347zM208.5 630q-25.5 26 -25.5 63t26 63t63 26t62.5 -26t25.5 -63t-25.5 -63t-62.5 -26q-38 0 -63.5 26zM459 630q-26 26 -26 63t26.5 63t63.5 26t62.5 -26t25.5 -63t-25.5 -63t-62.5 -26q-38 0 -64 26z" />
    <glyph glyph-name="uni04E6" unicode="&#x4e6;" horiz-adv-x="994" 
d="M740 705.5q107 -50.5 168 -139t61 -199.5q0 -110 -61 -198t-168 -138.5t-241 -50.5q-129 0 -237.5 50.5t-172.5 139t-64 197.5q0 110 63.5 199t172.5 139.5t238 50.5q134 0 241 -50.5zM622 169.5q58 26.5 94 77t36 120.5q0 69 -36 120.5t-94 78.5t-123 27
q-67 0 -125.5 -26.5t-93.5 -77.5t-35 -120q0 -70 35.5 -121.5t94 -78t124.5 -26.5q65 0 123 26.5zM309.5 809q-25.5 26 -25.5 63t26 63t63 26t62.5 -26t25.5 -63t-25.5 -63t-62.5 -26q-38 0 -63.5 26zM560 809q-26 26 -26 63t26.5 63t63.5 26t62.5 -26t25.5 -63t-25.5 -63
t-62.5 -26q-38 0 -64 26z" />
    <glyph glyph-name="uni04E7" unicode="&#x4e7;" horiz-adv-x="785" 
d="M589 530q84 -38 131.5 -105.5t47.5 -151.5q0 -83 -47.5 -150.5t-131.5 -105.5t-189 -38q-101 0 -189 38.5t-140.5 106t-52.5 149.5q0 83 52.5 150.5t140.5 106t189 38.5q105 0 189 -38zM523 148q51 43 51 125q0 83 -51 126t-123 43q-46 0 -88.5 -18.5t-69.5 -56.5
t-27 -94q0 -55 27 -93t69.5 -56.5t88.5 -18.5q72 0 123 43zM202.5 633q-25.5 26 -25.5 63t26 63t63 26t62.5 -26t25.5 -63t-25.5 -63t-62.5 -26q-38 0 -63.5 26zM453 633q-26 26 -26 63t26.5 63t63.5 26t62.5 -26t25.5 -63t-25.5 -63t-62.5 -26q-38 0 -64 26z" />
    <glyph glyph-name="uni04E8" unicode="&#x4e8;" horiz-adv-x="994" 
d="M740 705.5q107 -50.5 168 -139t61 -199.5q0 -110 -61 -198t-168 -138.5t-241 -50.5q-129 0 -237.5 50.5t-172.5 139t-64 197.5q0 110 63.5 199t172.5 139.5t238 50.5q134 0 241 -50.5zM345.5 551q-67.5 -42 -90.5 -116h487q-24 74 -92.5 116t-150.5 42q-86 0 -153.5 -42z
M652.5 186q69.5 43 91.5 119h-491q22 -76 91.5 -119t154.5 -43q84 0 153.5 43z" />
    <glyph glyph-name="uni04E9" unicode="&#x4e9;" horiz-adv-x="785" 
d="M589 530q84 -38 131.5 -105.5t47.5 -151.5q0 -83 -47.5 -150.5t-131.5 -105.5t-189 -38q-101 0 -189 38.5t-140.5 106t-52.5 149.5q0 83 52.5 150.5t140.5 106t189 38.5q105 0 189 -38zM291.5 413q-50.5 -29 -68.5 -85h344q-16 56 -62 85t-105 29q-58 0 -108.5 -29z
M508 136q47 31 61 92h-349q15 -60 67 -91.5t113 -31.5t108 31z" />
    <glyph glyph-name="uni04EA" unicode="&#x4ea;" horiz-adv-x="994" 
d="M740 705.5q107 -50.5 168 -139t61 -199.5q0 -110 -61 -198t-168 -138.5t-241 -50.5q-129 0 -237.5 50.5t-172.5 139t-64 197.5q0 110 63.5 199t172.5 139.5t238 50.5q134 0 241 -50.5zM345.5 551q-67.5 -42 -90.5 -116h487q-24 74 -92.5 116t-150.5 42q-86 0 -153.5 -42z
M652.5 186q69.5 43 91.5 119h-491q22 -76 91.5 -119t154.5 -43q84 0 153.5 43zM306.5 809q-25.5 26 -25.5 63t26 63t63 26t62.5 -26t25.5 -63t-25.5 -63t-62.5 -26q-38 0 -63.5 26zM557 809q-26 26 -26 63t26.5 63t63.5 26t62.5 -26t25.5 -63t-25.5 -63t-62.5 -26
q-38 0 -64 26z" />
    <glyph glyph-name="uni04EB" unicode="&#x4eb;" horiz-adv-x="785" 
d="M589 530q84 -38 131.5 -105.5t47.5 -151.5q0 -83 -47.5 -150.5t-131.5 -105.5t-189 -38q-101 0 -189 38.5t-140.5 106t-52.5 149.5q0 83 52.5 150.5t140.5 106t189 38.5q105 0 189 -38zM291.5 413q-50.5 -29 -68.5 -85h344q-16 56 -62 85t-105 29q-58 0 -108.5 -29z
M508 136q47 31 61 92h-349q15 -60 67 -91.5t113 -31.5t108 31zM207.5 617q-25.5 26 -25.5 63t26 63t63 26t62.5 -26t25.5 -63t-25.5 -63t-62.5 -26q-38 0 -63.5 26zM458 617q-26 26 -26 63t26.5 63t63.5 26t62.5 -26t25.5 -63t-25.5 -63t-62.5 -26q-38 0 -64 26z" />
    <glyph glyph-name="uni04EC" unicode="&#x4ec;" horiz-adv-x="987" 
d="M727 708.5q110 -50.5 173.5 -139.5t63.5 -200q0 -110 -61 -199t-170.5 -139.5t-249.5 -50.5q-116 0 -210 37t-158 105.5t-91 163.5h219q30 -69 94.5 -105.5t144.5 -36.5q91 0 163 42.5t95 118.5h-315v129h314q-16 50 -56.5 87t-93.5 56t-107 19q-47 0 -97 -17t-89.5 -50
t-55.5 -79l-216 1q25 94 89 163.5t159 107t211 37.5q134 0 244 -50.5zM291.5 809q-25.5 26 -25.5 63t26 63t63 26t62.5 -26t25.5 -63t-25.5 -63t-62.5 -26q-38 0 -63.5 26zM542 809q-26 26 -26 63t26.5 63t63.5 26t62.5 -26t25.5 -63t-25.5 -63t-62.5 -26q-38 0 -64 26z" />
    <glyph glyph-name="uni04ED" unicode="&#x4ed;" horiz-adv-x="763" 
d="M561 527q85 -38 134 -105.5t49 -151.5q0 -83 -50 -150.5t-135 -106t-186 -38.5q-91 0 -168.5 32t-126.5 86.5t-59 118.5h195q12 -48 54.5 -79.5t102.5 -31.5q62 -1 105 29.5t60 79.5h-175v119h176q-16 51 -59.5 80.5t-106.5 29.5q-60 0 -103 -31.5t-55 -80.5h-195
q28 109 117.5 173.5t237.5 64.5q103 0 188 -38zM179.5 635q-25.5 26 -25.5 63t26 63t63 26t62.5 -26t25.5 -63t-25.5 -63t-62.5 -26q-38 0 -63.5 26zM430 635q-26 26 -26 63t26.5 63t63.5 26t62.5 -26t25.5 -63t-25.5 -63t-62.5 -26q-38 0 -64 26z" />
    <glyph glyph-name="uni04EE" unicode="&#x4ee;" horiz-adv-x="903" 
d="M911 740l-372 -628q-35 -64 -138.5 -91t-213.5 -23v158q65 0 87.5 10t22.5 27q0 8 -2 18l-303 529h222l231 -426l245 426h221zM233 774v125h437v-125h-437z" />
    <glyph glyph-name="uni04EF" unicode="&#x4ef;" horiz-adv-x="848" 
d="M838 545l-330 -668q-30 -59 -113 -76.5t-190 -17.5l-1 163q54 0 74.5 8t20.5 22q0 6 -3 14t-4 10l-282 545h211l208 -442l198 442h211zM214 578v125h437v-125h-437z" />
    <glyph glyph-name="uni04F0" unicode="&#x4f0;" horiz-adv-x="903" 
d="M911 740l-372 -628q-35 -64 -138.5 -91t-213.5 -23v158q65 0 87.5 10t22.5 27q0 8 -2 18l-303 529h222l231 -426l245 426h221zM265.5 809q-25.5 26 -25.5 63t26 63t63 26t62.5 -26t25.5 -63t-25.5 -63t-62.5 -26q-38 0 -63.5 26zM516 809q-26 26 -26 63t26.5 63t63.5 26
t62.5 -26t25.5 -63t-25.5 -63t-62.5 -26q-38 0 -64 26z" />
    <glyph glyph-name="uni04F1" unicode="&#x4f1;" horiz-adv-x="848" 
d="M838 545l-330 -668q-30 -59 -113 -76.5t-190 -17.5l-1 163q54 0 74.5 8t20.5 22q0 6 -3 14t-4 10l-282 545h211l208 -442l198 442h211zM239.5 632q-25.5 26 -25.5 63t26 63t63 26t62.5 -26t25.5 -63t-25.5 -63t-62.5 -26q-38 0 -63.5 26zM490 632q-26 26 -26 63t26.5 63
t63.5 26t62.5 -26t25.5 -63t-25.5 -63t-62.5 -26q-38 0 -64 26z" />
    <glyph glyph-name="uni04F2" unicode="&#x4f2;" horiz-adv-x="903" 
d="M911 740l-372 -628q-35 -64 -138.5 -91t-213.5 -23v158q65 0 87.5 10t22.5 27q0 8 -2 18l-303 529h222l231 -426l245 426h221zM288 777l70 133h130l-70 -133h-130zM479 777l70 133h130l-70 -133h-130z" />
    <glyph glyph-name="uni04F3" unicode="&#x4f3;" horiz-adv-x="848" 
d="M838 545l-330 -668q-30 -59 -113 -76.5t-190 -17.5l-1 163q54 0 74.5 8t20.5 22q0 6 -3 14t-4 10l-282 545h211l208 -442l198 442h211zM248 584l70 133h130l-70 -133h-130zM439 584l70 133h130l-70 -133h-130z" />
    <glyph glyph-name="uni04F4" unicode="&#x4f4;" horiz-adv-x="875" 
d="M630 740h198v-740h-198v262q-78 -84 -225 -84q-102 0 -186.5 36t-135 110.5t-50.5 185.5v230h197v-227q0 -80 51.5 -129.5t156.5 -49.5q98 0 145 42.5t47 133.5v230zM242.5 809q-25.5 26 -25.5 63t26 63t63 26t62.5 -26t25.5 -63t-25.5 -63t-62.5 -26q-38 0 -63.5 26z
M493 809q-26 26 -26 63t26.5 63t63.5 26t62.5 -26t25.5 -63t-25.5 -63t-62.5 -26q-38 0 -64 26z" />
    <glyph glyph-name="uni04F5" unicode="&#x4f5;" horiz-adv-x="762" 
d="M535 545h195v-545h-195v191q-62 -69 -178 -69q-152 0 -238 71t-86 246v106h195v-119q0 -57 12 -95t45.5 -60.5t96.5 -22.5q68 0 101.5 21.5t42.5 57t9 96.5v122zM192.5 633q-25.5 26 -25.5 63t26 63t63 26t62.5 -26t25.5 -63t-25.5 -63t-62.5 -26q-38 0 -63.5 26z
M443 633q-26 26 -26 63t26.5 63t63.5 26t62.5 -26t25.5 -63t-25.5 -63t-62.5 -26q-38 0 -64 26z" />
    <glyph glyph-name="uni04F6" unicode="&#x4f6;" horiz-adv-x="754" 
d="M726 740v-155h-471v-465h102v-235h-195v115h-114v740h678z" />
    <glyph glyph-name="uni04F7" unicode="&#x4f7;" horiz-adv-x="561" 
d="M540 545v-134h-302v-294h127v-220h-185v103h-147v545h507z" />
    <glyph glyph-name="uni04F8" unicode="&#x4f8;" horiz-adv-x="1159" 
d="M545 512q95 0 166 -30t110.5 -88t39.5 -139v-4q0 -74 -39.5 -131t-111 -88.5t-164.5 -31.5h-498v740h207v-228h290zM904 0v740h207v-740h-207zM670 257q0 65 -34 88.5t-96 23.5h-1h-284v-226q134 0 186 -0.5t70 -0.5h29q130 0 130 115zM394.5 809q-25.5 26 -25.5 63
t26 63t63 26t62.5 -26t25.5 -63t-25.5 -63t-62.5 -26q-38 0 -63.5 26zM645 809q-26 26 -26 63t26.5 63t63.5 26t62.5 -26t25.5 -63t-25.5 -63t-62.5 -26q-38 0 -64 26z" />
    <glyph glyph-name="uni04F9" unicode="&#x4f9;" horiz-adv-x="1003" 
d="M666.5 352q69.5 -51 69.5 -151v-3q0 -95 -55.5 -146.5t-189.5 -51.5q-28 0 -41 1v-1h-414l-3 545h195l1 -142h218h2q148 0 217.5 -51zM776 0v545h195v-545h-195zM497.5 123q25.5 4 44.5 23t19 59q0 41 -19 59t-42 21t-66 3h-2h-203l1 -169h204q38 0 63.5 4zM308.5 631
q-25.5 26 -25.5 63t26 63t63 26t62.5 -26t25.5 -63t-25.5 -63t-62.5 -26q-38 0 -63.5 26zM559 631q-26 26 -26 63t26.5 63t63.5 26t62.5 -26t25.5 -63t-25.5 -63t-62.5 -26q-38 0 -64 26z" />
    <glyph glyph-name="uni04FC" unicode="&#x4fc;" horiz-adv-x="956" 
d="M804 126h147v-131q0 -96 -34.5 -151t-116.5 -80t-229 -24v158q72 0 123 22t50 80h-79l-206 256l-206 -256h-240l293 367l-293 373h240l206 -258l206 258h239l-292 -373z" />
    <glyph glyph-name="uni04FD" unicode="&#x4fd;" horiz-adv-x="904" 
d="M725 111h164v-111q0 -80 -29 -127t-106 -70t-221 -23v143q68 0 119 17.5t54 59.5h-106l-173 188l-173 -188h-226l247 270l-247 275h226l173 -190l173 190h226l-246 -275z" />
    <glyph glyph-name="uni0510" unicode="&#x510;" horiz-adv-x="977" 
d="M670 163q78 40 78 126h199q0 -151 -121.5 -231t-345.5 -80q-201 0 -326 64t-126 203v2q7 116 125 154q-105 37 -105 140q0 96 70 145t162.5 62.5t199.5 13.5q176 0 321.5 -51.5t145.5 -195.5h-199q0 53 -78 77.5t-190 23.5q-98 -1 -166.5 -22.5t-68.5 -65.5
q0 -40 45.5 -58t135.5 -18h185v-134h-185q-80 0 -119.5 -6.5t-54 -21.5t-15.5 -45q1 -64 72 -93t171 -28q112 -1 190 39z" />
    <glyph glyph-name="uni0511" unicode="&#x511;" horiz-adv-x="751" 
d="M491 140.5q50 25.5 50 77.5h193q0 -63 -42 -116.5t-125 -86t-198 -32.5q-159 0 -255 48.5t-96 151.5q0 76 85 104q-70 30 -70 98q0 100 103.5 138t232.5 38q79 0 162 -16t143 -58.5t60 -116.5h-193q0 35 -50 51t-122 15q-63 0 -106.5 -13.5t-43.5 -42.5q0 -24 28.5 -35
t93.5 -11h108v-104h-108q-52 0 -79.5 -4.5t-37.5 -14.5t-11 -27q1 -39 46.5 -56t109.5 -15q72 2 122 27.5z" />
    <glyph glyph-name="uni0512" unicode="&#x512;" horiz-adv-x="986" 
d="M896 126h95v-131q0 -95 -34.5 -150t-116.5 -80t-229 -25v158q72 0 123 22t50 80h-95v585h-281q-21 -135 -45.5 -236t-69.5 -204q-30 -63 -81.5 -94t-81 -36.5t-102.5 -14.5v176q76 0 103 76q70 222 89 488h676v-614z" />
    <glyph glyph-name="uni0513" unicode="&#x513;" horiz-adv-x="901" 
d="M784 126h112v-131q0 -75 -33.5 -122t-111 -70t-210.5 -23v138q70 0 122 18.5t51 63.5h-125v405h-250q-11 -133 -22 -192.5t-34 -99.5q-45 -74 -115 -94t-101.5 -20h-33.5v156q32 0 49.5 8t26 21.5t17.5 38.5q21 64 25 122t4 198h629v-417z" />
    <glyph glyph-name="uni051C" unicode="&#x51c;" horiz-adv-x="1510" 
d="M1037 251l251 489h215l-380 -740h-215l-151 448l-149 -448h-215l-385 740h220l252 -490l169 490h220z" />
    <glyph glyph-name="uni051D" unicode="&#x51d;" horiz-adv-x="1157" 
d="M777 183l157 362h211l-272 -545h-180l-114 335l-115 -335h-179l-272 545h210l157 -363l102 363h193z" />
    <glyph glyph-name="uni0524" unicode="&#x524;" horiz-adv-x="1010" 
d="M923 740v-620h90v-235h-195v115h-105v585h-455v-585h-210v740h875z" />
    <glyph glyph-name="uni0525" unicode="&#x525;" horiz-adv-x="849" 
d="M738 545v-450h103v-220h-185v125h-113v402h-315v-402h-195v545h705z" />
    <glyph glyph-name="uni0526" unicode="&#x526;" horiz-adv-x="940" 
d="M843 120h110v-235h-195v115h-113v227q0 80 -51 129.5t-156 49.5q-99 0 -146 -42.5t-47 -133.5v-230h-197v740h197v-262q78 85 225 85q102 0 186.5 -36t135.5 -111t51 -186v-110z" />
    <glyph glyph-name="uni0527" unicode="&#x527;" horiz-adv-x="811" 
d="M714 95h92v-220h-185v125h-102v222q0 64 -8.5 108t-39.5 74t-94 30q-66 0 -98.5 -31t-41.5 -75.5t-9 -107.5v-220h-195v740h195v-262q76 85 232 85q111 0 182.5 -80t71.5 -258v-130z" />
    <glyph glyph-name="Wgrave" unicode="&#x1e80;" horiz-adv-x="1510" 
d="M1037 251l251 489h215l-380 -740h-215l-151 448l-149 -448h-215l-385 740h220l252 -490l169 490h220zM561 910h204l70 -133h-154z" />
    <glyph glyph-name="wgrave" unicode="&#x1e81;" horiz-adv-x="1157" 
d="M777 183l157 362h211l-272 -545h-180l-114 335l-115 -335h-179l-272 545h210l157 -363l102 363h193zM384 730h204l70 -133h-154z" />
    <glyph glyph-name="Wacute" unicode="&#x1e82;" horiz-adv-x="1510" 
d="M1037 251l251 489h215l-380 -740h-215l-151 448l-149 -448h-215l-385 740h220l252 -490l169 490h220zM676 777l70 133h204l-120 -133h-154z" />
    <glyph glyph-name="wacute" unicode="&#x1e83;" horiz-adv-x="1157" 
d="M777 183l157 362h211l-272 -545h-180l-114 335l-115 -335h-179l-272 545h210l157 -363l102 363h193zM509 597l70 133h204l-120 -133h-154z" />
    <glyph glyph-name="Wdieresis" unicode="&#x1e84;" horiz-adv-x="1510" 
d="M1037 251l251 489h215l-380 -740h-215l-151 448l-149 -448h-215l-385 740h220l252 -490l169 490h220zM565.5 809q-25.5 26 -25.5 63t26 63t63 26t62.5 -26t25.5 -63t-25.5 -63t-62.5 -26q-38 0 -63.5 26zM816 809q-26 26 -26 63t26.5 63t63.5 26t62.5 -26t25.5 -63
t-25.5 -63t-62.5 -26q-38 0 -64 26z" />
    <glyph glyph-name="wdieresis" unicode="&#x1e85;" horiz-adv-x="1157" 
d="M777 183l157 362h211l-272 -545h-180l-114 335l-115 -335h-179l-272 545h210l157 -363l102 363h193zM390.5 619q-25.5 26 -25.5 63t26 63t63 26t62.5 -26t25.5 -63t-25.5 -63t-62.5 -26q-38 0 -63.5 26zM641 619q-26 26 -26 63t26.5 63t63.5 26t62.5 -26t25.5 -63
t-25.5 -63t-62.5 -26q-38 0 -64 26z" />
    <glyph glyph-name="uni1E9E" unicode="&#x1e9e;" horiz-adv-x="600" 
 />
    <glyph glyph-name="Ygrave" unicode="&#x1ef2;" horiz-adv-x="951" 
d="M718 740h225l-355 -429v-311h-225v310l-355 430h225l238 -290zM285 910h204l70 -133h-154z" />
    <glyph glyph-name="ygrave" unicode="&#x1ef3;" horiz-adv-x="848" 
d="M838 545l-330 -668q-30 -59 -113 -76.5t-190 -17.5l-1 163q54 0 74.5 8t20.5 22q0 6 -3 14t-4 10l-282 545h211l208 -442l198 442h211zM215 730h204l70 -133h-154z" />
    <glyph glyph-name="endash" unicode="&#x2013;" horiz-adv-x="766" 
d="M33 227v124h700v-124h-700z" />
    <glyph glyph-name="emdash" unicode="&#x2014;" horiz-adv-x="1166" 
d="M33 227v124h1100v-124h-1100z" />
    <glyph glyph-name="quoteleft" unicode="&#x2018;" horiz-adv-x="369" 
d="M234 410l100 330h-99l-200 -330h199z" />
    <glyph glyph-name="quoteright" unicode="&#x2019;" horiz-adv-x="369" 
d="M135 740l-100 -330h99l200 330h-199z" />
    <glyph glyph-name="quotesinglbase" unicode="&#x201a;" horiz-adv-x="556" 
d="M31 0v170h194v-170l-88 -105h-105l88 105h-89z" />
    <glyph glyph-name="quotedblleft" unicode="&#x201c;" horiz-adv-x="616" 
d="M234 410l100 330h-99l-200 -330h199zM481 410l100 330h-99l-200 -330h199z" />
    <glyph glyph-name="quotedblright" unicode="&#x201d;" horiz-adv-x="616" 
d="M135 740l-100 -330h99l200 330h-199zM382 740l-100 -330h99l200 330h-199z" />
    <glyph glyph-name="quotedblbase" unicode="&#x201e;" horiz-adv-x="242" 
d="M33 0v170h194v-170l-87 -105h-105l87 105h-89z" />
    <glyph glyph-name="dagger" unicode="&#x2020;" horiz-adv-x="544" 
d="M368 545h166v-109h-166v-539h-192v539h-166v109h166v153h192v-153z" />
    <glyph glyph-name="daggerdbl" unicode="&#x2021;" horiz-adv-x="545" 
d="M369 166h166v-110h-166v-153h-1v-6h-192v159h-165v110h165v270h-166v109h166v153h1v6h192v-159h165v-109h-165v-270z" />
    <glyph glyph-name="bullet" unicode="&#x2022;" horiz-adv-x="330" 
d="M96.5 161q-31.5 18 -49.5 49.5t-18 68.5t18 68.5t49.5 49.5t68.5 18t68.5 -18t49.5 -49.5t18 -68.5t-18 -68.5t-49.5 -49.5t-68.5 -18t-68.5 18z" />
    <glyph glyph-name="ellipsis" unicode="&#x2026;" horiz-adv-x="244" 
d="M35 0v170h194v-170h-194z" />
    <glyph glyph-name="perthousand" unicode="&#x2030;" horiz-adv-x="1181" 
d="M195 0h-180l650 700h180zM154 397.5q-37 21.5 -58.5 58.5t-21.5 80t21.5 80t58.5 58.5t80 21.5t80 -21.5t58.5 -58.5t21.5 -80t-21.5 -80t-58.5 -58.5t-80 -21.5t-80 21.5zM277.5 493q17.5 18 17.5 43q0 26 -17.5 43.5t-43.5 17.5q-25 0 -42.5 -17.5t-17.5 -43.5
t17.5 -43.5t42.5 -17.5q26 0 43.5 18zM546 27.5q-37 21.5 -58.5 58.5t-21.5 80t21.5 80t58.5 58.5t80 21.5t80 -21.5t58.5 -58.5t21.5 -80t-21.5 -80t-58.5 -58.5t-80 -21.5t-80 21.5zM926 27.5q-37 21.5 -58.5 58.5t-21.5 80t21.5 80t58.5 58.5t80 21.5t80 -21.5
t58.5 -58.5t21.5 -80t-21.5 -80t-58.5 -58.5t-80 -21.5t-80 21.5zM668.5 124q17.5 18 17.5 42q0 25 -18 42.5t-42 17.5t-42 -17.5t-18 -42.5q0 -24 18 -42t42 -18q25 0 42.5 18zM1048 124.5q18 17.5 18 41.5q0 25 -18 42.5t-42 17.5t-41.5 -18t-17.5 -42t17.5 -41.5
t41.5 -17.5t42 17.5z" />
    <glyph glyph-name="guilsinglleft" unicode="&#x2039;" horiz-adv-x="412" 
d="M193 276l208 -211h-194l-202 212l192 202h196z" />
    <glyph glyph-name="guilsinglright" unicode="&#x203a;" horiz-adv-x="412" 
d="M202 65h-194l208 211l-200 203h196l192 -202z" />
    <glyph glyph-name="fraction" unicode="&#x2044;" horiz-adv-x="600" 
 />
    <glyph glyph-name="Euro" unicode="&#x20ac;" horiz-adv-x="874" 
d="M761 176l89 -155q-99 -41 -220 -41q-108 0 -203 36t-162 101t-93 149h-144l40 93h88v8q0 15 1 22h-79l40 93h58q29 81 95.5 143t159.5 96.5t199 34.5q125 0 229 -45l-76 -166q-32 24 -72 36t-81 12q-71 0 -131 -29t-92 -82h289l-40 -93h-279q-1 -7 -1 -22v-8h270l-40 -93
h-206q30 -59 93.5 -91t136.5 -32t131 33z" />
    <glyph glyph-name="uni20BD" unicode="&#x20bd;" horiz-adv-x="1001" 
d="M823.5 709q71.5 -31 111 -86.5t39.5 -128.5v-4q0 -121 -77.5 -185.5t-219.5 -64.5h-351v-36h198v-118h-198v-86h-208v86h-108v118h108v36h-108v152h108v348h541q93 0 164.5 -31zM711.5 397.5q29.5 4.5 50 25t20.5 66.5q0 47 -20.5 68.5t-51 26.5t-83.5 5h-37
q-23 0 -79.5 -0.5t-185.5 -0.5v-195h301h1q55 0 84.5 4.5z" />
    <glyph glyph-name="trademark" unicode="&#x2122;" horiz-adv-x="2032" 
d="M33 569v171h856zM889 740v-172h-322v-568h-208v568h-326v172h856zM1985 740v-740h-208v398l-194 -398h-198l-209 406v-406h-207v740h243l271 -540l263 540h239z" />
    <glyph glyph-name="partialdiff" unicode="&#x2202;" horiz-adv-x="974" 
d="M833 681.5q126 -74.5 126 -264.5q0 -62 -14 -128q-44 -162 -174.5 -236.5t-351.5 -74.5q-178 0 -291 58t-113 174q0 17 3 35h-1q10 74 61 128.5t135 83.5t191 29q106 0 198.5 -11.5t156.5 -56.5q2 105 -71.5 153t-180.5 46q-37 1 -79 -4t-76 -17l-126 105q113 55 302 55
q179 0 305 -74.5zM557.5 134.5q53.5 6.5 108.5 40t61 104.5h1q4 95 -230 95q-85 0 -142 -9.5t-94 -38t-45 -82.5q-1 -4 -1 -12q0 -55 64.5 -80.5t157.5 -24.5q66 1 119.5 7.5z" />
    <glyph glyph-name="emptyset" unicode="&#x2205;" horiz-adv-x="840" 
d="M825 700l-126 -135q33 -44 50.5 -97.5t17.5 -111.5q0 -96 -47.5 -177.5t-129 -129t-177.5 -47.5q-102 0 -188 54l-50 -54h-160l122 131q-37 46 -57.5 103.5t-20.5 119.5q0 96 47.5 177.5t129 129t177.5 47.5q113 0 203 -63l49 53h160zM228 231l297 319q-51 30 -112 30
q-62 0 -113.5 -30t-81 -81.5t-29.5 -112.5q0 -70 39 -125zM608 467l-291 -313q46 -22 96 -22q61 0 112.5 30.5t81.5 81.5t30 112q0 58 -29 111z" />
    <glyph glyph-name="product" unicode="&#x220f;" horiz-adv-x="835" 
d="M791 740v-930h-210v775h-321v-775h-210v930h741z" />
    <glyph glyph-name="summation" unicode="&#x2211;" horiz-adv-x="587" 
d="M544 764v-135h-288l123 -307l-123 -307h288v-135h-544l177 442l-177 442h544z" />
    <glyph glyph-name="minus" unicode="&#x2212;" horiz-adv-x="477" 
d="M462 378v-108h-447v108h447z" />
    <glyph glyph-name="radical" unicode="&#x221a;" horiz-adv-x="849" 
d="M834 817v-126h-180l-227 -820h-219l-193 407h182l78 -165l195 704h364z" />
    <glyph glyph-name="infinity" unicode="&#x221e;" horiz-adv-x="855" 
d="M740 472q46 -27 73 -73t27 -101t-27 -101t-73 -73t-101 -27t-109 31t-102 78q-113 -109 -212 -109q-55 0 -101 27t-73 73t-27 101t27 101t73 73t101 27q99 0 212 -109q48 47 102 78t109 31t101 -27zM289.5 237.5q33.5 24.5 57.5 60.5q-24 36 -57.5 61t-69.5 25
q-35 0 -60 -25t-25 -61q0 -35 25 -60t60 -25q36 0 69.5 24.5zM696 237.5q25 24.5 25 60.5t-25 61t-61 25t-69.5 -25t-57.5 -61q24 -36 57.5 -60.5t69.5 -24.5t61 24.5z" />
    <glyph glyph-name="integral" unicode="&#x222b;" horiz-adv-x="400" 
d="M385 612q-50 0 -74 -22.5t-29.5 -58t-5.5 -96.5v-421q0 -88 -27.5 -129t-79.5 -52.5t-154 -11.5v128q44 0 66 10.5t32.5 46t10.5 112.5v369q0 110 21 162.5t74.5 71.5t165.5 19v-128z" />
    <glyph glyph-name="approxequal" unicode="&#x2248;" horiz-adv-x="504" 
d="M15 431q54 43 109 43q31 0 60 -11t68 -32q42 -22 70 -32.5t58 -10.5q55 0 109 43v-125q-53 -42 -106 -42q-31 0 -60.5 11.5t-68.5 33.5q-40 22 -69 33t-59 11q-56 0 -111 -47v125zM15 262q54 43 109 43q31 0 60 -11t68 -32q42 -22 70 -32.5t58 -10.5q55 0 109 43v-125
q-53 -42 -106 -42q-31 0 -60.5 11.5t-68.5 33.5q-40 22 -69 33t-59 11q-56 0 -111 -47v125z" />
    <glyph glyph-name="notequal" unicode="&#x2260;" horiz-adv-x="532" 
d="M515 422v-108h-164l-32 -56h196v-108h-257l-38 -68h-140l38 68h-103v108h164l32 56h-196v108h257l35 62h140l-35 -62h103z" />
    <glyph glyph-name="lessequal" unicode="&#x2264;" horiz-adv-x="599" 
d="M16 491l562 157v-131l-409 -96l409 -96v-131l-562 156v141zM577 72h-562v102h562v-102z" />
    <glyph glyph-name="greaterequal" unicode="&#x2265;" horiz-adv-x="599" 
d="M577 350l-562 -156v131l409 96l-409 96v131l562 -157v-141zM16 72v102h562v-102h-562z" />
    <glyph glyph-name="lozenge" unicode="&#x25ca;" horiz-adv-x="600" 
 />
    <glyph glyph-name="i.loclTRK" horiz-adv-x="276" 
d="M73 635q-26 26 -26 63t26 62.5t64 25.5q37 0 62.5 -25.5t25.5 -62.5t-25.5 -63t-62.5 -26q-38 0 -64 26zM237 0h-195v575h195v-575z" />
    <glyph glyph-name="uni0414.loclBGR" horiz-adv-x="1010" 
d="M891 160h99v-256h-196v95l-577 1v-96h-196v256h67q84 153 123 284.5t39 295.5h640zM434 585q-15 -112 -50.5 -213t-92.5 -212h405v424z" />
    <glyph glyph-name="uni041B.loclBGR" horiz-adv-x="944" 
d="M896 740v-740h-207v585h-281q-21 -135 -45.5 -236t-69.5 -204q-30 -63 -81.5 -94t-81 -36.5t-102.5 -14.5v176q76 0 103 76q70 222 89 488h676z" />
    <glyph glyph-name="uni0424.loclBGR" horiz-adv-x="1331" 
d="M1248.5 216.5q-64.5 -68.5 -177.5 -108t-254 -39.5h-40v-69h-208v69h-31h-6h-1q-136 0 -254 40t-188.5 108.5t-70.5 151.5q0 84 70 152t187 108t253 41h41v70h208v-70h40q141 -1 254.5 -40t177.5 -107.5t64 -153.5q0 -84 -64.5 -152.5zM569 225v290h-28q-114 0 -205 -34
t-91 -112q0 -76 91 -110t205 -34h28zM814 225q115 0 197 33.5t82 110.5q0 79 -83.5 112.5t-196.5 33.5h-36v-290h37z" />
    <glyph glyph-name="uni0432.loclBGR" horiz-adv-x="798" 
d="M224 192q-1 -8 -1 -21zM748.5 241.5q32.5 -30.5 32.5 -87.5v-2q0 -80 -70 -116t-217 -37h-2h-26h-433v546h485h7q101 0 155.5 -34t54.5 -99v-4q0 -48 -20.5 -78t-63.5 -45q65 -13 97.5 -43.5zM532 421.5q-14 11.5 -36 14t-63 2.5h-209v-111q64 0 89 -1q114 0 114 -1h-27
h33q42 0 63 2.5t35.5 15t14.5 41.5q0 26 -14 37.5zM528 118q26 3 42.5 15.5t16.5 40.5q0 27 -16.5 39.5t-42.5 15.5t-74 3h-2h-228v-117h230q48 0 74 3z" />
    <glyph glyph-name="uni0433.loclBGR" horiz-adv-x="560" 
d="M540 545v-134h-302v-411h-205v545h507z" />
    <glyph glyph-name="uni0434.loclBGR" horiz-adv-x="979" 
d="M863 142h99v-238h-195v95l-554 1v-96h-195v238h80q39 56 58 106.5t25 116t6 180.5h675zM375 411q-2 -97 -15 -156t-47 -113h354v268z" />
    <glyph glyph-name="uni0436.loclBGR" horiz-adv-x="1123" 
d="M838 300l288 -300h-223l-244 250v-250h-195v250l-243 -250h-224l289 301l-260 244h226l212 -196v196h195v-198l213 198h226z" />
    <glyph glyph-name="uni0437.loclBGR" horiz-adv-x="751" 
d="M734 183q0 -103 -96.5 -151.5t-255.5 -48.5q-115 0 -197.5 32.5t-124.5 86t-42 116.5h193q0 -52 49.5 -77.5t121.5 -27.5q64 -2 109.5 15t46.5 56q-1 17 -11 27t-37 14.5t-79 4.5h-108v104h108q65 0 93.5 11t28.5 35q0 29 -44 42.5t-107 13.5q-72 1 -121.5 -15t-49.5 -51
h-193q0 74 60 116.5t142.5 58.5t161.5 16q129 0 232.5 -38t103.5 -138q0 -69 -70 -98q86 -28 86 -104z" />
    <glyph glyph-name="uni0438.loclBGR" horiz-adv-x="784" 
d="M223 198l334 347h195v-545h-195v347l-334 -347h-190v545h190v-347z" />
    <glyph glyph-name="uni0439.loclBGR" horiz-adv-x="784" 
d="M223 198l334 347h195v-545h-195v347l-334 -347h-190v545h190v-347zM632 772q0 -99 -68.5 -149t-177.5 -50q-112 0 -181.5 50t-67.5 149h135q0 -46 29 -77t84 -31t83.5 31t28.5 77h135z" />
    <glyph glyph-name="uni045D.loclBGR" horiz-adv-x="784" 
d="M223 198l334 347h195v-545h-195v347l-334 -347h-190v545h190v-347zM203 731h204l70 -133h-154z" />
    <glyph glyph-name="uni043A.loclBGR" horiz-adv-x="757" 
d="M432 302l328 -301h-243l-289 257v-258h-195v545h195v-203l258 202h246z" />
    <glyph glyph-name="uni043B.loclBGR" horiz-adv-x="816" 
d="M784 543v-543h-195v405h-250q-11 -133 -22 -192.5t-34 -99.5q-45 -74 -115 -94t-101.5 -20h-33.5v156q32 0 49.5 8t26 21.5t17.5 38.5q21 64 25 122t4 198h629z" />
    <glyph glyph-name="uni043F.loclBGR" horiz-adv-x="770" 
d="M33 545h705v-545h-195v402h-315v-402h-195v545z" />
    <glyph glyph-name="uni0442.loclBGR" horiz-adv-x="771" 
d="M741 545v-150h-256v-395h-195v395h-260v150h711z" />
    <glyph glyph-name="uni0446.loclBGR" horiz-adv-x="868" 
d="M763 545v-400h93v-258h-195v113h-628v545h195v-400h340v400h195z" />
    <glyph glyph-name="uni0448.loclBGR" horiz-adv-x="1161" 
d="M934 145v400h195v-545h-1096v545h195v-400h255v400h196v-400h255z" />
    <glyph glyph-name="uni0449.loclBGR" horiz-adv-x="1229" 
d="M1129 545v-420h88v-235h-201v110h-983v545h195v-400h255v400h196v-400h255v400h195z" />
    <glyph glyph-name="uni044C.loclBGR" horiz-adv-x="756" 
d="M666.5 352q69.5 -51 69.5 -151v-3q0 -95 -55.5 -146.5t-189.5 -51.5q-28 0 -41 1v-1h-414l-3 545h195l1 -142h218h2q148 0 217.5 -51zM497.5 123q25.5 4 44.5 23t19 59q0 41 -19 59t-42 21t-66 3h-2h-203l1 -169h204q38 0 63.5 4z" />
    <glyph glyph-name="uni044A.loclBGR" horiz-adv-x="856" 
d="M768.5 352q69.5 -51 69.5 -151v-3q0 -95 -55.5 -146.5t-189.5 -51.5q-28 0 -41 1v-1h-414l-2 395h-126v150h320l1 -142h218h2q148 0 217.5 -51zM600.5 123q25.5 4 44.5 23t19 59q0 41 -19 59t-42.5 21t-66.5 3h-1h-204l1 -169h204q39 0 64.5 4z" />
    <glyph glyph-name="uni044E.loclBGR" horiz-adv-x="1037" 
d="M841.5 530q83.5 -38 131 -105.5t47.5 -151.5q0 -83 -47.5 -150.5t-131 -105.5t-187.5 -38q-89 0 -168 30.5t-133.5 84.5t-71.5 123h-53v-217h-195v546h195v-192h60q23 63 77.5 111.5t130 75.5t158.5 27q104 0 187.5 -38zM740 123q39 20 62.5 58.5t23.5 91.5q0 79 -49 124
t-123 45q-45 0 -87.5 -20t-69.5 -58.5t-27 -90.5t26.5 -90.5t68.5 -59t89 -20.5t86 20z" />
    <glyph glyph-name="uni0431.loclSRB" horiz-adv-x="806" 
d="M769 252v-1q-1 -135 -98.5 -201t-262.5 -66q-177 0 -273 70t-116 231q-1 16 -1 47q0 163 63 245t151.5 105t206.5 23h2q43 -2 103 4t60 31l180 -1q0 -78 -48.5 -116.5t-115.5 -48.5t-158 -10h-38q-173 0 -210 -133q49 29 114.5 39t142.5 10q134 0 215.5 -59.5
t82.5 -167.5v-1zM576 252q0 68 -45.5 96t-113.5 28q-97 -1 -143 -22t-54 -64q-1 -9 -1 -24q0 -60 33 -89.5t74 -37t89 -7.5q161 0 161 120z" />
    <glyph glyph-name="uni0433.loclSRB" horiz-adv-x="560" 
d="M540 545v-134h-302v-411h-205v545h507z" />
    <glyph glyph-name="uni0434.loclSRB" horiz-adv-x="979" 
d="M863 142h99v-238h-195v95l-554 1v-96h-195v238h80q39 56 58 106.5t25 116t6 180.5h675zM375 411q-2 -97 -15 -156t-47 -113h354v268z" />
    <glyph glyph-name="uni043F.loclSRB" horiz-adv-x="770" 
d="M33 545h705v-545h-195v402h-315v-402h-195v545z" />
    <glyph glyph-name="uni0442.loclSRB" horiz-adv-x="771" 
d="M741 545v-150h-256v-395h-195v395h-260v150h711z" />
    <glyph glyph-name="uni0448.loclSRB" horiz-adv-x="1161" 
d="M934 145v400h195v-545h-1096v545h195v-400h255v400h196v-400h255z" />
    <glyph glyph-name="brevecombcy" horiz-adv-x="0" 
d="M-53 924q0 -99 -68.5 -149t-177.5 -50q-112 0 -181.5 50t-67.5 149h135q0 -46 29 -77t84 -31t83.5 31t28.5 77h135z" />
    </font>
</defs>
</svg>
