<svg xmlns="http://www.w3.org/2000/svg">
<defs>
<font id="GramatikaTrial-Bold" horiz-adv-x="1320" >
  <font-face 
    font-family="Gramatika Trial Bold"
    font-weight="700"
    font-stretch="normal"
    units-per-em="2048"
    panose-1="0 0 8 0 0 0 0 0 0 0"
    ascent="1597"
    descent="-451"
    x-height="1018"
    cap-height="1434"
    bbox="-147 -434 2204 1499"
    underline-thickness="188"
    underline-position="-433"
    unicode-range="U+000D-00A0"
  />
<missing-glyph horiz-adv-x="1556" 
d="M776 1464q153 0 292 -59t239.5 -159t159.5 -238t59 -291t-59 -291.5t-159.5 -238.5t-239.5 -159t-292 -59q-152 0 -290 59t-237.5 159t-158.5 238.5t-59 291.5t59 291t158.5 238t237.5 159t290 59zM653 1343q-29 -20 -61 -57q-29 -33 -53 -80q-12 -20 -39 -76h239v252
q-35 -7 -86 -39zM815 1382v-252h242q-27 56 -39 76q-24 47 -53 80q-27 31 -64 57q-51 32 -86 39zM403 1274q-49 -35 -98 -84q-8 -8 -55 -60h164q55 132 127 213q-4 -1 -11.5 -4t-11.5 -4q-63 -26 -115 -61zM1153 1274q-52 35 -115 61q-4 1 -11 4t-11 4q72 -81 127 -213h162
q-43 48 -56 60q-43 46 -96 84zM389 1051h-192q-22 -35 -37 -74q-43 -104 -49 -221h233q6 166 45 295zM739 756v295h-268q-11 -28 -18 -62q-27 -111 -33 -233h319zM1104 989q-6 29 -19 62h-270v-295h322q-6 122 -33 233zM1212 756h232q-6 117 -49 221q-15 39 -37 74h-191
q39 -129 45 -295zM197 383h192q-39 129 -45 297h-233q6 -120 49 -223q15 -39 37 -74zM453 444q6 -32 18 -61h268v297h-319q6 -126 33 -236zM815 680v-297h270q14 34 19 61q27 110 33 236h-322zM1167 383h191q22 35 37 74q43 103 49 223h-232q-6 -168 -45 -297zM403 162
q56 -38 115 -62q4 -1 11.5 -4t11.5 -4q-71 80 -127 211h-164q33 -37 55 -57q49 -49 98 -84zM739 53v250h-239q23 -47 39 -74q23 -44 53 -79q34 -39 61 -58q51 -32 86 -39zM901 92q35 24 64 58q30 35 53 79q16 27 39 74h-242v-250q35 7 86 39zM1153 162q53 38 96 84
q27 24 56 57h-162q-56 -131 -127 -211q4 1 11 4t11 4q59 24 115 62z" />
    <glyph glyph-name=".notdef" horiz-adv-x="1556" 
d="M776 1464q153 0 292 -59t239.5 -159t159.5 -238t59 -291t-59 -291.5t-159.5 -238.5t-239.5 -159t-292 -59q-152 0 -290 59t-237.5 159t-158.5 238.5t-59 291.5t59 291t158.5 238t237.5 159t290 59zM653 1343q-29 -20 -61 -57q-29 -33 -53 -80q-12 -20 -39 -76h239v252
q-35 -7 -86 -39zM815 1382v-252h242q-27 56 -39 76q-24 47 -53 80q-27 31 -64 57q-51 32 -86 39zM403 1274q-49 -35 -98 -84q-8 -8 -55 -60h164q55 132 127 213q-4 -1 -11.5 -4t-11.5 -4q-63 -26 -115 -61zM1153 1274q-52 35 -115 61q-4 1 -11 4t-11 4q72 -81 127 -213h162
q-43 48 -56 60q-43 46 -96 84zM389 1051h-192q-22 -35 -37 -74q-43 -104 -49 -221h233q6 166 45 295zM739 756v295h-268q-11 -28 -18 -62q-27 -111 -33 -233h319zM1104 989q-6 29 -19 62h-270v-295h322q-6 122 -33 233zM1212 756h232q-6 117 -49 221q-15 39 -37 74h-191
q39 -129 45 -295zM197 383h192q-39 129 -45 297h-233q6 -120 49 -223q15 -39 37 -74zM453 444q6 -32 18 -61h268v297h-319q6 -126 33 -236zM815 680v-297h270q14 34 19 61q27 110 33 236h-322zM1167 383h191q22 35 37 74q43 103 49 223h-232q-6 -168 -45 -297zM403 162
q56 -38 115 -62q4 -1 11.5 -4t11.5 -4q-71 80 -127 211h-164q33 -37 55 -57q49 -49 98 -84zM739 53v250h-239q23 -47 39 -74q23 -44 53 -79q34 -39 61 -58q51 -32 86 -39zM901 92q35 24 64 58q30 35 53 79q16 27 39 74h-242v-250q35 7 86 39zM1153 162q53 38 96 84
q27 24 56 57h-162q-56 -131 -127 -211q4 1 11 4t11 4q59 24 115 62z" />
    <glyph glyph-name=".null" horiz-adv-x="0" 
 />
    <glyph glyph-name="nonmarkingreturn" horiz-adv-x="682" 
 />
    <glyph glyph-name="CR" unicode="&#xd;" horiz-adv-x="1228" 
 />
    <glyph glyph-name="space" unicode=" " horiz-adv-x="413" 
 />
    <glyph glyph-name="exclam" unicode="!" horiz-adv-x="663" 
d="M475 471h-289v963h289v-963zM330 -12q-73 0 -124.5 51t-51.5 123q0 71 51.5 122.5t124.5 51.5t124.5 -51.5t51.5 -122.5q0 -72 -51.5 -123t-124.5 -51z" />
    <glyph glyph-name="ampersand" unicode="&#x26;" horiz-adv-x="1484" 
d="M600 -20q-231 0 -375.5 118t-144.5 316q0 261 285 395q-113 147 -113 278q0 69 28.5 133.5t81 117t136 84.5t184.5 32q190 0 312 -108.5t122 -272.5q0 -78 -28.5 -141t-79.5 -106.5t-106 -72t-124 -51.5l242 -258q67 107 76 224h247q0 -210 -155 -402l250 -266h-330
l-107 115q-177 -135 -401 -135zM629 872q99 48 149.5 96t50.5 113q0 62 -41 105t-102 43q-64 0 -105.5 -43.5t-41.5 -114.5q0 -83 90 -199zM621 205q115 0 208 90l-315 334q-63 -38 -98 -84t-35 -113q0 -101 69 -164t171 -63z" />
    <glyph glyph-name="comma" unicode="," horiz-adv-x="628" 
d="M254 -260l-115 113q54 42 82 77t35 76q-46 21 -75 64t-29 94q0 71 52 122.5t124 51.5q73 0 124.5 -52t51.5 -124q0 -86 -58.5 -194.5t-191.5 -227.5z" />
    <glyph glyph-name="hyphen" unicode="-" horiz-adv-x="892" 
d="M756 424h-619v250h619v-250z" />
    <glyph glyph-name="period" unicode="." horiz-adv-x="667" 
d="M334 -12q-73 0 -124.5 51t-51.5 123q0 71 51.5 122.5t124.5 51.5q74 0 125 -51.5t51 -122.5q0 -72 -51.5 -123t-124.5 -51z" />
    <glyph glyph-name="zero" unicode="0" horiz-adv-x="1361" 
d="M682 -25q-271 0 -434.5 198t-163.5 544q0 345 163.5 543t432.5 198q270 0 434 -198t164 -543q0 -346 -163 -544t-433 -198zM682 236q138 0 217.5 128t79.5 353t-80 353t-219 128q-138 0 -217.5 -128t-79.5 -353t80 -353t219 -128z" />
    <glyph glyph-name="one" unicode="1" horiz-adv-x="790" 
d="M625 0h-297v1081q-133 -8 -299 -8v250q196 0 344 111h252v-1434z" />
    <glyph glyph-name="two" unicode="2" horiz-adv-x="1165" 
d="M1085 0h-1009v129q0 90 27 168t83.5 147.5t122 126.5t162.5 125q150 106 195 144q112 99 112 188q0 75 -55.5 122.5t-151.5 47.5q-91 0 -157 -55t-86 -156l-260 55q23 187 164.5 301.5t355.5 114.5t352.5 -114t138.5 -285q0 -51 -11 -98.5t-28 -85t-46 -76t-55 -65
t-67 -59.5t-69 -53.5t-73 -51.5q-8 -6 -12.5 -9t-11 -7.5t-12.5 -8.5q-9 -6 -38 -26.5t-42.5 -30.5t-40.5 -31t-42 -35t-35.5 -36.5t-32 -41t-21.5 -42.5t-14 -48h657v-254z" />
    <glyph glyph-name="three" unicode="3" horiz-adv-x="1175" 
d="M1053 1235l-357 -295q179 -29 292.5 -157t113.5 -304q0 -216 -154 -360t-385 -144q-216 0 -358.5 124.5t-159.5 324.5l264 51q12 -112 80.5 -174.5t175.5 -62.5q103 0 170.5 68t67.5 173q0 109 -67.5 179.5t-170.5 70.5q-119 0 -205 -70l-24 -20l-139 164l442 387h-528
v244h942v-199z" />
    <glyph glyph-name="four" unicode="4" horiz-adv-x="1253" 
d="M1032 0h-299v274h-696v248l702 912h293v-906h182v-254h-182v-274zM733 1049l-403 -521h403v521z" />
    <glyph glyph-name="five" unicode="5" horiz-adv-x="1198" 
d="M618 946q219 0 365.5 -134t146.5 -333q0 -142 -70 -257.5t-193.5 -181t-274.5 -65.5q-216 0 -358.5 124.5t-159.5 324.5l264 51q12 -112 80.5 -174.5t175.5 -62.5q103 0 170 68t67 173q0 109 -67 179.5t-170 70.5q-144 0 -252 -100l-240 47l144 758h807v-244h-604
l-58 -307q101 63 227 63z" />
    <glyph glyph-name="six" unicode="6" horiz-adv-x="1187" 
d="M635 981q137 0 253 -67.5t183.5 -183t67.5 -251.5q0 -216 -155 -360t-392 -144q-235 0 -387 142t-152 360q0 119 52 237t176 277l344 443h340l-353 -453h23zM594 227q106 0 176 71t70 181q0 113 -69.5 183.5t-176.5 70.5t-175.5 -70.5t-68.5 -183.5q0 -110 69 -181
t175 -71z" />
    <glyph glyph-name="seven" unicode="7" horiz-adv-x="1040" 
d="M539 0h-301q31 681 426 1180h-644v254h1006v-199q-221 -246 -344.5 -559.5t-142.5 -675.5z" />
    <glyph glyph-name="eight" unicode="8" horiz-adv-x="1206" 
d="M602 -25q-227 0 -379.5 135t-152.5 336q0 110 53.5 197.5t150.5 144.5q-124 108 -124 277t128 281t324 112q197 0 326 -112t129 -281q0 -171 -125 -277q97 -56 151 -144.5t54 -197.5q0 -130 -71 -238.5t-194 -170.5t-270 -62zM602 887q77 0 125.5 45t48.5 115
q0 71 -48 115t-126 44q-76 0 -124 -44t-48 -115t48 -115.5t124 -44.5zM602 227q100 0 168 61t68 158t-68 157.5t-168 60.5q-99 0 -166 -61t-67 -157q0 -97 67 -158t166 -61z" />
    <glyph glyph-name="nine" unicode="9" horiz-adv-x="1183" 
d="M594 1458q235 0 387 -142t152 -360q0 -119 -52.5 -237.5t-175.5 -276.5l-344 -442h-340l352 453h-22q-138 0 -254 67.5t-183 182.5t-67 251q0 216 155 360t392 144zM592 700q106 0 174 70.5t68 183.5q0 110 -68 181t-174 71t-177 -71t-71 -181q0 -113 70.5 -183.5
t177.5 -70.5z" />
    <glyph glyph-name="question" unicode="?" horiz-adv-x="1099" 
d="M647 471h-262v363h70q49 0 95.5 9.5t90 29.5t70 58t26.5 89q0 76 -55 121t-145 45t-149 -49.5t-81 -139.5l-270 88q24 121 99.5 207t178 126t222.5 40q230 0 365.5 -114.5t135.5 -288.5q-2 -143 -104.5 -246t-286.5 -147v-191zM516 -12q-72 0 -123 51t-51 123
q0 71 51 122.5t123 51.5q73 0 124.5 -51.5t51.5 -122.5q0 -72 -51.5 -123t-124.5 -51z" />
    <glyph glyph-name="at" unicode="@" horiz-adv-x="1904" 
d="M991 -377q-180 0 -341.5 57.5t-283.5 162.5t-194 265t-72 353q0 267 117.5 474.5t317.5 318t448 110.5q237 0 424.5 -101.5t294 -290t106.5 -433.5q0 -115 -25.5 -209t-67.5 -155.5t-97.5 -103t-113.5 -59.5t-118 -18q-99 0 -172.5 53t-89.5 162q-108 -154 -295 -154
q-66 0 -126.5 27t-107.5 76t-75 124.5t-28 166.5q0 140 60.5 258.5t159 186t210.5 67.5q174 0 254 -150l16 129h194l-79 -600q-6 -35 -2 -70.5t15 -63.5t37 -45.5t64 -17.5q104 0 167 97t63 276q0 138 -35 253t-97 196t-146.5 137.5t-182.5 83t-207 26.5q-154 0 -286 -51.5
t-229 -146t-152.5 -235.5t-55.5 -312q0 -164 59 -297t160.5 -218t234 -131t283.5 -46q131 0 260 39.5t209 103.5l86 -129q-103 -75 -256 -120.5t-305 -45.5zM889 227q105 0 176.5 95.5t71.5 232.5q0 113 -51 174.5t-136 61.5q-109 0 -182.5 -93.5t-73.5 -232.5
q0 -111 53 -174.5t142 -63.5z" />
    <glyph glyph-name="A" unicode="A" horiz-adv-x="1503" 
d="M584 1434h336l573 -1434h-315l-119 311h-615l-118 -311h-316zM752 1114l-201 -522h399z" />
    <glyph glyph-name="B" unicode="B" horiz-adv-x="1394" 
d="M803 0h-633v1434h633q212 0 333 -105t121 -285q0 -183 -172 -276q103 -53 156 -140t53 -198q0 -205 -125.5 -317.5t-365.5 -112.5zM469 1178v-306h303q86 0 136 42t50 114q0 71 -48.5 110.5t-137.5 39.5h-303zM469 627v-373h309q102 0 159.5 50t57.5 136t-58.5 136.5
t-158.5 50.5h-309z" />
    <glyph glyph-name="C" unicode="C" horiz-adv-x="1511" 
d="M813 -25q-159 0 -297 56t-235.5 153.5t-153 235.5t-55.5 297q0 212 95.5 381.5t265 264.5t380.5 95q227 0 402.5 -106t246.5 -285l-245 -145q-50 119 -158 187.5t-246 68.5q-191 0 -316.5 -130.5t-125.5 -330.5t125.5 -330.5t316.5 -130.5q135 0 243 68.5t161 187.5
l245 -145q-72 -179 -247.5 -285.5t-401.5 -106.5z" />
    <glyph glyph-name="D" unicode="D" horiz-adv-x="1515" 
d="M686 0h-516v1434h516q355 0 553.5 -187.5t198.5 -525.5t-199.5 -529.5t-552.5 -191.5zM467 1171v-909h233q203 0 321 122.5t118 336.5q0 215 -117 332.5t-322 117.5h-233z" />
    <glyph glyph-name="E" unicode="E" horiz-adv-x="1273" 
d="M1161 0h-989v1434h975v-263h-676v-321h639v-262h-639v-326h690v-262z" />
    <glyph glyph-name="F" unicode="F" horiz-adv-x="1220" 
d="M471 0h-299v1434h975v-263h-676v-325h635v-262h-635v-584z" />
    <glyph glyph-name="G" unicode="G" horiz-adv-x="1619" 
d="M647 506v262h846v-768h-262v129q-163 -154 -408 -154q-159 0 -297 56t-236 153.5t-154 235.5t-56 297q0 212 95.5 381.5t265 264.5t380.5 95q227 0 402.5 -106t246.5 -285l-245 -145q-47 118 -156.5 187t-247.5 69q-191 0 -316.5 -130.5t-125.5 -330.5
q0 -202 124.5 -331.5t321.5 -129.5q147 0 258 65t148 185h-584z" />
    <glyph glyph-name="H" unicode="H" horiz-adv-x="1529" 
d="M469 0h-299v1434h299v-576h590v576h299v-1434h-299v578h-590v-578z" />
    <glyph glyph-name="I" unicode="I" horiz-adv-x="641" 
d="M469 0h-299v1434h299v-1434z" />
    <glyph glyph-name="J" unicode="J" horiz-adv-x="1132" 
d="M37 487l301 48v-101q0 -86 44 -138t122 -52q81 0 128.5 53.5t47.5 140.5v996h299v-992q0 -211 -128 -339t-343 -128q-212 0 -341.5 126.5t-129.5 332.5v53z" />
    <glyph glyph-name="K" unicode="K" horiz-adv-x="1396" 
d="M471 0h-299v1434h299v-615l533 615h356l-533 -621l553 -813h-350l-418 592l-141 -141v-451z" />
    <glyph glyph-name="L" unicode="L" horiz-adv-x="1202" 
d="M1178 0h-1006v1434h299v-1172h707v-262z" />
    <glyph glyph-name="M" unicode="M" horiz-adv-x="1906" 
d="M954 414l414 1020h367v-1434h-281v907l-373 -907h-254l-374 909v-909h-281v1434h369z" />
    <glyph glyph-name="N" unicode="N" horiz-adv-x="1581" 
d="M1110 516v918h299v-1434h-274l-664 918v-918h-299v1434h272z" />
    <glyph glyph-name="O" unicode="O" horiz-adv-x="1642" 
d="M821 -25q-158 0 -296 56t-236 153.5t-154.5 235.5t-56.5 297q0 212 96.5 381.5t266 264.5t380.5 95q158 0 296.5 -55.5t236.5 -153t154.5 -235.5t56.5 -297t-56.5 -297t-154.5 -235.5t-236.5 -153.5t-296.5 -56zM821 256q191 0 318 130.5t127 330.5t-127 330.5
t-318 130.5q-190 0 -316 -130.5t-126 -330.5t126 -330.5t316 -130.5z" />
    <glyph glyph-name="P" unicode="P" horiz-adv-x="1325" 
d="M471 0h-299v1434h563q239 0 386 -133.5t147 -350.5q0 -218 -147 -351.5t-386 -133.5h-264v-465zM471 1171v-444h272q101 0 162.5 61t61.5 162q0 100 -61.5 160.5t-162.5 60.5h-272z" />
    <glyph glyph-name="Q" unicode="Q" horiz-adv-x="1665" 
d="M1587 12l-190 -190l-232 231q-153 -78 -344 -78q-159 0 -297 56t-236 153.5t-154 235.5t-56 297q0 212 96 381.5t266 264.5t381 95q212 0 382 -95t266 -264.5t96 -381.5q0 -295 -181 -502zM821 256q54 0 121 18l-270 273l190 190l312 -309q92 123 92 289
q0 201 -126.5 331t-318.5 130q-191 0 -316.5 -130.5t-125.5 -330.5t125.5 -330.5t316.5 -130.5z" />
    <glyph glyph-name="R" unicode="R" horiz-adv-x="1388" 
d="M1231 416l59 -416h-291l-61 397q-9 56 -44 82.5t-110 26.5h-313v-506h-299v1434h582q230 0 372 -128t142 -335q0 -220 -160 -336q61 -40 86.5 -93t36.5 -126zM471 768h291q93 0 149 56t56 147q0 90 -56 145t-149 55h-291v-403z" />
    <glyph glyph-name="S" unicode="S" horiz-adv-x="1216" 
d="M637 -25q-192 0 -350.5 101t-218.5 272l247 127q36 -111 121.5 -169t196.5 -58q93 0 153 40t60 115q0 61 -50.5 97.5t-144.5 68.5l-205 66q-180 59 -262 154.5t-82 236.5q0 130 66.5 229.5t177.5 151t248 51.5q175 0 317.5 -83.5t198.5 -227.5l-246 -135
q-66 174 -268 174q-83 0 -136.5 -41.5t-53.5 -112.5q0 -30 11.5 -55.5t28 -42t43 -31t47 -22.5t50.5 -17l184 -57q196 -65 287.5 -163.5t91.5 -235.5q0 -129 -70 -229t-186 -152t-256 -52z" />
    <glyph glyph-name="T" unicode="T" horiz-adv-x="1148" 
d="M725 0h-299v1171h-401v263h1099v-263h-399v-1171z" />
    <glyph glyph-name="U" unicode="U" horiz-adv-x="1419" 
d="M709 -25q-256 0 -412 161t-156 423v877l299 -2v-877q0 -134 75 -217.5t198 -83.5q120 0 193 83.5t73 217.5v877l299 -2v-877q0 -259 -156.5 -419.5t-412.5 -160.5z" />
    <glyph glyph-name="V" unicode="V" horiz-adv-x="1492" 
d="M748 354l415 1080h314l-574 -1434h-315l-572 1434h314z" />
    <glyph glyph-name="W" unicode="W" horiz-adv-x="2228" 
d="M1597 387l279 1047h328l-420 -1434h-344l-326 1016l-326 -1016h-342l-419 1434h325l279 -1045l327 1045h314z" />
    <glyph glyph-name="X" unicode="X" horiz-adv-x="1423" 
d="M1073 1434h334l-514 -744l483 -690h-334l-342 483l-350 -483h-334l519 725l-500 709h334l354 -502z" />
    <glyph glyph-name="Y" unicode="Y" horiz-adv-x="1406" 
d="M705 752l378 682h318l-547 -945v-489h-297v489l-551 945h318z" />
    <glyph glyph-name="Z" unicode="Z" horiz-adv-x="1300" 
d="M1229 1235l-744 -963h752v-272h-1174v199l756 962h-725v273h1135v-199z" />
    <glyph glyph-name="a" unicode="a" horiz-adv-x="1124" 
d="M539 1042q211 0 341 -106t130 -274v-662h-285v80q-111 -105 -287 -105q-151 0 -257.5 84t-106.5 224q0 254 317 305l330 51v23q0 69 -48 103t-134 34q-87 0 -147 -43.5t-83 -122.5l-231 129q51 130 173 205t288 75zM721 381v51l-275 -43q-92 -16 -92 -92q0 -50 42 -77
t108 -25q94 0 155.5 49.5t61.5 136.5z" />
    <glyph glyph-name="b" unicode="b" 
d="M743 1042q226 0 371.5 -150.5t145.5 -383.5t-145.5 -383t-371.5 -150q-189 0 -317 113v-88h-289v1434h289v-506q123 114 317 114zM698 238q117 0 195 77t78 193q0 118 -78 195t-195 77t-194.5 -77.5t-77.5 -194.5q0 -116 77.5 -193t194.5 -77z" />
    <glyph glyph-name="c" unicode="c" horiz-adv-x="1128" 
d="M610 -25q-153 0 -279.5 67.5t-200 190.5t-73.5 275q0 153 74 276t200 190.5t279 67.5q167 0 297.5 -81t184.5 -218l-232 -137q-31 80 -98.5 127t-151.5 47q-115 0 -189.5 -77.5t-74.5 -194.5q0 -118 74 -194t190 -76q86 0 152.5 46t97.5 128l232 -138
q-54 -138 -184 -218.5t-298 -80.5z" />
    <glyph glyph-name="d" unicode="d" 
d="M893 930v504h291v-1434h-291v86q-126 -111 -318 -111q-225 0 -370.5 150t-145.5 383t145.5 383.5t370.5 150.5q194 0 318 -112zM623 238q115 0 192.5 77t77.5 193q0 117 -77 194.5t-193 77.5q-117 0 -195 -77t-78 -195q0 -116 78 -193t195 -77z" />
    <glyph glyph-name="e" unicode="e" horiz-adv-x="1173" 
d="M610 -25q-153 0 -279.5 67.5t-200 190.5t-73.5 275q0 153 72.5 276t196 190.5t272.5 67.5q226 0 371 -139t145 -364q0 -39 -8 -111h-756q17 -95 90 -152t170 -57q78 0 141 41t91 107l231 -129q-51 -121 -176.5 -192t-286.5 -71zM358 639h480q-17 74 -82.5 117t-155.5 43
q-88 0 -151.5 -40.5t-90.5 -119.5z" />
    <glyph glyph-name="f" unicode="f" horiz-adv-x="860" 
d="M522 0h-291v774h-221v244h221q-41 83 -41 153q0 125 106 206t273 81q156 0 303 -53l-36 -225q-42 17 -102.5 28t-104.5 11q-69 0 -107.5 -29t-38.5 -80q0 -44 39 -92h328v-244h-328v-774z" />
    <glyph glyph-name="g" unicode="g" horiz-adv-x="1329" 
d="M1186 1018v-819q37 -95 37 -185q0 -109 -44.5 -196.5t-119.5 -141t-169 -82t-198 -28.5q-181 0 -321 70.5t-197 191.5l213 131q33 -72 109.5 -110.5t177.5 -38.5q109 0 183.5 51.5t74.5 150.5q0 53 -25 113q-135 -150 -348 -150q-217 0 -357.5 150t-140.5 383
t140.5 383.5t357.5 150.5q203 0 336 -139v115h291zM623 238q117 0 194.5 77t77.5 193q0 117 -77.5 194.5t-194.5 77.5q-116 0 -193.5 -77t-77.5 -195q0 -115 77.5 -192.5t193.5 -77.5z" />
    <glyph glyph-name="h" unicode="h" horiz-adv-x="1212" 
d="M709 1042q170 0 278.5 -108t108.5 -277v-657h-291v573q0 96 -50 151.5t-139 55.5q-88 0 -139 -56t-51 -151v-573h-289v1434h289v-525q97 133 283 133z" />
    <glyph glyph-name="i" unicode="i" horiz-adv-x="563" 
d="M281 1133q-76 0 -130.5 54t-54.5 128q0 75 54.5 129.5t130.5 54.5q77 0 131.5 -54.5t54.5 -129.5q0 -74 -54.5 -128t-131.5 -54zM426 0h-289v1018h289v-1018z" />
    <glyph glyph-name="j" unicode="j" horiz-adv-x="563" 
d="M281 1133q-76 0 -130.5 54t-54.5 128q0 75 54.5 129.5t130.5 54.5t130 -54.5t54 -129.5q0 -74 -54 -128t-130 -54zM55 -414q-101 0 -202 33l38 231q65 -20 125 -20q121 0 121 123v1065h289v-1086q0 -156 -101 -251t-270 -95z" />
    <glyph glyph-name="k" unicode="k" horiz-adv-x="1136" 
d="M426 0h-289v1434h289v-824l362 408h326l-354 -391l389 -627h-326l-264 401l-133 -157v-244z" />
    <glyph glyph-name="l" unicode="l" horiz-adv-x="563" 
d="M426 0h-289v1434h289v-1434z" />
    <glyph glyph-name="m" unicode="m" horiz-adv-x="1808" 
d="M1321 1042q163 0 267 -108t104 -277v-657h-291v592q0 87 -45.5 137.5t-124.5 50.5t-125.5 -51t-46.5 -137v-592h-289v592q0 86 -46.5 137t-125.5 51t-125.5 -51t-46.5 -137v-592h-289v1018h289v-84q92 108 264 108q103 0 185.5 -42.5t130.5 -118.5q102 161 315 161z" />
    <glyph glyph-name="n" unicode="n" horiz-adv-x="1212" 
d="M709 1042q170 0 278.5 -108t108.5 -277v-657h-291v573q0 96 -50 151.5t-139 55.5q-88 0 -139 -56t-51 -151v-573h-289v1018h289v-88q95 112 283 112z" />
    <glyph glyph-name="o" unicode="o" horiz-adv-x="1218" 
d="M608 -25q-114 0 -215.5 39.5t-175.5 109t-117 169.5t-43 215q0 154 74 277t199.5 190t277.5 67t278 -67t200.5 -190t74.5 -277q0 -115 -43.5 -215t-118 -169.5t-176 -109t-215.5 -39.5zM608 238q114 0 189 76t75 194t-75 195t-189 77t-188 -77t-74 -195t74 -194t188 -76z
" />
    <glyph glyph-name="p" unicode="p" 
d="M743 1042q226 0 371.5 -150.5t145.5 -383.5t-145.5 -383t-371.5 -150q-189 0 -317 113v-498h-289v1428h289v-90q123 114 317 114zM698 238q117 0 195 77t78 193q0 118 -78 195t-195 77t-194.5 -77.5t-77.5 -194.5q0 -116 77.5 -193t194.5 -77z" />
    <glyph glyph-name="q" unicode="q" 
d="M893 930v88h291v-1428h-291v496q-126 -111 -318 -111q-225 0 -370.5 150t-145.5 383t145.5 383.5t370.5 150.5q194 0 318 -112zM623 238q115 0 192.5 77t77.5 193q0 117 -77 194.5t-193 77.5q-117 0 -195 -77t-78 -195q0 -116 78 -193t195 -77z" />
    <glyph glyph-name="s" unicode="s" horiz-adv-x="968" 
d="M496 -25q-156 0 -277 69t-170 187l205 123q30 -68 104 -114.5t156 -46.5q59 0 93 21t34 60q0 38 -36 62.5t-111 46.5l-125 39q-147 44 -219 117.5t-72 193.5q0 135 110.5 222t290.5 87q141 0 251.5 -62.5t154.5 -166.5l-205 -123q-25 56 -88 95.5t-131 39.5
q-50 0 -80.5 -20.5t-30.5 -56.5q0 -40 31.5 -60.5t112.5 -46.5l124 -37q73 -23 122 -46t91 -57.5t62 -84.5t20 -117q0 -146 -115 -235t-302 -89z" />
    <glyph glyph-name="t" unicode="t" horiz-adv-x="821" 
d="M571 -12q-169 0 -271.5 95.5t-102.5 252.5v438h-187v244h82q59 0 82 42.5t23 149.5v82h290v-274h242v-244h-242v-420q0 -61 32 -95t91 -34q67 0 131 23l37 -225q-93 -35 -207 -35z" />
    <glyph glyph-name="u" unicode="u" horiz-adv-x="1210" 
d="M784 449v569h289v-1018h-289v109q-98 -134 -282 -134q-169 0 -278 117.5t-109 302.5v623h288v-576q0 -95 51.5 -149.5t139.5 -54.5t139 57t51 154z" />
    <glyph glyph-name="v" unicode="v" horiz-adv-x="1114" 
d="M559 307l264 711h299l-409 -1018h-312l-411 1018h303z" />
    <glyph glyph-name="w" unicode="w" horiz-adv-x="1720" 
d="M1212 305l203 713h301l-319 -1018h-326l-211 670l-213 -670h-325l-320 1018h303l203 -713l217 713h270z" />
    <glyph glyph-name="x" unicode="x" horiz-adv-x="1069" 
d="M719 502l352 -502h-317l-219 326l-222 -326h-317l356 506l-348 512h320l213 -338l213 338h319z" />
    <glyph glyph-name="y" unicode="y" horiz-adv-x="1122" 
d="M336 -410q-106 0 -203 33l37 225q65 -20 127 -20q54 0 86.5 29t32.5 80v38l-426 1043h305l270 -676l262 676h308l-447 -1043v-41q0 -155 -97.5 -249.5t-254.5 -94.5z" />
    <glyph glyph-name="z" unicode="z" horiz-adv-x="1034" 
d="M956 825l-495 -571h512v-254h-916v193l498 571h-473v254h874v-193z" />
    <glyph glyph-name="uni00A0" unicode="&#xa0;" horiz-adv-x="1140" 
 />
    </font>
</defs>
</svg>
