<svg xmlns="http://www.w3.org/2000/svg">
<defs>
<font id="GramatikaTrial-Medium" horiz-adv-x="1304" >
  <font-face 
    font-family="Gramatika Trial Medium"
    font-weight="500"
    font-stretch="normal"
    units-per-em="2048"
    panose-1="0 0 6 0 0 0 0 0 0 0"
    ascent="1597"
    descent="-451"
    x-height="1001"
    cap-height="1434"
    bbox="-131 -432 2224 1464"
    underline-thickness="151"
    underline-position="-396"
    unicode-range="U+000D-00A0"
  />
<missing-glyph horiz-adv-x="1562" 
d="M780 1464q153 0 292 -59t239.5 -159t159.5 -238t59 -291t-59 -291.5t-159.5 -238.5t-239.5 -159t-292 -59q-152 0 -290 59t-237.5 159t-158.5 238.5t-59 291.5t59 291t158.5 238t237.5 159t290 59zM657 1343q-29 -20 -61 -57q-29 -33 -53 -80q-12 -20 -39 -76h239v252
q-35 -7 -86 -39zM819 1382v-252h242q-27 56 -39 76q-24 47 -53 80q-27 31 -64 57q-51 32 -86 39zM408 1274q-52 -38 -99 -84q-8 -8 -55 -60h164q55 132 127 213q-4 -1 -11.5 -4t-11.5 -4q-60 -25 -114 -61zM1157 1274q-52 35 -115 61q-4 1 -11 4t-11 4q72 -81 127 -213h162
q-43 48 -56 60q-43 46 -96 84zM393 1051h-192q-22 -35 -37 -74q-43 -104 -49 -221h233q6 166 45 295zM743 756v295h-268q-11 -28 -18 -62q-27 -111 -33 -233h319zM1108 989q-7 34 -18 62h-271v-295h322q-6 122 -33 233zM1217 756h231q-6 117 -49 221q-15 39 -37 74h-191
q40 -133 46 -295zM201 383h192q-39 129 -45 297h-233q6 -120 49 -223q15 -39 37 -74zM457 444q6 -32 18 -61h268v297h-319q6 -126 33 -236zM819 680v-297h271q12 29 18 61q27 110 33 236h-322zM1171 383h191q22 35 37 74q43 103 49 223h-231q-6 -164 -46 -297zM408 162
q57 -39 114 -62q4 -1 11.5 -4t11.5 -4q-71 80 -127 211h-164q33 -37 55 -57q47 -46 99 -84zM743 53v250h-239q23 -47 39 -74q23 -44 53 -79q34 -39 61 -58q51 -32 86 -39zM905 92q35 24 64 58q30 35 53 79q16 27 39 74h-242v-250q35 7 86 39zM1157 162q53 38 96 84
q27 24 56 57h-162q-56 -131 -127 -211q4 1 11 4t11 4q59 24 115 62z" />
    <glyph glyph-name=".notdef" horiz-adv-x="1562" 
d="M780 1464q153 0 292 -59t239.5 -159t159.5 -238t59 -291t-59 -291.5t-159.5 -238.5t-239.5 -159t-292 -59q-152 0 -290 59t-237.5 159t-158.5 238.5t-59 291.5t59 291t158.5 238t237.5 159t290 59zM657 1343q-29 -20 -61 -57q-29 -33 -53 -80q-12 -20 -39 -76h239v252
q-35 -7 -86 -39zM819 1382v-252h242q-27 56 -39 76q-24 47 -53 80q-27 31 -64 57q-51 32 -86 39zM408 1274q-52 -38 -99 -84q-8 -8 -55 -60h164q55 132 127 213q-4 -1 -11.5 -4t-11.5 -4q-60 -25 -114 -61zM1157 1274q-52 35 -115 61q-4 1 -11 4t-11 4q72 -81 127 -213h162
q-43 48 -56 60q-43 46 -96 84zM393 1051h-192q-22 -35 -37 -74q-43 -104 -49 -221h233q6 166 45 295zM743 756v295h-268q-11 -28 -18 -62q-27 -111 -33 -233h319zM1108 989q-7 34 -18 62h-271v-295h322q-6 122 -33 233zM1217 756h231q-6 117 -49 221q-15 39 -37 74h-191
q40 -133 46 -295zM201 383h192q-39 129 -45 297h-233q6 -120 49 -223q15 -39 37 -74zM457 444q6 -32 18 -61h268v297h-319q6 -126 33 -236zM819 680v-297h271q12 29 18 61q27 110 33 236h-322zM1171 383h191q22 35 37 74q43 103 49 223h-231q-6 -164 -46 -297zM408 162
q57 -39 114 -62q4 -1 11.5 -4t11.5 -4q-71 80 -127 211h-164q33 -37 55 -57q47 -46 99 -84zM743 53v250h-239q23 -47 39 -74q23 -44 53 -79q34 -39 61 -58q51 -32 86 -39zM905 92q35 24 64 58q30 35 53 79q16 27 39 74h-242v-250q35 7 86 39zM1157 162q53 38 96 84
q27 24 56 57h-162q-56 -131 -127 -211q4 1 11 4t11 4q59 24 115 62z" />
    <glyph glyph-name=".null" horiz-adv-x="0" 
 />
    <glyph glyph-name="nonmarkingreturn" horiz-adv-x="682" 
 />
    <glyph glyph-name="CR" unicode="&#xd;" horiz-adv-x="1228" 
 />
    <glyph glyph-name="space" unicode=" " horiz-adv-x="423" 
 />
    <glyph glyph-name="exclam" unicode="!" horiz-adv-x="641" 
d="M432 442h-225v992h225v-992zM319 -12q-61 0 -104 43t-43 104q0 59 43 102.5t104 43.5t104.5 -43.5t43.5 -102.5q0 -61 -43 -104t-105 -43z" />
    <glyph glyph-name="ampersand" unicode="&#x26;" horiz-adv-x="1474" 
d="M608 -20q-224 0 -366 118t-142 314q0 76 23 139t66 111t94 84t118 67q-127 157 -127 295q0 143 106.5 244.5t287.5 101.5q177 0 290 -100t113 -254q0 -76 -28.5 -136.5t-81.5 -103.5t-107 -71.5t-127 -55.5l297 -319q66 111 72 250h198q0 -202 -133 -396l250 -268h-258
l-135 141q-167 -161 -410 -161zM606 866q58 27 95 48.5t73.5 51t54 64t17.5 76.5q0 73 -50 121.5t-124 48.5q-75 0 -123.5 -49.5t-48.5 -128.5q0 -58 28 -113t78 -119zM623 158q152 0 258 129l-361 383q-87 -49 -135.5 -105.5t-48.5 -140.5q0 -118 82 -192t205 -74z" />
    <glyph glyph-name="comma" unicode="," horiz-adv-x="624" 
d="M252 -246l-92 90q98 80 112 158q-41 14 -67.5 50.5t-26.5 82.5q0 60 43.5 103t104.5 43t104 -43t43 -107q0 -76 -52 -173t-169 -204z" />
    <glyph glyph-name="hyphen" unicode="-" horiz-adv-x="901" 
d="M750 446h-598v197h598v-197z" />
    <glyph glyph-name="period" unicode="." horiz-adv-x="661" 
d="M330 -12q-61 0 -103.5 42.5t-42.5 102.5t42.5 103t103.5 43q62 0 104.5 -42.5t42.5 -103.5t-42.5 -103t-104.5 -42z" />
    <glyph glyph-name="zero" unicode="0" horiz-adv-x="1359" 
d="M682 -23q-263 0 -422.5 198t-159.5 542t159 541.5t421 197.5q261 0 420.5 -197.5t159.5 -541.5t-158 -542t-420 -198zM682 182q158 0 251 142.5t93 392.5t-94 392t-252 142q-159 0 -252.5 -142t-93.5 -392t94 -392.5t254 -142.5z" />
    <glyph glyph-name="one" unicode="1" horiz-adv-x="751" 
d="M571 0h-231v1155q-135 -27 -301 -27v197q189 0 332 109h200v-1434z" />
    <glyph glyph-name="two" unicode="2" horiz-adv-x="1148" 
d="M1063 0h-979v113q0 89 26.5 166t82 146t123.5 128t167 129q160 109 213 155q123 108 123 212q0 90 -67.5 147t-180.5 57q-108 0 -185.5 -62t-98.5 -173l-203 45q26 178 161.5 285.5t338.5 107.5q204 0 336.5 -109t132.5 -276q0 -50 -11.5 -96t-29 -83.5t-46.5 -74.5
t-57 -65t-68.5 -60t-72 -54.5t-75.5 -52.5l-13.5 -9t-11.5 -8t-13 -9q-128 -90 -177 -137q-112 -106 -122 -221h707v-201z" />
    <glyph glyph-name="three" unicode="3" horiz-adv-x="1173" 
d="M1038 1272l-397 -330q193 -13 319.5 -146.5t126.5 -322.5q0 -215 -149 -356.5t-375 -141.5q-207 0 -346 119t-162 316l207 43q17 -124 99 -197.5t204 -73.5q126 0 207.5 82t81.5 209q0 129 -82 214t-207 85q-126 0 -215 -74l-28 -22l-113 131l504 434h-590v193h915v-162z
" />
    <glyph glyph-name="four" unicode="4" horiz-adv-x="1255" 
d="M1014 0h-234v297h-735v188l743 949h226v-938h194v-199h-194v-297zM780 1122l-499 -626h499v626z" />
    <glyph glyph-name="five" unicode="5" horiz-adv-x="1198" 
d="M612 944q215 0 359.5 -135t144.5 -336q0 -215 -149 -356.5t-375 -141.5q-207 0 -346 119t-162 316l207 43q17 -124 99 -197.5t204 -73.5q125 0 207 82t82 209q0 129 -82 214t-207 85q-165 0 -283 -115l-190 37l141 740h782v-193h-622l-72 -373q118 76 262 76z" />
    <glyph glyph-name="six" unicode="6" horiz-adv-x="1187" 
d="M623 969q209 0 354 -144.5t145 -351.5q0 -215 -149.5 -356.5t-380.5 -141.5q-228 0 -375 140t-147 356q0 120 52 238.5t171 269.5l366 455h269l-377 -471q35 6 72 6zM594 174q128 0 211.5 84.5t83.5 214.5q0 131 -84 216t-211 85t-210 -85t-83 -216q0 -130 82.5 -214.5
t210.5 -84.5z" />
    <glyph glyph-name="seven" unicode="7" horiz-adv-x="1032" 
d="M479 0h-235q22 348 143 661t336 572h-694v201h977v-160q-236 -266 -370 -589t-157 -685z" />
    <glyph glyph-name="eight" unicode="8" horiz-adv-x="1210" 
d="M604 -25q-224 0 -371 129.5t-147 327.5q0 121 61 214.5t172 144.5q-74 47 -113.5 121t-39.5 165q0 165 124 273t314 108q191 0 315.5 -108t124.5 -273q0 -90 -40.5 -165t-112.5 -121q111 -51 172 -144.5t61 -214.5q0 -195 -148.5 -326t-371.5 -131zM604 868
q98 0 159.5 54.5t61.5 142.5t-60.5 141.5t-160.5 53.5q-97 0 -158 -54.5t-61 -140.5q0 -88 61 -142.5t158 -54.5zM604 174q126 0 207.5 71t81.5 187t-81.5 187t-207.5 71q-125 0 -206 -71t-81 -187q0 -115 81.5 -186.5t205.5 -71.5z" />
    <glyph glyph-name="nine" unicode="9" horiz-adv-x="1183" 
d="M592 1458q230 0 377 -139.5t147 -355.5q0 -123 -54.5 -242.5t-168.5 -265.5l-367 -455h-268l375 471q-35 -6 -72 -6q-209 0 -353.5 144.5t-144.5 351.5q0 214 149.5 355.5t379.5 141.5zM592 659q126 0 208.5 85t82.5 217q0 130 -82.5 214.5t-208.5 84.5
q-128 0 -212.5 -84.5t-84.5 -214.5q0 -131 85 -216.5t212 -85.5z" />
    <glyph glyph-name="question" unicode="?" horiz-adv-x="1097" 
d="M616 442h-204v379h57q60 0 113.5 12t99.5 37t73 69.5t27 102.5q0 95 -67 149t-176 54q-106 0 -176 -55t-97 -156l-211 74q36 167 169.5 258.5t314.5 91.5q220 0 349.5 -111t129.5 -282q-1 -150 -107 -249.5t-295 -135.5v-238zM514 -12q-61 0 -104 42.5t-43 102.5t43 103
t104 43t104.5 -43t43.5 -103t-43.5 -102.5t-104.5 -42.5z" />
    <glyph glyph-name="at" unicode="@" horiz-adv-x="1955" 
d="M1004 -381q-145 0 -277.5 37t-242 110t-190.5 174t-126 236.5t-45 290.5q0 266 116 472t316 316.5t449 110.5q240 0 429.5 -103t297.5 -295t108 -442q0 -135 -34.5 -240.5t-93 -168.5t-130 -95t-151.5 -32q-109 0 -182.5 61.5t-82.5 179.5q-54 -87 -134.5 -128.5
t-170.5 -41.5q-141 0 -239.5 106.5t-98.5 285.5q0 141 59.5 259t158 184.5t212.5 66.5q194 0 269 -175l20 154h160l-84 -600q-13 -96 21 -161.5t116 -65.5q119 0 185.5 103.5t66.5 289.5q0 175 -55 315.5t-151 230.5t-223 137.5t-273 47.5q-159 0 -296.5 -54t-237.5 -152
t-157 -243t-57 -319q0 -168 58.5 -306t160.5 -229t239 -140.5t294 -49.5q138 0 272.5 43t214.5 109l74 -107q-101 -78 -256 -125t-309 -47zM909 203q115 0 195 103.5t80 254.5q0 125 -57 193.5t-154 68.5q-123 0 -204 -102t-81 -256q0 -122 60 -192t161 -70z" />
    <glyph glyph-name="A" unicode="A" horiz-adv-x="1486" 
d="M614 1434h260l588 -1434h-245l-136 336h-675l-134 -336h-247zM743 1186l-251 -631h503z" />
    <glyph glyph-name="B" unicode="B" horiz-adv-x="1392" 
d="M797 0h-611v1434h609q212 0 330 -102.5t118 -278.5q0 -96 -47.5 -170.5t-140.5 -118.5q108 -51 165.5 -139t57.5 -203q0 -198 -124 -310t-357 -112zM418 1233v-387h352q112 0 175 51.5t63 142.5q0 92 -60 142.5t-178 50.5h-352zM418 653v-452h358q129 0 197.5 62
t68.5 167q0 103 -71 163t-195 60h-358z" />
    <glyph glyph-name="C" unicode="C" horiz-adv-x="1533" 
d="M819 -25q-207 0 -373 95t-260 265t-94 384q0 213 94.5 382t260.5 263t372 94q232 0 407 -110t240 -291l-194 -113q-48 133 -170.5 214t-282.5 81q-212 0 -351.5 -146.5t-139.5 -373.5q0 -229 139.5 -376.5t351.5 -147.5q158 0 280.5 80.5t172.5 213.5l194 -112
q-67 -182 -241.5 -292t-405.5 -110z" />
    <glyph glyph-name="D" unicode="D" horiz-adv-x="1517" 
d="M680 0h-494v1434h494q352 0 547.5 -188.5t195.5 -526.5t-196.5 -528.5t-546.5 -190.5zM418 1227v-1020h266q238 0 372 135.5t134 376.5q0 242 -133.5 375t-372.5 133h-266z" />
    <glyph glyph-name="E" unicode="E" horiz-adv-x="1267" 
d="M1155 0h-965v1434h953v-207h-721v-406h694v-207h-694v-407h733v-207z" />
    <glyph glyph-name="F" unicode="F" horiz-adv-x="1218" 
d="M422 0h-232v1434h953v-207h-721v-420h682v-207h-682v-600z" />
    <glyph glyph-name="G" unicode="G" horiz-adv-x="1626" 
d="M662 498v204h825v-702h-205v170q-173 -195 -448 -195q-210 0 -378 95t-263 265t-95 384q0 213 94.5 382t260.5 263t372 94q232 0 407.5 -110t240.5 -291l-195 -113q-46 133 -169.5 214t-283.5 81q-212 0 -351.5 -146.5t-139.5 -373.5q0 -230 140.5 -377t361.5 -147
q165 0 285.5 82t160.5 221h-620z" />
    <glyph glyph-name="H" unicode="H" horiz-adv-x="1513" 
d="M418 0h-232v1434h232v-607h676v607h233v-1434h-233v608h-676v-608z" />
    <glyph glyph-name="I" unicode="I" horiz-adv-x="606" 
d="M418 0h-232v1434h232v-1434z" />
    <glyph glyph-name="J" unicode="J" horiz-adv-x="1097" 
d="M53 446l236 39v-84q0 -98 51.5 -156.5t140.5 -58.5q99 0 155 63t56 169v1016h232v-1014q0 -204 -118 -324.5t-321 -120.5q-194 0 -313 116.5t-119 309.5v45z" />
    <glyph glyph-name="K" unicode="K" horiz-adv-x="1378" 
d="M422 0h-232v1434h232v-682l620 682h281l-551 -619l578 -815h-277l-471 641l-180 -178v-463z" />
    <glyph glyph-name="L" unicode="L" horiz-adv-x="1196" 
d="M1161 0h-971v1434h232v-1227h739v-207z" />
    <glyph glyph-name="M" unicode="M" horiz-adv-x="1908" 
d="M954 311l478 1123h286v-1434h-219v1030l-444 -1030h-203l-442 1024v-1024h-220v1434h287z" />
    <glyph glyph-name="N" unicode="N" horiz-adv-x="1579" 
d="M1157 399v1035h232v-1434h-220l-745 1036l-2 -1036h-232v1434h220z" />
    <glyph glyph-name="O" unicode="O" horiz-adv-x="1654" 
d="M827 -25q-154 0 -289.5 55.5t-233 153t-154 236.5t-56.5 299q0 212 96.5 381.5t264 263.5t372.5 94t372.5 -94t264.5 -263.5t97 -381.5q0 -160 -56.5 -299t-154 -236.5t-233.5 -153t-290 -55.5zM827 195q138 0 252 66.5t180 186.5t66 271q0 226 -143 373t-355 147
q-102 0 -193.5 -38.5t-158.5 -106.5t-106 -165.5t-39 -209.5q0 -227 143.5 -375.5t353.5 -148.5z" />
    <glyph glyph-name="P" unicode="P" horiz-adv-x="1329" 
d="M422 0h-232v1434h558q230 0 368.5 -128.5t138.5 -342.5q0 -215 -138 -343t-369 -128h-326v-492zM422 1227v-531h328q127 0 198.5 71.5t71.5 195.5q0 123 -71.5 193.5t-198.5 70.5h-328z" />
    <glyph glyph-name="Q" unicode="Q" horiz-adv-x="1671" 
d="M1577 -23l-150 -151l-239 240q-166 -91 -361 -91q-209 0 -376 95t-262 265t-95 384q0 213 95 382t262 263t376 94q156 0 292 -55t233.5 -152t153 -235t55.5 -297q0 -157 -52.5 -291t-148.5 -233zM827 195q95 0 187 45l-279 278l150 150l309 -308q131 141 131 359
q0 227 -141.5 373.5t-356.5 146.5t-356 -146t-141 -374q0 -229 141 -376.5t356 -147.5z" />
    <glyph glyph-name="R" unicode="R" horiz-adv-x="1392" 
d="M1219 399l59 -399h-225l-62 385q-13 77 -53 112t-145 35h-371v-532h-232v1434h570q223 0 359 -124.5t136 -326.5q0 -234 -176 -346q69 -40 98 -98t42 -140zM422 737h340q121 0 189.5 66.5t68.5 179.5q0 111 -69 177.5t-189 66.5h-340v-490z" />
    <glyph glyph-name="S" unicode="S" horiz-adv-x="1226" 
d="M641 -25q-193 0 -347.5 102t-209.5 273l195 101q36 -124 134 -193.5t226 -69.5q117 0 191.5 54.5t74.5 150.5q0 42 -17.5 75t-51.5 56.5t-71 39t-89 30.5l-205 63q-179 56 -267.5 148t-88.5 237q0 187 135.5 301.5t341.5 114.5q175 0 314.5 -85t189.5 -228l-197 -107
q-32 99 -113.5 153t-191.5 54q-107 0 -174.5 -54t-67.5 -144q0 -44 18 -79t51.5 -58.5t68 -39t79.5 -28.5l193 -58q190 -58 285.5 -149.5t95.5 -239.5q0 -188 -143.5 -304t-358.5 -116z" />
    <glyph glyph-name="T" unicode="T" horiz-adv-x="1155" 
d="M694 0h-231v1227h-428v207h1085v-207h-426v-1227z" />
    <glyph glyph-name="U" unicode="U" horiz-adv-x="1419" 
d="M709 -25q-248 0 -398.5 158t-150.5 414v889l231 -2v-889q0 -155 89.5 -252.5t232.5 -97.5q140 0 227.5 97.5t87.5 252.5v889l232 -2v-889q0 -253 -151.5 -410.5t-399.5 -157.5z" />
    <glyph glyph-name="V" unicode="V" horiz-adv-x="1474" 
d="M737 276l461 1158h248l-586 -1434h-246l-585 1434h245z" />
    <glyph glyph-name="W" unicode="W" horiz-adv-x="2263" 
d="M1630 295l338 1139h256l-452 -1434h-267l-372 1118l-375 -1118h-266l-453 1434h254l342 -1137l375 1137h245z" />
    <glyph glyph-name="X" unicode="X" horiz-adv-x="1400" 
d="M1104 1434h262l-524 -736l504 -698h-263l-391 535l-397 -535h-262l528 723l-516 711h264l400 -547z" />
    <glyph glyph-name="Y" unicode="Y" horiz-adv-x="1392" 
d="M696 711l422 723h252l-555 -928v-506h-233v506l-559 928h249z" />
    <glyph glyph-name="Z" unicode="Z" horiz-adv-x="1280" 
d="M1202 1276l-805 -1063h813v-213h-1140v158l815 1063h-789v213h1106v-158z" />
    <glyph glyph-name="a" unicode="a" horiz-adv-x="1124" 
d="M553 1026q196 0 318 -102.5t122 -264.5v-659h-223v102q-105 -127 -309 -127q-154 0 -256.5 82t-102.5 219q0 123 79 198.5t231 98.5l356 56v30q0 83 -58 129t-157 46q-96 0 -164.5 -49t-93.5 -136l-182 101q47 128 164.5 202t275.5 74zM768 389v64l-330 -50
q-114 -18 -114 -114q0 -61 52 -98t136 -37q112 2 184 66t72 169z" />
    <glyph glyph-name="b" unicode="b" 
d="M723 1026q219 0 362.5 -148t143.5 -380q0 -229 -143.5 -376t-362.5 -147q-213 0 -346 142v-117h-225v1434h225v-553q61 70 150.5 107.5t195.5 37.5zM690 180q134 0 224 90.5t90 227.5q0 141 -89.5 232t-224.5 91t-224 -91t-89 -232q0 -137 89.5 -227.5t223.5 -90.5z" />
    <glyph glyph-name="c" unicode="c" horiz-adv-x="1124" 
d="M610 -25q-229 0 -382.5 149t-153.5 376q0 151 71 271.5t193.5 187.5t271.5 67q161 0 286.5 -78.5t172.5 -208.5l-182 -106q-28 86 -104 137t-173 51q-134 0 -222.5 -91.5t-88.5 -229.5t89 -229t224 -91q98 0 172.5 51t102.5 138l182 -107q-47 -131 -172 -209t-287 -78z
" />
    <glyph glyph-name="d" unicode="d" 
d="M928 883v551h225v-1434h-225v117q-133 -142 -346 -142q-219 0 -362.5 147t-143.5 376q0 232 143.5 380t362.5 148q106 0 196 -37t150 -106zM614 180q134 0 224 90.5t90 227.5q0 141 -89.5 232t-224.5 91t-224 -91t-89 -232q0 -137 89.5 -227.5t223.5 -90.5z" />
    <glyph glyph-name="e" unicode="e" horiz-adv-x="1171" 
d="M608 -25q-227 0 -380.5 149t-153.5 376q0 152 69.5 272.5t189 187t265.5 66.5q220 0 358 -136.5t138 -359.5q0 -62 -4 -90h-787q12 -122 98 -197t207 -75q94 0 168.5 47t102.5 121l182 -100q-47 -118 -171 -189.5t-282 -71.5zM309 618h570q-13 99 -91 157.5t-188 58.5
q-109 0 -188 -57.5t-103 -158.5z" />
    <glyph glyph-name="f" unicode="f" horiz-adv-x="819" 
d="M465 0h-225v809h-228v192h224q-54 84 -54 170q0 123 103.5 204t267.5 81q146 0 272 -47l-28 -178q-102 37 -199 37q-90 0 -139 -38.5t-49 -101.5t55 -127h342v-192h-342v-809z" />
    <glyph glyph-name="g" unicode="g" horiz-adv-x="1312" 
d="M1155 1001v-794q37 -98 37 -195q0 -108 -42.5 -194t-115 -140t-163 -82t-191.5 -28q-174 0 -307.5 70t-184.5 188l170 102q32 -81 115 -125.5t193 -44.5q126 0 213.5 66t87.5 186q0 64 -29 135q-135 -170 -367 -170q-215 0 -355 147t-140 376q0 232 140 380t355 148
q109 0 202.5 -43t156.5 -121v139h225zM616 180q133 0 223.5 90.5t90.5 227.5q0 141 -90 232t-224 91q-135 0 -224 -91t-89 -232q0 -137 89.5 -227.5t223.5 -90.5z" />
    <glyph glyph-name="h" unicode="h" horiz-adv-x="1181" 
d="M668 1026q172 0 278.5 -106.5t106.5 -276.5v-643h-226v584q0 110 -60 173.5t-163 63.5q-104 0 -165.5 -64t-61.5 -173v-584h-225v1434h225v-549q97 141 291 141z" />
    <glyph glyph-name="i" unicode="i" horiz-adv-x="528" 
d="M264 1141q-64 0 -108.5 44.5t-44.5 106.5q0 63 44.5 108.5t108.5 45.5t109 -45.5t45 -108.5q0 -62 -45 -106.5t-109 -44.5zM377 0h-225v1001h225v-1001z" />
    <glyph glyph-name="j" unicode="j" horiz-adv-x="526" 
d="M262 1141q-64 0 -108.5 44.5t-44.5 106.5q0 63 44.5 108.5t108.5 45.5t108 -45t44 -109q0 -62 -44 -106.5t-108 -44.5zM47 -412q-89 0 -178 27l31 182q67 -18 118 -18q132 0 132 137v1085h225v-1099q0 -141 -86 -227.5t-242 -86.5z" />
    <glyph glyph-name="k" unicode="k" horiz-adv-x="1099" 
d="M377 0h-225v1434h225v-873l430 440h258l-381 -391l416 -610h-258l-318 436l-147 -160v-276z" />
    <glyph glyph-name="l" unicode="l" horiz-adv-x="528" 
d="M377 0h-225v1434h225v-1434z" />
    <glyph glyph-name="m" unicode="m" horiz-adv-x="1806" 
d="M1305 1026q166 0 269 -106.5t103 -276.5v-643h-227v598q0 103 -55.5 163t-153.5 60t-156.5 -61t-58.5 -162v-598h-225v598q0 103 -56.5 163t-154.5 60t-155.5 -60.5t-57.5 -162.5v-598h-225v1001h225v-100q96 125 278 125q110 0 195 -46t131 -130q93 176 324 176z" />
    <glyph glyph-name="n" unicode="n" horiz-adv-x="1181" 
d="M668 1026q172 0 278.5 -106.5t106.5 -276.5v-643h-226v584q0 110 -60 173.5t-163 63.5q-104 0 -165.5 -64t-61.5 -173v-584h-225v1001h225v-100q96 125 291 125z" />
    <glyph glyph-name="o" unicode="o" horiz-adv-x="1212" 
d="M606 -25q-148 0 -269.5 66t-192 186t-70.5 271q0 154 71 275.5t192 187t269 65.5q147 0 268.5 -65.5t193 -187t71.5 -275.5q0 -150 -71 -270.5t-192.5 -186.5t-269.5 -66zM606 180q131 0 219 90t88 228q0 141 -87.5 232t-219.5 91q-133 0 -220 -90.5t-87 -232.5
q0 -139 87 -228.5t220 -89.5z" />
    <glyph glyph-name="p" unicode="p" 
d="M723 1026q219 0 362.5 -148t143.5 -380q0 -229 -143.5 -376t-362.5 -147q-213 0 -346 142v-527h-225v1411h225v-120q61 70 150.5 107.5t195.5 37.5zM690 180q134 0 224 90.5t90 227.5q0 141 -89.5 232t-224.5 91t-224 -91t-89 -232q0 -137 89.5 -227.5t223.5 -90.5z" />
    <glyph glyph-name="q" unicode="q" 
d="M928 883v118h225v-1411h-225v527q-133 -142 -346 -142q-219 0 -362.5 147t-143.5 376q0 232 143.5 380t362.5 148q106 0 196 -37t150 -106zM614 180q134 0 224 90.5t90 227.5q0 141 -89.5 232t-224.5 91t-224 -91t-89 -232q0 -137 89.5 -227.5t223.5 -90.5z" />
    <glyph glyph-name="s" unicode="s" horiz-adv-x="956" 
d="M496 -25q-152 0 -268 69.5t-160 186.5l163 97q28 -78 105.5 -129.5t171.5 -51.5q74 0 120 33t46 88q0 49 -41 77t-131 54l-125 35q-145 41 -216 110t-71 185q0 130 105 213.5t276 83.5q136 0 242 -63t147 -168l-166 -97q-23 66 -90.5 110.5t-146.5 45.5q-69 0 -111.5 -31
t-42.5 -82t37.5 -78.5t126.5 -52.5l125 -35q59 -17 99.5 -32.5t80.5 -39t63 -52t37.5 -70t14.5 -94.5q0 -139 -108.5 -225.5t-282.5 -86.5z" />
    <glyph glyph-name="t" unicode="t" horiz-adv-x="786" 
d="M549 -12q-155 0 -248.5 87.5t-93.5 233.5v500h-195v192h82q63 0 88 44t25 153v82h227v-279h264v-192h-264v-485q0 -70 38 -109t106 -39q69 0 133 23l30 -179q-91 -32 -192 -32z" />
    <glyph glyph-name="u" unicode="u" horiz-adv-x="1181" 
d="M805 436v565h225v-1001h-225v125q-102 -148 -291 -148q-171 0 -278 111t-107 295v618h225v-585q0 -111 61.5 -172.5t164.5 -61.5t164 68.5t61 185.5z" />
    <glyph glyph-name="v" unicode="v" horiz-adv-x="1083" 
d="M545 236l305 765h231l-417 -1001h-242l-420 1001h236z" />
    <glyph glyph-name="w" unicode="w" horiz-adv-x="1693" 
d="M1204 233l242 768h235l-335 -1001h-252l-246 731l-248 -731h-252l-334 1001h236l242 -768l249 768h213z" />
    <glyph glyph-name="x" unicode="x" horiz-adv-x="1034" 
d="M659 496l365 -496h-250l-258 358l-258 -358h-250l367 500l-361 501h250l254 -368l254 368h250z" />
    <glyph glyph-name="y" unicode="y" horiz-adv-x="1097" 
d="M334 -410q-89 0 -178 27l30 178q59 -16 119 -16q63 0 97 33.5t34 93.5v76l-434 1019h238l313 -735l305 735h240l-449 -1017v-80q0 -141 -83.5 -227.5t-231.5 -86.5z" />
    <glyph glyph-name="z" unicode="z" horiz-adv-x="995" 
d="M922 848l-551 -647h563v-201h-875v154l551 647h-534v200h846v-153z" />
    <glyph glyph-name="uni00A0" unicode="&#xa0;" horiz-adv-x="937" 
 />
    </font>
</defs>
</svg>
