<svg xmlns="http://www.w3.org/2000/svg">
<defs>
<font id="GramatikaTrial-Italic" horiz-adv-x="1189" >
  <font-face 
    font-family="Gramatika Trial"
    font-weight="400"
    font-style="italic"
    font-stretch="normal"
    units-per-em="2048"
    panose-1="0 0 5 0 0 0 0 0 0 0"
    ascent="1597"
    descent="-451"
    x-height="987"
    cap-height="1434"
    bbox="-301 -438 2443 1464"
    underline-thickness="116"
    underline-position="-362"
    slope="-12"
    unicode-range="U+000D-00A0"
  />
<missing-glyph horiz-adv-x="1605" 
d="M848 1464q153 0 292 -59t239 -159t159 -238t59 -291t-59 -291.5t-159 -238.5t-239 -159t-292 -59q-203 0 -374.5 100t-271.5 272t-100 376q0 152 59 290.5t159 238.5t238 159t290 59zM725 1343q-29 -20 -61 -57q-31 -36 -54 -80q-12 -20 -39 -76h240v252q-35 -7 -86 -39z
M887 1382v-252h241q-31 64 -38 76q-23 44 -54 80q-29 33 -63 57q-51 32 -86 39zM475 1274q-49 -35 -98 -84q-8 -8 -55 -60h163q55 132 127 213q-4 -1 -11 -4t-11 -4q-63 -26 -115 -61zM1225 1274q-52 35 -115 61q-4 1 -11.5 4t-11.5 4q72 -81 127 -213h162q-47 52 -55 60
q-43 46 -96 84zM461 1051h-193q-22 -35 -37 -74q-43 -104 -49 -221h234q6 166 45 295zM811 756v295h-268q-13 -33 -19 -62q-26 -106 -32 -233h319zM1176 989q-6 29 -19 62h-270v-295h321q-6 127 -32 233zM1284 756h232q-6 114 -50 221q-17 43 -36 74h-191q39 -129 45 -295z
M268 383h193q-39 129 -45 297h-234q6 -120 49 -223q15 -39 37 -74zM524 444q5 -27 19 -61h268v297h-319q6 -131 32 -236zM887 680v-297h270q14 34 19 61q26 105 32 236h-321zM1239 383h191q19 31 36 74q44 106 50 223h-232q-6 -168 -45 -297zM475 162q56 -38 115 -62
q4 -1 11 -4t11 -4q-71 80 -127 211h-163q33 -37 55 -57q49 -49 98 -84zM811 53v250h-240q23 -47 39 -74q21 -42 54 -79q34 -39 61 -58q51 -32 86 -39zM973 92q32 22 63 58q33 37 54 79q12 19 38 74h-241v-250q35 7 86 39zM1225 162q53 38 96 84q22 20 55 57h-162
q-56 -131 -127 -211q4 1 11.5 4t11.5 4q59 24 115 62z" />
    <glyph glyph-name=".notdef" horiz-adv-x="1605" 
d="M848 1464q153 0 292 -59t239 -159t159 -238t59 -291t-59 -291.5t-159 -238.5t-239 -159t-292 -59q-203 0 -374.5 100t-271.5 272t-100 376q0 152 59 290.5t159 238.5t238 159t290 59zM725 1343q-29 -20 -61 -57q-31 -36 -54 -80q-12 -20 -39 -76h240v252q-35 -7 -86 -39z
M887 1382v-252h241q-31 64 -38 76q-23 44 -54 80q-29 33 -63 57q-51 32 -86 39zM475 1274q-49 -35 -98 -84q-8 -8 -55 -60h163q55 132 127 213q-4 -1 -11 -4t-11 -4q-63 -26 -115 -61zM1225 1274q-52 35 -115 61q-4 1 -11.5 4t-11.5 4q72 -81 127 -213h162q-47 52 -55 60
q-43 46 -96 84zM461 1051h-193q-22 -35 -37 -74q-43 -104 -49 -221h234q6 166 45 295zM811 756v295h-268q-13 -33 -19 -62q-26 -106 -32 -233h319zM1176 989q-6 29 -19 62h-270v-295h321q-6 127 -32 233zM1284 756h232q-6 114 -50 221q-17 43 -36 74h-191q39 -129 45 -295z
M268 383h193q-39 129 -45 297h-234q6 -120 49 -223q15 -39 37 -74zM524 444q5 -27 19 -61h268v297h-319q6 -131 32 -236zM887 680v-297h270q14 34 19 61q26 105 32 236h-321zM1239 383h191q19 31 36 74q44 106 50 223h-232q-6 -168 -45 -297zM475 162q56 -38 115 -62
q4 -1 11 -4t11 -4q-71 80 -127 211h-163q33 -37 55 -57q49 -49 98 -84zM811 53v250h-240q23 -47 39 -74q21 -42 54 -79q34 -39 61 -58q51 -32 86 -39zM973 92q32 22 63 58q33 37 54 79q12 19 38 74h-241v-250q35 7 86 39zM1225 162q53 38 96 84q22 20 55 57h-162
q-56 -131 -127 -211q4 1 11.5 4t11.5 4q59 24 115 62z" />
    <glyph glyph-name=".null" horiz-adv-x="0" 
 />
    <glyph glyph-name="nonmarkingreturn" horiz-adv-x="682" 
 />
    <glyph glyph-name="CR" unicode="&#xd;" horiz-adv-x="1146" 
 />
    <glyph glyph-name="space" unicode=" " horiz-adv-x="356" 
 />
    <glyph glyph-name="exclam" unicode="!" horiz-adv-x="624" 
d="M377 416h-168l213 1018h168zM217 -10q-47 0 -79 30t-32 76q0 53 41 93t95 40q45 0 76.5 -31.5t31.5 -76.5q0 -53 -39.5 -92t-93.5 -39z" />
    <glyph glyph-name="ampersand" unicode="&#x26;" horiz-adv-x="1409" 
d="M588 -25q-62 0 -125.5 12t-129.5 41.5t-116.5 72.5t-82.5 111.5t-32 152.5q0 176 105 288.5t301 177.5q-82 140 -82 252q0 60 22.5 122.5t66.5 118.5t119.5 92t170.5 36q154 0 257 -83t103 -224q0 -154 -102.5 -243t-323.5 -154l265 -408q86 115 122 266h150
q-23 -112 -76 -216t-115 -177l142 -213l-183 -2l-81 125q-168 -148 -375 -148zM668 860q91 32 147 57t99.5 57.5t62 72t18.5 92.5q0 77 -51.5 126.5t-134.5 49.5q-92 0 -153.5 -64t-61.5 -164q0 -43 13.5 -88.5t24 -67.5t36.5 -71zM590 113q165 0 291 135l-306 465
q-147 -58 -220.5 -133.5t-73.5 -200.5q0 -117 86.5 -191.5t222.5 -74.5z" />
    <glyph glyph-name="comma" unicode="," horiz-adv-x="602" 
d="M111 -231l-62 67q105 87 125 162q-35 9 -55.5 35t-20.5 63q0 54 40.5 93.5t94.5 39.5q47 0 78 -30.5t31 -81.5q0 -71 -58 -162.5t-173 -185.5z" />
    <glyph glyph-name="hyphen" unicode="-" horiz-adv-x="909" 
d="M741 469h-581l28 147h582z" />
    <glyph glyph-name="period" unicode="." horiz-adv-x="655" 
d="M233 -12q-47 0 -77.5 30.5t-30.5 75.5q0 54 39.5 93.5t93.5 39.5q47 0 78 -30.5t31 -75.5q0 -54 -39.5 -93.5t-94.5 -39.5z" />
    <glyph glyph-name="zero" unicode="0" horiz-adv-x="1374" 
d="M657 -23q-228 0 -360.5 160t-132.5 445q0 129 24.5 253t77 237t127 198t182.5 135.5t236 50.5q228 0 362 -160t134 -444q0 -128 -24.5 -252t-77.5 -237.5t-128 -199t-183.5 -136t-236.5 -50.5zM676 133q94 0 172 44t129 115.5t86.5 164.5t51 187.5t15.5 189.5
q0 219 -90 342.5t-245 123.5q-94 0 -172 -44t-129.5 -115t-87 -164t-51 -188.5t-15.5 -190.5q0 -219 90 -342t246 -123z" />
    <glyph glyph-name="one" unicode="1" horiz-adv-x="720" 
d="M420 0h-172l258 1223q-149 -45 -313 -45l32 149q183 0 344 107h154z" />
    <glyph glyph-name="two" unicode="2" horiz-adv-x="1239" 
d="M1040 0h-948l10 98q17 159 122 288t341 282q179 113 239 161q148 118 162 238q1 13 1 27q0 94 -69 151.5t-189 57.5q-124 0 -219.5 -70t-131.5 -191l-147 39q48 169 188.5 272t331.5 103q184 0 299 -94t115 -242q0 -73 -25.5 -139t-62 -114.5t-99 -101t-113 -87
t-127.5 -83.5q-25 -16 -38 -24q-44 -29 -63.5 -42t-60 -41.5t-61 -46.5t-52.5 -46.5t-50 -53.5t-38 -56t-31.5 -64t-16.5 -69h748z" />
    <glyph glyph-name="three" unicode="3" horiz-adv-x="1210" 
d="M264 1434h889l-12 -127l-473 -363h4q191 -3 312.5 -123.5t121.5 -302.5q0 -152 -75.5 -277t-204.5 -195.5t-283 -70.5q-200 0 -324 114t-133 306l160 39q6 -138 91 -220.5t220 -82.5q156 0 265.5 108t109.5 267q0 133 -84 219t-217 86q-128 0 -234 -76l-35 -24l-77 100
l610 475h-645z" />
    <glyph glyph-name="four" unicode="4" horiz-adv-x="1212" 
d="M846 0h-170l65 315h-712l14 138l911 981h195l-203 -967h207l-31 -152h-209zM926 1190l-693 -723h541z" />
    <glyph glyph-name="five" unicode="5" horiz-adv-x="1191" 
d="M1126 1434l-14 -148h-663l-99 -432q131 90 291 90q197 0 323 -120.5t126 -305.5q0 -114 -44.5 -215t-120 -172.5t-179.5 -113.5t-218 -42q-201 0 -324 114t-132 306l159 39q6 -138 91.5 -220.5t220.5 -82.5q156 0 265.5 108t109.5 267q0 133 -84.5 219t-217.5 86
q-171 0 -313 -127l-131 27l170 723h784z" />
    <glyph glyph-name="six" unicode="6" horiz-adv-x="1193" 
d="M662 958q194 0 320 -125t126 -313q0 -113 -44.5 -214.5t-120 -173.5t-180.5 -114.5t-222 -42.5q-208 0 -335.5 121t-127.5 312q0 138 66 270t210 289l434 467h205l-450 -490q52 14 119 14zM557 125q157 0 267 110t110 271q0 134 -86 219.5t-219 85.5q-157 0 -267 -111.5
t-110 -275.5q0 -132 84.5 -215.5t220.5 -83.5z" />
    <glyph glyph-name="seven" unicode="7" horiz-adv-x="1038" 
d="M475 0h-178q66 361 233.5 686t427.5 596h-737l17 152h950l-12 -125q-279 -282 -457 -614.5t-244 -694.5z" />
    <glyph glyph-name="eight" unicode="8" horiz-adv-x="1218" 
d="M547 -25q-208 0 -335.5 110t-127.5 288q0 146 81 256.5t222 163.5q-73 40 -112 106t-39 152q0 174 134.5 290.5t331.5 116.5q174 0 283 -92.5t109 -237.5q0 -108 -57.5 -197.5t-155.5 -137.5q106 -43 164.5 -128t58.5 -198q0 -139 -73.5 -252t-201 -176.5t-282.5 -63.5z
M639 850q126 0 207.5 72t81.5 188q0 91 -65 145t-175 54q-127 0 -208 -71.5t-81 -184.5q0 -91 66 -147t174 -56zM563 125q159 0 263 92t104 238q0 117 -83.5 187.5t-221.5 70.5q-159 0 -263 -90.5t-104 -235.5q0 -119 84 -190.5t221 -71.5z" />
    <glyph glyph-name="nine" unicode="9" 
d="M745 1458q208 0 335.5 -121t127.5 -311q0 -138 -66 -270t-210 -289l-434 -467h-205l450 489q-52 -14 -118 -14q-194 0 -319.5 124.5t-125.5 313.5q0 113 44 214.5t119.5 173.5t180 114.5t221.5 42.5zM657 623q157 0 267 111.5t110 275.5q0 132 -84 215.5t-219 83.5
q-159 0 -269 -110t-110 -271q0 -134 86 -219.5t219 -85.5z" />
    <glyph glyph-name="question" unicode="?" horiz-adv-x="1097" 
d="M575 416h-153l80 395h49q177 0 289 85t112 220q0 86 -65 134t-174 48q-120 0 -214 -60.5t-147 -168.5l-147 57q46 104 130 179.5t189 114t221 38.5q200 0 302 -98.5t77 -259.5q-21 -162 -152 -267.5t-337 -136.5zM430 -12q-46 0 -77 31t-31 75q0 54 40.5 93.5t94.5 39.5
q47 0 77.5 -30.5t30.5 -75.5q0 -54 -40 -93.5t-95 -39.5z" />
    <glyph glyph-name="at" unicode="@" horiz-adv-x="2009" 
d="M928 -385q-174 0 -321 55t-250.5 154.5t-161.5 242.5t-58 314q0 90 18.5 184.5t58.5 191.5t96.5 186t138.5 167t179.5 136t223.5 91t266 33q226 0 399 -90.5t269 -259.5t96 -393q0 -122 -29.5 -235t-85 -204.5t-145.5 -146.5t-201 -55q-116 0 -179.5 70t-59.5 194
q-63 -92 -152.5 -137t-183.5 -45q-129 0 -213 88.5t-84 240.5q0 58 14.5 122t42 127.5t70 121.5t95 102t121 70.5t144.5 26.5q102 0 169 -51t93 -148l43 178h127l-149 -602q-29 -112 3 -184t124 -72q72 0 130 34.5t93 88t58.5 125t32.5 139t9 135.5q0 154 -49.5 278
t-138 205.5t-209 125t-262.5 43.5q-146 0 -273.5 -39.5t-219.5 -106.5t-164 -154t-115.5 -185t-65.5 -195t-22 -189q0 -306 189 -489t503 -183q145 0 289.5 44.5t230.5 113.5l54 -88q-108 -79 -270 -127.5t-318 -48.5zM887 180q99 0 182 65t128.5 166t45.5 210
q0 112 -54 172.5t-151 60.5q-88 0 -159 -45t-111.5 -113.5t-62 -141t-21.5 -136.5q0 -110 54.5 -174t148.5 -64z" />
    <glyph glyph-name="A" unicode="A" horiz-adv-x="1480" 
d="M842 1434h194l297 -1434h-184l-74 358h-715l-225 -358h-196zM903 1231l-444 -709h588z" />
    <glyph glyph-name="B" unicode="B" horiz-adv-x="1400" 
d="M696 0h-594l301 1434h588q170 0 268.5 -94.5t98.5 -237.5q0 -128 -69.5 -229t-203.5 -142q170 -99 170 -280q0 -141 -73 -244.5t-198.5 -155t-287.5 -51.5zM545 1278l-96 -455h419q148 0 230 63t82 195q0 89 -61 143t-179 54h-395zM418 680l-111 -526h404
q169 0 268.5 75.5t99.5 219.5q0 99 -69 162.5t-191 64.5z" />
    <glyph glyph-name="C" unicode="C" horiz-adv-x="1587" 
d="M795 -25q-283 0 -462 181t-179 471q0 60 11.5 129.5t39.5 150.5t69 158t106 149t144.5 125.5t189.5 86t236 32.5q235 0 397.5 -113t202.5 -296l-155 -82q-31 145 -156.5 235t-304.5 90q-88 0 -166.5 -22.5t-138.5 -60.5t-110 -90t-84 -111t-57.5 -122t-34.5 -123.5
t-11 -117.5q0 -225 134 -364.5t347 -139.5q179 0 322 90.5t206 235.5l142 -82q-79 -183 -266 -296.5t-422 -113.5z" />
    <glyph glyph-name="D" unicode="D" horiz-adv-x="1538" 
d="M575 0h-473l301 1434h474q142 0 256.5 -46t188.5 -127t113.5 -189t39.5 -234q0 -260 -114.5 -451t-316.5 -289t-469 -98zM545 1278l-238 -1120h297q318 0 505 176.5t187 482.5q0 203 -120.5 332t-337.5 129h-293z" />
    <glyph glyph-name="E" unicode="E" horiz-adv-x="1259" 
d="M1042 0h-942l303 1434h934l-32 -156h-760l-103 -481h744l-35 -156h-743l-103 -485h768z" />
    <glyph glyph-name="F" unicode="F" horiz-adv-x="1214" 
d="M272 0h-172l303 1434h934l-32 -156h-760l-109 -506h721l-33 -158h-723z" />
    <glyph glyph-name="G" unicode="G" horiz-adv-x="1662" 
d="M692 489l17 156h843l-137 -645h-155l43 201q-93 -107 -219 -166.5t-275 -59.5q-292 0 -473.5 181t-181.5 473q0 59 11.5 128t39.5 150t69 157.5t105.5 149t144 126t189.5 86t237 32.5q235 0 397.5 -113t202.5 -296l-155 -82q-31 145 -156.5 235t-304.5 90
q-103 0 -192.5 -30t-153.5 -81.5t-114.5 -117t-80.5 -139t-45.5 -144t-15.5 -135.5q0 -226 135.5 -365t359.5 -139q182 0 324 95.5t203 252.5h-662z" />
    <glyph glyph-name="H" unicode="H" horiz-adv-x="1505" 
d="M272 0h-172l303 1434h172l-133 -633h752l135 633h172l-303 -1434h-172l133 637h-751z" />
    <glyph glyph-name="I" unicode="I" horiz-adv-x="581" 
d="M272 0h-172l303 1434h172z" />
    <glyph glyph-name="J" unicode="J" horiz-adv-x="1056" 
d="M45 410l184 30l-16 -69q-23 -103 27.5 -169.5t154.5 -66.5q103 0 179.5 68.5t103.5 195.5l219 1035h172l-219 -1035q-43 -205 -164.5 -314.5t-312.5 -109.5q-184 0 -278.5 114t-57.5 282z" />
    <glyph glyph-name="K" unicode="K" horiz-adv-x="1357" 
d="M272 0h-172l303 1434h172l-153 -734l846 734h217l-697 -617l424 -817h-202l-375 690l-262 -217z" />
    <glyph glyph-name="L" unicode="L" 
d="M1040 0h-940l303 1434h172l-270 -1278h766z" />
    <glyph glyph-name="M" unicode="M" horiz-adv-x="1904" 
d="M895 231l784 1203h219l-303 -1434h-168l240 1126l-741 -1126h-156l-264 1120l-238 -1120h-168l303 1434h213z" />
    <glyph glyph-name="N" unicode="N" horiz-adv-x="1572" 
d="M1153 297l240 1137h174l-303 -1434h-166l-578 1139l-244 -1139h-176l303 1434h166z" />
    <glyph glyph-name="O" unicode="O" horiz-adv-x="1677" 
d="M809 -25q-186 0 -334.5 84t-231.5 234t-83 338q0 180 64.5 336t173.5 263t256.5 167.5t310.5 60.5q139 0 260 -48.5t206.5 -134t134 -206.5t48.5 -260q0 -181 -64.5 -338t-173.5 -265t-256.5 -169.5t-310.5 -61.5zM827 141q123 0 234.5 47t195 130t132.5 206t49 267
q0 221 -138 361t-354 140q-99 0 -190.5 -29t-167.5 -85t-132.5 -133.5t-88 -179t-31.5 -216.5q0 -221 138.5 -364.5t352.5 -143.5z" />
    <glyph glyph-name="P" unicode="P" horiz-adv-x="1337" 
d="M274 0h-172l301 1434h512q105 0 189.5 -32t138 -88t81.5 -128.5t28 -155.5q0 -161 -77 -280t-209 -179.5t-302 -60.5h-383zM545 1280l-131 -612h379q183 0 283 92.5t100 261.5q0 112 -75 185t-222 73h-334z" />
    <glyph glyph-name="Q" unicode="Q" horiz-adv-x="1751" 
d="M1526 -55l-125 -115l-213 240q-176 -95 -377 -95q-186 0 -335 84t-232.5 234t-83.5 338q0 180 64.5 336t174 263t257 167.5t311.5 60.5q185 0 333.5 -83t232 -231.5t83.5 -334.5q0 -199 -77 -365t-212 -278zM827 141q128 0 244 58l-262 295l123 112l285 -319
q103 88 162 217.5t59 286.5q0 221 -137 361t-353 140q-99 0 -190.5 -29t-167.5 -85t-132.5 -133.5t-88 -179t-31.5 -216.5q0 -221 138.5 -364.5t350.5 -143.5z" />
    <glyph glyph-name="R" unicode="R" horiz-adv-x="1390" 
d="M1356 1044q0 -90 -30 -171.5t-96 -151.5t-161 -111q74 -46 94 -112.5t15 -161.5l-21 -336h-166l17 344q7 101 -35 153t-160 52h-422l-117 -549h-174l303 1434h545q188 0 298 -112.5t110 -277.5zM424 707h385q172 0 270.5 86t98.5 237q0 106 -69.5 177t-195.5 71h-366z
" />
    <glyph glyph-name="S" unicode="S" horiz-adv-x="1236" 
d="M614 -25q-218 0 -369 123.5t-165 311.5l162 59q6 -142 116 -238t267 -96q134 0 223.5 74t89.5 184q0 77 -51.5 125t-159.5 92l-190 82q-151 61 -221 140.5t-70 199.5q0 118 64 216t175 154t244 56q126 0 233 -47.5t173 -131.5t75 -187l-161 -64q-7 115 -102 190.5
t-230 75.5q-126 0 -208.5 -69t-82.5 -176q0 -138 201 -222l184 -75q165 -68 235 -146t70 -196q0 -121 -65.5 -221t-181 -157t-255.5 -57z" />
    <glyph glyph-name="T" unicode="T" horiz-adv-x="1163" 
d="M565 0h-172l271 1274h-451l33 160h1071l-33 -160h-448z" />
    <glyph glyph-name="U" unicode="U" horiz-adv-x="1425" 
d="M676 -25q-177 0 -299 79.5t-168.5 219.5t-9.5 318l178 842h172l-180 -863q-40 -184 51 -307t266 -123q138 0 249 98t144 257l197 938h174l-203 -957q-47 -227 -203.5 -364.5t-367.5 -137.5z" />
    <glyph glyph-name="V" unicode="V" horiz-adv-x="1460" 
d="M666 221l753 1213h199l-899 -1434h-184l-291 1434h184z" />
    <glyph glyph-name="W" unicode="W" horiz-adv-x="2293" 
d="M1604 250l643 1184h196l-784 -1434h-199l-162 1210l-671 -1210h-197l-178 1434h188l135 -1196l672 1196h193z" />
    <glyph glyph-name="X" unicode="X" horiz-adv-x="1374" 
d="M1315 1434h213l-688 -729l372 -705h-198l-307 573l-551 -573h-213l690 721l-381 713h199l311 -580z" />
    <glyph glyph-name="Y" unicode="Y" horiz-adv-x="1370" 
d="M721 688l612 746h205l-758 -914l-110 -520h-172l110 520l-375 914h191z" />
    <glyph glyph-name="Z" unicode="Z" horiz-adv-x="1263" 
d="M295 1434h1083l-24 -121l-1096 -1153h856l-33 -160h-1112l25 121l1102 1153h-834z" />
    <glyph glyph-name="a" unicode="a" horiz-adv-x="1280" 
d="M1028 797l41 190h168l-205 -987h-170l25 111q-68 -65 -159 -100.5t-189 -35.5q-198 0 -324.5 124t-126.5 319q0 113 41 220t112 190t176 133.5t224 50.5q130 0 235.5 -57t151.5 -158zM578 127q114 0 205.5 61.5t138.5 155.5t47 197q0 139 -89.5 227t-232.5 88
q-113 0 -204 -62.5t-138 -157.5t-47 -198q0 -135 89.5 -223t230.5 -88z" />
    <glyph glyph-name="b" unicode="b" horiz-adv-x="1300" 
d="M758 1012q204 0 329 -122.5t125 -320.5q0 -168 -70.5 -304t-198 -213t-286.5 -77q-131 0 -234.5 56.5t-152.5 156.5l-39 -188h-170l304 1434h167l-118 -560q67 67 156.5 102.5t187.5 35.5zM653 131q170 0 279.5 117.5t109.5 302.5q0 136 -88.5 222.5t-228.5 86.5
q-161 0 -271 -118.5t-118 -274.5q-11 -145 79 -240.5t238 -95.5z" />
    <glyph glyph-name="c" unicode="c" horiz-adv-x="1142" 
d="M557 -25q-207 0 -339 128t-132 329q0 160 78.5 293.5t212.5 210t291 76.5t268.5 -75.5t142.5 -201.5l-147 -78q-19 89 -97.5 145t-185.5 56q-162 0 -277.5 -118.5t-115.5 -290.5q0 -140 90 -230t232 -90q107 0 194 54.5t125 146.5l129 -78q-57 -126 -184.5 -201.5
t-284.5 -75.5z" />
    <glyph glyph-name="d" unicode="d" horiz-adv-x="1300" 
d="M1030 793l135 641h168l-301 -1434h-168l23 113q-68 -66 -156.5 -102t-185.5 -36q-88 0 -168.5 29t-145.5 84t-104 143.5t-39 198.5t39 214.5t109 186.5t176 131.5t231 49.5t232 -58t155 -161zM575 127q87 0 162 36.5t124.5 96t77.5 133t28 148.5q0 138 -88.5 226.5
t-229.5 88.5q-89 0 -164.5 -35t-124 -93t-75.5 -130t-27 -147q0 -142 88.5 -233t228.5 -91z" />
    <glyph glyph-name="e" unicode="e" horiz-adv-x="1175" 
d="M555 -25q-205 0 -337 132.5t-132 336.5q0 74 22.5 152t70 152.5t113.5 133t161 94.5t204 36q197 0 315 -114t118 -306q0 -50 -17 -141h-815q-11 -134 80.5 -232t232.5 -98q108 0 197.5 52t126.5 136l131 -73q-57 -118 -185.5 -189.5t-285.5 -71.5zM279 600h649
q6 114 -74 190t-211 76q-129 0 -229 -72.5t-135 -193.5z" />
    <glyph glyph-name="f" unicode="f" horiz-adv-x="788" 
d="M311 0h-168l179 842h-230l31 145h223q-31 53 -31 131q0 139 124 239.5t306 100.5q130 0 238 -43l-53 -135q-95 35 -182 35q-124 0 -196.5 -60t-72.5 -149q0 -60 41 -119h357l-31 -145h-357z" />
    <glyph glyph-name="g" unicode="g" horiz-adv-x="1306" 
d="M1071 987h166l-172 -827q6 -43 6 -90q0 -221 -146.5 -362.5t-381.5 -141.5q-184 0 -315.5 82.5t-155.5 220.5l145 61q12 -100 103.5 -158.5t228.5 -58.5q165 0 259.5 96.5t94.5 258.5q0 30 -6 65q-70 -76 -165.5 -117t-199.5 -41q-200 0 -322 126t-122 325
q0 115 40.5 221.5t111 187.5t174.5 129t223 48q133 0 238 -62t151 -168zM575 127q112 0 203 59.5t140 154t49 200.5q0 139 -89 227t-229 88q-116 0 -207 -59t-137.5 -150.5t-46.5 -195.5q0 -142 88.5 -233t228.5 -91z" />
    <glyph glyph-name="h" unicode="h" horiz-adv-x="1159" 
d="M743 1012q166 0 250.5 -105.5t48.5 -275.5l-131 -631h-168l125 594q26 122 -28 193t-170 71q-110 0 -201 -73.5t-115 -190.5l-125 -594h-168l304 1434h167l-122 -576q132 154 333 154z" />
    <glyph glyph-name="i" unicode="i" horiz-adv-x="495" 
d="M399 1149q-49 0 -80.5 31.5t-31.5 79.5q0 56 41 96.5t98 40.5q49 0 81 -32.5t32 -78.5q0 -57 -41.5 -97t-98.5 -40zM227 0h-168l211 987h168z" />
    <glyph glyph-name="j" unicode="j" horiz-adv-x="495" 
d="M399 1149q-49 0 -80.5 30.5t-31.5 75.5q0 57 41 99.5t98 42.5q49 0 81 -32.5t32 -78.5q0 -56 -42 -96.5t-98 -40.5zM-152 -412q-78 0 -149 23l53 139q56 -16 107 -16q68 0 114.5 41t61.5 110l233 1102h168l-235 -1110q-27 -130 -119.5 -209.5t-233.5 -79.5z" />
    <glyph glyph-name="k" unicode="k" horiz-adv-x="1067" 
d="M229 0h-168l304 1434h167l-194 -912l596 465h194l-491 -397l315 -590h-188l-268 469l-203 -164z" />
    <glyph glyph-name="l" unicode="l" horiz-adv-x="528" 
d="M260 0h-168l273 1434h167z" />
    <glyph glyph-name="m" unicode="m" horiz-adv-x="1806" 
d="M1399 1012q163 0 245.5 -105.5t47.5 -275.5l-133 -631h-168l127 602q26 117 -28 186.5t-163 69.5q-110 0 -196.5 -71t-110.5 -185l-127 -602h-168l127 602q24 117 -30 186.5t-163 69.5t-195 -71t-110 -185l-127 -602h-168l209 987h168l-24 -117q130 142 321 142
q117 0 193.5 -50.5t101.5 -142.5q130 193 371 193z" />
    <glyph glyph-name="n" unicode="n" horiz-adv-x="1157" 
d="M737 1012q168 0 254 -106t49 -275l-131 -631h-168l127 596q25 123 -27 192.5t-169 69.5q-112 0 -204 -73.5t-116 -190.5l-125 -594h-168l209 987h168l-22 -113q126 138 323 138z" />
    <glyph glyph-name="o" unicode="o" horiz-adv-x="1210" 
d="M555 -25q-203 0 -336 128t-133 321q0 157 71 291t202 215.5t294 81.5q210 0 340.5 -124.5t130.5 -326.5q0 -90 -26.5 -177t-77.5 -160.5t-119.5 -129.5t-158 -87.5t-187.5 -31.5zM569 129q112 0 202 61.5t136.5 156t46.5 200.5q0 139 -87 224t-226 85q-114 0 -204 -60
t-136.5 -154.5t-46.5 -203.5q0 -135 88 -222t227 -87z" />
    <glyph glyph-name="p" unicode="p" horiz-adv-x="1294" 
d="M756 1012q87 0 167 -28t145 -81t103.5 -139.5t38.5 -194.5q0 -109 -39 -214t-108 -190t-176 -137.5t-232 -52.5q-131 0 -234.5 57.5t-150.5 157.5l-127 -600h-168l293 1397h168l-22 -115q66 67 155.5 103.5t186.5 36.5zM651 131q85 0 159 35.5t123.5 94t78 133.5
t28.5 153q0 139 -87.5 226t-227.5 87q-90 0 -165.5 -37t-124.5 -97t-76 -134t-27 -150q0 -136 89.5 -223.5t229.5 -87.5z" />
    <glyph glyph-name="q" unicode="q" horiz-adv-x="1296" 
d="M1024 795l43 192h168l-301 -1425l-166 4l113 545q-67 -66 -156 -101t-186 -35q-87 0 -167 28t-145 80.5t-104 139t-39 193.5q0 110 39.5 216t109 191t176 137t230.5 52q128 0 233 -58t152 -159zM571 127q87 0 162 36.5t124.5 96t77.5 133t28 148.5q0 138 -89.5 226.5
t-228.5 88.5q-89 0 -165 -37.5t-124 -98.5t-75 -135t-27 -149q0 -134 88.5 -221.5t228.5 -87.5z" />
    <glyph glyph-name="s" unicode="s" horiz-adv-x="952" 
d="M449 -25q-160 0 -277.5 83t-134.5 218l145 56q9 -95 86 -159t189 -64q87 0 141.5 43.5t54.5 113.5q0 46 -37 77.5t-124 64.5l-117 45q-228 91 -228 266q0 128 102.5 210.5t256.5 82.5q148 0 261.5 -77t133.5 -202l-147 -55q-9 86 -78.5 141.5t-169.5 57.5q-85 3 -141 -39
t-56 -111q0 -48 33.5 -77t116.5 -62l119 -47q134 -52 186.5 -110t52.5 -152q0 -133 -104.5 -218.5t-263.5 -85.5z" />
    <glyph glyph-name="t" unicode="t" horiz-adv-x="755" 
d="M426 -12q-129 0 -203.5 85t-44.5 222l117 547h-203l31 145h82q68 0 104.5 44.5t59.5 154.5l16 82h168l-59 -281h286l-32 -145h-285l-117 -545q-17 -80 18 -123t109 -43t141 23l-6 -136q-86 -30 -182 -30z" />
    <glyph glyph-name="u" unicode="u" horiz-adv-x="1155" 
d="M809 426l121 561h166l-209 -987h-168l29 137q-132 -160 -332 -160q-162 0 -248.5 111t-50.5 283l131 616h168l-127 -594q-26 -125 30 -193.5t173 -68.5q114 0 201 81t116 214z" />
    <glyph glyph-name="v" unicode="v" horiz-adv-x="1062" 
d="M485 174l496 813h172l-614 -987h-179l-239 987h174z" />
    <glyph glyph-name="w" unicode="w" horiz-adv-x="1671" 
d="M1149 174l428 813h176l-534 -987h-187l-131 784l-426 -784h-186l-160 987h174l121 -815l436 815h162z" />
    <glyph glyph-name="x" unicode="x" horiz-adv-x="1021" 
d="M897 987h186l-467 -498l281 -489h-186l-222 387l-366 -387h-186l471 492l-279 495h186l215 -393z" />
    <glyph glyph-name="y" unicode="y" horiz-adv-x="1077" 
d="M164 -410q-83 0 -150 23l52 135q58 -14 108 -14q133 0 168 143l29 113l-252 997h178l190 -788l504 788h178l-639 -995l-28 -115q-28 -129 -114 -208t-224 -79z" />
    <glyph glyph-name="z" unicode="z" horiz-adv-x="983" 
d="M174 987h819l-22 -119l-731 -716h610l-31 -152h-842l25 119l731 717h-590z" />
    <glyph glyph-name="uni00A0" unicode="&#xa0;" horiz-adv-x="673" 
 />
    </font>
</defs>
</svg>
