<svg xmlns="http://www.w3.org/2000/svg">
<defs>
<font id="GramatikaTrial-MediumItalic" horiz-adv-x="1216" >
  <font-face 
    font-family="Gramatika Trial Medium"
    font-weight="500"
    font-style="italic"
    font-stretch="normal"
    units-per-em="2048"
    panose-1="0 0 6 0 0 0 0 0 0 0"
    ascent="1597"
    descent="-451"
    x-height="1001"
    cap-height="1434"
    bbox="-317 -434 2421 1464"
    underline-thickness="151"
    underline-position="-396"
    slope="-12"
    unicode-range="U+000D-00A0"
  />
<missing-glyph horiz-adv-x="1597" 
d="M844 1464q153 0 292 -59t239 -159t159 -238t59 -291t-59 -291.5t-159 -238.5t-239 -159t-292 -59q-203 0 -374.5 100t-271.5 272t-100 376q0 152 59 290.5t159 238.5t238 159t290 59zM721 1343q-32 -22 -62 -57q-29 -33 -53 -80q-12 -20 -39 -76h240v252q-35 -7 -86 -39z
M883 1382v-252h241q-27 56 -39 76q-24 47 -53 80t-63 57q-51 32 -86 39zM471 1274q-49 -35 -98 -84q-13 -12 -56 -60h164q55 132 127 213q-4 -1 -11 -4t-11 -4q-63 -26 -115 -61zM1221 1274q-52 35 -115 61q-4 1 -11.5 4t-11.5 4q72 -81 127 -213h162q-47 52 -55 60
q-43 46 -96 84zM457 1051h-193q-22 -35 -37 -74q-43 -104 -49 -221h234q6 166 45 295zM807 756v295h-268q-13 -33 -19 -62q-27 -111 -33 -233h320zM1171 989q-7 34 -18 62h-270v-295h321q-6 122 -33 233zM1280 756h231q-6 117 -49 221q-15 39 -37 74h-190q39 -129 45 -295z
M264 383h193q-39 129 -45 297h-234q6 -120 49 -223q15 -39 37 -74zM520 444q5 -27 19 -61h268v297h-320q6 -126 33 -236zM883 680v-297h270q12 29 18 61q27 110 33 236h-321zM1235 383h190q22 35 37 74q43 103 49 223h-231q-6 -168 -45 -297zM471 162q56 -38 115 -62
q4 -1 11 -4t11 -4q-71 80 -127 211h-164q29 -33 56 -57q49 -49 98 -84zM807 53v250h-240q23 -47 39 -74q23 -44 53 -79q32 -37 62 -58q51 -32 86 -39zM969 92q32 22 63 58q30 35 53 79q16 27 39 74h-241v-250q35 7 86 39zM1221 162q53 38 96 84q22 20 55 57h-162
q-56 -131 -127 -211q4 1 11.5 4t11.5 4q59 24 115 62z" />
    <glyph glyph-name=".notdef" horiz-adv-x="1597" 
d="M844 1464q153 0 292 -59t239 -159t159 -238t59 -291t-59 -291.5t-159 -238.5t-239 -159t-292 -59q-203 0 -374.5 100t-271.5 272t-100 376q0 152 59 290.5t159 238.5t238 159t290 59zM721 1343q-32 -22 -62 -57q-29 -33 -53 -80q-12 -20 -39 -76h240v252q-35 -7 -86 -39z
M883 1382v-252h241q-27 56 -39 76q-24 47 -53 80t-63 57q-51 32 -86 39zM471 1274q-49 -35 -98 -84q-13 -12 -56 -60h164q55 132 127 213q-4 -1 -11 -4t-11 -4q-63 -26 -115 -61zM1221 1274q-52 35 -115 61q-4 1 -11.5 4t-11.5 4q72 -81 127 -213h162q-47 52 -55 60
q-43 46 -96 84zM457 1051h-193q-22 -35 -37 -74q-43 -104 -49 -221h234q6 166 45 295zM807 756v295h-268q-13 -33 -19 -62q-27 -111 -33 -233h320zM1171 989q-7 34 -18 62h-270v-295h321q-6 122 -33 233zM1280 756h231q-6 117 -49 221q-15 39 -37 74h-190q39 -129 45 -295z
M264 383h193q-39 129 -45 297h-234q6 -120 49 -223q15 -39 37 -74zM520 444q5 -27 19 -61h268v297h-320q6 -126 33 -236zM883 680v-297h270q12 29 18 61q27 110 33 236h-321zM1235 383h190q22 35 37 74q43 103 49 223h-231q-6 -168 -45 -297zM471 162q56 -38 115 -62
q4 -1 11 -4t11 -4q-71 80 -127 211h-164q29 -33 56 -57q49 -49 98 -84zM807 53v250h-240q23 -47 39 -74q23 -44 53 -79q32 -37 62 -58q51 -32 86 -39zM969 92q32 22 63 58q30 35 53 79q16 27 39 74h-241v-250q35 7 86 39zM1221 162q53 38 96 84q22 20 55 57h-162
q-56 -131 -127 -211q4 1 11.5 4t11.5 4q59 24 115 62z" />
    <glyph glyph-name=".null" horiz-adv-x="0" 
 />
    <glyph glyph-name="nonmarkingreturn" horiz-adv-x="682" 
 />
    <glyph glyph-name="CR" unicode="&#xd;" horiz-adv-x="1146" 
 />
    <glyph glyph-name="space" unicode=" " horiz-adv-x="360" 
 />
    <glyph glyph-name="exclam" unicode="!" horiz-adv-x="643" 
d="M420 442h-225l206 992h226zM227 -12q-57 0 -95 37.5t-38 93.5q0 63 49 112.5t115 49.5q56 0 93.5 -38t37.5 -93q0 -65 -48 -113.5t-114 -48.5z" />
    <glyph glyph-name="ampersand" unicode="&#x26;" horiz-adv-x="1413" 
d="M586 -25q-67 0 -134 13t-134.5 43t-118.5 74t-83 112.5t-32 151.5q0 329 389 460q-70 129 -70 238q0 45 13.5 95t45.5 102.5t78 94.5t117 68.5t156 26.5q104 0 190.5 -38t140.5 -115t54 -181q0 -160 -106.5 -254.5t-315.5 -148.5l228 -348q87 108 120 239h195
q-24 -115 -84.5 -221.5t-126.5 -177.5l137 -209h-239l-66 98q-166 -123 -354 -123zM686 862q154 54 221.5 107t67.5 143q0 72 -44 117t-116 45q-81 0 -135.5 -57t-54.5 -150q0 -15 1.5 -30.5t3 -27t7 -28t7 -23t9.5 -25t10 -22.5t12 -25.5t11 -23.5zM588 154q135 0 248 104
l-275 418q-120 -51 -179.5 -116.5t-59.5 -170.5q0 -103 75 -169t191 -66z" />
    <glyph glyph-name="comma" unicode="," horiz-adv-x="608" 
d="M117 -246l-82 90q109 81 129 158q-37 14 -59.5 45.5t-22.5 73.5q0 63 49.5 111.5t114.5 48.5q56 0 94.5 -38t38.5 -96q0 -78 -66.5 -181t-195.5 -212z" />
    <glyph glyph-name="hyphen" unicode="-" horiz-adv-x="901" 
d="M739 446h-598l39 197h600z" />
    <glyph glyph-name="period" unicode="." horiz-adv-x="661" 
d="M238 -12q-57 0 -94.5 37.5t-37.5 93.5q0 63 49 111.5t113 48.5q58 0 95.5 -38t37.5 -94q0 -63 -48.5 -111t-114.5 -48z" />
    <glyph glyph-name="zero" unicode="0" horiz-adv-x="1374" 
d="M657 -23q-235 0 -372.5 161.5t-137.5 447.5q0 130 25 254t79 236t131 196.5t187.5 134t241.5 49.5q234 0 372 -161t138 -447q0 -130 -25 -254t-79 -236.5t-131 -197t-187.5 -134t-241.5 -49.5zM680 182q86 0 156.5 42t115.5 108.5t76 153.5t44 172.5t13 170.5
q0 199 -79 310.5t-218 111.5q-86 0 -156.5 -42t-116 -108.5t-77 -153.5t-44.5 -173.5t-13 -171.5q0 -198 79.5 -309t219.5 -111z" />
    <glyph glyph-name="one" unicode="1" horiz-adv-x="753" 
d="M467 0h-231l243 1155q-140 -27 -307 -27l43 197q192 0 354 109h201z" />
    <glyph glyph-name="two" unicode="2" horiz-adv-x="1257" 
d="M1063 0h-979l12 113q17 159 121.5 287.5t337.5 281.5q11 7 32 20q169 108 231 164q112 100 112 205q0 81 -60 131.5t-165 50.5q-109 0 -194 -62t-118 -173l-198 45q46 178 192.5 285.5t347.5 107.5q192 0 312 -97.5t120 -250.5q0 -74 -25 -141.5t-64 -118t-98 -101
t-115 -89t-126 -83.5q-17 -11 -26 -16q-46 -30 -62.5 -41t-58.5 -41t-61 -47t-51 -47.5t-48 -55.5t-32 -58.5t-23 -67.5h706z" />
    <glyph glyph-name="three" unicode="3" horiz-adv-x="1214" 
d="M254 1434h913l-16 -162l-430 -330q178 -13 288.5 -130t110.5 -288q0 -153 -77.5 -279.5t-209.5 -198t-290 -71.5q-207 0 -333.5 119t-129.5 316l211 43q5 -125 79 -198t195 -73q135 0 228.5 93t93.5 233q0 116 -71.5 190t-186.5 74q-126 0 -223 -74l-33 -22l-99 131
l551 434h-589z" />
    <glyph glyph-name="four" unicode="4" 
d="M866 0h-231l63 297h-675l18 188l860 949h268l-198 -938h196l-41 -199h-196zM872 1122l-591 -626h458z" />
    <glyph glyph-name="five" unicode="5" horiz-adv-x="1193" 
d="M1133 1434l-21 -193h-643l-90 -377q121 80 268 80q200 0 328.5 -119t128.5 -303q0 -152 -78.5 -278.5t-211 -197.5t-288.5 -71q-207 0 -333.5 119t-129.5 316l213 43q3 -124 77 -197.5t196 -73.5q135 0 229 93t94 233q0 116 -72.5 190t-187.5 74q-157 0 -288 -115
l-172 37l176 740h805z" />
    <glyph glyph-name="six" unicode="6" horiz-adv-x="1193" 
d="M672 969q194 0 322 -127t128 -316q0 -153 -77.5 -279.5t-211 -199t-294.5 -72.5q-214 0 -345 123t-131 318q0 135 65.5 266.5t215.5 296.5l412 455h270l-424 -469q46 4 70 4zM561 174q138 0 233 96t95 240q0 117 -73.5 190.5t-190.5 73.5q-137 0 -232.5 -97t-95.5 -243
q0 -116 73 -188t191 -72z" />
    <glyph glyph-name="seven" unicode="7" horiz-adv-x="1050" 
d="M526 0h-235q59 348 213 661t395 572h-692l20 201h977l-16 -160q-264 -266 -432.5 -589t-229.5 -685z" />
    <glyph glyph-name="eight" unicode="8" horiz-adv-x="1214" 
d="M545 -25q-211 0 -342 115t-131 297q0 135 73.5 241.5t200.5 162.5q-127 88 -127 245q0 119 63.5 216t174 151.5t243.5 54.5q180 0 292 -96t112 -246q0 -102 -49.5 -187t-136.5 -138q94 -46 145 -127t51 -185q0 -140 -76.5 -256t-207 -182t-285.5 -66zM639 868
q105 0 174.5 61.5t69.5 157.5q0 78 -55 125.5t-146 47.5q-106 0 -175 -62t-69 -158q0 -77 55.5 -124.5t145.5 -47.5zM565 174q134 0 226 81t92 208q0 102 -73 164.5t-189 62.5q-133 0 -224.5 -80t-91.5 -207q0 -103 72.5 -166t187.5 -63z" />
    <glyph glyph-name="nine" unicode="9" horiz-adv-x="1189" 
d="M745 1458q213 0 344.5 -123t131.5 -317q0 -135 -65.5 -266.5t-215.5 -296.5l-412 -455h-270l424 469q-46 -4 -70 -4q-195 0 -322.5 126.5t-127.5 315.5q0 153 77 279.5t210.5 199t295.5 72.5zM659 659q137 0 232.5 97t95.5 243q0 116 -73 188.5t-191 72.5
q-138 0 -234 -96.5t-96 -239.5q0 -117 74.5 -191t191.5 -74z" />
    <glyph glyph-name="question" unicode="?" horiz-adv-x="1099" 
d="M608 442h-205l78 379h58q161 0 263.5 74t102.5 190q0 76 -56 118t-151 42q-105 0 -188.5 -55.5t-130.5 -155.5l-195 74q70 166 223.5 258t333.5 92q202 0 309.5 -95.5t92.5 -250.5q-13 -163 -144 -277.5t-344 -154.5zM438 -12q-57 0 -95 37.5t-38 93.5q0 63 49 111.5
t115 48.5q57 0 94 -38t37 -94q0 -63 -49 -111t-113 -48z" />
    <glyph glyph-name="at" unicode="@" horiz-adv-x="1966" 
d="M918 -381q-175 0 -324 56t-253.5 155.5t-163 243t-58.5 313.5q0 142 42 282.5t126 266t200 221.5t275 152.5t340 56.5q223 0 393.5 -89t265 -255.5t94.5 -386.5q0 -130 -32.5 -246t-91.5 -205t-149 -141.5t-198 -52.5t-173.5 61.5t-65.5 179.5q-63 -86 -148.5 -128
t-175.5 -42q-128 0 -213.5 89.5t-85.5 242.5q0 78 23 159.5t67 154.5t102.5 130.5t135.5 91.5t160 34q194 0 250 -175l36 154h160l-147 -600q-25 -99 2.5 -163t109.5 -64q56 0 102.5 22.5t78 61.5t55.5 88t37 106.5t19.5 112t6.5 108.5q0 150 -48 270t-133.5 197
t-199.5 117.5t-249 40.5q-158 0 -294.5 -48t-234 -130t-167.5 -189.5t-104 -227t-34 -241.5q0 -298 185.5 -477.5t494.5 -179.5q138 0 277 43t227 109l61 -107q-108 -78 -268.5 -125t-314.5 -47zM877 203q88 0 163.5 58.5t117.5 152t42 196.5t-48.5 158t-135.5 55
q-75 0 -138.5 -38t-103.5 -98t-62 -129.5t-22 -137.5q0 -101 50.5 -159t136.5 -58z" />
    <glyph glyph-name="A" unicode="A" horiz-adv-x="1490" 
d="M813 1434h260l285 -1434h-246l-63 336h-664l-205 -336h-258zM893 1169l-377 -614h494z" />
    <glyph glyph-name="B" unicode="B" horiz-adv-x="1400" 
d="M698 0h-612l301 1434h610q169 0 270 -95.5t101 -244.5q0 -124 -66 -221t-190 -140q158 -98 158 -274q0 -212 -158.5 -335.5t-413.5 -123.5zM578 1231l-80 -385h366q125 0 195.5 55.5t70.5 163.5q0 77 -50.5 121.5t-149.5 44.5h-352zM457 657l-97 -454h361q143 0 229 66.5
t86 187.5q0 87 -59.5 141.5t-161.5 54.5z" />
    <glyph glyph-name="C" unicode="C" horiz-adv-x="1568" 
d="M788 -25q-290 0 -471.5 181.5t-181.5 470.5q0 59 11.5 128t40 150.5t70 158t107 149t146.5 126.5t193 86.5t241 32.5q231 0 394.5 -109.5t209.5 -291.5l-205 -113q-33 133 -147 214t-274 81q-104 0 -195 -35.5t-154.5 -95t-109.5 -136t-68 -158.5t-22 -163
q0 -202 122.5 -329t317.5 -127q158 0 287.5 80.5t193.5 213.5l185 -112q-86 -182 -273 -292t-418 -110z" />
    <glyph glyph-name="D" unicode="D" horiz-adv-x="1533" 
d="M582 0h-496l301 1434h494q143 0 258.5 -46t190.5 -126.5t115 -189.5t40 -236q0 -260 -115 -450.5t-318 -288t-470 -97.5zM578 1227l-216 -1018h267q284 0 452 163.5t168 438.5q0 183 -108 299.5t-299 116.5h-264z" />
    <glyph glyph-name="E" unicode="E" horiz-adv-x="1265" 
d="M1049 0h-965l303 1434h952l-41 -207h-720l-89 -406h695l-43 -207h-697l-86 -407h732z" />
    <glyph glyph-name="F" unicode="F" 
d="M315 0h-231l303 1434h952l-41 -207h-720l-91 -420h680l-45 -207h-680z" />
    <glyph glyph-name="G" unicode="G" horiz-adv-x="1654" 
d="M678 498l22 204h865l-148 -702h-207l33 160q-185 -185 -444 -185q-296 0 -480 181.5t-184 470.5q0 59 11.5 127.5t39.5 150t69.5 158t107 149t146.5 127t193.5 87t241.5 32.5q231 0 394.5 -109.5t209.5 -291.5l-205 -113q-33 133 -147 214t-274 81q-130 0 -237.5 -54.5
t-173.5 -141t-102 -188.5t-36 -204q0 -204 123 -330t327 -126q164 0 295 81.5t191 221.5h-631z" />
    <glyph glyph-name="H" unicode="H" horiz-adv-x="1517" 
d="M315 0h-231l303 1434h231l-126 -607h675l127 607h232l-303 -1434h-232l129 608h-676z" />
    <glyph glyph-name="I" unicode="I" horiz-adv-x="610" 
d="M315 0h-231l303 1434h231z" />
    <glyph glyph-name="J" unicode="J" horiz-adv-x="1089" 
d="M39 446l242 39l-19 -84q-20 -94 24.5 -154.5t133.5 -60.5q91 0 159 61.5t91 170.5l217 1016h231l-215 -1014q-45 -214 -173 -329.5t-339 -115.5q-197 0 -300 119.5t-62 306.5z" />
    <glyph glyph-name="K" unicode="K" horiz-adv-x="1374" 
d="M315 0h-231l303 1434h231l-141 -676l758 676h285l-682 -619l405 -815h-274l-336 643l-219 -180z" />
    <glyph glyph-name="L" unicode="L" horiz-adv-x="1196" 
d="M1055 0h-971l303 1434h231l-260 -1227h740z" />
    <glyph glyph-name="M" unicode="M" horiz-adv-x="1906" 
d="M913 315l711 1119h291l-303 -1434h-221l213 1020l-656 -1020h-203l-223 1022l-217 -1022h-221l303 1434h287z" />
    <glyph glyph-name="N" unicode="N" horiz-adv-x="1576" 
d="M1133 401l219 1033h233l-303 -1434h-217l-526 1034l-222 -1034h-233l303 1434h217z" />
    <glyph glyph-name="O" unicode="O" horiz-adv-x="1662" 
d="M801 -25q-189 0 -340 83.5t-235.5 233t-84.5 337.5q0 181 65 337t175.5 263t260 168t314.5 61q141 0 263.5 -49t209.5 -134.5t137 -206.5t50 -261q0 -181 -65 -337.5t-175.5 -264.5t-260 -169t-314.5 -61zM823 195q114 0 215.5 41.5t176.5 116t119 185.5t44 244
q0 203 -124 330t-322 127q-113 0 -214.5 -41t-177 -115.5t-119.5 -185t-44 -242.5q0 -201 125.5 -330.5t320.5 -129.5z" />
    <glyph glyph-name="P" unicode="P" horiz-adv-x="1333" 
d="M319 0h-233l301 1434h518q109 0 197 -33.5t143.5 -91t85 -132t29.5 -159.5q0 -165 -81 -286t-217.5 -182t-311.5 -61h-330zM578 1229l-115 -535h332q158 0 243.5 81.5t85.5 228.5q0 97 -66 161t-194 64h-286z" />
    <glyph glyph-name="Q" unicode="Q" horiz-adv-x="1748" 
d="M1544 -23l-166 -151l-209 235q-174 -86 -368 -86q-189 0 -340 83.5t-235.5 233t-84.5 337.5q0 181 65 337t175.5 263t260 168t314.5 61q142 0 264.5 -49t209.5 -134.5t136.5 -206.5t49.5 -261q0 -189 -69.5 -348t-192.5 -271zM825 195q99 0 189 38l-254 285l164 150
l282 -316q81 75 127.5 186.5t46.5 243.5q0 203 -124 330t-322 127q-114 0 -215.5 -41t-176.5 -115.5t-119 -185t-44 -242.5q0 -201 125 -330.5t321 -129.5z" />
    <glyph glyph-name="R" unicode="R" horiz-adv-x="1388" 
d="M1364 1034q0 -134 -65 -249t-197 -179q61 -46 78 -107t12 -149l-25 -350h-221l19 358q5 81 -32.5 124.5t-131.5 43.5h-371l-111 -526h-235l303 1434h547q100 0 182.5 -32t136 -87t82.5 -127t29 -154zM473 735h342q146 0 228.5 75.5t82.5 201.5q0 93 -60 154t-173 61h-313
z" />
    <glyph glyph-name="S" unicode="S" horiz-adv-x="1226" 
d="M606 -25q-218 0 -372 123t-173 310l213 79q9 -130 107.5 -214.5t239.5 -84.5q114 0 187 59.5t73 151.5q0 64 -45.5 106t-141.5 85l-186 84q-143 63 -212 143t-69 203q0 120 66.5 221t181 159t250.5 58q194 0 335.5 -104.5t160.5 -261.5l-213 -86q-10 102 -95 169.5
t-202 67.5q-106 0 -175 -58t-69 -149q0 -115 174 -190l178 -78q159 -70 230 -152.5t71 -203.5q0 -120 -68 -220.5t-186.5 -158.5t-259.5 -58z" />
    <glyph glyph-name="T" unicode="T" horiz-adv-x="1159" 
d="M590 0h-232l260 1221h-428l46 213h1083l-43 -213h-426z" />
    <glyph glyph-name="U" unicode="U" horiz-adv-x="1427" 
d="M676 -25q-182 0 -308 80.5t-174.5 224t-9.5 326.5l174 828h234l-180 -854q-34 -164 45 -273.5t235 -109.5q123 0 219 87t127 228l193 922h233l-198 -947q-49 -233 -210.5 -372.5t-379.5 -139.5z" />
    <glyph glyph-name="V" unicode="V" horiz-adv-x="1470" 
d="M684 295l696 1139h262l-888 -1434h-246l-281 1434h246z" />
    <glyph glyph-name="W" unicode="W" horiz-adv-x="2260" 
d="M1591 336l572 1098h258l-754 -1434h-268l-135 1124l-611 -1124h-266l-149 1434h254l96 -1112l614 1112h252z" />
    <glyph glyph-name="X" unicode="X" horiz-adv-x="1392" 
d="M1282 1434h279l-680 -736l356 -698h-262l-273 524l-499 -524h-279l680 723l-364 711h262l280 -535z" />
    <glyph glyph-name="Y" unicode="Y" horiz-adv-x="1382" 
d="M731 725l565 709h267l-752 -928l-106 -506h-232l107 506l-363 928h250z" />
    <glyph glyph-name="Z" unicode="Z" horiz-adv-x="1284" 
d="M291 1434h1108l-33 -158l-1018 -1063h799l-43 -213h-1143l33 158l1026 1063h-772z" />
    <glyph glyph-name="a" unicode="a" horiz-adv-x="1294" 
d="M1010 844l32 157h228l-211 -1001h-228l19 82q-135 -107 -313 -107q-200 0 -329.5 126t-129.5 323q0 117 42 226t115 192.5t178.5 133.5t225.5 50q121 0 219.5 -47t151.5 -135zM592 178q100 0 180.5 53t123 135t42.5 173q0 124 -79.5 201t-209.5 77q-147 0 -245.5 -109.5
t-98.5 -254.5q0 -119 80 -197t207 -78z" />
    <glyph glyph-name="b" unicode="b" horiz-adv-x="1314" 
d="M776 1026q210 0 336.5 -123.5t126.5 -324.5q0 -166 -72 -304t-201.5 -218.5t-289.5 -80.5q-121 0 -218 48t-151 133l-33 -156h-227l303 1434h225l-106 -516q126 108 307 108zM666 184q147 0 246.5 103.5t99.5 261.5q0 122 -78.5 199t-204.5 77q-137 0 -234.5 -97
t-111.5 -232q-15 -131 66.5 -221.5t216.5 -90.5z" />
    <glyph glyph-name="c" unicode="c" horiz-adv-x="1148" 
d="M557 -25q-213 0 -349 130t-136 335q0 123 48 232t129 186.5t191 122.5t230 45q161 0 277.5 -78t150.5 -209l-195 -106q-19 86 -89.5 137t-166.5 51q-146 0 -247 -103.5t-101 -256.5q0 -123 78.5 -202t204.5 -79q97 0 177 51t118 138l170 -107q-61 -131 -194.5 -209
t-295.5 -78z" />
    <glyph glyph-name="d" unicode="d" horiz-adv-x="1312" 
d="M1006 842l124 592h226l-301 -1434h-226l17 82q-131 -107 -307 -107q-65 0 -129 16t-125 51.5t-107.5 87.5t-75 130t-28.5 172q0 111 39.5 217t110 190.5t178.5 135.5t235 51q113 0 214 -46.5t155 -137.5zM586 176q102 0 183.5 55.5t123 137.5t41.5 170q0 122 -79 201
t-206 79q-78 0 -144.5 -31.5t-110.5 -82.5t-68.5 -114.5t-24.5 -129.5q0 -124 80 -204.5t205 -80.5z" />
    <glyph glyph-name="e" unicode="e" horiz-adv-x="1177" 
d="M555 -25q-211 0 -347 132.5t-136 341.5q0 84 26 167.5t77.5 157t121 130t163 89.5t197.5 33q202 0 325.5 -117t123.5 -313q0 -49 -19 -156h-788q-3 -114 77.5 -193t201.5 -79q94 0 172 46.5t114 121.5l172 -100q-60 -119 -191 -190t-290 -71zM326 618h567q0 94 -71 155
t-183 61q-109 0 -193.5 -57.5t-119.5 -158.5z" />
    <glyph glyph-name="f" unicode="f" horiz-adv-x="823" 
d="M360 0h-225l172 809h-227l41 192h223q-22 48 -22 115q0 142 126.5 242t311.5 100q142 0 262 -47l-70 -178q-91 37 -188 37q-101 0 -161 -49t-60 -125q0 -55 30 -95h342l-38 -192h-345z" />
    <glyph glyph-name="g" unicode="g" horiz-adv-x="1320" 
d="M1040 1001h228l-181 -854q9 -43 9 -90q0 -218 -152 -354.5t-387 -136.5q-191 0 -330.5 81.5t-169.5 223.5l189 82q17 -92 102 -142.5t213 -50.5q140 0 224.5 77t84.5 214q0 27 -6 62q-147 -138 -344 -138q-201 0 -323.5 126t-122.5 327q0 157 70 293.5t199 220.5t286 84
q127 0 224.5 -53.5t150.5 -149.5zM586 176q147 0 248.5 108t101.5 255q0 121 -80 199.5t-207 78.5q-100 0 -180.5 -51.5t-123 -132.5t-42.5 -172q0 -124 79 -204.5t204 -80.5z" />
    <glyph glyph-name="h" unicode="h" horiz-adv-x="1183" 
d="M780 1026q168 0 253 -106.5t50 -276.5l-135 -643h-225l123 584q23 110 -23.5 173.5t-148.5 63.5q-96 0 -176 -65.5t-103 -171.5l-123 -584h-225l303 1434h225l-116 -551q128 143 321 143z" />
    <glyph glyph-name="i" unicode="i" horiz-adv-x="528" 
d="M416 1141q-60 0 -100 39t-40 96q0 68 52 119t121 51q59 0 98 -39.5t39 -97.5q0 -67 -51 -117.5t-119 -50.5zM270 0h-225l213 1001h225z" />
    <glyph glyph-name="j" unicode="j" horiz-adv-x="528" 
d="M416 1141q-60 0 -100 38.5t-40 94.5q0 69 52 120.5t121 51.5q59 0 99 -39.5t40 -95.5q0 -69 -51.5 -119.5t-120.5 -50.5zM-145 -412q-89 0 -172 27l69 182q63 -18 115 -18q61 0 103.5 37t56.5 100l231 1085h225l-233 -1099q-30 -139 -137 -226.5t-258 -87.5z" />
    <glyph glyph-name="k" unicode="k" horiz-adv-x="1101" 
d="M272 0h-225l303 1434h225l-184 -869l527 436h256l-467 -393l288 -608h-254l-225 436l-186 -160z" />
    <glyph glyph-name="l" unicode="l" horiz-adv-x="548" 
d="M291 0h-225l284 1434h225z" />
    <glyph glyph-name="m" unicode="m" horiz-adv-x="1806" 
d="M1415 1026q162 0 244 -107t47 -276l-135 -643h-225l124 598q23 101 -23 162t-138 61q-96 0 -168 -61t-94 -162l-127 -598h-226l127 598q21 101 -25.5 162t-138.5 61q-94 0 -166 -61t-94 -162l-127 -598h-225l213 1001h225l-20 -98q123 123 303 123q110 0 185 -46
t104 -130q132 176 360 176z" />
    <glyph glyph-name="n" unicode="n" horiz-adv-x="1181" 
d="M776 1026q169 0 254.5 -106.5t50.5 -276.5l-135 -643h-225l125 586q23 109 -23 172t-149 63q-96 0 -177 -66t-104 -171l-123 -584h-225l213 1001h225l-20 -98q123 123 313 123z" />
    <glyph glyph-name="o" unicode="o" 
d="M557 -25q-206 0 -345.5 132.5t-139.5 326.5q0 161 75.5 296.5t210.5 215.5t299 80q217 0 352.5 -127.5t135.5 -333.5q0 -116 -45 -224t-122 -188.5t-187 -129t-234 -48.5zM578 182q145 0 242.5 110t97.5 257q0 121 -77.5 195.5t-201.5 74.5q-147 0 -244.5 -108.5
t-97.5 -255.5q0 -120 78.5 -196.5t202.5 -76.5z" />
    <glyph glyph-name="p" unicode="p" horiz-adv-x="1308" 
d="M774 1026q65 0 128.5 -15t125 -49.5t108 -84.5t75 -127.5t28.5 -171.5q0 -109 -39.5 -215.5t-109.5 -193.5t-178.5 -140.5t-235.5 -53.5q-121 0 -218 48t-151 133l-119 -566h-227l297 1411h225l-18 -86q129 111 309 111zM666 184q146 0 246 109.5t100 255.5
q0 122 -79 199t-206 77q-79 0 -145.5 -31.5t-110 -83t-68 -116.5t-24.5 -133q0 -120 79.5 -198.5t207.5 -78.5z" />
    <glyph glyph-name="q" unicode="q" horiz-adv-x="1310" 
d="M1004 842l32 159h228l-301 -1429l-226 4l107 506q-135 -107 -307 -107q-65 0 -128.5 15t-125 50t-108 85.5t-75 127t-28.5 169.5q0 111 40 219t110.5 193.5t178.5 138.5t234 53q119 0 217.5 -47.5t151.5 -136.5zM584 176q102 0 183.5 55.5t123 137.5t41.5 170
q0 122 -79.5 200t-205.5 78q-78 0 -145.5 -32.5t-110.5 -85t-67.5 -117t-24.5 -129.5q0 -120 79.5 -198.5t205.5 -78.5z" />
    <glyph glyph-name="s" unicode="s" horiz-adv-x="964" 
d="M455 -25q-106 0 -200 36t-158.5 106.5t-78.5 161.5l191 73q15 -87 85.5 -146t170.5 -59q70 0 115 33t45 88q0 41 -34.5 68.5t-111.5 58.5l-114 47q-228 96 -228 279q0 134 106.5 219.5t264.5 85.5q101 0 191 -33t154 -98t81 -150l-193 -75q-13 78 -75 127t-152 55
q-71 2 -116.5 -30t-45.5 -89q0 -40 30.5 -64.5t106.5 -54.5l117 -51q128 -54 182 -113.5t54 -156.5q0 -138 -110.5 -228t-276.5 -90z" />
    <glyph glyph-name="t" unicode="t" horiz-adv-x="786" 
d="M444 -12q-143 0 -224 92t-48 242l104 487h-196l41 192h82q64 0 98.5 44t56.5 153l17 82h225l-57 -279h264l-41 -192h-264l-103 -485q-15 -71 15 -109.5t96 -38.5q70 0 137 23l-6 -179q-98 -32 -197 -32z" />
    <glyph glyph-name="u" unicode="u" horiz-adv-x="1181" 
d="M791 436l120 565h226l-213 -1001h-226l27 125q-129 -148 -322 -148q-158 0 -247 115t-52 291l132 618h225l-123 -585q-24 -111 23.5 -172.5t150.5 -61.5q100 0 177.5 69t101.5 185z" />
    <glyph glyph-name="v" unicode="v" horiz-adv-x="1087" 
d="M500 236l458 765h232l-619 -1001h-241l-219 1001h235z" />
    <glyph glyph-name="w" unicode="w" horiz-adv-x="1693" 
d="M1159 236l393 765h234l-533 -1001h-252l-102 731l-391 -731h-252l-135 1001h235l88 -768l402 768h215z" />
    <glyph glyph-name="x" unicode="x" horiz-adv-x="1046" 
d="M879 1001h249l-462 -505l264 -496h-248l-186 358l-332 -358h-248l465 500l-260 501h248l182 -368z" />
    <glyph glyph-name="y" unicode="y" horiz-adv-x="1099" 
d="M156 -410q-89 0 -172 27l67 178q53 -16 115 -16q126 0 156 127l20 76l-233 1019h239l152 -735l465 735h239l-651 -1017l-18 -80q-27 -139 -129.5 -226.5t-249.5 -87.5z" />
    <glyph glyph-name="z" unicode="z" horiz-adv-x="1007" 
d="M182 1001h846l-33 -153l-673 -647h563l-43 -201h-875l31 154l676 647h-535z" />
    <glyph glyph-name="uni00A0" unicode="&#xa0;" horiz-adv-x="856" 
 />
    </font>
</defs>
</svg>
